<svg width="2560" height="1329" viewBox="0 0 2560 1329" fill="none" xmlns="http://www.w3.org/2000/svg">
	<g clip-path="url(#clip0_148_197)">
	<path d="M1186.33 948.851C1191.92 937.121 1199.81 927.201 1209.58 918.651C1216.37 912.711 1224.42 911.211 1232.89 911.871C1247.33 912.991 1259.24 919.261 1268.25 930.751C1270.07 933.071 1271.17 935.731 1272.17 938.491C1274.48 944.861 1276.98 951.161 1279.47 957.461C1280.87 961.021 1280.26 964.121 1277.74 966.951C1271.84 973.571 1264.02 977.131 1256.19 980.761C1243.66 986.591 1231.19 992.551 1222.1 1003.56C1219.81 1006.33 1216.99 1008.57 1213.93 1010.47C1207.24 1014.6 1200.31 1014.17 1194.18 1009.94C1183.71 1002.71 1173.61 994.941 1163.52 987.181C1148.92 975.941 1133.83 965.231 1120.11 952.991C1100.6 935.591 1084.89 915.131 1075.49 890.261C1068.88 872.771 1063.81 854.851 1059.22 836.781C1056.07 824.351 1052.93 811.881 1050.74 799.271C1049.53 792.331 1048.63 785.251 1047.79 778.211C1045.1 755.871 1054.09 737.241 1065.23 719.161C1070.12 711.231 1076.14 704.291 1084.18 699.321C1089.38 696.101 1095 695.021 1100.99 696.311C1121.58 700.751 1136.92 712.921 1149.76 729.021C1157.81 739.121 1162.35 750.901 1166.92 762.691C1170.59 772.141 1175.22 781.101 1180.34 789.811C1190.17 806.531 1200.24 823.101 1210.01 839.851C1213.87 846.461 1215.36 853.971 1216.9 861.381C1217.22 862.921 1216.91 864.591 1219.11 864.821" stroke="#131313" stroke-width="2" stroke-miterlimit="10" stroke-linecap="round" stroke-linejoin="round"/>
	<path d="M1126.41 670.01C1120.44 673.71 1113.59 674.921 1107.01 676.921C1083.29 684.151 1063.76 697.071 1051.45 719.171C1044.27 732.081 1039.58 745.88 1036.52 760.47C1032.49 779.72 1028.75 799.03 1024.65 818.26C1018.9 845.19 1012.75 872.05 1004.71 898.39C999.4 915.8 992.95 932.801 985.18 949.371C976.05 968.821 967.85 988.75 960.19 1008.83C956.35 1018.88 952.76 1029.17 950.57 1039.8C949.32 1042.82 948.08 1042.83 945.76 1042.82C930.32 1042.79 914.87 1042.79 899.43 1042.8C894.97 1042.8 890.51 1042.58 886.08 1042.13L882.17 1041.73C879.68 1041.48 877.17 1041.35 874.67 1041.35C607.54 1041.64 495.52 1040.7 226.93 1041.8C141.15 1042.15 55.3402 1041.84 -30.4498 1041.87C-45.9998 1041.88 -60.8498 1039.46 -76.8998 1040.64C-87.5398 1041.43 -98.7798 1041.12 -109.76 1041.3" stroke="#131313" stroke-width="2" stroke-miterlimit="10" stroke-linecap="round" stroke-linejoin="round"/>
	<path d="M1295.19 858.781C1301.65 860.771 1307.94 863.001 1312.67 868.251C1319.23 875.551 1322.89 884.111 1324.83 893.671C1325.95 899.171 1326.93 904.401 1325.86 910.121C1325.46 912.291 1326.6 915.111 1326.57 917.831C1326.39 931.971 1323.35 945.591 1320.04 959.211C1318.8 964.291 1317.36 969.341 1317.34 974.711C1317.28 987.571 1322.78 996.771 1334.19 1002.78C1341.55 1006.66 1349.16 1008.85 1357.5 1008.78C1382.36 1008.55 1407.22 1007.97 1432.08 1007.72C1445.15 1007.59 1458.25 1007.54 1471.31 1006.93C1488.7 1006.11 1506.09 1006.5 1523.48 1006.12C1543.02 1005.7 1562.6 1006 1582.1 1005.05C1593.9 1004.48 1605.69 1004.94 1617.47 1004.15C1627.92 1003.45 1638.45 1004.3 1648.93 1003.59C1650.51 1003.48 1652.1 1003.44 1654.1 1003.35C1654.1 997.851 1654.14 992.531 1654.08 987.211C1654.06 985.371 1653.23 984.071 1651.09 984.191C1650.23 984.231 1649.37 984.201 1648.5 984.201C1559.26 984.201 1470.01 984.211 1380.77 984.181C1374.71 984.181 1368.59 984.891 1362.66 982.911" stroke="#131313" stroke-width="2" stroke-miterlimit="10" stroke-linecap="round" stroke-linejoin="round"/>
	<path d="M1336.8 571.321C1340.07 581.381 1339.67 591.351 1336.88 601.511C1333.94 612.191 1329.71 621.961 1321.81 630.031C1319.6 632.291 1318.47 635.541 1317.68 638.951C1315.79 647.091 1316.44 655.391 1315.29 663.561C1314.57 668.691 1312.24 671.011 1307.05 670.861C1305.61 670.821 1304.13 670.761 1302.75 670.411C1299.67 669.621 1297.87 670.151 1296.09 673.361C1293.95 677.211 1289.16 678.641 1285.9 681.621C1283.19 684.091 1280.58 686.741 1276.44 686.891C1274.68 686.951 1274.5 688.991 1273.89 690.291C1273.4 691.341 1273.37 692.601 1272.97 693.711C1270.85 699.621 1265.9 701.621 1260.04 699.361C1251.23 695.961 1244.96 689.421 1240.4 681.761C1234.31 671.511 1229.24 660.651 1224.13 649.821C1219.05 639.041 1220.73 628.581 1224.44 618.361C1227.62 609.581 1232.31 601.351 1236.34 592.871" stroke="#131313" stroke-width="2" stroke-miterlimit="10" stroke-linecap="round" stroke-linejoin="round"/>
	<path d="M1140.2 742.851C1143.51 749.601 1147.07 756.241 1150.05 763.141C1153.52 771.181 1157.51 778.951 1161.24 786.861C1164.36 793.481 1165.55 800.771 1166.93 807.941C1169.72 822.381 1174.43 836.041 1185.13 846.641C1189.59 851.061 1192.03 856.431 1194.44 861.851C1197.49 868.741 1200.55 875.441 1206.09 880.851C1209.19 883.881 1212.34 887.181 1211.45 892.431C1211.07 894.661 1213.33 894.941 1215.22 895.011C1219.6 895.191 1223.92 894.811 1228.15 893.691C1238.82 890.861 1249.32 887.541 1259.21 882.521C1260.21 882.011 1261.03 882.001 1260.57 880.321C1259.13 875.041 1261.75 870.761 1265.32 867.501C1271.42 861.921 1279 859.351 1287.23 858.841C1288.21 858.781 1289.24 859.371 1290.25 859.651" stroke="#131313" stroke-width="2" stroke-miterlimit="10" stroke-linecap="round" stroke-linejoin="round"/>
	<path d="M1327.31 901.01C1339.23 881.71 1355.39 866.011 1370.87 849.741C1376.28 844.051 1382.12 839.131 1389.75 836.181C1396.07 833.731 1401.85 829.801 1408.79 829.061C1420.05 827.861 1431.4 825.171 1442.41 830.341C1449.04 833.451 1455.64 836.651 1462.25 839.811" stroke="#131313" stroke-width="2" stroke-miterlimit="10" stroke-linecap="round" stroke-linejoin="round"/>
	<path d="M1129.43 670.01C1134.76 675.96 1139.68 682.15 1143.29 689.37C1146.11 695 1146.67 701.13 1147.89 707.09C1150.78 721.27 1158.55 732.74 1167.36 743.71C1169.91 746.88 1171.93 750.61 1176.85 750.63C1182.86 750.65 1187.62 747.83 1191.91 744.1C1194.82 741.57 1197.4 738.681 1200.14 735.951C1202.06 734.031 1203.4 731.681 1203.52 729.051C1203.74 724.211 1205.82 719.711 1205.82 714.831C1205.82 713.261 1206.29 711.34 1208.77 711.81" stroke="#131313" stroke-width="2" stroke-miterlimit="10" stroke-linecap="round" stroke-linejoin="round"/>
	<path d="M1407.07 904.03C1409.06 904.47 1411.24 902.23 1413.11 904.46C1413.22 906.83 1411.63 908.271 1410.07 909.611C1403.85 914.971 1403.55 916.38 1407.56 923.52C1409.6 922.96 1410.5 921.8 1411.07 919.57C1412.08 915.62 1413.72 915.001 1417.49 916.111C1415.16 921.051 1412.34 925.841 1412.65 931.601C1412.67 932.021 1412.48 932.531 1412.23 932.881C1408.49 938.161 1411.45 942.731 1414.05 947.061C1415.95 950.231 1417.54 953.371 1418.35 957.001C1418.83 959.151 1418.68 960.591 1417.04 962.241C1413.86 965.421 1413.58 969.32 1415.27 973.39C1416.94 977.43 1420.51 978.19 1424.32 978.57C1433.49 979.49 1435.6 973 1433.73 966.08C1432.91 963.06 1431.34 960.24 1431.22 957.01" stroke="#131313" stroke-width="2" stroke-miterlimit="10" stroke-linecap="round" stroke-linejoin="round"/>
	<path d="M1147.1 522.191C1146.97 520.621 1148.16 520.241 1149.26 520.061C1164.53 517.511 1174.8 508.001 1183.34 495.921C1189.8 486.781 1196.45 477.911 1207.42 473.401C1213.55 470.881 1219.62 470.671 1226 471.301C1236.09 472.301 1244.09 477.671 1251.81 483.481C1255.61 486.341 1258.83 489.981 1257.9 495.471" stroke="#131313" stroke-width="2" stroke-miterlimit="10" stroke-linecap="round" stroke-linejoin="round"/>
	<path d="M1387.67 788.53C1389.81 784.24 1394.41 783.31 1398.07 781.3C1406.98 776.42 1415.72 771.25 1425.55 768.08C1429.87 766.68 1432.96 767.54 1436.4 769.55C1442.12 772.9 1447.21 777.29 1454.04 778.73C1458.35 779.64 1462.7 780.26 1467 781.19C1476.73 783.28 1476.19 788.43 1473.79 794.95C1471.42 801.39 1471.44 807.71 1473.59 813.91C1474.94 817.81 1476.46 821.67 1477.75 825.6C1477.96 826.25 1477.78 827.03 1477.78 827.75C1474.79 829.9 1472.23 827.98 1469.54 826.64C1470.47 823.18 1471.72 819.55 1471.74 815.68" stroke="#131313" stroke-width="2" stroke-miterlimit="10" stroke-linecap="round" stroke-linejoin="round"/>
	<path d="M1260.49 882.911C1262.85 888.201 1266.21 892.501 1270.71 896.421C1279.88 904.401 1285.06 915.051 1287.61 926.881C1288.72 932.001 1289.33 937.221 1290.25 942.381C1291.33 948.461 1295.51 950.551 1301.46 948.451C1311.63 944.861 1316.31 936.691 1319.53 927.291C1321.13 922.601 1322.38 917.801 1323.93 913.101C1324.14 912.451 1324.41 911.321 1325.6 911.361" stroke="#131313" stroke-width="2" stroke-miterlimit="10" stroke-linecap="round" stroke-linejoin="round"/>
	<path d="M1157.02 780.341C1155.24 781.921 1156.65 783.511 1157.03 785.081C1158.6 791.601 1160.55 798.061 1160.05 804.911C1159.7 809.711 1158.03 813.901 1153.52 816.001C1151.23 817.071 1148.37 816.861 1145.82 817.431C1140.73 818.561 1139.53 820.691 1142.8 825.161C1147.42 831.471 1152.81 837.111 1156.72 844.051C1163.39 855.891 1161.43 866.741 1154.37 877.271C1150.91 882.431 1147.45 887.701 1141.96 891.161C1140.44 892.121 1139.14 893.581 1138.47 895.411" stroke="#131313" stroke-width="2" stroke-miterlimit="10" stroke-linecap="round" stroke-linejoin="round"/>
	<path d="M1386.38 804.911C1391.07 804.201 1394.7 801.151 1398.89 799.321C1406.99 795.791 1414.99 791.981 1423.48 789.461C1425.64 788.821 1428.06 789.031 1430.2 788.871C1431.51 791.411 1429.99 792.741 1429.04 794.121C1424.39 800.861 1418.3 806.381 1413.07 812.631C1411.25 814.801 1409.56 817.001 1408.38 819.561C1407.87 820.671 1407.41 821.931 1408.39 822.981C1409.48 824.161 1410.42 822.921 1411.38 822.561C1416.11 820.801 1420.48 818.271 1424.71 815.621C1431.75 811.201 1439.26 808.701 1447.6 808.781" stroke="#131313" stroke-width="2" stroke-miterlimit="10" stroke-linecap="round" stroke-linejoin="round"/>
	<path d="M1604.1 962.21C1604.63 965.59 1602.97 968.73 1603.07 972.13C1603.11 973.54 1602.18 975.75 1599.79 976.02C1593.87 976.68 1588.09 976.08 1583.03 972.9C1579.5 970.68 1579.23 965.88 1580.73 961.32C1582.65 955.52 1587.08 951.54 1590.29 946.69C1592.02 944.07 1593.8 941.52 1593.81 938.08C1593.83 934.24 1593 931.03 1589.42 928.95C1587.15 929.32 1585.79 930.43 1585.99 932.9C1586.24 935.91 1585.71 938.92 1586.33 941.97C1586.74 944 1587.09 946.5 1584.26 947.55C1581.99 948.4 1577.81 946.83 1576.47 944.99C1573.41 940.8 1574.75 936.08 1575.9 932.11C1577.22 927.56 1576.48 923.44 1576.09 919.11C1575.53 912.95 1573.98 906.81 1575.26 900.59C1575.67 898.6 1575.24 895.91 1578.67 895.8C1581.61 895.7 1582.8 897.45 1583.86 899.72C1585.81 903.9 1586.55 907.96 1585.25 912.69C1582.8 921.66 1581.3 930.86 1581.71 940.24C1581.81 942.61 1580.27 944.73 1580.82 947.14" stroke="#131313" stroke-width="2" stroke-miterlimit="10" stroke-linecap="round" stroke-linejoin="round"/>
	<path d="M1254.88 496.761C1248.38 495.351 1242.02 494.901 1235.48 499.121C1240.87 503.781 1246.04 501.861 1250.96 500.511C1252.56 500.071 1254.95 499.811 1255.35 497.191C1255.54 495.941 1257.22 495.901 1257.87 495.981C1270.71 497.741 1283.68 498.811 1295.44 505.281C1302.6 509.221 1308.73 514.381 1314.26 520.121C1323.16 529.351 1331 539.471 1336.83 551.031C1338.66 554.661 1339.96 558.431 1341.02 562.281C1342.12 566.241 1340.59 568.681 1336.34 570.881" stroke="#131313" stroke-width="2" stroke-miterlimit="10" stroke-linecap="round" stroke-linejoin="round"/>
	<path d="M1096.23 643.29C1103.46 636.31 1108.21 627.56 1113.54 619.19C1119.44 609.92 1122.87 599.641 1126.33 589.391C1129.19 580.931 1134.57 575.491 1142.75 572.081C1150.38 568.901 1158.15 566.111 1166.12 564.201C1169.84 563.311 1173.9 563.3 1177.71 562.26" stroke="#131313" stroke-width="2" stroke-miterlimit="10" stroke-linecap="round" stroke-linejoin="round"/>
	<path d="M1226.86 770.861C1223.26 775.571 1222.67 781.411 1221.41 786.841C1219.34 795.731 1217.85 804.771 1217.3 813.951C1216.78 822.451 1216.75 830.921 1217.44 839.381C1218.03 846.591 1219.51 853.731 1219.8 860.941C1219.95 864.641 1219.43 868.401 1219.97 872.141" stroke="#131313" stroke-width="2" stroke-miterlimit="10" stroke-linecap="round" stroke-linejoin="round"/>
	<path d="M1261.35 880.76C1264.75 880.88 1267.04 878.501 1269.49 876.811C1276.09 872.271 1282.73 867.701 1288.85 862.561C1293.55 858.611 1298.62 855.161 1303.22 851.091C1308.42 846.491 1314.14 842.47 1319.53 838.07C1325.06 833.56 1330.63 829.081 1335.88 824.251C1341.43 819.151 1346.43 813.481 1352.73 809.201C1360.84 803.681 1369.43 799.561 1379.47 799.311C1382.08 799.251 1384.02 800.041 1385.14 802.731C1386.13 805.111 1386.02 806.351 1383.39 807.571C1376.65 810.711 1370.35 814.681 1364.43 819.191C1363.1 820.211 1361.3 821.25 1361.24 823.7C1365.58 825.07 1369.3 823.841 1373.03 821.751C1378.63 818.601 1383.27 814.78 1384.22 807.931" stroke="#131313" stroke-width="2" stroke-miterlimit="10" stroke-linecap="round" stroke-linejoin="round"/>
	<path d="M1270.84 556.231C1270.89 551.801 1267.68 548.751 1266.05 545.051C1262.05 535.981 1259.18 526.551 1256.65 517.011C1256.1 514.931 1258.19 513.591 1260.49 514.441C1264.29 515.841 1267.56 518.181 1270.83 520.481C1281.78 528.191 1292.38 536.481 1303.74 543.531C1309.5 547.111 1314.88 551.281 1320.86 554.511" stroke="#131313" stroke-width="2" stroke-miterlimit="10" stroke-linecap="round" stroke-linejoin="round"/>
	<path d="M1520.46 927.301C1517.93 929.801 1516 932.831 1512.75 934.721C1509.94 936.361 1510.31 938.551 1513.12 940.671C1515.97 942.821 1519.63 943.141 1522.63 944.781C1522.66 947.601 1520.47 948.121 1518.72 948.801C1515.23 950.151 1513.65 951.961 1514.25 956.201C1514.89 960.691 1514.28 965.381 1513.95 969.961C1513.67 973.861 1514.79 976.151 1518.31 976.351C1523.21 976.631 1528.17 976.711 1532.97 975.161C1535.61 974.301 1536.98 973.061 1536.05 969.951C1535.17 967.021 1534.55 963.961 1534.34 960.911C1534.14 958.031 1534.13 955.181 1535.42 952.241C1537.23 948.121 1538.26 943.581 1535.12 939.371" stroke="#131313" stroke-width="2" stroke-miterlimit="10" stroke-linecap="round" stroke-linejoin="round"/>
	<path d="M1209.18 712.68C1213.07 722.71 1217.02 732.71 1221.64 742.44C1223.88 747.16 1227.54 751.06 1229.05 756.2C1231.37 764.1 1233.1 772.22 1233.18 780.35C1233.45 807.13 1239.39 832.83 1246.64 858.37C1248.02 863.23 1249.98 867.94 1250.57 873.01" stroke="#131313" stroke-width="2" stroke-miterlimit="10" stroke-linecap="round" stroke-linejoin="round"/>
	<path d="M1150.12 884.64C1152.48 885.85 1154.4 883.931 1156.58 883.691C1164.29 882.841 1171.27 885.33 1178.12 888.15C1183.81 890.5 1189.16 893.591 1192.81 898.861C1197.53 905.671 1197.33 913.2 1195.79 920.83C1194.9 925.24 1193.7 929.591 1192.01 933.791C1191.68 934.611 1190.87 935.77 1191.94 936.78" stroke="#131313" stroke-width="2" stroke-miterlimit="10" stroke-linecap="round" stroke-linejoin="round"/>
	<path d="M1201.85 599.76C1203.38 605.74 1204.44 611.88 1208.27 617.03C1209.04 618.07 1209.76 619 1211.22 619.89C1214.32 615.83 1214.98 611.41 1213.9 606.66C1213.01 602.75 1211.8 598.92 1210.93 595.01C1209.82 590.05 1213.13 584.31 1217.81 582.98C1218.99 582.65 1220.26 583.05 1221.23 583.82C1223.01 585.24 1222.47 587.52 1221.97 588.92C1220.69 592.47 1217.53 594 1213.94 595.06C1201.82 598.64 1189.75 602.37 1177.73 606.28C1174.71 607.26 1171.89 608.96 1169.1 610.55C1163.79 613.58 1161.36 618.68 1160.06 624.32C1157.56 635.18 1154.18 645.61 1147.09 654.48" stroke="#131313" stroke-width="2" stroke-miterlimit="10" stroke-linecap="round" stroke-linejoin="round"/>
	<path d="M1276.44 513.571C1278.02 511.591 1279.76 513.211 1281.16 513.651C1305.11 521.151 1320.45 538.191 1331.57 559.711C1333.34 563.131 1335.66 566.401 1335.93 570.461" stroke="#131313" stroke-width="2" stroke-miterlimit="10" stroke-linecap="round" stroke-linejoin="round"/>
	<path d="M1145.81 656.221C1140.71 661.511 1134.82 665.781 1128.59 669.701C1126.32 669.191 1125.66 667.031 1124.26 665.711C1126.38 662.021 1129.46 659.161 1132.46 656.231C1138.25 650.581 1140.04 650.421 1146.23 655.821C1160.4 668.191 1172.35 682.251 1180.9 699.241C1184.82 707.021 1189.15 714.731 1194.43 721.811C1195.37 723.071 1195.92 724.191 1197.55 724.321" stroke="#131313" stroke-width="2" stroke-miterlimit="10" stroke-linecap="round" stroke-linejoin="round"/>
	<path d="M1379.05 793.7C1383.64 789.33 1389.99 789.44 1395.41 787.19C1402.61 784.2 1409.96 781.74 1417.37 779.32C1427.89 775.88 1437.74 777.52 1447.57 781.27C1449.2 781.89 1451.39 781.76 1452.36 783.83C1451.21 784.67 1450.05 785.52 1448.89 786.37" stroke="#131313" stroke-width="2" stroke-miterlimit="10" stroke-linecap="round" stroke-linejoin="round"/>
	<path d="M1564 926.441C1564.44 936.171 1562.98 945.461 1558.01 954.051C1556.46 956.721 1557.86 959.381 1560.99 960.491C1566.43 962.411 1571.6 961.071 1576.47 958.681C1578.63 957.621 1579.73 955.301 1579.99 952.741C1580.15 951.151 1580.54 949.581 1580.83 948.001" stroke="#131313" stroke-width="2" stroke-miterlimit="10" stroke-linecap="round" stroke-linejoin="round"/>
	<path d="M1373.44 929.46C1369.8 931 1365.97 930.07 1362.23 930.32C1359.79 930.49 1357.3 929.91 1354.65 930.83C1353.96 937.84 1354.74 944.86 1355.77 951.87C1356.81 958.93 1357.21 966.09 1359.21 972.99" stroke="#131313" stroke-width="2" stroke-miterlimit="10" stroke-linecap="round" stroke-linejoin="round"/>
	<path d="M1194.53 498.911C1194.14 500.381 1193.17 501.531 1192.43 502.821C1189.95 507.111 1187.39 511.421 1184.79 515.561C1180.59 522.241 1174.63 527.671 1167.88 532.221C1162.47 535.861 1156.48 537.611 1150.61 539.991C1143.26 542.971 1136.44 540.981 1129.43 539.421" stroke="#131313" stroke-width="2" stroke-miterlimit="10" stroke-linecap="round" stroke-linejoin="round"/>
	<path d="M1547.19 910.931C1546.86 912.511 1545.98 913.781 1547.06 915.741C1548.94 919.141 1549.95 923.001 1548.04 926.871C1544.51 934.001 1547.29 940.981 1548.51 947.991C1548.89 950.181 1549.85 952.271 1550.15 954.471C1550.52 957.231 1549.95 959.171 1546.35 959.791C1542.47 960.461 1538.49 960.311 1534.68 961.361" stroke="#131313" stroke-width="2" stroke-miterlimit="10" stroke-linecap="round" stroke-linejoin="round"/>
	<path d="M1436.82 956.611C1433.38 956.111 1429.91 957.141 1426.42 955.421C1421.39 952.941 1418.72 949.621 1418.72 944.111C1418.72 940.471 1418.64 936.901 1419.87 933.291C1420.72 930.791 1422.29 930.971 1423.87 931.251C1426.45 931.711 1429.79 936.171 1429.9 938.941C1429.99 941.241 1429.62 943.501 1431.58 945.471C1432.9 946.801 1432.74 948.701 1432.13 950.601C1431.56 952.381 1431.49 954.321 1431.21 956.181" stroke="#131313" stroke-width="2" stroke-miterlimit="10" stroke-linecap="round" stroke-linejoin="round"/>
	<path d="M1449.32 788.101C1450.86 789.511 1452.75 788.811 1454.49 788.951C1456.66 789.131 1458.77 788.971 1460.99 789.721C1466.53 791.591 1467.4 792.561 1466.12 798.011C1462.67 812.631 1449.16 819.621 1437.25 816.531C1436.64 816.371 1436.08 816.001 1435.51 815.721C1436.67 812.391 1440.97 812.991 1442.42 810.081" stroke="#131313" stroke-width="2" stroke-miterlimit="10" stroke-linecap="round" stroke-linejoin="round"/>
	<path d="M1202.72 572.611C1202.29 571.791 1201.7 571.281 1202.22 569.991C1207.88 556.021 1212.62 541.671 1219.56 528.221C1219.98 527.411 1220.64 526.741 1221.35 525.801C1223.56 527.461 1223.4 530.001 1223.79 532.111C1226.01 544.241 1230.95 555.051 1238.96 564.411C1243.06 569.201 1248.51 571.861 1254.48 573.421C1257.42 574.191 1260.08 571.721 1263.09 572.181" stroke="#131313" stroke-width="2" stroke-miterlimit="10" stroke-linecap="round" stroke-linejoin="round"/>
	<path d="M1157.88 597.61C1152.57 595.45 1148.13 591.46 1142.53 589.94C1139.61 610.39 1127.73 624.13 1111.31 634.65C1108.1 636.71 1105.26 639.65 1100.97 639.41" stroke="#131313" stroke-width="2" stroke-miterlimit="10" stroke-linecap="round" stroke-linejoin="round"/>
	<path d="M1234.19 511.841C1233.05 521.301 1231.31 530.751 1233.35 540.281C1234.62 546.201 1237.26 551.471 1241.05 556.261C1245.72 562.171 1250.96 567.281 1257.88 570.501C1258.48 570.781 1259.37 571.341 1259.2 572.391" stroke="#131313" stroke-width="2" stroke-miterlimit="10" stroke-linecap="round" stroke-linejoin="round"/>
	<path d="M1608.41 944.111C1611.62 946.651 1613.36 949.88 1614.11 954.01C1615.08 959.36 1613.44 962.101 1607.98 962.151C1605.1 962.181 1602.15 961.951 1599.35 960.931C1595.55 959.551 1593.68 956.811 1594.66 953.171C1595.91 948.491 1597.43 943.701 1600.38 939.931C1602.25 937.541 1602.27 935.331 1601.39 933.391C1598.9 927.831 1597.97 922.121 1598.01 916.101C1598.04 911.961 1599.4 908.631 1602.63 906.041C1609.24 912.051 1608.64 927.341 1601.71 933.771" stroke="#131313" stroke-width="2" stroke-miterlimit="10" stroke-linecap="round" stroke-linejoin="round"/>
	<path d="M1239.36 682.94C1233.35 686.4 1226.76 688.54 1220.37 691.07C1209.25 695.47 1201.83 703.14 1199.42 714.86C1198.54 719.12 1196.85 723.67 1198.84 728.19" stroke="#131313" stroke-width="2" stroke-miterlimit="10" stroke-linecap="round" stroke-linejoin="round"/>
	<path d="M1222.12 632.091C1224.83 638.051 1229.39 642.621 1234.28 646.641C1238.93 650.471 1243.07 654.551 1246.32 659.641C1248.31 662.761 1249.69 666.141 1250.45 669.611C1251.13 672.731 1249.85 675.901 1247.5 678.141C1245.8 679.771 1243.93 681.411 1241.52 682.081" stroke="#131313" stroke-width="2" stroke-miterlimit="10" stroke-linecap="round" stroke-linejoin="round"/>
	<path d="M1196.25 542.441C1196.82 542.441 1197.63 542.691 1197.94 542.401C1205.62 535.321 1211.32 526.891 1214.76 517.001C1214.94 516.491 1214.78 515.861 1214.78 515.041C1212.14 514.491 1209.9 515.161 1207.87 516.991C1200.81 523.361 1198.11 531.781 1195.67 540.671C1191.24 556.831 1189.04 573.951 1178.08 587.641C1174.53 592.071 1170.39 596.031 1166.46 600.151C1166.11 600.511 1165.31 600.661 1164.77 600.581C1160.75 599.991 1158.32 602.531 1155.69 604.891C1151.4 608.741 1148.17 613.481 1144.38 617.741C1137.63 625.331 1131.19 633.381 1122.13 638.621C1120.37 639.641 1119.21 641.701 1117.77 643.281" stroke="#131313" stroke-width="2" stroke-miterlimit="10" stroke-linecap="round" stroke-linejoin="round"/>
	<path d="M1194.96 588.56C1196.4 585.4 1197.96 582.29 1199.24 579.07C1201.68 572.95 1206.73 569.23 1211.83 565.81C1216.86 562.44 1220.75 563.54 1224.27 568.3C1229.42 575.26 1233.66 582.84 1239.31 589.46C1243.74 594.65 1248.7 595.8 1254.47 592.04C1260.16 588.32 1264.84 583.43 1269.93 579.03C1277.3 572.66 1285.77 569.63 1295.4 569.13C1306.4 568.56 1317.25 570.13 1328.17 570.86C1330.89 571.04 1333.63 570.89 1336.36 570.89" stroke="#131313" stroke-width="2" stroke-miterlimit="10" stroke-linecap="round" stroke-linejoin="round"/>
	<path d="M1492.86 927.731C1490.72 925.331 1488.43 923.151 1485.1 922.571C1482.69 922.141 1480.81 922.441 1480.77 925.581C1480.73 928.261 1480.98 931.051 1482.18 933.291C1485.85 940.151 1484.52 945.821 1479.58 951.511C1475.58 956.111 1475.81 960.331 1478.13 964.841C1481.49 971.371 1486.59 970.731 1495.02 968.701C1498.94 967.751 1500.56 963.691 1504.07 962.221" stroke="#131313" stroke-width="2" stroke-miterlimit="10" stroke-linecap="round" stroke-linejoin="round"/>
	<path d="M1376.03 922.99C1375.64 926.75 1374.7 930.52 1372.9 933.7C1368.58 941.35 1370.03 948.41 1376.28 955.61C1373.49 959.17 1373.86 963.51 1373.85 967.81C1373.85 970.08 1374.87 971.72 1376.89 972.52C1384.05 975.35 1391.26 976.07 1398.9 973.97C1403.58 972.68 1405.73 969.72 1407.03 965.64C1408.22 961.9 1408.82 958.49 1406.87 954.33C1404.73 949.75 1406.57 944.64 1409.21 940.22" stroke="#131313" stroke-width="2" stroke-miterlimit="10" stroke-linecap="round" stroke-linejoin="round"/>
	<path d="M1392.41 927.731C1390.77 925.861 1388.57 925.961 1386.37 925.991C1385.39 926.001 1384.56 926.001 1383.75 926.831C1382.21 928.391 1380.37 937.551 1381.66 939.341C1385.92 945.241 1384.46 951.371 1382.45 957.451C1380.82 962.391 1378.28 967.081 1379.04 972.551" stroke="#131313" stroke-width="2" stroke-miterlimit="10" stroke-linecap="round" stroke-linejoin="round"/>
	<path d="M1234.19 518.74C1237.98 522.16 1239.16 527.19 1241.78 531.35C1249.09 542.92 1259.31 550.69 1271.24 556.72C1272.66 557.44 1274.35 558.19 1274.71 560.12" stroke="#131313" stroke-width="2" stroke-miterlimit="10" stroke-linecap="round" stroke-linejoin="round"/>
	<path d="M1452.34 937.221C1449.9 938.471 1447.49 936.821 1445 937.161C1441.2 937.691 1440.36 939.131 1441.94 942.411C1443.29 945.201 1445.72 947.001 1448.09 948.301C1456.47 952.891 1457.55 960.401 1457 968.671C1456.93 969.681 1456.4 970.871 1454.5 970.931C1449.56 971.101 1444.79 969.64 1439.83 969.82C1437.98 969.89 1436.68 967.931 1436.81 965.651C1437.06 961.231 1435.91 956.55 1440.2 953.07C1441.56 951.97 1440.5 949.701 1440.7 947.991" stroke="#131313" stroke-width="2" stroke-miterlimit="10" stroke-linecap="round" stroke-linejoin="round"/>
	<path d="M1545.89 913.51C1540.53 914.52 1536.26 912.6 1534.7 908.33C1533.83 905.95 1533.87 903.461 1535.58 901.471C1537.57 899.151 1540.41 898.341 1543.28 898.941C1545.73 899.451 1546.38 901.641 1546.33 904.031C1546.29 906.261 1545.99 908.581 1547.62 910.491C1547.68 910.561 1547.93 910.551 1548.03 910.491C1548.2 910.391 1548.32 910.21 1548.47 910.07" stroke="#131313" stroke-width="2" stroke-miterlimit="10" stroke-linecap="round" stroke-linejoin="round"/>
	<path d="M1133.74 521.32C1138.84 522.53 1144.13 521.72 1149.28 522.97C1155.62 524.52 1161.75 522.82 1167.81 520.9C1173.78 519 1179.29 516.37 1183.83 511.91C1183.96 511.78 1185.19 510.7 1185.91 511.83" stroke="#131313" stroke-width="2" stroke-miterlimit="10" stroke-linecap="round" stroke-linejoin="round"/>
	<path d="M1495.02 898.861C1492.55 898.911 1490.11 898.811 1487.67 899.661C1484.9 900.631 1483.57 902.961 1484.67 905.751C1486.86 911.331 1492 914.801 1498.03 914.801C1500.2 914.801 1502.36 914.801 1504.2 914.801C1506.08 917.561 1503.4 918.881 1503.13 920.821C1502.61 924.581 1503.97 928.021 1504.48 931.611C1505.23 936.921 1505.51 942.131 1502.83 947.161C1501.58 949.501 1500.39 952.061 1500.62 954.881C1501.09 960.541 1504.53 962.901 1510.52 961.781" stroke="#131313" stroke-width="2" stroke-miterlimit="10" stroke-linecap="round" stroke-linejoin="round"/>
	<path d="M1192.8 546.751C1189.57 546.721 1187.36 549.121 1184.66 550.311C1176.9 553.711 1168.8 555.831 1160.46 556.031C1155.89 556.141 1151.27 555.731 1146.67 556.231" stroke="#131313" stroke-width="2" stroke-miterlimit="10" stroke-linecap="round" stroke-linejoin="round"/>
	<path d="M1275.15 512.71C1285.21 522.19 1295.29 531.65 1305.3 541.18C1306.51 542.33 1308.42 543.2 1307.91 545.46" stroke="#131313" stroke-width="2" stroke-miterlimit="10" stroke-linecap="round" stroke-linejoin="round"/>
	<path d="M1166.93 600.621C1170.45 602.931 1174.51 603.131 1178.08 601.771C1183.2 599.811 1188.51 598.531 1193.71 596.921C1196.59 596.031 1198.27 593.651 1200.98 592.861" stroke="#131313" stroke-width="2" stroke-miterlimit="10" stroke-linecap="round" stroke-linejoin="round"/>
	<path d="M1170.38 564.851C1169.43 567.731 1166.42 569.001 1165.15 571.721C1163.41 575.461 1162.19 579.271 1162.21 583.381C1162.23 588.221 1161.15 592.791 1159.17 597.171" stroke="#131313" stroke-width="2" stroke-miterlimit="10" stroke-linecap="round" stroke-linejoin="round"/>
	<path d="M1548.91 909.201C1550.37 908.701 1549.62 907.101 1550.56 906.111C1554.47 901.961 1559.34 902.9 1561.46 908.32C1562.26 910.37 1561.72 911.081 1559.72 911.851C1555 913.661 1553.61 915.971 1554.52 919.541C1555.68 924.111 1559.24 926.28 1564.44 925.57" stroke="#131313" stroke-width="2" stroke-miterlimit="10" stroke-linecap="round" stroke-linejoin="round"/>
	<path d="M1147.1 612.69C1143.06 612.9 1140.86 616.19 1138.11 618.37C1132.09 623.13 1126.83 628.67 1122.45 635.05C1121.59 636.3 1121.84 637.38 1121.67 638.55" stroke="#131313" stroke-width="2" stroke-miterlimit="10" stroke-linecap="round" stroke-linejoin="round"/>
	<path d="M1469.58 827.321C1467.01 832.861 1463.43 837.901 1461.41 843.711C1459.76 848.461 1461.65 852.651 1464.04 856.591C1464.68 857.641 1466.16 858.191 1467.73 859.311C1462.72 863.311 1464.7 867.621 1465.3 871.711C1465.82 875.211 1468.97 875.321 1471.29 875.041C1476.69 874.391 1482.08 873.231 1485.71 868.281C1483.67 865.451 1485.35 860.951 1480.99 859.101C1484.7 853.461 1481.2 849.451 1477.77 845.421" stroke="#131313" stroke-width="2" stroke-miterlimit="10" stroke-linecap="round" stroke-linejoin="round"/>
	<path d="M1472.6 899.72C1473.6 900.89 1471.7 901.66 1472.17 902.74C1475.32 909.93 1473.49 917.1 1472.21 924.3C1471.94 925.83 1472.17 927.45 1472.17 929.03" stroke="#131313" stroke-width="2" stroke-miterlimit="10" stroke-linecap="round" stroke-linejoin="round"/>
	<path d="M1146.67 542.441C1150.93 544.071 1155.28 542.881 1159.6 543.001C1164.7 543.141 1169.12 540.211 1174.27 540.501C1175.92 540.591 1177.71 538.131 1179.43 536.841" stroke="#131313" stroke-width="2" stroke-miterlimit="10" stroke-linecap="round" stroke-linejoin="round"/>
	<path d="M1534.25 917.821C1533.94 923.201 1536.05 928.351 1535.6 933.771C1535.39 936.311 1535.18 938.571 1533.44 940.711C1530.63 944.181 1529.31 948.491 1528.28 952.751C1526.98 958.091 1528.54 959.891 1533.81 960.921" stroke="#131313" stroke-width="2" stroke-miterlimit="10" stroke-linecap="round" stroke-linejoin="round"/>
	<path d="M1601.51 939.371C1605.5 946.331 1605.82 953.721 1604.1 961.351" stroke="#131313" stroke-width="2" stroke-miterlimit="10" stroke-linecap="round" stroke-linejoin="round"/>
	<path d="M1360.08 974.281C1362.43 978.961 1361.55 984.011 1361.81 988.931C1362.09 994.251 1362.38 999.561 1362.67 1004.88" stroke="#131313" stroke-width="2" stroke-miterlimit="10" stroke-linecap="round" stroke-linejoin="round"/>
	<path d="M1402.76 905.321C1401.82 900.921 1404.13 897.701 1406.15 894.371C1409.77 895.031 1409.2 897.731 1408.66 899.231C1407.65 902.041 1407.18 905.831 1402.77 905.751" stroke="#131313" stroke-width="2" stroke-miterlimit="10" stroke-linecap="round" stroke-linejoin="round"/>
	<path d="M1505.37 916.1C1507.81 914.16 1510.48 913.431 1513.57 914.361C1517.07 915.411 1518.27 917.06 1517.86 920.84C1517.63 922.99 1518.29 924.71 1520.03 926.01" stroke="#131313" stroke-width="2" stroke-miterlimit="10" stroke-linecap="round" stroke-linejoin="round"/>
	<path d="M1397.15 932.48C1396.03 941.58 1398.31 950.56 1398.01 959.63C1397.98 960.61 1398.13 961.38 1398.83 962.26C1401.32 965.37 1402.65 968.75 1400.17 972.56" stroke="#131313" stroke-width="2" stroke-miterlimit="10" stroke-linecap="round" stroke-linejoin="round"/>
	<path d="M1174.26 541.151C1170.35 547.671 1163.7 550.611 1157.44 554.061C1156.95 554.331 1156.55 554.531 1156.59 555.151" stroke="#131313" stroke-width="2" stroke-miterlimit="10" stroke-linecap="round" stroke-linejoin="round"/>
	<path d="M1226.86 766.98C1225.96 770.64 1229.24 773.2 1229.27 776.89C1229.29 780.24 1230.87 783.65 1230.81 787.24C1230.8 788.06 1231.48 789.01 1232.47 789.39" stroke="#131313" stroke-width="2" stroke-miterlimit="10" stroke-linecap="round" stroke-linejoin="round"/>
	<path d="M1453.2 929.461C1459.06 927.851 1464.96 928.641 1470.88 928.981C1473.89 929.151 1475.05 931.031 1476.05 933.341" stroke="#131313" stroke-width="2" stroke-miterlimit="10" stroke-linecap="round" stroke-linejoin="round"/>
	<path d="M1385.51 895.841C1386.95 897.991 1388.3 900.211 1389.86 902.281C1390.54 903.181 1390.45 904.201 1390.19 904.871C1388.82 908.401 1389.32 913.191 1384.22 914.371C1382.81 914.701 1382.42 916.611 1380.77 916.531" stroke="#131313" stroke-width="2" stroke-miterlimit="10" stroke-linecap="round" stroke-linejoin="round"/>
	<path d="M1380.34 890.24C1380.29 891.86 1380.87 893.85 1379.44 894.93C1375.2 898.12 1375.26 901.92 1377.33 906.19" stroke="#131313" stroke-width="2" stroke-miterlimit="10" stroke-linecap="round" stroke-linejoin="round"/>
	<path d="M1469.15 826.021C1466.36 825.421 1465.35 823.641 1465.21 820.851C1465.06 817.661 1467.32 816.161 1469.19 814.431C1470.24 813.451 1471.73 816.681 1473.03 814.381" stroke="#131313" stroke-width="2" stroke-miterlimit="10" stroke-linecap="round" stroke-linejoin="round"/>
	<path d="M1376.46 907.051C1372.24 911.851 1374.28 917.011 1375.6 922.131" stroke="#131313" stroke-width="2" stroke-miterlimit="10" stroke-linecap="round" stroke-linejoin="round"/>
	<path d="M1492.43 912.221C1493.29 911.211 1494.13 910.191 1495.02 909.211C1496.58 907.481 1499.16 907.231 1500.5 908.091C1502.41 909.321 1505.46 910.901 1503.63 914.371" stroke="#131313" stroke-width="2" stroke-miterlimit="10" stroke-linecap="round" stroke-linejoin="round"/>
	<path d="M1404.48 928.171C1403.14 934.191 1400.26 940.321 1405.78 945.831C1405.85 945.901 1406.06 945.841 1406.2 945.841" stroke="#131313" stroke-width="2" stroke-miterlimit="10" stroke-linecap="round" stroke-linejoin="round"/>
	<path d="M1401.47 907.051C1401.01 907.571 1400.52 907.841 1399.75 907.961C1395.07 908.691 1394.46 909.631 1394.97 914.381C1395.07 915.291 1394.72 916.241 1394.57 917.181" stroke="#131313" stroke-width="2" stroke-miterlimit="10" stroke-linecap="round" stroke-linejoin="round"/>
	<path d="M1463.12 841.541C1464.27 842.401 1465.38 843.331 1466.58 844.101C1467.49 844.681 1468.54 845.071 1469.39 845.481C1472.07 844.561 1472.1 842.181 1472.55 840.231C1473.32 836.891 1474.97 835.091 1478.64 835.461C1480.7 835.671 1482.06 836.751 1482.43 838.531C1482.78 840.221 1483.07 842.421 1480.77 843.201C1479.48 843.641 1478.67 845.521 1476.91 844.551" stroke="#131313" stroke-width="2" stroke-miterlimit="10" stroke-linecap="round" stroke-linejoin="round"/>
	<path d="M1494.16 915.24C1496.38 919.58 1496.42 923.44 1493.55 927.9C1492.21 930 1490.69 932.92 1490.71 935.93" stroke="#131313" stroke-width="2" stroke-miterlimit="10" stroke-linecap="round" stroke-linejoin="round"/>
	<path d="M1384.65 891.101C1385.92 894.651 1384.8 898.191 1381.63 900.581C1380.64 901.321 1379.62 902.021 1378.62 902.741" stroke="#131313" stroke-width="2" stroke-miterlimit="10" stroke-linecap="round" stroke-linejoin="round"/>
	<path d="M1387.67 907.051C1386.55 906.281 1385.43 905.501 1384.4 904.791C1379.8 906.841 1379.28 911.921 1379.9 914.711C1380.85 918.981 1378.25 920.011 1376.46 922.131" stroke="#131313" stroke-width="2" stroke-miterlimit="10" stroke-linecap="round" stroke-linejoin="round"/>
	<path d="M1479.07 897.571C1477.94 900.351 1475.63 900.741 1473.03 900.591" stroke="#131313" stroke-width="2" stroke-miterlimit="10" stroke-linecap="round" stroke-linejoin="round"/>
	<path d="M1376.03 926.871C1378.04 927.301 1380.05 927.731 1382.07 928.161" stroke="#131313" stroke-width="2" stroke-miterlimit="10" stroke-linecap="round" stroke-linejoin="round"/>
	<path d="M1379.91 920.411C1381.19 922.401 1383.39 923.68 1384.22 926.01" stroke="#131313" stroke-width="2" stroke-miterlimit="10" stroke-linecap="round" stroke-linejoin="round"/>
	<path d="M1202.29 588.99C1200.3 592.25 1202.67 595.31 1202.72 598.47" stroke="#131313" stroke-width="2" stroke-miterlimit="10" stroke-linecap="round" stroke-linejoin="round"/>
	<path d="M1207.03 705.781C1207.84 707.451 1207.58 709.211 1207.46 710.951" stroke="#131313" stroke-width="2" stroke-miterlimit="10" stroke-linecap="round" stroke-linejoin="round"/>
	<path d="M1402.33 932.04C1399.92 933.48 1398.05 932.68 1396.26 930.78C1395.51 929.99 1395.41 928.31 1393.71 928.59" stroke="#131313" stroke-width="2" stroke-miterlimit="10" stroke-linecap="round" stroke-linejoin="round"/>
	<path d="M1448.46 929.03C1448.26 927.68 1449.02 926.81 1450.14 927.39C1451.48 928.09 1453.33 928.57 1452.48 931.23C1451.84 933.23 1451.54 935.83 1453.63 937.65" stroke="#131313" stroke-width="2" stroke-miterlimit="10" stroke-linecap="round" stroke-linejoin="round"/>
	<path d="M1654.11 1003.35L1702.21 1019.41C1745.81 1033.97 1791.47 1041.4 1837.44 1041.42C2059.3 1041.52 2173.99 1040.81 2419.47 1041.82C2505.25 1042.17 2591.06 1041.86 2676.85 1041.89C2692.4 1041.9 2707.25 1039.48 2723.3 1040.66C2733.94 1041.45 2745.18 1041.14 2756.16 1041.32" stroke="#131313" stroke-width="2" stroke-miterlimit="10" stroke-linecap="round" stroke-linejoin="round"/>
	</g>
	<defs>
	<clipPath id="clip0_148_197">
	<rect width="2560" height="1329" fill="white"/>
	</clipPath>
	</defs>
	</svg>
	