<svg width="3053" height="879" viewBox="0 0 3053 879" fill="none" xmlns="http://www.w3.org/2000/svg">
	<mask id="mask0_162_751" style="mask-type:alpha" maskUnits="userSpaceOnUse" x="0" y="101" width="3052" height="578">
	<rect y="101" width="3052" height="578" fill="#FAFF00"/>
	</mask>
	<g mask="url(#mask0_162_751)">
	<path d="M1296.09 584.851C1301.68 573.121 1309.57 563.201 1319.34 554.651C1326.13 548.711 1334.18 547.211 1342.65 547.871C1357.09 548.991 1369 555.261 1378.01 566.751C1379.83 569.071 1380.93 571.731 1381.93 574.491C1384.24 580.861 1386.74 587.161 1389.23 593.461C1390.63 597.021 1390.02 600.121 1387.5 602.951C1381.6 609.571 1373.78 613.131 1365.95 616.761C1353.42 622.591 1340.95 628.551 1331.86 639.561C1329.57 642.331 1326.75 644.571 1323.69 646.471C1317 650.601 1310.07 650.171 1303.94 645.941C1293.47 638.711 1283.37 630.941 1273.28 623.181C1258.68 611.941 1243.59 601.231 1229.87 588.991C1210.36 571.591 1194.65 551.131 1185.25 526.261C1178.64 508.771 1173.57 490.851 1168.98 472.781C1165.83 460.351 1162.69 447.881 1160.5 435.271C1159.29 428.331 1158.39 421.251 1157.55 414.211C1154.86 391.871 1163.85 373.241 1174.99 355.161C1179.88 347.231 1185.9 340.291 1193.94 335.321C1199.14 332.101 1204.76 331.021 1210.75 332.311C1231.34 336.751 1246.68 348.921 1259.52 365.021C1267.57 375.121 1272.11 386.901 1276.68 398.691C1280.35 408.141 1284.98 417.101 1290.1 425.811C1299.93 442.531 1310 459.101 1319.77 475.851C1323.63 482.461 1325.12 489.971 1326.66 497.381C1326.98 498.921 1326.67 500.591 1328.87 500.821" stroke="#131313" stroke-width="2" stroke-miterlimit="10" stroke-linecap="round" stroke-linejoin="round"/>
	<path d="M1236.17 306.01C1230.2 309.71 1223.35 310.921 1216.77 312.921C1193.05 320.151 1173.52 333.071 1161.21 355.171C1154.03 368.081 1149.34 381.88 1146.28 396.47C1142.25 415.72 1138.51 435.03 1134.41 454.26C1128.66 481.19 1122.51 508.05 1114.47 534.39C1109.16 551.8 1102.71 568.801 1094.94 585.371C1085.81 604.821 1077.61 624.75 1069.95 644.83C1066.11 654.88 1062.52 665.171 1060.33 675.801C1059.08 678.821 1057.84 678.83 1055.52 678.82C1040.08 678.79 1024.63 678.791 1009.19 678.801C1004.73 678.801 1000.27 678.581 995.84 678.131L991.93 677.73C989.44 677.48 986.93 677.35 984.43 677.35C717.3 677.64 605.28 676.701 336.69 677.801C250.91 678.151 165.1 677.841 79.31 677.871C63.76 677.881 48.91 675.46 32.86 676.64C22.22 677.43 10.98 677.121 0 677.301" stroke="#131313" stroke-width="2" stroke-miterlimit="10" stroke-linecap="round" stroke-linejoin="round"/>
	<path d="M1404.95 494.781C1411.41 496.771 1417.7 499.001 1422.43 504.251C1428.99 511.551 1432.65 520.111 1434.59 529.671C1435.71 535.171 1436.69 540.401 1435.62 546.121C1435.22 548.291 1436.36 551.111 1436.33 553.831C1436.15 567.971 1433.11 581.591 1429.8 595.211C1428.56 600.291 1427.12 605.341 1427.1 610.711C1427.04 623.571 1432.54 632.771 1443.95 638.781C1451.31 642.661 1458.92 644.851 1467.26 644.781C1492.12 644.551 1516.98 643.971 1541.84 643.721C1554.91 643.591 1568.01 643.541 1581.07 642.931C1598.46 642.111 1615.85 642.501 1633.24 642.121C1652.78 641.701 1672.36 642.001 1691.86 641.051C1703.66 640.481 1715.45 640.941 1727.23 640.151C1737.68 639.451 1748.21 640.301 1758.69 639.591C1760.27 639.481 1761.86 639.441 1763.86 639.351C1763.86 633.851 1763.9 628.531 1763.84 623.211C1763.82 621.371 1762.99 620.071 1760.85 620.191C1759.99 620.231 1759.13 620.201 1758.26 620.201C1669.02 620.201 1579.77 620.211 1490.53 620.181C1484.47 620.181 1478.35 620.891 1472.42 618.911" stroke="#131313" stroke-width="2" stroke-miterlimit="10" stroke-linecap="round" stroke-linejoin="round"/>
	<path d="M1446.56 207.321C1449.83 217.381 1449.43 227.351 1446.64 237.511C1443.7 248.191 1439.47 257.961 1431.57 266.031C1429.36 268.291 1428.23 271.541 1427.44 274.951C1425.55 283.091 1426.2 291.391 1425.05 299.561C1424.33 304.691 1422 307.011 1416.81 306.861C1415.37 306.821 1413.89 306.761 1412.51 306.411C1409.43 305.621 1407.63 306.151 1405.85 309.361C1403.71 313.211 1398.92 314.641 1395.66 317.621C1392.95 320.091 1390.34 322.741 1386.2 322.891C1384.44 322.951 1384.26 324.991 1383.65 326.291C1383.16 327.341 1383.13 328.601 1382.73 329.711C1380.61 335.621 1375.66 337.621 1369.8 335.361C1360.99 331.961 1354.72 325.421 1350.16 317.761C1344.07 307.511 1339 296.651 1333.89 285.821C1328.81 275.041 1330.49 264.581 1334.2 254.361C1337.38 245.581 1342.07 237.351 1346.1 228.871" stroke="#131313" stroke-width="2" stroke-miterlimit="10" stroke-linecap="round" stroke-linejoin="round"/>
	<path d="M1249.96 378.851C1253.27 385.601 1256.83 392.241 1259.81 399.141C1263.28 407.181 1267.27 414.951 1271 422.861C1274.12 429.481 1275.31 436.771 1276.69 443.941C1279.48 458.381 1284.19 472.041 1294.89 482.641C1299.35 487.061 1301.79 492.431 1304.2 497.851C1307.25 504.741 1310.31 511.441 1315.85 516.851C1318.95 519.881 1322.1 523.181 1321.21 528.431C1320.83 530.661 1323.09 530.941 1324.98 531.011C1329.36 531.191 1333.68 530.811 1337.91 529.691C1348.58 526.861 1359.08 523.541 1368.97 518.521C1369.97 518.011 1370.79 518.001 1370.33 516.321C1368.89 511.041 1371.51 506.761 1375.08 503.501C1381.18 497.921 1388.76 495.351 1396.99 494.841C1397.97 494.781 1399 495.371 1400.01 495.651" stroke="#131313" stroke-width="2" stroke-miterlimit="10" stroke-linecap="round" stroke-linejoin="round"/>
	<path d="M1437.07 537.01C1448.99 517.71 1465.15 502.011 1480.63 485.741C1486.04 480.051 1491.88 475.131 1499.51 472.181C1505.83 469.731 1511.61 465.801 1518.55 465.061C1529.81 463.861 1541.16 461.171 1552.17 466.341C1558.8 469.451 1565.4 472.651 1572.01 475.811" stroke="#131313" stroke-width="2" stroke-miterlimit="10" stroke-linecap="round" stroke-linejoin="round"/>
	<path d="M1239.19 306.01C1244.52 311.96 1249.44 318.15 1253.05 325.37C1255.87 331 1256.43 337.13 1257.65 343.09C1260.54 357.27 1268.31 368.74 1277.12 379.71C1279.67 382.88 1281.69 386.61 1286.61 386.63C1292.62 386.65 1297.38 383.83 1301.67 380.1C1304.58 377.57 1307.16 374.681 1309.9 371.951C1311.82 370.031 1313.16 367.681 1313.28 365.051C1313.5 360.211 1315.58 355.711 1315.58 350.831C1315.58 349.261 1316.05 347.34 1318.53 347.81" stroke="#131313" stroke-width="2" stroke-miterlimit="10" stroke-linecap="round" stroke-linejoin="round"/>
	<path d="M1516.83 540.03C1518.82 540.47 1521 538.23 1522.87 540.46C1522.98 542.83 1521.39 544.271 1519.83 545.611C1513.61 550.971 1513.31 552.38 1517.32 559.52C1519.36 558.96 1520.26 557.8 1520.83 555.57C1521.84 551.62 1523.48 551.001 1527.25 552.111C1524.92 557.051 1522.1 561.841 1522.41 567.601C1522.43 568.021 1522.24 568.531 1521.99 568.881C1518.25 574.161 1521.21 578.731 1523.81 583.061C1525.71 586.231 1527.3 589.371 1528.11 593.001C1528.59 595.151 1528.44 596.591 1526.8 598.241C1523.62 601.421 1523.34 605.32 1525.03 609.39C1526.7 613.43 1530.27 614.19 1534.08 614.57C1543.25 615.49 1545.36 609 1543.49 602.08C1542.67 599.06 1541.1 596.24 1540.98 593.01" stroke="#131313" stroke-width="2" stroke-miterlimit="10" stroke-linecap="round" stroke-linejoin="round"/>
	<path d="M1256.86 158.191C1256.73 156.621 1257.92 156.241 1259.02 156.061C1274.29 153.511 1284.56 144.001 1293.1 131.921C1299.56 122.781 1306.21 113.911 1317.18 109.401C1323.31 106.881 1329.38 106.671 1335.76 107.301C1345.85 108.301 1353.85 113.671 1361.57 119.481C1365.37 122.341 1368.59 125.981 1367.66 131.471" stroke="#131313" stroke-width="2" stroke-miterlimit="10" stroke-linecap="round" stroke-linejoin="round"/>
	<path d="M1497.43 424.53C1499.57 420.24 1504.17 419.31 1507.83 417.3C1516.74 412.42 1525.48 407.25 1535.31 404.08C1539.63 402.68 1542.72 403.54 1546.16 405.55C1551.88 408.9 1556.97 413.29 1563.8 414.73C1568.11 415.64 1572.46 416.26 1576.76 417.19C1586.49 419.28 1585.95 424.43 1583.55 430.95C1581.18 437.39 1581.2 443.71 1583.35 449.91C1584.7 453.81 1586.22 457.67 1587.51 461.6C1587.72 462.25 1587.54 463.03 1587.54 463.75C1584.55 465.9 1581.99 463.98 1579.3 462.64C1580.23 459.18 1581.48 455.55 1581.5 451.68" stroke="#131313" stroke-width="2" stroke-miterlimit="10" stroke-linecap="round" stroke-linejoin="round"/>
	<path d="M1370.25 518.911C1372.61 524.201 1375.97 528.501 1380.47 532.421C1389.64 540.401 1394.82 551.051 1397.37 562.881C1398.48 568.001 1399.09 573.221 1400.01 578.381C1401.09 584.461 1405.27 586.551 1411.22 584.451C1421.39 580.861 1426.07 572.691 1429.29 563.291C1430.89 558.601 1432.14 553.801 1433.69 549.101C1433.9 548.451 1434.17 547.321 1435.36 547.361" stroke="#131313" stroke-width="2" stroke-miterlimit="10" stroke-linecap="round" stroke-linejoin="round"/>
	<path d="M1266.78 416.341C1265 417.921 1266.41 419.511 1266.79 421.081C1268.36 427.601 1270.31 434.061 1269.81 440.911C1269.46 445.711 1267.79 449.901 1263.28 452.001C1260.99 453.071 1258.13 452.861 1255.58 453.431C1250.49 454.561 1249.29 456.691 1252.56 461.161C1257.18 467.471 1262.57 473.111 1266.48 480.051C1273.15 491.891 1271.19 502.741 1264.13 513.271C1260.67 518.431 1257.21 523.701 1251.72 527.161C1250.2 528.121 1248.9 529.581 1248.23 531.411" stroke="#131313" stroke-width="2" stroke-miterlimit="10" stroke-linecap="round" stroke-linejoin="round"/>
	<path d="M1496.14 440.911C1500.83 440.201 1504.46 437.151 1508.65 435.321C1516.75 431.791 1524.75 427.981 1533.24 425.461C1535.4 424.821 1537.82 425.031 1539.96 424.871C1541.27 427.411 1539.75 428.741 1538.8 430.121C1534.15 436.861 1528.06 442.381 1522.83 448.631C1521.01 450.801 1519.32 453.001 1518.14 455.561C1517.63 456.671 1517.17 457.931 1518.15 458.981C1519.24 460.161 1520.18 458.921 1521.14 458.561C1525.87 456.801 1530.24 454.271 1534.47 451.621C1541.51 447.201 1549.02 444.701 1557.36 444.781" stroke="#131313" stroke-width="2" stroke-miterlimit="10" stroke-linecap="round" stroke-linejoin="round"/>
	<path d="M1713.86 598.21C1714.39 601.59 1712.73 604.73 1712.83 608.13C1712.87 609.54 1711.94 611.75 1709.55 612.02C1703.63 612.68 1697.85 612.08 1692.79 608.9C1689.26 606.68 1688.99 601.88 1690.49 597.32C1692.41 591.52 1696.84 587.54 1700.05 582.69C1701.78 580.07 1703.56 577.52 1703.57 574.08C1703.59 570.24 1702.76 567.03 1699.18 564.95C1696.91 565.32 1695.55 566.43 1695.75 568.9C1696 571.91 1695.47 574.92 1696.09 577.97C1696.5 580 1696.85 582.5 1694.02 583.55C1691.75 584.4 1687.57 582.83 1686.23 580.99C1683.17 576.8 1684.51 572.08 1685.66 568.11C1686.98 563.56 1686.24 559.44 1685.85 555.11C1685.29 548.95 1683.74 542.81 1685.02 536.59C1685.43 534.6 1685 531.91 1688.43 531.8C1691.37 531.7 1692.56 533.45 1693.62 535.72C1695.57 539.9 1696.31 543.96 1695.01 548.69C1692.56 557.66 1691.06 566.86 1691.47 576.24C1691.57 578.61 1690.03 580.73 1690.58 583.14" stroke="#131313" stroke-width="2" stroke-miterlimit="10" stroke-linecap="round" stroke-linejoin="round"/>
	<path d="M1364.64 132.761C1358.14 131.351 1351.78 130.901 1345.24 135.121C1350.63 139.781 1355.8 137.861 1360.72 136.511C1362.32 136.071 1364.71 135.811 1365.11 133.191C1365.3 131.941 1366.98 131.901 1367.63 131.981C1380.47 133.741 1393.44 134.811 1405.2 141.281C1412.36 145.221 1418.49 150.381 1424.02 156.121C1432.92 165.351 1440.76 175.471 1446.59 187.031C1448.42 190.661 1449.72 194.431 1450.78 198.281C1451.88 202.241 1450.35 204.681 1446.1 206.881" stroke="#131313" stroke-width="2" stroke-miterlimit="10" stroke-linecap="round" stroke-linejoin="round"/>
	<path d="M1205.99 279.29C1213.22 272.31 1217.97 263.56 1223.3 255.19C1229.2 245.92 1232.63 235.641 1236.09 225.391C1238.95 216.931 1244.33 211.491 1252.51 208.081C1260.14 204.901 1267.91 202.111 1275.88 200.201C1279.6 199.311 1283.66 199.3 1287.47 198.26" stroke="#131313" stroke-width="2" stroke-miterlimit="10" stroke-linecap="round" stroke-linejoin="round"/>
	<path d="M1336.62 406.861C1333.02 411.571 1332.43 417.411 1331.17 422.841C1329.1 431.731 1327.61 440.771 1327.06 449.951C1326.54 458.451 1326.51 466.921 1327.2 475.381C1327.79 482.591 1329.27 489.731 1329.56 496.941C1329.71 500.641 1329.19 504.401 1329.73 508.141" stroke="#131313" stroke-width="2" stroke-miterlimit="10" stroke-linecap="round" stroke-linejoin="round"/>
	<path d="M1371.11 516.76C1374.51 516.88 1376.8 514.501 1379.25 512.811C1385.85 508.271 1392.49 503.701 1398.61 498.561C1403.31 494.611 1408.38 491.161 1412.98 487.091C1418.18 482.491 1423.9 478.47 1429.29 474.07C1434.82 469.56 1440.39 465.081 1445.64 460.251C1451.19 455.151 1456.19 449.481 1462.49 445.201C1470.6 439.681 1479.19 435.561 1489.23 435.311C1491.84 435.251 1493.78 436.041 1494.9 438.731C1495.89 441.111 1495.78 442.351 1493.15 443.571C1486.41 446.711 1480.11 450.681 1474.19 455.191C1472.86 456.211 1471.06 457.25 1471 459.7C1475.34 461.07 1479.06 459.841 1482.79 457.751C1488.39 454.601 1493.03 450.78 1493.98 443.931" stroke="#131313" stroke-width="2" stroke-miterlimit="10" stroke-linecap="round" stroke-linejoin="round"/>
	<path d="M1380.6 192.231C1380.65 187.801 1377.44 184.751 1375.81 181.051C1371.81 171.981 1368.94 162.551 1366.41 153.011C1365.86 150.931 1367.95 149.591 1370.25 150.441C1374.05 151.841 1377.32 154.181 1380.59 156.481C1391.54 164.191 1402.14 172.481 1413.5 179.531C1419.26 183.111 1424.64 187.281 1430.62 190.511" stroke="#131313" stroke-width="2" stroke-miterlimit="10" stroke-linecap="round" stroke-linejoin="round"/>
	<path d="M1630.22 563.301C1627.69 565.801 1625.76 568.831 1622.51 570.721C1619.7 572.361 1620.07 574.551 1622.88 576.671C1625.73 578.821 1629.39 579.141 1632.39 580.781C1632.42 583.601 1630.23 584.121 1628.48 584.801C1624.99 586.151 1623.41 587.961 1624.01 592.201C1624.65 596.691 1624.04 601.381 1623.71 605.961C1623.43 609.861 1624.55 612.151 1628.07 612.351C1632.97 612.631 1637.93 612.711 1642.73 611.161C1645.37 610.301 1646.74 609.061 1645.81 605.951C1644.93 603.021 1644.31 599.961 1644.1 596.911C1643.9 594.031 1643.89 591.181 1645.18 588.241C1646.99 584.121 1648.02 579.581 1644.88 575.371" stroke="#131313" stroke-width="2" stroke-miterlimit="10" stroke-linecap="round" stroke-linejoin="round"/>
	<path d="M1318.94 348.68C1322.83 358.71 1326.78 368.71 1331.4 378.44C1333.64 383.16 1337.3 387.06 1338.81 392.2C1341.13 400.1 1342.86 408.22 1342.94 416.35C1343.21 443.13 1349.15 468.83 1356.4 494.37C1357.78 499.23 1359.74 503.94 1360.33 509.01" stroke="#131313" stroke-width="2" stroke-miterlimit="10" stroke-linecap="round" stroke-linejoin="round"/>
	<path d="M1259.88 520.64C1262.24 521.85 1264.16 519.931 1266.34 519.691C1274.05 518.841 1281.03 521.33 1287.88 524.15C1293.57 526.5 1298.92 529.591 1302.57 534.861C1307.29 541.671 1307.09 549.2 1305.55 556.83C1304.66 561.24 1303.46 565.591 1301.77 569.791C1301.44 570.611 1300.63 571.77 1301.7 572.78" stroke="#131313" stroke-width="2" stroke-miterlimit="10" stroke-linecap="round" stroke-linejoin="round"/>
	<path d="M1311.61 235.76C1313.14 241.74 1314.2 247.88 1318.03 253.03C1318.8 254.07 1319.52 255 1320.98 255.89C1324.08 251.83 1324.74 247.41 1323.66 242.66C1322.77 238.75 1321.56 234.92 1320.69 231.01C1319.58 226.05 1322.89 220.31 1327.57 218.98C1328.75 218.65 1330.02 219.05 1330.99 219.82C1332.77 221.24 1332.23 223.52 1331.73 224.92C1330.45 228.47 1327.29 230 1323.7 231.06C1311.58 234.64 1299.51 238.37 1287.49 242.28C1284.47 243.26 1281.65 244.96 1278.86 246.55C1273.55 249.58 1271.12 254.68 1269.82 260.32C1267.32 271.18 1263.94 281.61 1256.85 290.48" stroke="#131313" stroke-width="2" stroke-miterlimit="10" stroke-linecap="round" stroke-linejoin="round"/>
	<path d="M1386.2 149.571C1387.78 147.591 1389.52 149.211 1390.92 149.651C1414.87 157.151 1430.21 174.191 1441.33 195.711C1443.1 199.131 1445.42 202.401 1445.69 206.461" stroke="#131313" stroke-width="2" stroke-miterlimit="10" stroke-linecap="round" stroke-linejoin="round"/>
	<path d="M1255.57 292.221C1250.47 297.511 1244.58 301.781 1238.35 305.701C1236.08 305.191 1235.42 303.031 1234.02 301.711C1236.14 298.021 1239.22 295.161 1242.22 292.231C1248.01 286.581 1249.8 286.421 1255.99 291.821C1270.16 304.191 1282.11 318.251 1290.66 335.241C1294.58 343.021 1298.91 350.731 1304.19 357.811C1305.13 359.071 1305.68 360.191 1307.31 360.321" stroke="#131313" stroke-width="2" stroke-miterlimit="10" stroke-linecap="round" stroke-linejoin="round"/>
	<path d="M1488.81 429.7C1493.4 425.33 1499.75 425.44 1505.17 423.19C1512.37 420.2 1519.72 417.74 1527.13 415.32C1537.65 411.88 1547.5 413.52 1557.33 417.27C1558.96 417.89 1561.15 417.76 1562.12 419.83C1560.97 420.67 1559.81 421.52 1558.65 422.37" stroke="#131313" stroke-width="2" stroke-miterlimit="10" stroke-linecap="round" stroke-linejoin="round"/>
	<path d="M1673.76 562.441C1674.2 572.171 1672.74 581.461 1667.77 590.051C1666.22 592.721 1667.62 595.381 1670.75 596.491C1676.19 598.411 1681.36 597.071 1686.23 594.681C1688.39 593.621 1689.49 591.301 1689.75 588.741C1689.91 587.151 1690.3 585.581 1690.59 584.001" stroke="#131313" stroke-width="2" stroke-miterlimit="10" stroke-linecap="round" stroke-linejoin="round"/>
	<path d="M1483.2 565.46C1479.56 567 1475.73 566.07 1471.99 566.32C1469.55 566.49 1467.06 565.91 1464.41 566.83C1463.72 573.84 1464.5 580.86 1465.53 587.87C1466.57 594.93 1466.97 602.09 1468.97 608.99" stroke="#131313" stroke-width="2" stroke-miterlimit="10" stroke-linecap="round" stroke-linejoin="round"/>
	<path d="M1304.29 134.911C1303.9 136.381 1302.93 137.531 1302.19 138.821C1299.71 143.111 1297.15 147.421 1294.55 151.561C1290.35 158.241 1284.39 163.671 1277.64 168.221C1272.23 171.861 1266.24 173.611 1260.37 175.991C1253.02 178.971 1246.2 176.981 1239.19 175.421" stroke="#131313" stroke-width="2" stroke-miterlimit="10" stroke-linecap="round" stroke-linejoin="round"/>
	<path d="M1656.95 546.931C1656.62 548.511 1655.74 549.781 1656.82 551.741C1658.7 555.141 1659.71 559.001 1657.8 562.871C1654.27 570.001 1657.05 576.981 1658.27 583.991C1658.65 586.181 1659.61 588.271 1659.91 590.471C1660.28 593.231 1659.71 595.171 1656.11 595.791C1652.23 596.461 1648.25 596.311 1644.44 597.361" stroke="#131313" stroke-width="2" stroke-miterlimit="10" stroke-linecap="round" stroke-linejoin="round"/>
	<path d="M1546.58 592.611C1543.14 592.111 1539.67 593.141 1536.18 591.421C1531.15 588.941 1528.48 585.621 1528.48 580.111C1528.48 576.471 1528.4 572.901 1529.63 569.291C1530.48 566.791 1532.05 566.971 1533.63 567.251C1536.21 567.711 1539.55 572.171 1539.66 574.941C1539.75 577.241 1539.38 579.501 1541.34 581.471C1542.66 582.801 1542.5 584.701 1541.89 586.601C1541.32 588.381 1541.25 590.321 1540.97 592.181" stroke="#131313" stroke-width="2" stroke-miterlimit="10" stroke-linecap="round" stroke-linejoin="round"/>
	<path d="M1559.08 424.101C1560.62 425.511 1562.51 424.811 1564.25 424.951C1566.42 425.131 1568.53 424.971 1570.75 425.721C1576.29 427.591 1577.16 428.561 1575.88 434.011C1572.43 448.631 1558.92 455.621 1547.01 452.531C1546.4 452.371 1545.84 452.001 1545.27 451.721C1546.43 448.391 1550.73 448.991 1552.18 446.081" stroke="#131313" stroke-width="2" stroke-miterlimit="10" stroke-linecap="round" stroke-linejoin="round"/>
	<path d="M1312.48 208.611C1312.05 207.791 1311.46 207.281 1311.98 205.991C1317.64 192.021 1322.38 177.671 1329.32 164.221C1329.74 163.411 1330.4 162.741 1331.11 161.801C1333.32 163.461 1333.16 166.001 1333.55 168.111C1335.77 180.241 1340.71 191.051 1348.72 200.411C1352.82 205.201 1358.27 207.861 1364.24 209.421C1367.18 210.191 1369.84 207.721 1372.85 208.181" stroke="#131313" stroke-width="2" stroke-miterlimit="10" stroke-linecap="round" stroke-linejoin="round"/>
	<path d="M1267.64 233.61C1262.33 231.45 1257.89 227.46 1252.29 225.94C1249.37 246.39 1237.49 260.13 1221.07 270.65C1217.86 272.71 1215.02 275.65 1210.73 275.41" stroke="#131313" stroke-width="2" stroke-miterlimit="10" stroke-linecap="round" stroke-linejoin="round"/>
	<path d="M1343.95 147.841C1342.81 157.301 1341.07 166.751 1343.11 176.281C1344.38 182.201 1347.02 187.471 1350.81 192.261C1355.48 198.171 1360.72 203.281 1367.64 206.501C1368.24 206.781 1369.13 207.341 1368.96 208.391" stroke="#131313" stroke-width="2" stroke-miterlimit="10" stroke-linecap="round" stroke-linejoin="round"/>
	<path d="M1718.17 580.111C1721.38 582.651 1723.12 585.88 1723.87 590.01C1724.84 595.36 1723.2 598.101 1717.74 598.151C1714.86 598.181 1711.91 597.951 1709.11 596.931C1705.31 595.551 1703.44 592.811 1704.42 589.171C1705.67 584.491 1707.19 579.701 1710.14 575.931C1712.01 573.541 1712.03 571.331 1711.15 569.391C1708.66 563.831 1707.73 558.121 1707.77 552.101C1707.8 547.961 1709.16 544.631 1712.39 542.041C1719 548.051 1718.4 563.341 1711.47 569.771" stroke="#131313" stroke-width="2" stroke-miterlimit="10" stroke-linecap="round" stroke-linejoin="round"/>
	<path d="M1349.12 318.94C1343.11 322.4 1336.52 324.54 1330.13 327.07C1319.01 331.47 1311.59 339.14 1309.18 350.86C1308.3 355.12 1306.61 359.67 1308.6 364.19" stroke="#131313" stroke-width="2" stroke-miterlimit="10" stroke-linecap="round" stroke-linejoin="round"/>
	<path d="M1331.88 268.091C1334.59 274.051 1339.15 278.621 1344.04 282.641C1348.69 286.471 1352.83 290.551 1356.08 295.641C1358.07 298.761 1359.45 302.141 1360.21 305.611C1360.89 308.731 1359.61 311.901 1357.26 314.141C1355.56 315.771 1353.69 317.411 1351.28 318.081" stroke="#131313" stroke-width="2" stroke-miterlimit="10" stroke-linecap="round" stroke-linejoin="round"/>
	<path d="M1306.01 178.441C1306.58 178.441 1307.39 178.691 1307.7 178.401C1315.38 171.321 1321.08 162.891 1324.52 153.001C1324.7 152.491 1324.54 151.861 1324.54 151.041C1321.9 150.491 1319.66 151.161 1317.63 152.991C1310.57 159.361 1307.87 167.781 1305.43 176.671C1301 192.831 1298.8 209.951 1287.84 223.641C1284.29 228.071 1280.15 232.031 1276.22 236.151C1275.87 236.511 1275.07 236.661 1274.53 236.581C1270.51 235.991 1268.08 238.531 1265.45 240.891C1261.16 244.741 1257.93 249.481 1254.14 253.741C1247.39 261.331 1240.95 269.381 1231.89 274.621C1230.13 275.641 1228.97 277.701 1227.53 279.281" stroke="#131313" stroke-width="2" stroke-miterlimit="10" stroke-linecap="round" stroke-linejoin="round"/>
	<path d="M1304.72 224.56C1306.16 221.4 1307.72 218.29 1309 215.07C1311.44 208.95 1316.49 205.23 1321.59 201.81C1326.62 198.44 1330.51 199.54 1334.03 204.3C1339.18 211.26 1343.42 218.84 1349.07 225.46C1353.5 230.65 1358.46 231.8 1364.23 228.04C1369.92 224.32 1374.6 219.43 1379.69 215.03C1387.06 208.66 1395.53 205.63 1405.16 205.13C1416.16 204.56 1427.01 206.13 1437.93 206.86C1440.65 207.04 1443.39 206.89 1446.12 206.89" stroke="#131313" stroke-width="2" stroke-miterlimit="10" stroke-linecap="round" stroke-linejoin="round"/>
	<path d="M1602.62 563.731C1600.48 561.331 1598.19 559.151 1594.86 558.571C1592.45 558.141 1590.57 558.441 1590.53 561.581C1590.49 564.261 1590.74 567.051 1591.94 569.291C1595.61 576.151 1594.28 581.821 1589.34 587.511C1585.34 592.111 1585.57 596.331 1587.89 600.841C1591.25 607.371 1596.35 606.731 1604.78 604.701C1608.7 603.751 1610.32 599.691 1613.83 598.221" stroke="#131313" stroke-width="2" stroke-miterlimit="10" stroke-linecap="round" stroke-linejoin="round"/>
	<path d="M1485.79 558.99C1485.4 562.75 1484.46 566.52 1482.66 569.7C1478.34 577.35 1479.79 584.41 1486.04 591.61C1483.25 595.17 1483.62 599.51 1483.61 603.81C1483.61 606.08 1484.63 607.72 1486.65 608.52C1493.81 611.35 1501.02 612.07 1508.66 609.97C1513.34 608.68 1515.49 605.72 1516.79 601.64C1517.98 597.9 1518.58 594.49 1516.63 590.33C1514.49 585.75 1516.33 580.64 1518.97 576.22" stroke="#131313" stroke-width="2" stroke-miterlimit="10" stroke-linecap="round" stroke-linejoin="round"/>
	<path d="M1502.17 563.731C1500.53 561.861 1498.33 561.961 1496.13 561.991C1495.15 562.001 1494.32 562.001 1493.51 562.831C1491.97 564.391 1490.13 573.551 1491.42 575.341C1495.68 581.241 1494.22 587.371 1492.21 593.451C1490.58 598.391 1488.04 603.081 1488.8 608.551" stroke="#131313" stroke-width="2" stroke-miterlimit="10" stroke-linecap="round" stroke-linejoin="round"/>
	<path d="M1343.95 154.74C1347.74 158.16 1348.92 163.19 1351.54 167.35C1358.85 178.92 1369.07 186.69 1381 192.72C1382.42 193.44 1384.11 194.19 1384.47 196.12" stroke="#131313" stroke-width="2" stroke-miterlimit="10" stroke-linecap="round" stroke-linejoin="round"/>
	<path d="M1562.1 573.221C1559.66 574.471 1557.25 572.821 1554.76 573.161C1550.96 573.691 1550.12 575.131 1551.7 578.411C1553.05 581.201 1555.48 583.001 1557.85 584.301C1566.23 588.891 1567.31 596.401 1566.76 604.671C1566.69 605.681 1566.16 606.871 1564.26 606.931C1559.32 607.101 1554.55 605.64 1549.59 605.82C1547.74 605.89 1546.44 603.931 1546.57 601.651C1546.82 597.231 1545.67 592.55 1549.96 589.07C1551.32 587.97 1550.26 585.701 1550.46 583.991" stroke="#131313" stroke-width="2" stroke-miterlimit="10" stroke-linecap="round" stroke-linejoin="round"/>
	<path d="M1655.65 549.51C1650.29 550.52 1646.02 548.6 1644.46 544.33C1643.59 541.95 1643.63 539.461 1645.34 537.471C1647.33 535.151 1650.17 534.341 1653.04 534.941C1655.49 535.451 1656.14 537.641 1656.09 540.031C1656.05 542.261 1655.75 544.581 1657.38 546.491C1657.44 546.561 1657.69 546.551 1657.79 546.491C1657.96 546.391 1658.08 546.21 1658.23 546.07" stroke="#131313" stroke-width="2" stroke-miterlimit="10" stroke-linecap="round" stroke-linejoin="round"/>
	<path d="M1243.5 157.32C1248.6 158.53 1253.89 157.72 1259.04 158.97C1265.38 160.52 1271.51 158.82 1277.57 156.9C1283.54 155 1289.05 152.37 1293.59 147.91C1293.72 147.78 1294.95 146.7 1295.67 147.83" stroke="#131313" stroke-width="2" stroke-miterlimit="10" stroke-linecap="round" stroke-linejoin="round"/>
	<path d="M1604.78 534.861C1602.31 534.911 1599.87 534.811 1597.43 535.661C1594.66 536.631 1593.33 538.961 1594.43 541.751C1596.62 547.331 1601.76 550.801 1607.79 550.801C1609.96 550.801 1612.12 550.801 1613.96 550.801C1615.84 553.561 1613.16 554.881 1612.89 556.821C1612.37 560.581 1613.73 564.021 1614.24 567.611C1614.99 572.921 1615.27 578.131 1612.59 583.161C1611.34 585.501 1610.15 588.061 1610.38 590.881C1610.85 596.541 1614.29 598.901 1620.28 597.781" stroke="#131313" stroke-width="2" stroke-miterlimit="10" stroke-linecap="round" stroke-linejoin="round"/>
	<path d="M1302.56 182.751C1299.33 182.721 1297.12 185.121 1294.42 186.311C1286.66 189.711 1278.56 191.831 1270.22 192.031C1265.65 192.141 1261.03 191.731 1256.43 192.231" stroke="#131313" stroke-width="2" stroke-miterlimit="10" stroke-linecap="round" stroke-linejoin="round"/>
	<path d="M1384.91 148.71C1394.97 158.19 1405.05 167.65 1415.06 177.18C1416.27 178.33 1418.18 179.2 1417.67 181.46" stroke="#131313" stroke-width="2" stroke-miterlimit="10" stroke-linecap="round" stroke-linejoin="round"/>
	<path d="M1276.69 236.621C1280.21 238.931 1284.27 239.131 1287.84 237.771C1292.96 235.811 1298.27 234.531 1303.47 232.921C1306.35 232.031 1308.03 229.651 1310.74 228.861" stroke="#131313" stroke-width="2" stroke-miterlimit="10" stroke-linecap="round" stroke-linejoin="round"/>
	<path d="M1280.14 200.851C1279.19 203.731 1276.18 205.001 1274.91 207.721C1273.17 211.461 1271.95 215.271 1271.97 219.381C1271.99 224.221 1270.91 228.791 1268.93 233.171" stroke="#131313" stroke-width="2" stroke-miterlimit="10" stroke-linecap="round" stroke-linejoin="round"/>
	<path d="M1658.67 545.201C1660.13 544.701 1659.38 543.101 1660.32 542.111C1664.23 537.961 1669.1 538.9 1671.22 544.32C1672.02 546.37 1671.48 547.081 1669.48 547.851C1664.76 549.661 1663.37 551.971 1664.28 555.541C1665.44 560.111 1669 562.28 1674.2 561.57" stroke="#131313" stroke-width="2" stroke-miterlimit="10" stroke-linecap="round" stroke-linejoin="round"/>
	<path d="M1256.86 248.69C1252.82 248.9 1250.62 252.19 1247.87 254.37C1241.85 259.13 1236.59 264.67 1232.21 271.05C1231.35 272.3 1231.6 273.38 1231.43 274.55" stroke="#131313" stroke-width="2" stroke-miterlimit="10" stroke-linecap="round" stroke-linejoin="round"/>
	<path d="M1579.34 463.321C1576.77 468.861 1573.19 473.901 1571.17 479.711C1569.52 484.461 1571.41 488.651 1573.8 492.591C1574.44 493.641 1575.92 494.191 1577.49 495.311C1572.48 499.311 1574.46 503.621 1575.06 507.711C1575.58 511.211 1578.73 511.321 1581.05 511.041C1586.45 510.391 1591.84 509.231 1595.47 504.281C1593.43 501.451 1595.11 496.951 1590.75 495.101C1594.46 489.461 1590.96 485.451 1587.53 481.421" stroke="#131313" stroke-width="2" stroke-miterlimit="10" stroke-linecap="round" stroke-linejoin="round"/>
	<path d="M1582.36 535.72C1583.36 536.89 1581.46 537.66 1581.93 538.74C1585.08 545.93 1583.25 553.1 1581.97 560.3C1581.7 561.83 1581.93 563.45 1581.93 565.03" stroke="#131313" stroke-width="2" stroke-miterlimit="10" stroke-linecap="round" stroke-linejoin="round"/>
	<path d="M1256.43 178.441C1260.69 180.071 1265.04 178.881 1269.36 179.001C1274.46 179.141 1278.88 176.211 1284.03 176.501C1285.68 176.591 1287.47 174.131 1289.19 172.841" stroke="#131313" stroke-width="2" stroke-miterlimit="10" stroke-linecap="round" stroke-linejoin="round"/>
	<path d="M1644.01 553.821C1643.7 559.201 1645.81 564.351 1645.36 569.771C1645.15 572.311 1644.94 574.571 1643.2 576.711C1640.39 580.181 1639.07 584.491 1638.04 588.751C1636.74 594.091 1638.3 595.891 1643.57 596.921" stroke="#131313" stroke-width="2" stroke-miterlimit="10" stroke-linecap="round" stroke-linejoin="round"/>
	<path d="M1711.27 575.371C1715.26 582.331 1715.58 589.721 1713.86 597.351" stroke="#131313" stroke-width="2" stroke-miterlimit="10" stroke-linecap="round" stroke-linejoin="round"/>
	<path d="M1469.84 610.281C1472.19 614.961 1471.31 620.011 1471.57 624.931C1471.85 630.251 1472.14 635.561 1472.43 640.881" stroke="#131313" stroke-width="2" stroke-miterlimit="10" stroke-linecap="round" stroke-linejoin="round"/>
	<path d="M1512.52 541.321C1511.58 536.921 1513.89 533.701 1515.91 530.371C1519.53 531.031 1518.96 533.731 1518.42 535.231C1517.41 538.041 1516.94 541.831 1512.53 541.751" stroke="#131313" stroke-width="2" stroke-miterlimit="10" stroke-linecap="round" stroke-linejoin="round"/>
	<path d="M1615.13 552.1C1617.57 550.16 1620.24 549.431 1623.33 550.361C1626.83 551.411 1628.03 553.06 1627.62 556.84C1627.39 558.99 1628.05 560.71 1629.79 562.01" stroke="#131313" stroke-width="2" stroke-miterlimit="10" stroke-linecap="round" stroke-linejoin="round"/>
	<path d="M1506.91 568.48C1505.79 577.58 1508.07 586.56 1507.77 595.63C1507.74 596.61 1507.89 597.38 1508.59 598.26C1511.08 601.37 1512.41 604.75 1509.93 608.56" stroke="#131313" stroke-width="2" stroke-miterlimit="10" stroke-linecap="round" stroke-linejoin="round"/>
	<path d="M1284.02 177.151C1280.11 183.671 1273.46 186.611 1267.2 190.061C1266.71 190.331 1266.31 190.531 1266.35 191.151" stroke="#131313" stroke-width="2" stroke-miterlimit="10" stroke-linecap="round" stroke-linejoin="round"/>
	<path d="M1336.62 402.98C1335.72 406.64 1339 409.2 1339.03 412.89C1339.05 416.24 1340.63 419.65 1340.57 423.24C1340.56 424.06 1341.24 425.01 1342.23 425.39" stroke="#131313" stroke-width="2" stroke-miterlimit="10" stroke-linecap="round" stroke-linejoin="round"/>
	<path d="M1562.96 565.461C1568.82 563.851 1574.72 564.641 1580.64 564.981C1583.65 565.151 1584.81 567.031 1585.81 569.341" stroke="#131313" stroke-width="2" stroke-miterlimit="10" stroke-linecap="round" stroke-linejoin="round"/>
	<path d="M1495.27 531.841C1496.71 533.991 1498.06 536.211 1499.62 538.281C1500.3 539.181 1500.21 540.201 1499.95 540.871C1498.58 544.401 1499.08 549.191 1493.98 550.371C1492.57 550.701 1492.18 552.611 1490.53 552.531" stroke="#131313" stroke-width="2" stroke-miterlimit="10" stroke-linecap="round" stroke-linejoin="round"/>
	<path d="M1490.1 526.24C1490.05 527.86 1490.63 529.85 1489.2 530.93C1484.96 534.12 1485.02 537.92 1487.09 542.19" stroke="#131313" stroke-width="2" stroke-miterlimit="10" stroke-linecap="round" stroke-linejoin="round"/>
	<path d="M1578.91 462.021C1576.12 461.421 1575.11 459.641 1574.97 456.851C1574.82 453.661 1577.08 452.161 1578.95 450.431C1580 449.451 1581.49 452.681 1582.79 450.381" stroke="#131313" stroke-width="2" stroke-miterlimit="10" stroke-linecap="round" stroke-linejoin="round"/>
	<path d="M1486.22 543.051C1482 547.851 1484.04 553.011 1485.36 558.131" stroke="#131313" stroke-width="2" stroke-miterlimit="10" stroke-linecap="round" stroke-linejoin="round"/>
	<path d="M1602.19 548.221C1603.05 547.211 1603.89 546.191 1604.78 545.211C1606.34 543.481 1608.92 543.231 1610.26 544.091C1612.17 545.321 1615.22 546.901 1613.39 550.371" stroke="#131313" stroke-width="2" stroke-miterlimit="10" stroke-linecap="round" stroke-linejoin="round"/>
	<path d="M1514.24 564.171C1512.9 570.191 1510.02 576.321 1515.54 581.831C1515.61 581.901 1515.82 581.841 1515.96 581.841" stroke="#131313" stroke-width="2" stroke-miterlimit="10" stroke-linecap="round" stroke-linejoin="round"/>
	<path d="M1511.23 543.051C1510.77 543.571 1510.28 543.841 1509.51 543.961C1504.83 544.691 1504.22 545.631 1504.73 550.381C1504.83 551.291 1504.48 552.241 1504.33 553.181" stroke="#131313" stroke-width="2" stroke-miterlimit="10" stroke-linecap="round" stroke-linejoin="round"/>
	<path d="M1572.88 477.541C1574.03 478.401 1575.14 479.331 1576.34 480.101C1577.25 480.681 1578.3 481.071 1579.15 481.481C1581.83 480.561 1581.86 478.181 1582.31 476.231C1583.08 472.891 1584.73 471.091 1588.4 471.461C1590.46 471.671 1591.82 472.751 1592.19 474.531C1592.54 476.221 1592.83 478.421 1590.53 479.201C1589.24 479.641 1588.43 481.521 1586.67 480.551" stroke="#131313" stroke-width="2" stroke-miterlimit="10" stroke-linecap="round" stroke-linejoin="round"/>
	<path d="M1603.92 551.24C1606.14 555.58 1606.18 559.44 1603.31 563.9C1601.97 566 1600.45 568.92 1600.47 571.93" stroke="#131313" stroke-width="2" stroke-miterlimit="10" stroke-linecap="round" stroke-linejoin="round"/>
	<path d="M1494.41 527.101C1495.68 530.651 1494.56 534.191 1491.39 536.581C1490.4 537.321 1489.38 538.021 1488.38 538.741" stroke="#131313" stroke-width="2" stroke-miterlimit="10" stroke-linecap="round" stroke-linejoin="round"/>
	<path d="M1497.43 543.051C1496.31 542.281 1495.19 541.501 1494.16 540.791C1489.56 542.841 1489.04 547.921 1489.66 550.711C1490.61 554.981 1488.01 556.011 1486.22 558.131" stroke="#131313" stroke-width="2" stroke-miterlimit="10" stroke-linecap="round" stroke-linejoin="round"/>
	<path d="M1588.83 533.571C1587.7 536.351 1585.39 536.741 1582.79 536.591" stroke="#131313" stroke-width="2" stroke-miterlimit="10" stroke-linecap="round" stroke-linejoin="round"/>
	<path d="M1485.79 562.871C1487.8 563.301 1489.81 563.731 1491.83 564.161" stroke="#131313" stroke-width="2" stroke-miterlimit="10" stroke-linecap="round" stroke-linejoin="round"/>
	<path d="M1489.67 556.411C1490.95 558.401 1493.15 559.68 1493.98 562.01" stroke="#131313" stroke-width="2" stroke-miterlimit="10" stroke-linecap="round" stroke-linejoin="round"/>
	<path d="M1312.05 224.99C1310.06 228.25 1312.43 231.31 1312.48 234.47" stroke="#131313" stroke-width="2" stroke-miterlimit="10" stroke-linecap="round" stroke-linejoin="round"/>
	<path d="M1316.79 341.781C1317.6 343.451 1317.34 345.211 1317.22 346.951" stroke="#131313" stroke-width="2" stroke-miterlimit="10" stroke-linecap="round" stroke-linejoin="round"/>
	<path d="M1512.09 568.04C1509.68 569.48 1507.81 568.68 1506.02 566.78C1505.27 565.99 1505.17 564.31 1503.47 564.59" stroke="#131313" stroke-width="2" stroke-miterlimit="10" stroke-linecap="round" stroke-linejoin="round"/>
	<path d="M1558.22 565.03C1558.02 563.68 1558.78 562.81 1559.9 563.39C1561.24 564.09 1563.09 564.57 1562.24 567.23C1561.6 569.23 1561.3 571.83 1563.39 573.65" stroke="#131313" stroke-width="2" stroke-miterlimit="10" stroke-linecap="round" stroke-linejoin="round"/>
	<path d="M1763.87 639.351L1811.97 655.411C1855.57 669.971 1901.23 677.401 1947.2 677.421C2169.06 677.521 2283.75 676.811 2529.23 677.821C2615.01 678.171 2700.82 677.861 2786.61 677.891C2802.16 677.901 2817.01 675.481 2833.06 676.661C2843.7 677.451 2854.94 677.141 2865.92 677.321" stroke="#131313" stroke-width="2" stroke-miterlimit="10" stroke-linecap="round" stroke-linejoin="round"/>
	<path d="M4102.17 306.01C4096.2 309.71 4089.35 310.921 4082.77 312.921C4059.05 320.151 4039.52 333.071 4027.21 355.171C4020.03 368.081 4015.34 381.88 4012.28 396.47C4008.25 415.72 4004.51 435.03 4000.41 454.26C3994.66 481.19 3988.51 508.05 3980.47 534.39C3975.16 551.8 3968.71 568.801 3960.94 585.371C3951.81 604.821 3943.61 624.75 3935.95 644.83C3932.11 654.88 3928.52 665.171 3926.33 675.801C3925.08 678.821 3923.84 678.83 3921.52 678.82C3906.08 678.79 3890.63 678.791 3875.19 678.801C3870.73 678.801 3866.27 678.581 3861.84 678.131L3857.93 677.73C3855.44 677.48 3852.93 677.35 3850.43 677.35C3583.3 677.64 3471.28 676.701 3202.69 677.801C3116.91 678.151 3031.1 677.841 2945.31 677.871C2929.76 677.881 2914.91 675.46 2898.86 676.64C2888.22 677.43 2876.98 677.121 2866 677.301" stroke="#131313" stroke-width="2" stroke-miterlimit="10" stroke-linecap="round" stroke-linejoin="round"/>
	</g>
	</svg>
	