<svg width="2583" height="745" viewBox="0 0 2583 745" fill="none" xmlns="http://www.w3.org/2000/svg">
	<mask id="mask0_162_751" style="mask-type:alpha" maskUnits="userSpaceOnUse" x="0" y="86" width="2583" height="490">
	<rect x="0.289062" y="86.1572" width="2581.74" height="488.94" fill="#FAFF00"/>
	</mask>
	<g mask="url(#mask0_162_751)">
	<path d="M1096.68 495.454C1101.4 485.532 1108.08 477.14 1116.34 469.908C1122.09 464.883 1128.9 463.614 1136.06 464.172C1148.28 465.12 1158.35 470.424 1165.97 480.143C1167.51 482.106 1168.44 484.356 1169.29 486.691C1171.24 492.079 1173.36 497.408 1175.46 502.738C1176.65 505.749 1176.13 508.371 1174 510.765C1169.01 516.365 1162.4 519.377 1155.77 522.448C1145.17 527.379 1134.62 532.421 1126.93 541.734C1125 544.078 1122.61 545.973 1120.02 547.58C1114.36 551.073 1108.5 550.71 1103.32 547.131C1094.46 541.015 1085.92 534.443 1077.38 527.878C1065.03 518.37 1052.27 509.31 1040.66 498.956C1024.16 484.237 1010.87 466.93 1002.91 445.892C997.323 431.097 993.034 415.938 989.151 400.652C986.487 390.138 983.83 379.589 981.978 368.922C980.954 363.051 980.193 357.062 979.482 351.107C977.207 332.209 984.812 316.45 994.235 301.156C998.372 294.448 1003.46 288.577 1010.27 284.373C1014.66 281.649 1019.42 280.735 1024.49 281.826C1041.9 285.582 1054.88 295.877 1065.74 309.496C1072.55 318.04 1076.39 328.005 1080.26 337.978C1083.36 345.972 1087.28 353.552 1091.61 360.92C1099.92 375.063 1108.44 389.08 1116.71 403.249C1119.97 408.841 1121.23 415.194 1122.54 421.462C1122.81 422.765 1122.54 424.177 1124.4 424.372" stroke="#131313" stroke-width="2" stroke-miterlimit="10" stroke-linecap="round" stroke-linejoin="round"/>
	<path d="M1045.99 259.579C1040.94 262.709 1035.14 263.732 1029.58 265.424C1009.51 271.54 992.992 282.469 982.578 301.164C976.505 312.085 972.537 323.759 969.949 336.101C966.54 352.384 963.376 368.719 959.908 384.986C955.044 407.767 949.841 430.488 943.04 452.769C938.548 467.497 933.092 481.877 926.519 495.894C918.796 512.347 911.86 529.206 905.38 546.192C902.132 554.694 899.095 563.398 897.242 572.391C896.185 574.945 895.136 574.954 893.173 574.945C880.112 574.92 867.043 574.92 853.982 574.928C850.209 574.928 846.437 574.742 842.689 574.362L839.382 574.023C837.275 573.812 835.152 573.702 833.037 573.702C607.067 573.947 512.308 573.152 285.103 574.082C212.54 574.378 139.952 574.116 67.3807 574.142C54.2267 574.15 41.6648 572.103 28.0879 573.101C19.0873 573.769 9.57919 573.507 0.291016 573.659" stroke="#131313" stroke-width="2" stroke-miterlimit="10" stroke-linecap="round" stroke-linejoin="round"/>
	<path d="M1188.76 419.263C1194.23 420.946 1199.55 422.832 1203.55 427.273C1209.1 433.449 1212.19 440.69 1213.83 448.777C1214.78 453.429 1215.61 457.853 1214.71 462.692C1214.37 464.528 1215.33 466.913 1215.31 469.214C1215.15 481.175 1212.58 492.697 1209.78 504.218C1208.73 508.515 1207.52 512.787 1207.5 517.33C1207.45 528.208 1212.1 535.991 1221.75 541.075C1227.98 544.357 1234.42 546.209 1241.47 546.15C1262.5 545.956 1283.53 545.465 1304.56 545.253C1315.62 545.143 1326.7 545.101 1337.74 544.585C1352.46 543.892 1367.17 544.221 1381.88 543.9C1398.41 543.545 1414.97 543.799 1431.46 542.995C1441.45 542.513 1451.42 542.902 1461.38 542.234C1470.22 541.641 1479.13 542.36 1488 541.76C1489.33 541.667 1490.68 541.633 1492.37 541.557C1492.37 536.904 1492.4 532.404 1492.35 527.904C1492.34 526.347 1491.63 525.248 1489.82 525.349C1489.1 525.383 1488.37 525.357 1487.63 525.357C1412.14 525.357 1336.65 525.366 1261.16 525.341C1256.03 525.341 1250.85 525.941 1245.84 524.266" stroke="#131313" stroke-width="2" stroke-miterlimit="10" stroke-linecap="round" stroke-linejoin="round"/>
	<path d="M1223.96 176.095C1226.73 184.605 1226.39 193.039 1224.03 201.633C1221.54 210.668 1217.96 218.932 1211.28 225.759C1209.41 227.671 1208.46 230.42 1207.79 233.305C1206.19 240.19 1206.74 247.211 1205.77 254.123C1205.16 258.462 1203.19 260.425 1198.79 260.298C1197.58 260.264 1196.32 260.213 1195.16 259.917C1192.55 259.249 1191.03 259.697 1189.52 262.413C1187.71 265.669 1183.66 266.879 1180.9 269.4C1178.61 271.489 1176.4 273.731 1172.9 273.858C1171.41 273.909 1171.26 275.634 1170.74 276.734C1170.33 277.622 1170.3 278.688 1169.97 279.627C1168.17 284.626 1163.99 286.318 1159.03 284.406C1151.58 281.53 1146.27 275.998 1142.41 269.518C1137.26 260.848 1132.97 251.661 1128.65 242.5C1124.35 233.381 1125.78 224.532 1128.91 215.887C1131.6 208.46 1135.57 201.498 1138.98 194.325" stroke="#131313" stroke-width="2" stroke-miterlimit="10" stroke-linecap="round" stroke-linejoin="round"/>
	<path d="M1057.65 321.196C1060.45 326.905 1063.47 332.522 1065.99 338.359C1068.92 345.16 1072.3 351.733 1075.45 358.424C1078.09 364.024 1079.1 370.191 1080.27 376.256C1082.63 388.471 1086.61 400.027 1095.66 408.993C1099.43 412.732 1101.5 417.275 1103.54 421.86C1106.12 427.688 1108.71 433.356 1113.39 437.932C1116.01 440.495 1118.68 443.287 1117.93 447.728C1117.6 449.614 1119.52 449.851 1121.12 449.91C1124.82 450.063 1128.47 449.741 1132.05 448.794C1141.08 446.4 1149.96 443.591 1158.33 439.345C1159.17 438.913 1159.87 438.905 1159.48 437.484C1158.26 433.017 1160.48 429.397 1163.5 426.639C1168.66 421.919 1175.07 419.745 1182.03 419.313C1182.86 419.263 1183.73 419.762 1184.58 419.999" stroke="#131313" stroke-width="2" stroke-miterlimit="10" stroke-linecap="round" stroke-linejoin="round"/>
	<path d="M1215.93 454.986C1226.02 438.66 1239.69 425.379 1252.78 411.616C1257.36 406.802 1262.3 402.64 1268.75 400.145C1274.1 398.072 1278.99 394.748 1284.86 394.122C1294.38 393.107 1303.99 390.831 1313.3 395.205C1318.91 397.836 1324.49 400.543 1330.08 403.216" stroke="#131313" stroke-width="2" stroke-miterlimit="10" stroke-linecap="round" stroke-linejoin="round"/>
	<path d="M1048.54 259.579C1053.05 264.612 1057.21 269.848 1060.27 275.956C1062.65 280.718 1063.13 285.904 1064.16 290.945C1066.6 302.941 1073.18 312.643 1080.63 321.923C1082.79 324.604 1084.49 327.76 1088.66 327.777C1093.74 327.794 1097.77 325.408 1101.4 322.253C1103.86 320.113 1106.04 317.668 1108.36 315.359C1109.98 313.734 1111.12 311.747 1111.22 309.522C1111.4 305.428 1113.16 301.621 1113.16 297.493C1113.16 296.165 1113.56 294.541 1115.66 294.938" stroke="#131313" stroke-width="2" stroke-miterlimit="10" stroke-linecap="round" stroke-linejoin="round"/>
	<path d="M1283.4 457.54C1285.09 457.913 1286.93 456.018 1288.51 457.904C1288.61 459.909 1287.26 461.127 1285.94 462.261C1280.68 466.795 1280.43 467.987 1283.82 474.027C1285.54 473.554 1286.3 472.572 1286.79 470.686C1287.64 467.344 1289.03 466.82 1292.22 467.759C1290.25 471.938 1287.86 475.99 1288.12 480.862C1288.14 481.218 1287.98 481.649 1287.77 481.945C1284.6 486.412 1287.11 490.277 1289.31 493.94C1290.91 496.622 1292.26 499.278 1292.94 502.349C1293.35 504.167 1293.22 505.385 1291.84 506.781C1289.15 509.471 1288.91 512.77 1290.34 516.213C1291.75 519.631 1294.77 520.274 1297.99 520.595C1305.75 521.373 1307.54 515.883 1305.96 510.029C1305.26 507.475 1303.93 505.089 1303.83 502.357" stroke="#131313" stroke-width="2" stroke-miterlimit="10" stroke-linecap="round" stroke-linejoin="round"/>
	<path d="M1063.49 134.535C1063.38 133.207 1064.39 132.886 1065.32 132.734C1078.24 130.576 1086.92 122.532 1094.15 112.313C1099.61 104.581 1105.24 97.0782 1114.52 93.2631C1119.7 91.1314 1124.84 90.9537 1130.23 91.4866C1138.77 92.3326 1145.54 96.8751 1152.07 101.79C1155.28 104.209 1158.01 107.288 1157.22 111.932" stroke="#131313" stroke-width="2" stroke-miterlimit="10" stroke-linecap="round" stroke-linejoin="round"/>
	<path d="M1266.99 359.837C1268.8 356.208 1272.69 355.421 1275.79 353.721C1283.33 349.593 1290.72 345.22 1299.04 342.538C1302.69 341.354 1305.3 342.081 1308.21 343.781C1313.05 346.615 1317.36 350.329 1323.14 351.547C1326.78 352.317 1330.46 352.841 1334.1 353.628C1342.33 355.396 1341.87 359.752 1339.84 365.268C1337.84 370.715 1337.85 376.062 1339.67 381.306C1340.82 384.605 1342.1 387.871 1343.19 391.195C1343.37 391.745 1343.22 392.405 1343.22 393.014C1340.69 394.833 1338.52 393.208 1336.25 392.075C1337.03 389.148 1338.09 386.077 1338.11 382.804" stroke="#131313" stroke-width="2" stroke-miterlimit="10" stroke-linecap="round" stroke-linejoin="round"/>
	<path d="M1159.41 439.675C1161.4 444.149 1164.25 447.787 1168.05 451.103C1175.81 457.853 1180.19 466.862 1182.35 476.87C1183.29 481.201 1183.8 485.616 1184.58 489.981C1185.5 495.124 1189.03 496.892 1194.07 495.116C1202.67 492.079 1206.63 485.168 1209.35 477.216C1210.7 473.249 1211.76 469.189 1213.07 465.213C1213.25 464.663 1213.48 463.707 1214.49 463.741" stroke="#131313" stroke-width="2" stroke-miterlimit="10" stroke-linecap="round" stroke-linejoin="round"/>
	<path d="M1071.88 352.909C1070.38 354.245 1071.57 355.591 1071.89 356.919C1073.22 362.434 1074.87 367.899 1074.45 373.693C1074.15 377.754 1072.74 381.298 1068.92 383.074C1066.99 383.98 1064.57 383.802 1062.41 384.284C1058.1 385.24 1057.09 387.042 1059.85 390.823C1063.76 396.161 1068.32 400.932 1071.63 406.802C1077.27 416.818 1075.61 425.996 1069.64 434.904C1066.71 439.269 1063.79 443.727 1059.14 446.653C1057.86 447.466 1056.76 448.701 1056.19 450.249" stroke="#131313" stroke-width="2" stroke-miterlimit="10" stroke-linecap="round" stroke-linejoin="round"/>
	<path d="M1265.9 373.693C1269.87 373.092 1272.94 370.512 1276.48 368.964C1283.34 365.978 1290.1 362.755 1297.29 360.624C1299.11 360.082 1301.16 360.26 1302.97 360.125C1304.08 362.273 1302.79 363.398 1301.99 364.566C1298.06 370.267 1292.9 374.937 1288.48 380.224C1286.94 382.059 1285.51 383.92 1284.51 386.086C1284.08 387.025 1283.69 388.091 1284.52 388.979C1285.44 389.977 1286.24 388.928 1287.05 388.623C1291.05 387.135 1294.75 384.995 1298.33 382.753C1304.28 379.014 1310.63 376.899 1317.69 376.967" stroke="#131313" stroke-width="2" stroke-miterlimit="10" stroke-linecap="round" stroke-linejoin="round"/>
	<path d="M1450.08 506.756C1450.52 509.615 1449.12 512.271 1449.2 515.147C1449.24 516.34 1448.45 518.209 1446.43 518.438C1441.42 518.996 1436.53 518.489 1432.25 515.799C1429.27 513.921 1429.04 509.86 1430.31 506.003C1431.93 501.097 1435.68 497.73 1438.39 493.627C1439.86 491.411 1441.36 489.254 1441.37 486.344C1441.39 483.095 1440.69 480.38 1437.66 478.621C1435.74 478.934 1434.59 479.872 1434.76 481.962C1434.97 484.508 1434.52 487.054 1435.04 489.634C1435.39 491.352 1435.69 493.466 1433.29 494.355C1431.37 495.074 1427.84 493.746 1426.7 492.189C1424.11 488.645 1425.25 484.652 1426.22 481.294C1427.34 477.445 1426.71 473.96 1426.38 470.297C1425.91 465.086 1424.6 459.892 1425.68 454.63C1426.03 452.947 1425.66 450.671 1428.56 450.578C1431.05 450.494 1432.06 451.974 1432.95 453.894C1434.6 457.43 1435.23 460.865 1434.13 464.866C1432.06 472.454 1430.79 480.236 1431.14 488.171C1431.22 490.176 1429.92 491.969 1430.38 494.008" stroke="#131313" stroke-width="2" stroke-miterlimit="10" stroke-linecap="round" stroke-linejoin="round"/>
	<path d="M1154.66 113.024C1149.16 111.831 1143.78 111.45 1138.25 115.02C1142.81 118.962 1147.18 117.338 1151.35 116.196C1152.7 115.824 1154.72 115.604 1155.06 113.388C1155.22 112.33 1156.64 112.296 1157.19 112.364C1168.05 113.853 1179.03 114.758 1188.97 120.231C1195.03 123.564 1200.22 127.929 1204.89 132.784C1212.42 140.592 1219.05 149.153 1223.99 158.932C1225.53 162.002 1226.63 165.192 1227.53 168.448C1228.46 171.798 1227.17 173.862 1223.57 175.723" stroke="#131313" stroke-width="2" stroke-miterlimit="10" stroke-linecap="round" stroke-linejoin="round"/>
	<path d="M1020.46 236.976C1026.57 231.071 1030.59 223.67 1035.1 216.589C1040.09 208.748 1042.99 200.052 1045.92 191.381C1048.34 184.224 1052.89 179.623 1059.81 176.738C1066.27 174.048 1072.84 171.688 1079.58 170.072C1082.73 169.319 1086.16 169.311 1089.38 168.431" stroke="#131313" stroke-width="2" stroke-miterlimit="10" stroke-linecap="round" stroke-linejoin="round"/>
	<path d="M1130.96 344.89C1127.92 348.874 1127.42 353.814 1126.35 358.407C1124.6 365.928 1123.34 373.575 1122.87 381.34C1122.43 388.53 1122.41 395.695 1122.99 402.852C1123.49 408.951 1124.74 414.991 1124.99 421.09C1125.12 424.22 1124.68 427.4 1125.13 430.564" stroke="#131313" stroke-width="2" stroke-miterlimit="10" stroke-linecap="round" stroke-linejoin="round"/>
	<path d="M1160.14 437.856C1163.01 437.957 1164.95 435.944 1167.02 434.514C1172.61 430.674 1178.22 426.808 1183.4 422.46C1187.38 419.119 1191.66 416.2 1195.56 412.757C1199.95 408.866 1204.79 405.466 1209.35 401.744C1214.03 397.929 1218.74 394.139 1223.18 390.053C1227.88 385.739 1232.11 380.943 1237.44 377.322C1244.3 372.653 1251.56 369.167 1260.06 368.956C1262.26 368.905 1263.91 369.573 1264.85 371.849C1265.69 373.862 1265.6 374.911 1263.37 375.943C1257.67 378.599 1252.34 381.958 1247.33 385.773C1246.21 386.636 1244.69 387.515 1244.64 389.588C1248.31 390.747 1251.45 389.706 1254.61 387.938C1259.35 385.274 1263.27 382.042 1264.07 376.248" stroke="#131313" stroke-width="2" stroke-miterlimit="10" stroke-linecap="round" stroke-linejoin="round"/>
	<path d="M1168.16 163.33C1168.21 159.583 1165.49 157.003 1164.11 153.873C1160.73 146.201 1158.3 138.224 1156.16 130.154C1155.69 128.394 1157.46 127.26 1159.41 127.98C1162.62 129.164 1165.39 131.143 1168.15 133.089C1177.42 139.611 1186.38 146.624 1195.99 152.587C1200.87 155.616 1205.42 159.143 1210.48 161.875" stroke="#131313" stroke-width="2" stroke-miterlimit="10" stroke-linecap="round" stroke-linejoin="round"/>
	<path d="M1379.32 477.225C1377.18 479.34 1375.55 481.903 1372.8 483.502C1370.42 484.889 1370.74 486.741 1373.11 488.535C1375.52 490.353 1378.62 490.624 1381.16 492.011C1381.18 494.397 1379.33 494.837 1377.85 495.412C1374.9 496.554 1373.56 498.085 1374.07 501.672C1374.61 505.47 1374.09 509.437 1373.82 513.312C1373.58 516.611 1374.53 518.548 1377.5 518.717C1381.65 518.954 1385.84 519.022 1389.9 517.71C1392.14 516.983 1393.3 515.934 1392.51 513.303C1391.77 510.825 1391.24 508.236 1391.06 505.656C1390.89 503.22 1390.89 500.809 1391.98 498.322C1393.51 494.837 1394.38 490.996 1391.72 487.435" stroke="#131313" stroke-width="2" stroke-miterlimit="10" stroke-linecap="round" stroke-linejoin="round"/>
	<path d="M1116 295.674C1119.29 304.159 1122.64 312.618 1126.54 320.849C1128.44 324.841 1131.53 328.14 1132.81 332.488C1134.77 339.171 1136.24 346.04 1136.31 352.917C1136.53 375.571 1141.56 397.311 1147.69 418.916C1148.86 423.027 1150.52 427.011 1151.02 431.3" stroke="#131313" stroke-width="2" stroke-miterlimit="10" stroke-linecap="round" stroke-linejoin="round"/>
	<path d="M1066.04 441.138C1068.04 442.162 1069.67 440.537 1071.51 440.334C1078.03 439.615 1083.94 441.722 1089.73 444.107C1094.54 446.095 1099.07 448.709 1102.16 453.167C1106.15 458.928 1105.98 465.297 1104.68 471.752C1103.93 475.482 1102.91 479.162 1101.48 482.715C1101.2 483.408 1100.52 484.39 1101.42 485.244" stroke="#131313" stroke-width="2" stroke-miterlimit="10" stroke-linecap="round" stroke-linejoin="round"/>
	<path d="M1109.8 200.153C1111.1 205.212 1112 210.406 1115.24 214.762C1115.89 215.642 1116.5 216.429 1117.73 217.181C1120.35 213.747 1120.91 210.008 1120 205.99C1119.25 202.682 1118.22 199.443 1117.49 196.135C1116.55 191.939 1119.35 187.084 1123.31 185.959C1124.3 185.679 1125.38 186.018 1126.2 186.669C1127.7 187.87 1127.25 189.799 1126.82 190.983C1125.74 193.986 1123.07 195.281 1120.03 196.177C1109.78 199.206 1099.57 202.361 1089.4 205.668C1086.85 206.497 1084.46 207.936 1082.1 209.281C1077.61 211.844 1075.55 216.158 1074.45 220.929C1072.34 230.115 1069.48 238.938 1063.48 246.442" stroke="#131313" stroke-width="2" stroke-miterlimit="10" stroke-linecap="round" stroke-linejoin="round"/>
	<path d="M1172.9 127.244C1174.24 125.569 1175.71 126.939 1176.89 127.311C1197.15 133.656 1210.13 148.07 1219.54 166.274C1221.03 169.167 1223 171.934 1223.22 175.368" stroke="#131313" stroke-width="2" stroke-miterlimit="10" stroke-linecap="round" stroke-linejoin="round"/>
	<path d="M1062.4 247.914C1058.09 252.389 1053.1 256.001 1047.83 259.317C1045.91 258.885 1045.35 257.058 1044.17 255.942C1045.96 252.82 1048.57 250.401 1051.11 247.922C1056 243.143 1057.52 243.007 1062.75 247.575C1074.74 258.039 1084.85 269.933 1092.08 284.305C1095.4 290.886 1099.06 297.408 1103.53 303.397C1104.32 304.463 1104.79 305.411 1106.17 305.521" stroke="#131313" stroke-width="2" stroke-miterlimit="10" stroke-linecap="round" stroke-linejoin="round"/>
	<path d="M1259.7 364.21C1263.58 360.514 1268.96 360.607 1273.54 358.703C1279.63 356.174 1285.85 354.093 1292.12 352.046C1301.02 349.136 1309.35 350.523 1317.66 353.696C1319.04 354.22 1320.89 354.11 1321.72 355.861C1320.74 356.572 1319.76 357.291 1318.78 358.01" stroke="#131313" stroke-width="2" stroke-miterlimit="10" stroke-linecap="round" stroke-linejoin="round"/>
	<path d="M1416.15 476.497C1416.53 484.728 1415.29 492.587 1411.09 499.853C1409.77 502.112 1410.96 504.362 1413.61 505.301C1418.21 506.925 1422.58 505.792 1426.7 503.77C1428.53 502.873 1429.46 500.911 1429.68 498.745C1429.81 497.4 1430.14 496.072 1430.39 494.735" stroke="#131313" stroke-width="2" stroke-miterlimit="10" stroke-linecap="round" stroke-linejoin="round"/>
	<path d="M1254.96 479.052C1251.88 480.355 1248.64 479.568 1245.47 479.779C1243.41 479.923 1241.3 479.433 1239.06 480.211C1238.48 486.141 1239.14 492.079 1240.01 498.009C1240.89 503.981 1241.23 510.038 1242.92 515.875" stroke="#131313" stroke-width="2" stroke-miterlimit="10" stroke-linecap="round" stroke-linejoin="round"/>
	<path d="M1103.61 114.843C1103.28 116.086 1102.46 117.059 1101.84 118.15C1099.74 121.779 1097.57 125.425 1095.37 128.927C1091.82 134.578 1086.78 139.171 1081.07 143.02C1076.49 146.099 1071.42 147.58 1066.46 149.593C1060.24 152.114 1054.47 150.43 1048.54 149.111" stroke="#131313" stroke-width="2" stroke-miterlimit="10" stroke-linecap="round" stroke-linejoin="round"/>
	<path d="M1401.93 463.377C1401.65 464.714 1400.91 465.788 1401.82 467.446C1403.41 470.322 1404.27 473.587 1402.65 476.861C1399.66 482.893 1402.02 488.797 1403.05 494.727C1403.37 496.579 1404.18 498.347 1404.44 500.208C1404.75 502.543 1404.27 504.184 1401.22 504.709C1397.94 505.275 1394.57 505.149 1391.35 506.037" stroke="#131313" stroke-width="2" stroke-miterlimit="10" stroke-linecap="round" stroke-linejoin="round"/>
	<path d="M1308.57 502.019C1305.66 501.596 1302.72 502.467 1299.77 501.012C1295.52 498.914 1293.26 496.106 1293.26 491.445C1293.26 488.366 1293.19 485.346 1294.23 482.292C1294.95 480.177 1296.28 480.329 1297.62 480.566C1299.8 480.955 1302.62 484.728 1302.72 487.071C1302.79 489.017 1302.48 490.929 1304.14 492.595C1305.25 493.72 1305.12 495.328 1304.6 496.935C1304.12 498.441 1304.06 500.082 1303.82 501.655" stroke="#131313" stroke-width="2" stroke-miterlimit="10" stroke-linecap="round" stroke-linejoin="round"/>
	<path d="M1319.14 359.473C1320.45 360.666 1322.04 360.074 1323.52 360.192C1325.35 360.344 1327.14 360.209 1329.01 360.844C1333.7 362.425 1334.44 363.246 1333.35 367.856C1330.44 380.223 1319.01 386.136 1308.93 383.523C1308.42 383.387 1307.94 383.074 1307.46 382.837C1308.44 380.02 1312.08 380.528 1313.31 378.066" stroke="#131313" stroke-width="2" stroke-miterlimit="10" stroke-linecap="round" stroke-linejoin="round"/>
	<path d="M1110.54 177.187C1110.18 176.493 1109.68 176.061 1110.12 174.97C1114.91 163.153 1118.92 151.014 1124.79 139.636C1125.14 138.951 1125.7 138.384 1126.3 137.589C1128.17 138.993 1128.03 141.142 1128.36 142.927C1130.24 153.188 1134.42 162.332 1141.2 170.25C1144.66 174.302 1149.28 176.552 1154.33 177.872C1156.81 178.523 1159.06 176.434 1161.61 176.823" stroke="#131313" stroke-width="2" stroke-miterlimit="10" stroke-linecap="round" stroke-linejoin="round"/>
	<path d="M1072.61 198.334C1068.12 196.507 1064.36 193.132 1059.63 191.846C1057.16 209.145 1047.11 220.768 1033.22 229.667C1030.5 231.41 1028.1 233.897 1024.47 233.694" stroke="#131313" stroke-width="2" stroke-miterlimit="10" stroke-linecap="round" stroke-linejoin="round"/>
	<path d="M1137.16 125.78C1136.2 133.783 1134.73 141.777 1136.45 149.838C1137.53 154.846 1139.76 159.304 1142.96 163.356C1146.92 168.355 1151.35 172.678 1157.2 175.402C1157.71 175.639 1158.46 176.112 1158.32 177.001" stroke="#131313" stroke-width="2" stroke-miterlimit="10" stroke-linecap="round" stroke-linejoin="round"/>
	<path d="M1453.72 491.445C1456.44 493.593 1457.91 496.326 1458.54 499.819C1459.36 504.345 1457.98 506.663 1453.36 506.705C1450.92 506.73 1448.42 506.536 1446.06 505.673C1442.84 504.506 1441.26 502.188 1442.09 499.109C1443.15 495.15 1444.43 491.098 1446.93 487.909C1448.51 485.887 1448.53 484.018 1447.78 482.377C1445.68 477.673 1444.89 472.843 1444.92 467.751C1444.95 464.249 1446.1 461.432 1448.83 459.241C1454.42 464.325 1453.91 477.259 1448.05 482.698" stroke="#131313" stroke-width="2" stroke-miterlimit="10" stroke-linecap="round" stroke-linejoin="round"/>
	<path d="M1141.53 270.516C1136.45 273.443 1130.88 275.253 1125.47 277.394C1116.06 281.116 1109.79 287.604 1107.75 297.518C1107 301.122 1105.57 304.971 1107.26 308.794" stroke="#131313" stroke-width="2" stroke-miterlimit="10" stroke-linecap="round" stroke-linejoin="round"/>
	<path d="M1126.95 227.502C1129.24 232.543 1133.1 236.409 1137.24 239.81C1141.17 243.05 1144.67 246.501 1147.42 250.807C1149.11 253.446 1150.27 256.305 1150.92 259.241C1151.49 261.88 1150.41 264.561 1148.42 266.456C1146.98 267.835 1145.4 269.222 1143.36 269.789" stroke="#131313" stroke-width="2" stroke-miterlimit="10" stroke-linecap="round" stroke-linejoin="round"/>
	<path d="M1105.07 151.665C1105.55 151.665 1106.23 151.877 1106.5 151.632C1112.99 145.642 1117.82 138.511 1120.73 130.145C1120.88 129.714 1120.74 129.181 1120.74 128.487C1118.51 128.022 1116.61 128.589 1114.9 130.137C1108.92 135.525 1106.64 142.648 1104.58 150.168C1100.83 163.838 1098.97 178.32 1089.7 189.901C1086.69 193.648 1083.19 196.998 1079.87 200.483C1079.57 200.788 1078.89 200.915 1078.44 200.847C1075.04 200.348 1072.98 202.497 1070.76 204.493C1067.13 207.75 1064.4 211.759 1061.19 215.363C1055.48 221.783 1050.03 228.593 1042.37 233.026C1040.88 233.889 1039.9 235.631 1038.68 236.968" stroke="#131313" stroke-width="2" stroke-miterlimit="10" stroke-linecap="round" stroke-linejoin="round"/>
	<path d="M1103.98 190.679C1105.19 188.006 1106.51 185.375 1107.6 182.651C1109.66 177.474 1113.93 174.327 1118.25 171.434C1122.5 168.583 1125.79 169.514 1128.77 173.54C1133.13 179.428 1136.71 185.84 1141.49 191.44C1145.24 195.83 1149.44 196.803 1154.32 193.622C1159.13 190.476 1163.09 186.339 1167.4 182.617C1173.63 177.229 1180.79 174.665 1188.94 174.243C1198.25 173.76 1207.42 175.088 1216.66 175.706C1218.96 175.858 1221.28 175.731 1223.59 175.731" stroke="#131313" stroke-width="2" stroke-miterlimit="10" stroke-linecap="round" stroke-linejoin="round"/>
	<path d="M1355.97 477.589C1354.16 475.558 1352.23 473.714 1349.41 473.224C1347.37 472.86 1345.78 473.114 1345.75 475.77C1345.71 478.037 1345.92 480.397 1346.94 482.292C1350.04 488.095 1348.92 492.891 1344.74 497.705C1341.36 501.596 1341.55 505.166 1343.51 508.981C1346.36 514.504 1350.67 513.963 1357.8 512.246C1361.12 511.442 1362.49 508.008 1365.46 506.764" stroke="#131313" stroke-width="2" stroke-miterlimit="10" stroke-linecap="round" stroke-linejoin="round"/>
	<path d="M1257.15 473.579C1256.82 476.76 1256.02 479.949 1254.5 482.639C1250.85 489.11 1252.07 495.082 1257.36 501.173C1255 504.184 1255.31 507.855 1255.3 511.493C1255.3 513.413 1256.17 514.8 1257.87 515.477C1263.93 517.871 1270.03 518.48 1276.49 516.704C1280.45 515.612 1282.27 513.109 1283.37 509.657C1284.38 506.493 1284.88 503.609 1283.24 500.09C1281.43 496.216 1282.98 491.893 1285.21 488.154" stroke="#131313" stroke-width="2" stroke-miterlimit="10" stroke-linecap="round" stroke-linejoin="round"/>
	<path d="M1271 477.589C1269.62 476.007 1267.75 476.091 1265.89 476.117C1265.06 476.125 1264.36 476.125 1263.68 476.827C1262.37 478.147 1260.82 485.895 1261.91 487.41C1265.51 492.401 1264.28 497.586 1262.58 502.729C1261.2 506.908 1259.05 510.875 1259.69 515.503" stroke="#131313" stroke-width="2" stroke-miterlimit="10" stroke-linecap="round" stroke-linejoin="round"/>
	<path d="M1137.16 131.617C1140.37 134.51 1141.36 138.765 1143.58 142.284C1149.76 152.071 1158.41 158.644 1168.5 163.745C1169.7 164.354 1171.13 164.988 1171.44 166.621" stroke="#131313" stroke-width="2" stroke-miterlimit="10" stroke-linecap="round" stroke-linejoin="round"/>
	<path d="M1321.7 485.616C1319.63 486.674 1317.59 485.278 1315.49 485.566C1312.27 486.014 1311.56 487.232 1312.9 490.007C1314.04 492.367 1316.1 493.889 1318.1 494.989C1325.19 498.872 1326.1 505.225 1325.64 512.22C1325.58 513.075 1325.13 514.081 1323.52 514.132C1319.35 514.276 1315.31 513.041 1311.11 513.193C1309.55 513.252 1308.45 511.594 1308.56 509.666C1308.77 505.927 1307.8 501.968 1311.43 499.024C1312.58 498.094 1311.68 496.173 1311.85 494.727" stroke="#131313" stroke-width="2" stroke-miterlimit="10" stroke-linecap="round" stroke-linejoin="round"/>
	<path d="M1400.83 465.56C1396.3 466.414 1392.69 464.79 1391.37 461.178C1390.63 459.165 1390.67 457.058 1392.11 455.375C1393.8 453.412 1396.2 452.727 1398.63 453.235C1400.7 453.666 1401.25 455.519 1401.21 457.54C1401.17 459.427 1400.92 461.389 1402.3 463.005C1402.35 463.064 1402.56 463.056 1402.64 463.005C1402.79 462.92 1402.89 462.768 1403.02 462.65" stroke="#131313" stroke-width="2" stroke-miterlimit="10" stroke-linecap="round" stroke-linejoin="round"/>
	<path d="M1052.19 133.799C1056.5 134.823 1060.98 134.138 1065.34 135.195C1070.7 136.506 1075.88 135.068 1081.01 133.444C1086.06 131.837 1090.72 129.612 1094.56 125.839C1094.67 125.729 1095.71 124.816 1096.32 125.772" stroke="#131313" stroke-width="2" stroke-miterlimit="10" stroke-linecap="round" stroke-linejoin="round"/>
	<path d="M1357.8 453.167C1355.71 453.209 1353.65 453.125 1351.58 453.844C1349.24 454.664 1348.12 456.635 1349.05 458.995C1350.9 463.716 1355.25 466.651 1360.35 466.651C1362.18 466.651 1364.01 466.651 1365.57 466.651C1367.16 468.986 1364.89 470.102 1364.66 471.743C1364.22 474.924 1365.37 477.834 1365.8 480.871C1366.44 485.363 1366.68 489.77 1364.41 494.025C1363.35 496.004 1362.34 498.17 1362.54 500.555C1362.94 505.343 1365.85 507.34 1370.91 506.392" stroke="#131313" stroke-width="2" stroke-miterlimit="10" stroke-linecap="round" stroke-linejoin="round"/>
	<path d="M1102.15 155.311C1099.42 155.286 1097.55 157.316 1095.26 158.323C1088.7 161.199 1081.85 162.992 1074.79 163.161C1070.93 163.254 1067.02 162.907 1063.13 163.33" stroke="#131313" stroke-width="2" stroke-miterlimit="10" stroke-linecap="round" stroke-linejoin="round"/>
	<path d="M1171.81 126.516C1180.32 134.535 1188.85 142.538 1197.31 150.599C1198.34 151.572 1199.95 152.308 1199.52 154.22" stroke="#131313" stroke-width="2" stroke-miterlimit="10" stroke-linecap="round" stroke-linejoin="round"/>
	<path d="M1080.26 200.881C1083.24 202.835 1086.68 203.004 1089.7 201.854C1094.03 200.196 1098.52 199.113 1102.92 197.751C1105.35 196.998 1106.77 194.985 1109.07 194.316" stroke="#131313" stroke-width="2" stroke-miterlimit="10" stroke-linecap="round" stroke-linejoin="round"/>
	<path d="M1083.18 170.622C1082.38 173.059 1079.83 174.133 1078.76 176.434C1077.29 179.597 1076.26 182.82 1076.27 186.297C1076.29 190.391 1075.38 194.257 1073.7 197.962" stroke="#131313" stroke-width="2" stroke-miterlimit="10" stroke-linecap="round" stroke-linejoin="round"/>
	<path d="M1403.39 461.914C1404.62 461.491 1403.99 460.137 1404.78 459.3C1408.09 455.789 1412.21 456.585 1414 461.169C1414.68 462.904 1414.22 463.504 1412.53 464.155C1408.54 465.687 1407.36 467.641 1408.13 470.661C1409.12 474.526 1412.13 476.362 1416.53 475.761" stroke="#131313" stroke-width="2" stroke-miterlimit="10" stroke-linecap="round" stroke-linejoin="round"/>
	<path d="M1063.49 211.091C1060.07 211.268 1058.21 214.052 1055.89 215.896C1050.79 219.922 1046.34 224.609 1042.64 230.006C1041.91 231.063 1042.12 231.977 1041.98 232.966" stroke="#131313" stroke-width="2" stroke-miterlimit="10" stroke-linecap="round" stroke-linejoin="round"/>
	<path d="M1336.28 392.65C1334.11 397.337 1331.08 401.6 1329.37 406.515C1327.97 410.533 1329.57 414.077 1331.6 417.41C1332.14 418.298 1333.39 418.764 1334.72 419.711C1330.48 423.095 1332.15 426.741 1332.66 430.2C1333.1 433.161 1335.77 433.254 1337.73 433.017C1342.3 432.467 1346.86 431.486 1349.93 427.299C1348.2 424.905 1349.62 421.098 1345.93 419.533C1349.07 414.762 1346.11 411.37 1343.21 407.961" stroke="#131313" stroke-width="2" stroke-miterlimit="10" stroke-linecap="round" stroke-linejoin="round"/>
	<path d="M1338.84 453.894C1339.68 454.884 1338.07 455.536 1338.47 456.449C1341.14 462.531 1339.59 468.596 1338.51 474.687C1338.28 475.981 1338.47 477.352 1338.47 478.688" stroke="#131313" stroke-width="2" stroke-miterlimit="10" stroke-linecap="round" stroke-linejoin="round"/>
	<path d="M1063.13 151.665C1066.73 153.044 1070.41 152.037 1074.06 152.139C1078.38 152.257 1082.12 149.779 1086.47 150.024C1087.87 150.1 1089.38 148.019 1090.84 146.928" stroke="#131313" stroke-width="2" stroke-miterlimit="10" stroke-linecap="round" stroke-linejoin="round"/>
	<path d="M1390.99 469.206C1390.73 473.757 1392.51 478.113 1392.13 482.698C1391.95 484.847 1391.77 486.758 1390.3 488.569C1387.92 491.504 1386.81 495.15 1385.94 498.753C1384.84 503.271 1386.16 504.793 1390.62 505.665" stroke="#131313" stroke-width="2" stroke-miterlimit="10" stroke-linecap="round" stroke-linejoin="round"/>
	<path d="M1447.88 487.435C1451.26 493.323 1451.53 499.574 1450.07 506.028" stroke="#131313" stroke-width="2" stroke-miterlimit="10" stroke-linecap="round" stroke-linejoin="round"/>
	<path d="M1243.65 516.966C1245.64 520.925 1244.9 525.197 1245.12 529.359C1245.35 533.859 1245.6 538.351 1245.85 542.851" stroke="#131313" stroke-width="2" stroke-miterlimit="10" stroke-linecap="round" stroke-linejoin="round"/>
	<path d="M1279.76 458.632C1278.96 454.91 1280.92 452.186 1282.63 449.369C1285.69 449.927 1285.21 452.211 1284.75 453.48C1283.9 455.857 1283.5 459.063 1279.77 458.995" stroke="#131313" stroke-width="2" stroke-miterlimit="10" stroke-linecap="round" stroke-linejoin="round"/>
	<path d="M1366.56 467.751C1368.62 466.109 1370.88 465.492 1373.5 466.279C1376.46 467.167 1377.47 468.563 1377.12 471.76C1376.93 473.579 1377.49 475.034 1378.96 476.134" stroke="#131313" stroke-width="2" stroke-miterlimit="10" stroke-linecap="round" stroke-linejoin="round"/>
	<path d="M1275.01 481.607C1274.06 489.305 1275.99 496.901 1275.74 504.573C1275.71 505.402 1275.84 506.054 1276.43 506.798C1278.54 509.429 1279.66 512.288 1277.57 515.511" stroke="#131313" stroke-width="2" stroke-miterlimit="10" stroke-linecap="round" stroke-linejoin="round"/>
	<path d="M1086.47 150.574C1083.16 156.089 1077.53 158.576 1072.24 161.495C1071.82 161.723 1071.48 161.892 1071.52 162.417" stroke="#131313" stroke-width="2" stroke-miterlimit="10" stroke-linecap="round" stroke-linejoin="round"/>
	<path d="M1130.96 341.607C1130.2 344.703 1132.97 346.869 1133 349.99C1133.02 352.824 1134.35 355.709 1134.3 358.746C1134.29 359.439 1134.87 360.243 1135.71 360.564" stroke="#131313" stroke-width="2" stroke-miterlimit="10" stroke-linecap="round" stroke-linejoin="round"/>
	<path d="M1322.43 479.052C1327.38 477.69 1332.37 478.358 1337.38 478.646C1339.93 478.79 1340.91 480.38 1341.76 482.334" stroke="#131313" stroke-width="2" stroke-miterlimit="10" stroke-linecap="round" stroke-linejoin="round"/>
	<path d="M1265.17 450.612C1266.38 452.431 1267.53 454.309 1268.85 456.06C1269.42 456.821 1269.34 457.684 1269.12 458.251C1267.97 461.237 1268.39 465.289 1264.07 466.287C1262.88 466.566 1262.55 468.182 1261.16 468.114" stroke="#131313" stroke-width="2" stroke-miterlimit="10" stroke-linecap="round" stroke-linejoin="round"/>
	<path d="M1260.79 445.875C1260.75 447.246 1261.24 448.929 1260.03 449.842C1256.44 452.541 1256.49 455.755 1258.25 459.368" stroke="#131313" stroke-width="2" stroke-miterlimit="10" stroke-linecap="round" stroke-linejoin="round"/>
	<path d="M1335.92 391.55C1333.56 391.043 1332.7 389.537 1332.58 387.177C1332.46 384.479 1334.37 383.21 1335.95 381.746C1336.84 380.917 1338.1 383.65 1339.2 381.704" stroke="#131313" stroke-width="2" stroke-miterlimit="10" stroke-linecap="round" stroke-linejoin="round"/>
	<path d="M1257.51 460.095C1253.94 464.155 1255.67 468.52 1256.78 472.852" stroke="#131313" stroke-width="2" stroke-miterlimit="10" stroke-linecap="round" stroke-linejoin="round"/>
	<path d="M1355.61 464.468C1356.34 463.614 1357.05 462.751 1357.8 461.922C1359.12 460.459 1361.3 460.247 1362.44 460.975C1364.05 462.015 1366.63 463.352 1365.09 466.287" stroke="#131313" stroke-width="2" stroke-miterlimit="10" stroke-linecap="round" stroke-linejoin="round"/>
	<path d="M1281.21 477.961C1280.08 483.053 1277.64 488.239 1282.31 492.9C1282.37 492.959 1282.55 492.908 1282.67 492.908" stroke="#131313" stroke-width="2" stroke-miterlimit="10" stroke-linecap="round" stroke-linejoin="round"/>
	<path d="M1278.67 460.095C1278.28 460.535 1277.86 460.763 1277.21 460.865C1273.25 461.482 1272.74 462.278 1273.17 466.296C1273.25 467.065 1272.96 467.869 1272.83 468.664" stroke="#131313" stroke-width="2" stroke-miterlimit="10" stroke-linecap="round" stroke-linejoin="round"/>
	<path d="M1330.82 404.679C1331.79 405.407 1332.73 406.193 1333.75 406.845C1334.51 407.335 1335.4 407.665 1336.12 408.012C1338.39 407.234 1338.41 405.22 1338.8 403.571C1339.45 400.746 1340.84 399.223 1343.95 399.536C1345.69 399.713 1346.84 400.627 1347.15 402.133C1347.45 403.562 1347.69 405.423 1345.75 406.083C1344.66 406.455 1343.97 408.046 1342.48 407.225" stroke="#131313" stroke-width="2" stroke-miterlimit="10" stroke-linecap="round" stroke-linejoin="round"/>
	<path d="M1357.07 467.023C1358.95 470.694 1358.98 473.96 1356.56 477.732C1355.42 479.509 1354.14 481.979 1354.15 484.525" stroke="#131313" stroke-width="2" stroke-miterlimit="10" stroke-linecap="round" stroke-linejoin="round"/>
	<path d="M1264.44 446.603C1265.51 449.606 1264.57 452.6 1261.88 454.622C1261.05 455.248 1260.18 455.84 1259.34 456.449" stroke="#131313" stroke-width="2" stroke-miterlimit="10" stroke-linecap="round" stroke-linejoin="round"/>
	<path d="M1266.99 460.095C1266.05 459.444 1265.1 458.784 1264.23 458.183C1260.34 459.917 1259.9 464.215 1260.42 466.575C1261.22 470.187 1259.02 471.058 1257.51 472.851" stroke="#131313" stroke-width="2" stroke-miterlimit="10" stroke-linecap="round" stroke-linejoin="round"/>
	<path d="M1344.31 452.076C1343.35 454.427 1341.4 454.757 1339.2 454.63" stroke="#131313" stroke-width="2" stroke-miterlimit="10" stroke-linecap="round" stroke-linejoin="round"/>
	<path d="M1257.14 476.861C1258.84 477.225 1260.55 477.589 1262.25 477.952" stroke="#131313" stroke-width="2" stroke-miterlimit="10" stroke-linecap="round" stroke-linejoin="round"/>
	<path d="M1260.43 471.396C1261.51 473.08 1263.37 474.163 1264.07 476.134" stroke="#131313" stroke-width="2" stroke-miterlimit="10" stroke-linecap="round" stroke-linejoin="round"/>
	<path d="M1110.18 191.042C1108.49 193.8 1110.5 196.389 1110.54 199.062" stroke="#131313" stroke-width="2" stroke-miterlimit="10" stroke-linecap="round" stroke-linejoin="round"/>
	<path d="M1114.19 289.837C1114.87 291.25 1114.65 292.739 1114.55 294.211" stroke="#131313" stroke-width="2" stroke-miterlimit="10" stroke-linecap="round" stroke-linejoin="round"/>
	<path d="M1279.39 481.234C1277.35 482.453 1275.77 481.776 1274.26 480.169C1273.62 479.5 1273.54 478.079 1272.1 478.316" stroke="#131313" stroke-width="2" stroke-miterlimit="10" stroke-linecap="round" stroke-linejoin="round"/>
	<path d="M1318.42 478.688C1318.25 477.546 1318.89 476.81 1319.84 477.301C1320.97 477.893 1322.54 478.299 1321.82 480.549C1321.27 482.241 1321.02 484.44 1322.79 485.98" stroke="#131313" stroke-width="2" stroke-miterlimit="10" stroke-linecap="round" stroke-linejoin="round"/>
	<path d="M1492.38 541.557L1533.07 555.143C1569.95 567.459 1608.57 573.744 1647.46 573.761C1835.13 573.846 1932.15 573.245 2139.81 574.1C2212.37 574.396 2284.96 574.133 2357.53 574.159C2370.68 574.167 2383.25 572.12 2396.82 573.118C2405.82 573.787 2415.33 573.524 2424.62 573.677" stroke="#131313" stroke-width="2" stroke-miterlimit="10" stroke-linecap="round" stroke-linejoin="round"/>
	<path d="M3470.39 259.579C3465.34 262.709 3459.54 263.732 3453.98 265.424C3433.91 271.54 3417.39 282.469 3406.98 301.164C3400.9 312.085 3396.94 323.759 3394.35 336.101C3390.94 352.384 3387.77 368.719 3384.31 384.986C3379.44 407.767 3374.24 430.488 3367.44 452.769C3362.95 467.497 3357.49 481.877 3350.92 495.894C3343.19 512.347 3336.26 529.206 3329.78 546.192C3326.53 554.694 3323.49 563.398 3321.64 572.391C3320.58 574.945 3319.53 574.954 3317.57 574.945C3304.51 574.92 3291.44 574.92 3278.38 574.928C3274.61 574.928 3270.83 574.742 3267.09 574.362L3263.78 574.023C3261.67 573.812 3259.55 573.702 3257.44 573.702C3031.47 573.947 2936.71 573.152 2709.5 574.082C2636.94 574.378 2564.35 574.116 2491.78 574.142C2478.63 574.15 2466.06 572.103 2452.49 573.101C2443.49 573.769 2433.98 573.507 2424.69 573.659" stroke="#131313" stroke-width="2" stroke-miterlimit="10" stroke-linecap="round" stroke-linejoin="round"/>
	</g>
	</svg>
	