<svg width="2560" height="1329" viewBox="0 0 2560 1329" fill="none" xmlns="http://www.w3.org/2000/svg">
	<g clip-path="url(#clip0_148_285)">
	<path d="M1343.86 812.56C1345.56 812.71 1347.26 812.86 1348.98 813.01C1350.38 810.55 1348.94 807.92 1348.21 805.85C1344.39 795.02 1339.52 787.7 1325.27 795.73C1319.52 798.97 1313.74 802.21 1307.64 804.51C1300.97 807.02 1294.85 810.21 1289.03 814.24C1279.8 820.64 1271.48 828.32 1261.38 833.5C1247.86 840.42 1234.09 846.101 1218.42 845.381C1208.61 844.931 1205.84 840.32 1210.45 831.74C1212.02 828.82 1213.8 826.17 1216.15 823.86C1229.8 810.41 1246.49 801.23 1262.54 791.2C1271.05 785.88 1279.98 781.24 1286.79 773.61C1290.23 769.76 1290.52 765.72 1287.94 761.17C1285.06 756.07 1280.39 753.17 1275.49 750.44C1262.93 743.47 1249.1 743.05 1235.36 743.26C1223.62 743.44 1211.95 744.87 1200.29 746.9C1174.21 751.43 979.69 815.04 983.8 875.95C987.91 936.86 1089.16 929.59 1074.11 992.061C1064.96 1030.04 1007.39 1033.47 976.56 1034.79C927.35 1036.9 878.11 1030.28 828.93 1034.17C788.71 1037.36 748.39 1039.2 708.05 1040.24C667.54 1041.29 627.01 1041.53 586.49 1041.53C546.55 1041.53 506.61 1041.38 466.66 1041.37C435.72 1041.37 404.78 1041.36 373.85 1041.36C343.23 1041.36 312.61 1041.36 281.98 1041.36C262.56 1041.36 243.15 1041.36 223.73 1041.36C206.86 1041.36 189.99 1041.36 173.11 1041.36C133.67 1041.36 94.2402 1041.36 54.8002 1041.36C-27.8898 1041.67 -62.1498 1040.71 -144.84 1041.82C-171.13 1042.17 -197.42 1041.86 -223.71 1041.89C-228.47 1041.9 -233.02 1039.48 -237.94 1040.66C-241.2 1041.45 -244.65 1041.14 -248.01 1041.32" stroke="#131313" stroke-width="2" stroke-miterlimit="10" stroke-linecap="round" stroke-linejoin="round"/>
	<path d="M1343.3 884.831C1346 883.541 1348.25 885.351 1350.64 885.981C1364.1 889.511 1376.15 884.751 1387.28 878.451C1407.08 867.261 1423.47 851.861 1438.34 834.671C1445.81 826.031 1453.88 817.721 1462.67 810.471C1473.15 801.821 1477.21 801.871 1487.8 811.041C1497.02 819.031 1505.28 828.241 1513.29 837.481C1522.83 848.491 1533.44 858.381 1543.87 868.491C1552.99 877.331 1562.49 886.091 1565.85 898.971C1568.03 907.311 1569.37 915.881 1571.02 924.361C1574.68 943.261 1579.14 961.951 1585.16 980.261" stroke="#131313" stroke-width="2" stroke-miterlimit="10" stroke-linecap="round" stroke-linejoin="round"/>
	<path d="M1504.35 513.851C1505.8 526.621 1508.67 539.231 1507.84 552.251C1507.48 557.861 1510.11 563.151 1511.33 568.571C1514.27 581.651 1516.11 594.741 1515.65 608.141C1515.47 613.251 1513.28 617.951 1511.96 622.741C1510.75 627.141 1511.02 629.301 1515.05 631.351C1520.17 633.961 1521.91 636.321 1518.87 643.071C1514.84 652.021 1511.32 661.141 1507.64 670.211C1505.07 676.551 1504.32 682.241 1506.98 688.961C1510.53 697.911 1512.42 707.401 1513.63 717.091C1514.44 723.551 1514.76 729.951 1514.38 736.311C1513.78 746.321 1512.87 756.391 1510.89 766.201C1509.8 771.591 1510.36 776.791 1510.06 782.061C1509.69 788.711 1507.1 790.541 1500.97 787.671C1495.63 785.181 1490.47 782.301 1485.11 779.841C1482.09 778.461 1478.83 777.761 1475.26 779.341C1478.52 785.051 1484.68 786.711 1489.64 789.971C1493.01 792.181 1496.14 794.791 1499.4 797.091C1502.57 799.331 1499.79 802.251 1501.9 804.781C1507.71 811.771 1513.28 819.011 1519.68 825.451C1532.45 838.291 1545.72 850.631 1558.56 863.401C1565.05 869.851 1570.63 877.351 1571.98 886.531C1573.47 896.611 1575.37 906.571 1577.86 916.421C1580.34 926.251 1582.56 936.191 1585.89 945.741C1589.3 955.521 1592.63 965.411 1597.53 974.441C1595 978.771 1589.76 978.161 1586.31 980.801" stroke="#131313" stroke-width="2" stroke-miterlimit="10" stroke-linecap="round" stroke-linejoin="round"/>
	<path d="M1337.08 878.06C1341.2 881.27 1342.92 886.37 1346.64 889.96C1357.58 900.53 1369.62 899.06 1382.3 893.9C1398.51 887.3 1411.92 876.4 1425.8 866.19C1434.15 860.05 1442.37 853.72 1451.81 849.27C1458.67 846.04 1464.63 845.62 1471.76 850.69C1486.91 861.45 1501.06 873.41 1515.62 884.87C1521.51 889.51 1527.94 893.45 1533.22 898.9C1536.81 902.6 1538.57 906.69 1538.32 911.93C1537.3 933.51 1540.43 954.46 1548.42 974.61C1548.7 975.32 1548.47 976.07 1548.95 976.89C1553.96 985.6 1550.9 986.04 1563.73 984.45C1571.15 983.53 1578.32 981.49 1585.74 980.81" stroke="#131313" stroke-width="2" stroke-miterlimit="10" stroke-linecap="round" stroke-linejoin="round"/>
	<path d="M1448.41 675.35C1445.14 668.9 1439.04 671.07 1434.31 671.63C1425.84 672.63 1417.39 674.851 1410.62 680.521C1407.67 682.991 1404.35 684.37 1400.91 685.43C1392.93 687.9 1386.32 693.161 1378.4 695.891C1373.22 697.681 1368.42 697.98 1363.67 696.16C1350.18 691 1336.48 691.21 1322.36 692.63C1313.44 693.53 1304.29 693.901 1295.26 692.831C1292.63 692.521 1290.72 690.83 1289.04 688.9C1285.13 684.41 1280.24 681.06 1275.42 677.68C1273.91 676.62 1271.87 674.51 1269.89 676.54C1267.77 678.73 1270.11 680.2 1271.54 681.53C1273 682.9 1274.64 684.09 1275.83 685.07C1273.75 690.91 1270.08 689.27 1267.66 687.62C1264.04 685.15 1259.9 683.87 1256.22 681.62C1255.32 681.07 1254.08 681.581 1253.3 683.01C1255.38 687.411 1262.58 686.59 1263.6 692.29" stroke="#131313" stroke-width="2" stroke-miterlimit="10" stroke-linecap="round" stroke-linejoin="round"/>
	<path d="M1261.92 703.01C1260.63 704.85 1257.19 703.92 1256.7 707.26C1258.72 707.56 1260.53 707.78 1262.5 707C1266.67 705.35 1270.88 706.49 1274.9 707.6C1280.88 709.25 1286.74 709.41 1292.41 706.91C1296.36 705.17 1299.49 707.71 1302.54 708.84C1315.48 713.6 1328.88 716.52 1342.17 719.94C1356.39 723.6 1370.49 723.16 1384.58 718.94C1387.35 718.11 1390.57 718.77 1393.59 718.83C1398.22 718.93 1400.1 717.15 1400.4 712.61C1400.81 706.32 1398.3 701.11 1394.72 696.23C1391.03 695.99 1390.3 698.07 1390.12 701.31C1389.82 706.48 1390.72 711.52 1391.42 716.55C1392.27 722.63 1396.4 725.02 1402.63 723.31C1411.97 720.75 1420.07 721.81 1427.04 729.46C1431.55 734.42 1435.99 739.4 1439.92 744.81C1446.53 753.9 1446.1 758.96 1438.3 766.76C1440.95 771.28 1445.82 772.7 1450.16 773.97C1457.35 776.08 1460.87 781.27 1464.35 787.08C1465.3 788.66 1463.68 789.41 1464.3 790.63C1460.78 790.22 1458.48 787.64 1455.81 785.94C1449.32 781.8 1442.11 779.59 1434.82 777.66C1432.35 777.01 1429.79 777.32 1427.4 779.7C1421.69 785.36 1416.86 791.45 1413.92 799C1412 803.92 1408.55 807.62 1404.39 810.92C1390.45 821.98 1377.6 834.09 1368.76 849.83C1368.27 850.7 1367.94 851.66 1367.14 852.25C1363.41 844.53 1362.09 836.91 1358.62 830.04C1356.89 826.62 1355.47 823.51 1350.66 823.75C1346.97 823.93 1345.43 825.35 1344.96 828.93C1343.51 840.19 1329.5 851.54 1317.88 854.31C1315.66 854.84 1313.2 854.38 1312.36 852.05C1311.77 850.41 1312.13 848.54 1313.85 846.93C1316.34 844.6 1319.02 842.62 1321.85 840.82C1325.16 838.72 1329.02 836.77 1330.71 833.38C1333.72 827.36 1338.75 826.42 1344.44 826.12" stroke="#131313" stroke-width="2" stroke-miterlimit="10" stroke-linecap="round" stroke-linejoin="round"/>
	<path d="M1442.76 663.491C1452.01 670.141 1460.57 677.801 1471.19 683.771C1471.37 681.391 1471.89 679.93 1471.52 678.76C1467.83 667.38 1473.72 657.99 1478.66 648.97C1481.66 643.51 1485.84 637.921 1486.87 632.331C1488.17 625.331 1491.75 618.181 1488.74 610.331C1486.85 605.411 1488.86 599.74 1489.85 594.63C1491.69 585.06 1493.47 575.521 1494.2 565.801C1494.51 561.651 1495.91 557.59 1495.29 553.38C1494.66 549.09 1494.19 545.48 1488.65 543.46C1482.4 541.18 1478.71 534.78 1473.6 530.08C1477.63 527.07 1480.07 530.34 1483.24 530.85C1485.64 524.51 1475.57 521.42 1479.04 514.89C1484.35 516.28 1484.02 523.01 1488.81 525.43C1491.05 519.55 1483.84 514.99 1487.11 509.25C1489.28 509.71 1491.61 511.52 1494.08 509.61C1497.43 514.09 1497.25 519.78 1500.24 524.04C1503.38 523.44 1500.95 519.87 1503.24 518.93" stroke="#131313" stroke-width="2" stroke-miterlimit="10" stroke-linecap="round" stroke-linejoin="round"/>
	<path d="M1569.34 992.681C1564.2 994.671 1561.46 999.401 1562.07 1006.22C1562.36 1009.46 1563.31 1012.69 1564.29 1015.81C1565.8 1020.6 1569.97 1021.48 1573.79 1020.15C1577.86 1018.74 1581.89 1018.85 1585.7 1019.37C1595.88 1020.74 1606.03 1021.09 1616.23 1020.32C1623.75 1019.75 1630.76 1018.12 1636.13 1011.97C1637.95 1009.88 1637.62 1008.28 1637.14 1006.22" stroke="#131313" stroke-width="2" stroke-miterlimit="10" stroke-linecap="round" stroke-linejoin="round"/>
	<path d="M1346.69 824.421C1345.72 820.981 1344.46 817.6 1343.48 814.2C1342.49 810.76 1341.13 810.641 1338.2 811.371C1329.23 813.621 1326.58 816.6 1325.14 827.26C1315.08 826.43 1305.3 829.391 1295.27 830.051C1289.28 830.441 1286.67 826.701 1289.68 821.631C1293.61 815.011 1300.26 811.78 1307.15 809.21C1314.78 806.37 1322.73 805.171 1330.87 805.821C1334.39 806.101 1338.17 806.261 1339.91 810.301" stroke="#131313" stroke-width="2" stroke-miterlimit="10" stroke-linecap="round" stroke-linejoin="round"/>
	<path d="M1575.55 984.21C1575.9 987.56 1573.13 989.26 1571.55 991.52C1566 999.48 1568.95 1011 1577.85 1013.4C1583.05 1014.8 1588.87 1015.99 1594.13 1014.5C1599.43 1013 1604.81 1013.35 1610.05 1012.78C1619.39 1011.76 1627.86 1008.49 1636.57 1005.67C1634.61 1017.75 1636.21 1035.93 1649.67 1040.64C1656.53 1043.04 1664.28 1041.99 1671.4 1041.86C1686.56 1041.59 1701.71 1041.36 1716.88 1041.36C1751.41 1041.36 1785.94 1041.36 1820.47 1041.36C1837.12 1041.36 1853.76 1041.36 1870.41 1041.36C1888.84 1041.36 1907.28 1041.36 1925.71 1041.36C1945.47 1041.36 1965.22 1041.36 1984.98 1041.36C2005.59 1041.36 2026.2 1041.36 2046.82 1041.36C2067.82 1041.36 2088.82 1041.36 2109.82 1041.36C2130.74 1041.36 2151.66 1041.36 2172.58 1041.36C2192.96 1041.36 2213.33 1041.36 2233.71 1041.36C2253.07 1041.36 2272.44 1041.36 2291.8 1041.36C2309.68 1041.36 2327.57 1041.36 2345.45 1041.36C2361.39 1041.36 2377.32 1041.36 2393.26 1041.36C2406.78 1041.36 2420.31 1041.36 2433.83 1041.36C2444.47 1041.36 2455.11 1041.36 2465.76 1041.36C2473.05 1041.36 2480.35 1041.36 2487.64 1041.36C2491.12 1041.36 2494.6 1041.36 2498.08 1041.36C2498.31 1041.36 2498.54 1041.36 2498.77 1041.36C2597.92 1041.67 2639 1040.71 2738.14 1041.82C2769.66 1042.17 2801.18 1041.86 2832.71 1041.89C2838.42 1041.9 2843.88 1039.48 2849.78 1040.66C2853.69 1041.45 2857.82 1041.14 2861.85 1041.32" stroke="#131313" stroke-width="2" stroke-miterlimit="10" stroke-linecap="round" stroke-linejoin="round"/>
	<path d="M1406.59 597.42C1407.42 600.29 1405.31 601.77 1403.8 603.66C1396.68 612.55 1391.84 622.19 1392.36 634.13C1392.84 645.07 1399.38 651.4 1407.73 656.7C1412.88 659.98 1418.36 661.89 1424.68 661.31C1429.1 660.91 1433.78 660.46 1437.64 663.52C1439.07 664.65 1439.68 663.75 1441.05 662.34C1438.09 658.26 1432.72 656.35 1430.27 651.65C1427.35 646.06 1424.51 640.6 1427.49 634.12C1429.31 630.15 1432.67 627.63 1435.99 625.11C1438.66 623.08 1441.77 621.62 1444.14 618.31C1436.58 615.25 1428.8 614.67 1421.33 617.32C1411.54 620.8 1407.72 631.71 1412.9 640.84C1416.62 647.41 1422.35 652.22 1429.19 655.58C1430.34 656.15 1431.45 656.23 1432.58 655.57" stroke="#131313" stroke-width="2" stroke-miterlimit="10" stroke-linecap="round" stroke-linejoin="round"/>
	<path d="M1445.58 586.13C1444.64 588.77 1443.77 591.43 1442.74 594.03C1441.59 596.92 1441.73 599.43 1444.6 601.47C1447.52 599.59 1450.33 597.19 1453.57 595.92C1455.44 595.18 1457.66 593.28 1460.38 595.63C1463.2 598.06 1463.13 601.09 1462.38 603.6C1460.78 608.99 1459.13 614.53 1454.38 618.78C1459.35 624.53 1464.33 629.46 1467.73 635.77C1475.43 650.05 1466.5 661.29 1451.8 661.33C1448.24 661.34 1444.56 660.07 1441.06 661.8" stroke="#131313" stroke-width="2" stroke-miterlimit="10" stroke-linecap="round" stroke-linejoin="round"/>
	<path d="M1425.8 581.611C1415.18 588.551 1414.61 598.371 1417.96 609.261C1413.1 610.731 1411.27 609.631 1406.59 602.501" stroke="#131313" stroke-width="2" stroke-miterlimit="10" stroke-linecap="round" stroke-linejoin="round"/>
	<path d="M1428.06 577.101C1425.95 583.751 1426.3 590.611 1426.43 597.431C1426.47 599.561 1428.75 599.981 1430.55 600.891C1434.6 596.421 1437.15 590.131 1443.88 588.401" stroke="#131313" stroke-width="2" stroke-miterlimit="10" stroke-linecap="round" stroke-linejoin="round"/>
	<path d="M1262.49 691.16C1258.62 693.14 1254.55 690.03 1250.59 691.65C1249.65 692.03 1248.44 691.74 1247.78 692.97C1247.43 695.4 1251.47 695.55 1250.79 698.55C1250.61 699.32 1252.66 701.07 1253.99 700.68C1258.75 699.28 1263.09 701.11 1267.58 701.9" stroke="#131313" stroke-width="2" stroke-miterlimit="10" stroke-linecap="round" stroke-linejoin="round"/>
	<path d="M1490.22 511.031C1490.8 515.231 1494.71 518.321 1494.18 522.891" stroke="#131313" stroke-width="2" stroke-miterlimit="10" stroke-linecap="round" stroke-linejoin="round"/>
	<path d="M1439.36 664.621C1440.09 667.261 1443.66 667.831 1443.88 670.831" stroke="#131313" stroke-width="2" stroke-miterlimit="10" stroke-linecap="round" stroke-linejoin="round"/>
	</g>
	<defs>
	<clipPath id="clip0_148_285">
	<rect width="2560" height="1329" fill="white"/>
	</clipPath>
	</defs>
	</svg>
	