<svg width="3053" height="879" viewBox="0 0 3053 879" fill="none" xmlns="http://www.w3.org/2000/svg">
	<mask id="mask0_162_808" style="mask-type:alpha" maskUnits="userSpaceOnUse" x="0" y="100" width="3052" height="579">
	<rect y="100" width="3052" height="579" fill="#FAFF00"/>
	</mask>
	<g mask="url(#mask0_162_808)">
	<mask id="mask1_162_808" style="mask-type:alpha" maskUnits="userSpaceOnUse" x="0" y="100" width="2974" height="579">
	<rect y="100" width="2974" height="579" fill="#FAFF00"/>
	</mask>
	<g mask="url(#mask1_162_808)">
	<path d="M1491.87 449.31C1493.57 449.46 1495.27 449.61 1496.99 449.76C1498.39 447.3 1496.95 444.67 1496.22 442.6C1492.4 431.77 1487.53 424.45 1473.28 432.48C1467.53 435.72 1461.75 438.96 1455.65 441.26C1448.98 443.77 1442.86 446.96 1437.04 450.99C1427.81 457.39 1419.49 465.07 1409.39 470.25C1395.87 477.17 1382.1 482.85 1366.43 482.13C1356.62 481.68 1353.85 477.07 1358.46 468.49C1360.03 465.57 1361.81 462.92 1364.16 460.61C1377.81 447.16 1394.5 437.98 1410.55 427.95C1419.06 422.63 1427.99 417.99 1434.8 410.36C1438.24 406.51 1438.53 402.47 1435.95 397.92C1433.07 392.82 1428.4 389.92 1423.5 387.19C1410.94 380.22 1397.11 379.8 1383.37 380.01C1371.63 380.19 1359.96 381.62 1348.3 383.65C1322.22 388.18 1127.7 451.79 1131.81 512.7C1135.92 573.61 1237.17 566.34 1222.12 628.81C1212.97 666.79 1155.4 670.22 1124.57 671.54C1075.36 673.65 1026.12 667.03 976.94 670.92C936.72 674.11 896.4 675.95 856.06 676.99C815.55 678.04 775.02 678.28 734.5 678.28C694.56 678.28 654.62 678.13 614.67 678.12C583.73 678.12 552.79 678.11 521.86 678.11C491.24 678.11 460.62 678.11 429.99 678.11C410.57 678.11 391.16 678.11 371.74 678.11C354.87 678.11 338 678.11 321.12 678.11C281.68 678.11 242.25 678.11 202.81 678.11C120.12 678.42 85.86 677.46 3.17 678.57C-23.12 678.92 -49.41 678.61 -75.7 678.64C-80.46 678.65 -85.01 676.23 -89.93 677.41C-93.19 678.2 -96.64 677.89 -100 678.07" stroke="#131313" stroke-width="2" stroke-miterlimit="10" stroke-linecap="round" stroke-linejoin="round"/>
	<path d="M1491.31 521.58C1494.01 520.29 1496.26 522.1 1498.65 522.73C1512.11 526.26 1524.16 521.5 1535.29 515.2C1555.09 504.01 1571.48 488.61 1586.35 471.42C1593.82 462.78 1601.89 454.47 1610.68 447.22C1621.16 438.57 1625.22 438.62 1635.81 447.79C1645.03 455.78 1653.29 464.99 1661.3 474.23C1670.84 485.24 1681.45 495.13 1691.88 505.24C1701 514.08 1710.5 522.84 1713.86 535.72C1716.04 544.06 1717.38 552.63 1719.03 561.11C1722.69 580.01 1727.15 598.7 1733.17 617.01" stroke="#131313" stroke-width="2" stroke-miterlimit="10" stroke-linecap="round" stroke-linejoin="round"/>
	<path d="M1652.36 150.6C1653.81 163.37 1656.68 175.98 1655.85 189C1655.49 194.61 1658.12 199.9 1659.34 205.32C1662.28 218.4 1664.12 231.49 1663.66 244.89C1663.48 250 1661.29 254.7 1659.97 259.49C1658.76 263.89 1659.03 266.05 1663.06 268.1C1668.18 270.71 1669.92 273.07 1666.88 279.82C1662.85 288.77 1659.33 297.89 1655.65 306.96C1653.08 313.3 1652.33 318.99 1654.99 325.71C1658.54 334.66 1660.43 344.15 1661.64 353.84C1662.45 360.3 1662.77 366.7 1662.39 373.06C1661.79 383.07 1660.88 393.14 1658.9 402.95C1657.81 408.34 1658.37 413.54 1658.07 418.81C1657.7 425.46 1655.11 427.29 1648.98 424.42C1643.64 421.93 1638.48 419.05 1633.12 416.59C1630.1 415.21 1626.84 414.51 1623.27 416.09C1626.53 421.8 1632.69 423.46 1637.65 426.72C1641.02 428.93 1644.15 431.54 1647.41 433.84C1650.58 436.08 1647.8 439 1649.91 441.53C1655.72 448.52 1661.29 455.76 1667.69 462.2C1680.46 475.04 1693.73 487.38 1706.57 500.15C1713.06 506.6 1718.64 514.1 1719.99 523.28C1721.48 533.36 1723.38 543.32 1725.87 553.17C1728.35 563 1730.57 572.94 1733.9 582.49C1737.31 592.27 1740.64 602.16 1745.54 611.19C1743.01 615.52 1737.77 614.91 1734.32 617.55" stroke="#131313" stroke-width="2" stroke-miterlimit="10" stroke-linecap="round" stroke-linejoin="round"/>
	<path d="M1485.09 514.81C1489.21 518.02 1490.93 523.12 1494.65 526.71C1505.59 537.28 1517.63 535.81 1530.31 530.65C1546.52 524.05 1559.93 513.15 1573.81 502.94C1582.16 496.8 1590.38 490.47 1599.82 486.02C1606.68 482.79 1612.64 482.37 1619.77 487.44C1634.92 498.2 1649.07 510.16 1663.63 521.62C1669.52 526.26 1675.95 530.2 1681.23 535.65C1684.82 539.35 1686.58 543.44 1686.33 548.68C1685.31 570.26 1688.44 591.21 1696.43 611.36C1696.71 612.07 1696.48 612.82 1696.96 613.64C1701.97 622.35 1698.91 622.79 1711.74 621.2C1719.16 620.28 1726.33 618.24 1733.75 617.56" stroke="#131313" stroke-width="2" stroke-miterlimit="10" stroke-linecap="round" stroke-linejoin="round"/>
	<path d="M1596.42 312.1C1593.15 305.65 1587.05 307.82 1582.32 308.38C1573.85 309.38 1565.4 311.6 1558.63 317.27C1555.68 319.74 1552.36 321.12 1548.92 322.18C1540.94 324.65 1534.33 329.91 1526.41 332.64C1521.23 334.43 1516.43 334.73 1511.68 332.91C1498.19 327.75 1484.49 327.96 1470.37 329.38C1461.45 330.28 1452.3 330.65 1443.27 329.58C1440.64 329.27 1438.73 327.58 1437.05 325.65C1433.14 321.16 1428.25 317.81 1423.43 314.43C1421.92 313.37 1419.88 311.26 1417.9 313.29C1415.78 315.48 1418.12 316.95 1419.55 318.28C1421.01 319.65 1422.65 320.84 1423.84 321.82C1421.76 327.66 1418.09 326.02 1415.67 324.37C1412.05 321.9 1407.91 320.62 1404.23 318.37C1403.33 317.82 1402.09 318.33 1401.31 319.76C1403.39 324.16 1410.59 323.34 1411.61 329.04" stroke="#131313" stroke-width="2" stroke-miterlimit="10" stroke-linecap="round" stroke-linejoin="round"/>
	<path d="M1409.93 339.76C1408.64 341.6 1405.2 340.67 1404.71 344.01C1406.73 344.31 1408.54 344.53 1410.51 343.75C1414.68 342.1 1418.89 343.24 1422.91 344.35C1428.89 346 1434.75 346.16 1440.42 343.66C1444.37 341.92 1447.5 344.46 1450.55 345.59C1463.49 350.35 1476.89 353.27 1490.18 356.69C1504.4 360.35 1518.5 359.91 1532.59 355.69C1535.36 354.86 1538.58 355.52 1541.6 355.58C1546.23 355.68 1548.11 353.9 1548.41 349.36C1548.82 343.07 1546.31 337.86 1542.73 332.98C1539.04 332.74 1538.31 334.82 1538.13 338.06C1537.83 343.23 1538.73 348.27 1539.43 353.3C1540.28 359.38 1544.41 361.77 1550.64 360.06C1559.98 357.5 1568.08 358.56 1575.05 366.21C1579.56 371.17 1584 376.15 1587.93 381.56C1594.54 390.65 1594.11 395.71 1586.31 403.51C1588.96 408.03 1593.83 409.45 1598.17 410.72C1605.36 412.83 1608.88 418.02 1612.36 423.83C1613.31 425.41 1611.69 426.16 1612.31 427.38C1608.79 426.97 1606.49 424.39 1603.82 422.69C1597.33 418.55 1590.12 416.34 1582.83 414.41C1580.36 413.76 1577.8 414.07 1575.41 416.45C1569.7 422.11 1564.87 428.2 1561.93 435.75C1560.01 440.67 1556.56 444.37 1552.4 447.67C1538.46 458.73 1525.61 470.84 1516.77 486.58C1516.28 487.45 1515.95 488.41 1515.15 489C1511.42 481.28 1510.1 473.66 1506.63 466.79C1504.9 463.37 1503.48 460.26 1498.67 460.5C1494.98 460.68 1493.44 462.1 1492.97 465.68C1491.52 476.94 1477.51 488.29 1465.89 491.06C1463.67 491.59 1461.21 491.13 1460.37 488.8C1459.78 487.16 1460.14 485.29 1461.86 483.68C1464.35 481.35 1467.03 479.37 1469.86 477.57C1473.17 475.47 1477.03 473.52 1478.72 470.13C1481.73 464.11 1486.76 463.17 1492.45 462.87" stroke="#131313" stroke-width="2" stroke-miterlimit="10" stroke-linecap="round" stroke-linejoin="round"/>
	<path d="M1590.77 300.24C1600.02 306.89 1608.58 314.55 1619.2 320.52C1619.38 318.14 1619.9 316.68 1619.53 315.51C1615.84 304.13 1621.73 294.74 1626.67 285.72C1629.67 280.26 1633.85 274.67 1634.88 269.08C1636.18 262.08 1639.76 254.93 1636.75 247.08C1634.86 242.16 1636.87 236.49 1637.86 231.38C1639.7 221.81 1641.48 212.27 1642.21 202.55C1642.52 198.4 1643.92 194.34 1643.3 190.13C1642.67 185.84 1642.2 182.23 1636.66 180.21C1630.41 177.93 1626.72 171.53 1621.61 166.83C1625.64 163.82 1628.08 167.09 1631.25 167.6C1633.65 161.26 1623.58 158.17 1627.05 151.64C1632.36 153.03 1632.03 159.76 1636.82 162.18C1639.06 156.3 1631.85 151.74 1635.12 146C1637.29 146.46 1639.62 148.27 1642.09 146.36C1645.44 150.84 1645.26 156.53 1648.25 160.79C1651.39 160.19 1648.96 156.62 1651.25 155.68" stroke="#131313" stroke-width="2" stroke-miterlimit="10" stroke-linecap="round" stroke-linejoin="round"/>
	<path d="M1717.35 629.43C1712.21 631.42 1709.47 636.15 1710.08 642.97C1710.37 646.21 1711.32 649.44 1712.3 652.56C1713.81 657.35 1717.98 658.23 1721.8 656.9C1725.87 655.49 1729.9 655.6 1733.71 656.12C1743.89 657.49 1754.04 657.84 1764.24 657.07C1771.76 656.5 1778.77 654.87 1784.14 648.72C1785.96 646.63 1785.63 645.03 1785.15 642.97" stroke="#131313" stroke-width="2" stroke-miterlimit="10" stroke-linecap="round" stroke-linejoin="round"/>
	<path d="M1494.7 461.17C1493.73 457.73 1492.47 454.35 1491.49 450.95C1490.5 447.51 1489.14 447.39 1486.21 448.12C1477.24 450.37 1474.59 453.35 1473.15 464.01C1463.09 463.18 1453.31 466.14 1443.28 466.8C1437.29 467.19 1434.68 463.45 1437.69 458.38C1441.62 451.76 1448.27 448.53 1455.16 445.96C1462.79 443.12 1470.74 441.92 1478.88 442.57C1482.4 442.85 1486.18 443.01 1487.92 447.05" stroke="#131313" stroke-width="2" stroke-miterlimit="10" stroke-linecap="round" stroke-linejoin="round"/>
	<path d="M1723.56 620.96C1723.91 624.31 1721.14 626.01 1719.56 628.27C1714.01 636.23 1716.96 647.75 1725.86 650.15C1731.06 651.55 1736.88 652.74 1742.14 651.25C1747.44 649.75 1752.82 650.1 1758.06 649.53C1767.4 648.51 1775.87 645.24 1784.58 642.42C1782.62 654.5 1784.22 672.68 1797.68 677.39C1804.54 679.79 1812.29 678.74 1819.41 678.61C1834.57 678.34 1849.72 678.11 1864.89 678.11C1899.42 678.11 1933.95 678.11 1968.48 678.11C1985.13 678.11 2001.77 678.11 2018.42 678.11C2036.85 678.11 2055.29 678.11 2073.72 678.11C2093.48 678.11 2113.23 678.11 2132.99 678.11C2153.6 678.11 2174.21 678.11 2194.83 678.11C2215.83 678.11 2236.83 678.11 2257.83 678.11C2278.75 678.11 2299.67 678.11 2320.59 678.11C2340.97 678.11 2361.34 678.11 2381.72 678.11C2401.08 678.11 2420.45 678.11 2439.81 678.11C2457.69 678.11 2475.58 678.11 2493.46 678.11C2509.4 678.11 2525.33 678.11 2541.27 678.11C2554.79 678.11 2568.32 678.11 2581.84 678.11C2592.48 678.11 2603.12 678.11 2613.77 678.11C2621.06 678.11 2628.36 678.11 2635.65 678.11C2639.13 678.11 2642.61 678.11 2646.09 678.11C2646.32 678.11 2646.55 678.11 2646.78 678.11C2745.93 678.42 2787.01 677.46 2886.15 678.57C2917.67 678.92 2949.19 678.61 2980.72 678.64C2986.43 678.65 2991.89 676.23 2997.79 677.41C3001.7 678.2 3005.83 677.89 3009.86 678.07" stroke="#131313" stroke-width="2" stroke-miterlimit="10" stroke-linecap="round" stroke-linejoin="round"/>
	<path d="M1554.6 234.17C1555.43 237.04 1553.32 238.52 1551.81 240.41C1544.69 249.3 1539.85 258.94 1540.37 270.88C1540.85 281.82 1547.39 288.15 1555.74 293.45C1560.89 296.73 1566.37 298.64 1572.69 298.06C1577.11 297.66 1581.79 297.21 1585.65 300.27C1587.08 301.4 1587.69 300.5 1589.06 299.09C1586.1 295.01 1580.73 293.1 1578.28 288.4C1575.36 282.81 1572.52 277.35 1575.5 270.87C1577.32 266.9 1580.68 264.38 1584 261.86C1586.67 259.83 1589.78 258.37 1592.15 255.06C1584.59 252 1576.81 251.42 1569.34 254.07C1559.55 257.55 1555.73 268.46 1560.91 277.59C1564.63 284.16 1570.36 288.97 1577.2 292.33C1578.35 292.9 1579.46 292.98 1580.59 292.32" stroke="#131313" stroke-width="2" stroke-miterlimit="10" stroke-linecap="round" stroke-linejoin="round"/>
	<path d="M1593.59 222.88C1592.65 225.52 1591.78 228.18 1590.75 230.78C1589.6 233.67 1589.74 236.18 1592.61 238.22C1595.53 236.34 1598.34 233.94 1601.58 232.67C1603.45 231.93 1605.67 230.03 1608.39 232.38C1611.21 234.81 1611.14 237.84 1610.39 240.35C1608.79 245.74 1607.14 251.28 1602.39 255.53C1607.36 261.28 1612.34 266.21 1615.74 272.52C1623.44 286.8 1614.51 298.04 1599.81 298.08C1596.25 298.09 1592.57 296.82 1589.07 298.55" stroke="#131313" stroke-width="2" stroke-miterlimit="10" stroke-linecap="round" stroke-linejoin="round"/>
	<path d="M1573.81 218.36C1563.19 225.3 1562.62 235.12 1565.97 246.01C1561.11 247.48 1559.28 246.38 1554.6 239.25" stroke="#131313" stroke-width="2" stroke-miterlimit="10" stroke-linecap="round" stroke-linejoin="round"/>
	<path d="M1576.07 213.85C1573.96 220.5 1574.31 227.36 1574.44 234.18C1574.48 236.31 1576.76 236.73 1578.56 237.64C1582.61 233.17 1585.16 226.88 1591.89 225.15" stroke="#131313" stroke-width="2" stroke-miterlimit="10" stroke-linecap="round" stroke-linejoin="round"/>
	<path d="M1410.5 327.91C1406.63 329.89 1402.56 326.78 1398.6 328.4C1397.66 328.78 1396.45 328.49 1395.79 329.72C1395.44 332.15 1399.48 332.3 1398.8 335.3C1398.62 336.07 1400.67 337.82 1402 337.43C1406.76 336.03 1411.1 337.86 1415.59 338.65" stroke="#131313" stroke-width="2" stroke-miterlimit="10" stroke-linecap="round" stroke-linejoin="round"/>
	<path d="M1638.23 147.78C1638.81 151.98 1642.72 155.07 1642.19 159.64" stroke="#131313" stroke-width="2" stroke-miterlimit="10" stroke-linecap="round" stroke-linejoin="round"/>
	<path d="M1587.37 301.37C1588.1 304.01 1591.67 304.58 1591.89 307.58" stroke="#131313" stroke-width="2" stroke-miterlimit="10" stroke-linecap="round" stroke-linejoin="round"/>
	</g>
	<mask id="mask2_162_808" style="mask-type:alpha" maskUnits="userSpaceOnUse" x="2583" y="100" width="2974" height="579">
	<rect x="2583" y="100" width="2974" height="579" fill="#FAFF00"/>
	</mask>
	<g mask="url(#mask2_162_808)">
	<path d="M4074.87 449.31C4076.57 449.46 4078.27 449.61 4079.99 449.76C4081.39 447.3 4079.95 444.67 4079.22 442.6C4075.4 431.77 4070.53 424.45 4056.28 432.48C4050.53 435.72 4044.75 438.96 4038.65 441.26C4031.98 443.77 4025.86 446.96 4020.04 450.99C4010.81 457.39 4002.49 465.07 3992.39 470.25C3978.87 477.17 3965.1 482.85 3949.43 482.13C3939.62 481.68 3936.85 477.07 3941.46 468.49C3943.03 465.57 3944.81 462.92 3947.16 460.61C3960.81 447.16 3977.5 437.98 3993.55 427.95C4002.06 422.63 4010.99 417.99 4017.8 410.36C4021.24 406.51 4021.53 402.47 4018.95 397.92C4016.07 392.82 4011.4 389.92 4006.5 387.19C3993.94 380.22 3980.11 379.8 3966.37 380.01C3954.63 380.19 3942.96 381.62 3931.3 383.65C3905.22 388.18 3710.7 451.79 3714.81 512.7C3718.92 573.61 3820.17 566.34 3805.12 628.81C3795.97 666.79 3738.4 670.22 3707.57 671.54C3658.36 673.65 3609.12 667.03 3559.94 670.92C3519.72 674.11 3479.4 675.95 3439.06 676.99C3398.55 678.04 3358.02 678.28 3317.5 678.28C3277.56 678.28 3237.62 678.13 3197.67 678.12C3166.73 678.12 3135.79 678.11 3104.86 678.11C3074.24 678.11 3043.62 678.11 3012.99 678.11C2993.57 678.11 2974.16 678.11 2954.74 678.11C2937.87 678.11 2921 678.11 2904.12 678.11C2864.68 678.11 2825.25 678.11 2785.81 678.11C2703.12 678.42 2668.86 677.46 2586.17 678.57C2559.88 678.92 2533.59 678.61 2507.3 678.64C2502.54 678.65 2497.99 676.23 2493.07 677.41C2489.81 678.2 2486.36 677.89 2483 678.07" stroke="#131313" stroke-width="2" stroke-miterlimit="10" stroke-linecap="round" stroke-linejoin="round"/>
	</g>
	</g>
	</svg>
	