<svg width="2582" height="745" viewBox="0 0 2582 745" fill="none" xmlns="http://www.w3.org/2000/svg">
	<mask id="mask0_162_808" style="mask-type:alpha" maskUnits="userSpaceOnUse" x="0" y="85" width="2582" height="491">
	<rect x="0.0410156" y="85.3113" width="2581.74" height="489.786" fill="#FAFF00"/>
	</mask>
	<g mask="url(#mask0_162_808)">
	<mask id="mask1_162_808" style="mask-type:alpha" maskUnits="userSpaceOnUse" x="0" y="85" width="2516" height="491">
	<rect x="0.0410156" y="85.3115" width="2515.76" height="489.786" fill="#FAFF00"/>
	</mask>
	<g mask="url(#mask1_162_808)">
	<path d="M1262.04 380.799C1263.48 380.926 1264.92 381.052 1266.37 381.179C1267.55 379.098 1266.34 376.874 1265.72 375.123C1262.49 365.961 1258.37 359.769 1246.31 366.562C1241.45 369.303 1236.56 372.043 1231.4 373.989C1225.76 376.112 1220.58 378.811 1215.66 382.22C1207.85 387.634 1200.81 394.13 1192.27 398.512C1180.83 404.366 1169.18 409.171 1155.93 408.562C1147.63 408.181 1145.29 404.281 1149.19 397.023C1150.51 394.553 1152.02 392.312 1154.01 390.358C1165.55 378.98 1179.67 371.214 1193.25 362.73C1200.45 358.23 1208 354.305 1213.76 347.85C1216.67 344.593 1216.92 341.176 1214.74 337.327C1212.3 333.013 1208.35 330.56 1204.2 328.25C1193.58 322.354 1181.88 321.999 1170.26 322.177C1160.33 322.329 1150.45 323.539 1140.59 325.256C1118.53 329.088 953.982 382.897 957.458 434.421C960.935 485.946 1046.58 479.796 1033.85 532.641C1026.11 564.769 977.414 567.67 951.334 568.787C909.706 570.572 868.053 564.972 826.451 568.262C792.428 570.961 758.321 572.517 724.197 573.397C689.929 574.285 655.644 574.488 621.367 574.488C587.581 574.488 553.795 574.361 520.001 574.353C493.828 574.353 467.655 574.345 441.491 574.345C415.589 574.345 389.687 574.345 363.777 574.345C347.349 574.345 330.93 574.345 314.502 574.345C300.232 574.345 285.961 574.345 271.682 574.345C238.319 574.345 204.964 574.345 171.601 574.345C101.653 574.607 72.6714 573.795 2.72249 574.734C-19.5167 575.03 -41.7558 574.767 -63.995 574.793C-68.0216 574.801 -71.8705 572.754 -76.0324 573.752C-78.7901 574.421 -81.7085 574.158 -84.5508 574.311" stroke="#131313" stroke-width="2" stroke-miterlimit="10" stroke-linecap="round" stroke-linejoin="round"/>
	<path d="M1261.57 441.933C1263.85 440.842 1265.75 442.373 1267.78 442.906C1279.16 445.892 1289.35 441.865 1298.77 436.536C1315.52 427.07 1329.38 414.043 1341.96 399.502C1348.28 392.193 1355.11 385.164 1362.54 379.031C1371.41 371.714 1374.84 371.756 1383.8 379.513C1391.6 386.272 1398.59 394.063 1405.36 401.879C1413.43 411.193 1422.41 419.559 1431.23 428.111C1438.95 435.589 1446.98 442.999 1449.83 453.894C1451.67 460.949 1452.8 468.199 1454.2 475.372C1457.29 491.36 1461.07 507.17 1466.16 522.659" stroke="#131313" stroke-width="2" stroke-miterlimit="10" stroke-linecap="round" stroke-linejoin="round"/>
	<path d="M1397.8 128.115C1399.03 138.917 1401.45 149.584 1400.75 160.598C1400.45 165.344 1402.67 169.819 1403.7 174.404C1406.19 185.468 1407.75 196.541 1407.36 207.877C1407.21 212.199 1405.35 216.175 1404.24 220.227C1403.21 223.949 1403.44 225.776 1406.85 227.51C1411.18 229.718 1412.65 231.714 1410.08 237.424C1406.67 244.995 1403.7 252.71 1400.58 260.383C1398.41 265.746 1397.77 270.559 1400.02 276.244C1403.03 283.814 1404.63 291.842 1405.65 300.039C1406.34 305.504 1406.61 310.918 1406.28 316.298C1405.78 324.765 1405.01 333.284 1403.33 341.582C1402.41 346.142 1402.88 350.54 1402.63 354.998C1402.32 360.624 1400.13 362.172 1394.94 359.744C1390.42 357.638 1386.06 355.201 1381.52 353.12C1378.97 351.953 1376.21 351.361 1373.19 352.698C1375.95 357.528 1381.16 358.932 1385.36 361.69C1388.21 363.559 1390.86 365.767 1393.61 367.713C1396.29 369.607 1393.94 372.077 1395.73 374.218C1400.64 380.131 1405.35 386.255 1410.77 391.703C1421.57 402.564 1432.8 413.003 1443.66 423.805C1449.15 429.261 1453.87 435.606 1455.01 443.371C1456.27 451.898 1457.88 460.324 1459.98 468.656C1462.08 476.971 1463.96 485.38 1466.78 493.458C1469.66 501.731 1472.48 510.097 1476.62 517.736C1474.48 521.399 1470.05 520.883 1467.13 523.116" stroke="#131313" stroke-width="2" stroke-miterlimit="10" stroke-linecap="round" stroke-linejoin="round"/>
	<path d="M1256.3 436.206C1259.79 438.922 1261.24 443.236 1264.39 446.273C1273.65 455.214 1283.83 453.97 1294.56 449.606C1308.27 444.022 1319.61 434.802 1331.35 426.165C1338.42 420.971 1345.37 415.617 1353.36 411.852C1359.16 409.12 1364.2 408.765 1370.23 413.053C1383.05 422.156 1395.02 432.273 1407.33 441.967C1412.32 445.892 1417.76 449.225 1422.22 453.835C1425.26 456.965 1426.75 460.425 1426.54 464.857C1425.67 483.112 1428.32 500.834 1435.08 517.879C1435.32 518.48 1435.12 519.115 1435.53 519.808C1439.77 527.176 1437.18 527.548 1448.03 526.203C1454.31 525.425 1460.37 523.699 1466.65 523.124" stroke="#131313" stroke-width="2" stroke-miterlimit="10" stroke-linecap="round" stroke-linejoin="round"/>
	<path d="M1350.48 264.731C1347.71 259.274 1342.55 261.11 1338.55 261.584C1331.39 262.43 1324.24 264.308 1318.51 269.104C1316.02 271.193 1313.21 272.361 1310.3 273.257C1303.55 275.347 1297.96 279.796 1291.26 282.106C1286.88 283.62 1282.82 283.874 1278.8 282.334C1267.39 277.969 1255.8 278.147 1243.85 279.348C1236.31 280.109 1228.57 280.422 1220.93 279.517C1218.7 279.255 1217.09 277.825 1215.67 276.193C1212.36 272.395 1208.22 269.561 1204.15 266.701C1202.87 265.805 1201.14 264.02 1199.47 265.737C1197.67 267.59 1199.65 268.833 1200.86 269.958C1202.1 271.117 1203.49 272.124 1204.49 272.953C1202.73 277.893 1199.63 276.506 1197.58 275.11C1194.52 273.02 1191.02 271.938 1187.9 270.034C1187.14 269.569 1186.09 270.001 1185.43 271.21C1187.19 274.932 1193.28 274.239 1194.15 279.06" stroke="#131313" stroke-width="2" stroke-miterlimit="10" stroke-linecap="round" stroke-linejoin="round"/>
	<path d="M1192.73 288.128C1191.63 289.685 1188.72 288.898 1188.31 291.724C1190.02 291.977 1191.55 292.163 1193.22 291.504C1196.74 290.108 1200.3 291.072 1203.71 292.011C1208.76 293.407 1213.72 293.542 1218.52 291.427C1221.86 289.956 1224.51 292.104 1227.09 293.06C1238.03 297.087 1249.37 299.557 1260.61 302.45C1272.64 305.546 1284.57 305.174 1296.49 301.604C1298.83 300.902 1301.55 301.46 1304.11 301.511C1308.02 301.595 1309.61 300.09 1309.87 296.249C1310.21 290.928 1308.09 286.521 1305.06 282.393C1301.94 282.19 1301.32 283.95 1301.17 286.69C1300.92 291.064 1301.68 295.327 1302.27 299.582C1302.99 304.725 1306.48 306.747 1311.75 305.301C1319.66 303.135 1326.51 304.032 1332.4 310.503C1336.22 314.699 1339.97 318.911 1343.3 323.488C1348.89 331.177 1348.53 335.457 1341.93 342.056C1344.17 345.879 1348.29 347.08 1351.96 348.155C1358.04 349.94 1361.02 354.33 1363.96 359.245C1364.77 360.581 1363.4 361.216 1363.92 362.248C1360.94 361.901 1359 359.718 1356.74 358.28C1351.25 354.778 1345.15 352.909 1338.98 351.276C1336.89 350.726 1334.73 350.989 1332.71 353.002C1327.88 357.79 1323.79 362.941 1321.3 369.328C1319.68 373.49 1316.76 376.62 1313.24 379.411C1301.45 388.767 1290.58 399.011 1283.1 412.326C1282.69 413.062 1282.41 413.874 1281.73 414.373C1278.58 407.843 1277.46 401.397 1274.53 395.585C1273.06 392.692 1271.86 390.061 1267.79 390.264C1264.67 390.417 1263.37 391.618 1262.97 394.646C1261.74 404.171 1249.89 413.772 1240.06 416.116C1238.18 416.564 1236.1 416.175 1235.39 414.204C1234.89 412.817 1235.2 411.235 1236.65 409.873C1238.76 407.902 1241.03 406.227 1243.42 404.704C1246.22 402.928 1249.49 401.278 1250.92 398.411C1253.46 393.318 1257.72 392.523 1262.53 392.269" stroke="#131313" stroke-width="2" stroke-miterlimit="10" stroke-linecap="round" stroke-linejoin="round"/>
	<path d="M1345.7 254.698C1353.52 260.323 1360.77 266.803 1369.75 271.853C1369.9 269.84 1370.34 268.605 1370.03 267.615C1366.91 257.989 1371.89 250.045 1376.07 242.415C1378.61 237.796 1382.14 233.068 1383.01 228.339C1384.11 222.418 1387.14 216.369 1384.6 209.729C1383 205.567 1384.7 200.771 1385.53 196.448C1387.09 188.353 1388.6 180.283 1389.21 172.06C1389.48 168.55 1390.66 165.115 1390.14 161.554C1389.6 157.925 1389.21 154.871 1384.52 153.162C1379.23 151.234 1376.11 145.82 1371.79 141.844C1375.2 139.298 1377.26 142.064 1379.94 142.495C1381.97 137.132 1373.45 134.518 1376.39 128.995C1380.88 130.17 1380.6 135.863 1384.65 137.911C1386.55 132.937 1380.45 129.079 1383.22 124.224C1385.05 124.613 1387.02 126.144 1389.11 124.528C1391.95 128.318 1391.79 133.131 1394.32 136.735C1396.98 136.227 1394.92 133.207 1396.86 132.412" stroke="#131313" stroke-width="2" stroke-miterlimit="10" stroke-linecap="round" stroke-linejoin="round"/>
	<path d="M1452.78 533.165C1448.43 534.849 1446.11 538.85 1446.63 544.619C1446.87 547.36 1447.68 550.092 1448.51 552.731C1449.78 556.783 1453.31 557.528 1456.54 556.403C1459.98 555.21 1463.39 555.303 1466.62 555.743C1475.23 556.902 1483.81 557.198 1492.44 556.546C1498.8 556.064 1504.73 554.685 1509.28 549.483C1510.82 547.715 1510.54 546.362 1510.13 544.619" stroke="#131313" stroke-width="2" stroke-miterlimit="10" stroke-linecap="round" stroke-linejoin="round"/>
	<path d="M1264.43 390.831C1263.61 387.921 1262.55 385.062 1261.72 382.186C1260.88 379.276 1259.73 379.175 1257.25 379.792C1249.66 381.695 1247.42 384.216 1246.2 393.234C1237.69 392.532 1229.42 395.036 1220.94 395.594C1215.87 395.924 1213.66 392.76 1216.21 388.471C1219.53 382.871 1225.16 380.139 1230.99 377.965C1237.44 375.563 1244.16 374.547 1251.05 375.097C1254.03 375.334 1257.23 375.469 1258.7 378.887" stroke="#131313" stroke-width="2" stroke-miterlimit="10" stroke-linecap="round" stroke-linejoin="round"/>
	<path d="M1458.03 526C1458.33 528.834 1455.98 530.272 1454.65 532.184C1449.95 538.918 1452.45 548.662 1459.98 550.693C1464.37 551.877 1469.3 552.884 1473.75 551.623C1478.23 550.354 1482.78 550.65 1487.21 550.168C1495.11 549.305 1502.28 546.539 1509.65 544.154C1507.99 554.372 1509.34 569.751 1520.73 573.735C1526.53 575.766 1533.09 574.877 1539.11 574.768C1551.93 574.539 1564.75 574.345 1577.58 574.345C1606.79 574.345 1636 574.345 1665.21 574.345C1679.3 574.345 1693.37 574.345 1707.46 574.345C1723.05 574.345 1738.65 574.345 1754.24 574.345C1770.95 574.345 1787.66 574.345 1804.37 574.345C1821.81 574.345 1839.24 574.345 1856.68 574.345C1874.45 574.345 1892.21 574.345 1909.98 574.345C1927.67 574.345 1945.37 574.345 1963.07 574.345C1980.31 574.345 1997.54 574.345 2014.78 574.345C2031.16 574.345 2047.54 574.345 2063.92 574.345C2079.04 574.345 2094.18 574.345 2109.3 574.345C2122.78 574.345 2136.26 574.345 2149.74 574.345C2161.18 574.345 2172.63 574.345 2184.06 574.345C2193.06 574.345 2202.06 574.345 2211.07 574.345C2217.24 574.345 2223.42 574.345 2229.58 574.345C2232.53 574.345 2235.47 574.345 2238.41 574.345C2238.61 574.345 2238.8 574.345 2239 574.345C2322.87 574.607 2357.62 573.795 2441.48 574.734C2468.15 575.03 2494.81 574.767 2521.48 574.793C2526.31 574.801 2530.93 572.754 2535.92 573.752C2539.23 574.421 2542.72 574.158 2546.13 574.311" stroke="#131313" stroke-width="2" stroke-miterlimit="10" stroke-linecap="round" stroke-linejoin="round"/>
	<path d="M1315.1 198.808C1315.81 201.236 1314.02 202.488 1312.74 204.087C1306.72 211.607 1302.63 219.761 1303.07 229.862C1303.47 239.116 1309 244.471 1316.07 248.954C1320.42 251.729 1325.06 253.344 1330.41 252.854C1334.15 252.515 1338.1 252.135 1341.37 254.723C1342.58 255.679 1343.1 254.918 1344.25 253.725C1341.75 250.274 1337.21 248.658 1335.14 244.682C1332.67 239.953 1330.26 235.335 1332.78 229.853C1334.32 226.495 1337.17 224.363 1339.97 222.232C1342.23 220.514 1344.86 219.279 1346.87 216.479C1340.47 213.891 1333.89 213.4 1327.57 215.642C1319.29 218.586 1316.06 227.815 1320.44 235.538C1323.59 241.095 1328.44 245.164 1334.22 248.007C1335.19 248.489 1336.13 248.556 1337.09 247.998" stroke="#131313" stroke-width="2" stroke-miterlimit="10" stroke-linecap="round" stroke-linejoin="round"/>
	<path d="M1348.09 189.258C1347.29 191.491 1346.56 193.741 1345.68 195.94C1344.71 198.385 1344.83 200.508 1347.26 202.234C1349.73 200.644 1352.1 198.613 1354.85 197.539C1356.43 196.913 1358.3 195.306 1360.61 197.294C1362.99 199.349 1362.93 201.912 1362.3 204.036C1360.94 208.595 1359.55 213.282 1355.53 216.877C1359.73 221.741 1363.95 225.911 1366.82 231.249C1373.34 243.329 1365.78 252.837 1353.35 252.871C1350.34 252.879 1347.22 251.805 1344.26 253.268" stroke="#131313" stroke-width="2" stroke-miterlimit="10" stroke-linecap="round" stroke-linejoin="round"/>
	<path d="M1331.35 185.434C1322.37 191.305 1321.89 199.612 1324.72 208.824C1320.61 210.067 1319.06 209.137 1315.1 203.106" stroke="#131313" stroke-width="2" stroke-miterlimit="10" stroke-linecap="round" stroke-linejoin="round"/>
	<path d="M1333.27 181.619C1331.48 187.244 1331.78 193.047 1331.89 198.817C1331.92 200.618 1333.85 200.974 1335.37 201.744C1338.8 197.962 1340.96 192.641 1346.65 191.178" stroke="#131313" stroke-width="2" stroke-miterlimit="10" stroke-linecap="round" stroke-linejoin="round"/>
	<path d="M1193.21 278.104C1189.93 279.779 1186.49 277.148 1183.14 278.519C1182.35 278.84 1181.32 278.595 1180.76 279.635C1180.47 281.691 1183.89 281.818 1183.31 284.356C1183.16 285.007 1184.89 286.487 1186.02 286.157C1190.04 284.973 1193.72 286.521 1197.51 287.189" stroke="#131313" stroke-width="2" stroke-miterlimit="10" stroke-linecap="round" stroke-linejoin="round"/>
	<path d="M1385.85 125.729C1386.34 129.282 1389.65 131.896 1389.2 135.762" stroke="#131313" stroke-width="2" stroke-miterlimit="10" stroke-linecap="round" stroke-linejoin="round"/>
	<path d="M1342.83 255.654C1343.44 257.887 1346.46 258.369 1346.65 260.907" stroke="#131313" stroke-width="2" stroke-miterlimit="10" stroke-linecap="round" stroke-linejoin="round"/>
	</g>
	<mask id="mask2_162_808" style="mask-type:alpha" maskUnits="userSpaceOnUse" x="2185" y="85" width="2516" height="491">
	<rect x="2185.04" y="85.3115" width="2515.76" height="489.786" fill="#FAFF00"/>
	</mask>
	<g mask="url(#mask2_162_808)">
	<path d="M3447.04 380.799C3448.48 380.926 3449.92 381.052 3451.37 381.179C3452.56 379.098 3451.34 376.874 3450.72 375.123C3447.49 365.961 3443.37 359.769 3431.32 366.562C3426.45 369.303 3421.56 372.043 3416.4 373.989C3410.76 376.112 3405.58 378.811 3400.66 382.22C3392.85 387.634 3385.82 394.13 3377.27 398.512C3365.84 404.366 3354.19 409.171 3340.93 408.562C3332.63 408.181 3330.29 404.281 3334.19 397.023C3335.52 394.553 3337.02 392.312 3339.01 390.358C3350.56 378.98 3364.68 371.214 3378.25 362.73C3385.45 358.23 3393.01 354.305 3398.77 347.85C3401.68 344.593 3401.92 341.176 3399.74 337.327C3397.3 333.013 3393.35 330.56 3389.21 328.25C3378.58 322.354 3366.88 321.999 3355.26 322.177C3345.33 322.329 3335.46 323.539 3325.59 325.256C3303.53 329.088 3138.99 382.897 3142.46 434.421C3145.94 485.946 3231.59 479.796 3218.86 532.641C3211.12 564.769 3162.42 567.67 3136.34 568.787C3094.71 570.572 3053.06 564.972 3011.46 568.262C2977.43 570.961 2943.32 572.517 2909.2 573.397C2874.93 574.285 2840.65 574.488 2806.37 574.488C2772.59 574.488 2738.8 574.361 2705 574.353C2678.83 574.353 2652.66 574.345 2626.5 574.345C2600.59 574.345 2574.69 574.345 2548.78 574.345C2532.35 574.345 2515.93 574.345 2499.51 574.345C2485.24 574.345 2470.96 574.345 2456.69 574.345C2423.32 574.345 2389.97 574.345 2356.61 574.345C2286.66 574.607 2257.68 573.795 2187.73 574.734C2165.49 575.03 2143.25 574.767 2121.01 574.793C2116.98 574.801 2113.13 572.754 2108.97 573.752C2106.21 574.421 2103.3 574.158 2100.45 574.311" stroke="#131313" stroke-width="2" stroke-miterlimit="10" stroke-linecap="round" stroke-linejoin="round"/>
	</g>
	</g>
	</svg>
	