<svg width="3055" height="879" viewBox="0 0 3055 879" fill="none" xmlns="http://www.w3.org/2000/svg">
	<path d="M1768.74 645.474C1774.46 643.204 1779.9 640.484 1783.89 635.564C1786.98 631.754 1787.03 627.404 1784.99 623.374C1778.74 611.034 1772.62 598.424 1758.82 592.514C1753.56 590.264 1752.69 585.694 1753.75 581.444C1758.04 564.344 1763.19 547.864 1778.5 536.354C1789.23 528.284 1789.34 522.234 1780.24 509.274C1769.87 494.494 1755.33 484.784 1738.47 478.194C1726.12 473.374 1713.91 468.114 1704.59 457.944C1694.52 446.954 1690.85 434.204 1691.65 419.454C1692.19 409.494 1694.84 400.024 1696.3 390.314C1698.67 374.624 1694.04 360.774 1681.86 350.194C1668.56 338.644 1652.71 333.284 1635.31 331.334C1627.69 330.474 1619.86 329.914 1612.55 326.874C1600.22 321.754 1594.67 311.414 1591.7 299.434C1589.57 290.844 1587.92 282.044 1587.04 273.234C1585.16 254.444 1577.36 238.234 1565.85 223.804C1552.74 207.374 1536.88 194.154 1516.98 186.484C1504.63 181.724 1491.76 179.774 1478.57 178.524C1471.36 177.834 1464.19 177.404 1456.98 177.104C1430.34 175.994 1406.01 183.844 1383.01 196.414C1369.55 203.764 1359.88 215.294 1352.88 228.504C1344.92 243.494 1337.56 258.914 1333.44 275.574C1331.12 284.954 1330.29 294.544 1329.38 304.124C1328.77 310.524 1328.49 316.984 1327.47 323.324C1327.13 325.464 1327.41 326.704 1328.79 328.004" stroke="#131313" stroke-width="2" stroke-miterlimit="10" stroke-linecap="round" stroke-linejoin="round"/>
	<path d="M1299.65 416.834C1297.24 416.594 1296.81 418.224 1296.75 420.034C1296.63 423.754 1295.79 427.544 1295.8 431.104C1295.89 446.634 1289.44 460.044 1283.32 473.624C1277 487.664 1270.1 501.444 1266.93 516.714C1265.43 523.934 1267.48 531.664 1272.84 535.374C1279.31 539.844 1285.65 537.844 1286.02 530.124C1286.83 513.114 1292.79 497.794 1298.91 482.304C1301.72 475.204 1302.38 467.314 1302.46 459.644C1302.59 447.604 1303.24 435.524 1301.46 423.524C1301.15 421.434 1300.82 419.474 1299.65 417.704" stroke="#131313" stroke-width="2" stroke-miterlimit="10" stroke-linecap="round" stroke-linejoin="round"/>
	<path d="M1523.42 392.084C1523.25 387.254 1521.31 382.774 1520.24 378.164C1518.15 369.124 1519.05 361.524 1526.35 355.404C1534.88 348.254 1540.55 339.404 1543.25 328.594C1547.32 312.294 1550.73 295.904 1552.14 279.094C1552.68 272.674 1553.67 266.234 1553.03 259.874C1551.68 246.544 1550.12 233.314 1542.79 221.334C1534.28 207.424 1522.25 199.324 1506.52 196.414C1496.27 194.514 1485.99 194.654 1475.63 196.284C1464.15 198.094 1453.04 201.094 1442.46 205.764C1430.42 211.074 1418.95 217.444 1409.79 227.244C1403.66 233.804 1399.72 241.104 1400.36 250.554C1400.72 255.944 1403.31 259.524 1407.5 262.144C1411.28 264.504 1413.93 260.934 1416.08 259.134C1422.15 254.024 1426.67 247.384 1430.71 240.604C1438.23 227.984 1447.01 216.494 1458.12 206.804C1460.08 205.094 1462.64 203.584 1462.83 200.444" stroke="#131313" stroke-width="2" stroke-miterlimit="10" stroke-linecap="round" stroke-linejoin="round"/>
	<path d="M1743.1 658.874C1746.87 650.794 1749.57 648.964 1758.22 650.334C1760.56 650.704 1762.52 649.974 1764.66 650.004C1768.97 650.054 1773.16 652.984 1773.38 657.134C1774.01 668.964 1774.64 667.594 1763.44 671.534C1751.29 675.804 1738.54 677.654 1725.64 678.894C1715.13 679.914 1704.57 681.224 1694.11 683.094C1689.62 683.894 1684.84 684.424 1680.17 684.464C1664.63 684.574 1649.06 685.144 1633.56 684.344C1614.72 683.374 1595.88 682.614 1577.04 681.874C1568.7 681.544 1560.28 681.794 1551.98 680.894C1545.37 680.174 1538.76 679.804 1531.92 679.874C1533.44 672.654 1535.53 666.114 1536.08 659.454C1537.01 648.034 1541.38 636.814 1538.14 625.054C1537.47 622.634 1536.03 621.714 1534.71 620.314C1524.42 626.064 1525.39 643.104 1536.24 651.304" stroke="#131313" stroke-width="2" stroke-miterlimit="10" stroke-linecap="round" stroke-linejoin="round"/>
	<path d="M1600.92 587.224C1602.6 579.974 1607.65 574.604 1612.15 569.304C1622.83 556.694 1634.84 545.324 1648.12 535.384C1649.67 534.224 1651.35 533.184 1652.76 531.864C1659.38 525.634 1659.64 525.424 1654.48 517.354C1635.8 488.134 1620.35 456.964 1600.87 428.234C1589.44 411.374 1575.5 397.484 1554.9 392.034C1544.02 389.164 1533.54 387.964 1522.73 393.004C1518.77 394.854 1513.33 394.414 1509.47 390.884C1504.89 386.694 1500.47 382.294 1497.23 376.924C1496.03 374.944 1494.39 373.544 1492.77 372.174C1482.72 376.754 1483.84 385.804 1490.24 396.144C1491.4 398.014 1492.93 399.654 1494.29 401.404" stroke="#131313" stroke-width="2" stroke-miterlimit="10" stroke-linecap="round" stroke-linejoin="round"/>
	<path d="M1773.99 654.794C1774.58 653.834 1775.57 654.094 1776.31 654.244C1788.36 656.714 1800.42 659.164 1812.44 661.804C1833.98 666.534 1860.67 655.314 1882.74 656.594L1965.36 656.584C1983.49 656.584 2001.53 659.214 2018.91 664.404C2049.54 673.554 2081.34 678.204 2113.31 678.224C2349.32 678.374 2463.38 677.594 2716.57 678.634C2802.35 678.984 2888.16 678.674 2973.95 678.704C2989.5 678.714 3004.35 676.294 3020.4 677.474C3031.04 678.264 3042.28 677.954 3053.26 678.134" stroke="#131313" stroke-width="2" stroke-miterlimit="10" stroke-linecap="round" stroke-linejoin="round"/>
	<path d="M1160.96 482.954C1167.83 509.004 1178.75 533.514 1189.48 558.114C1194.94 570.624 1202.92 581.684 1209.25 593.674C1211 596.984 1213.98 600.124 1211.8 604.764C1210.63 607.244 1209.31 608.174 1207.01 607.564C1200.28 605.794 1193.99 603.994 1188.15 599.114C1173.98 587.294 1158.26 577.094 1141.51 569.684C1131.22 565.124 1121.39 558.474 1109.12 557.804C1098.31 557.214 1088.49 560.564 1078.2 562.064C1067.32 563.654 1059.04 568.834 1053.19 577.924C1046.68 588.014 1046.07 603.594 1055.41 612.934C1062.22 619.734 1070.19 624.664 1078.12 629.884C1086.87 635.644 1096.55 640.374 1102.77 649.494C1103.09 649.964 1103.38 650.434 1103.66 650.904C1105.49 654.054 1103.03 657.894 1099.38 657.894C1099.12 657.894 1098.87 657.904 1098.61 657.924C1071.35 660.194 1087.17 679.554 1056.51 678.624L1005.82 678.854L989.2 678.154C978.23 677.974 966.98 678.274 956.34 677.494C940.29 676.304 925.43 678.724 909.89 678.724C824.1 678.694 738.29 679.004 652.51 678.654C382.66 677.544 270.86 678.504 1 678.194" stroke="#131313" stroke-width="2" stroke-miterlimit="10" stroke-linecap="round" stroke-linejoin="round"/>
	<path d="M1331.12 334.994C1334.9 339.074 1333.23 344.504 1333.68 349.014C1335.65 368.544 1342.67 386.404 1349.79 404.304C1354.13 415.224 1358.67 426.024 1365.43 435.814C1377.25 452.924 1395.39 457.924 1415.6 450.904C1426.68 447.054 1436.34 440.654 1445.94 434.064C1457.84 425.904 1469.6 417.364 1482.23 410.484C1487.47 407.624 1494.49 404.484 1501.32 408.894C1503.09 410.034 1505.22 410.024 1507.69 409.954C1516.15 409.704 1525.01 409.384 1532.72 414.234C1536.18 416.404 1537.38 421.674 1535.01 424.664C1533.77 426.224 1532.78 427.184 1529.72 426.154C1520.49 423.034 1512.37 418.664 1505.92 411.314" stroke="#131313" stroke-width="2" stroke-miterlimit="10" stroke-linecap="round" stroke-linejoin="round"/>
	<path d="M1167.96 478.294C1174.51 489.154 1178.71 501.074 1183.75 512.634C1192.3 532.244 1201.83 551.424 1209.32 571.494C1210.91 575.754 1212.82 579.934 1213.91 584.324C1217.03 596.894 1224.77 604.134 1237.24 607.794C1248.67 611.154 1259.59 616.214 1269.34 623.344C1270.56 624.234 1271.79 625.164 1272.82 626.264C1275.69 629.334 1277.2 632.824 1274.55 636.704C1271.98 640.464 1268.15 639.424 1264.71 638.404C1262.07 637.624 1259.64 636.134 1257.11 634.994C1255.76 634.384 1254.3 633.174 1253.05 633.354C1246.32 634.324 1243.79 629.444 1240.8 625.094" stroke="#131313" stroke-width="2" stroke-miterlimit="10" stroke-linecap="round" stroke-linejoin="round"/>
	<path d="M1480.88 410.724C1478.26 406.164 1473.2 408.004 1469.76 407.604C1455.36 405.924 1446.04 397.834 1437.62 386.944C1426.64 372.744 1419.25 356.984 1415.85 339.614C1414.11 330.744 1413.77 321.554 1410.9 312.884C1407.68 303.134 1402.99 294.134 1395.78 286.674C1389.39 280.054 1381.7 278.054 1372.47 278.874C1364.68 279.574 1357.83 281.714 1351.49 286.034C1351.09 286.304 1350.35 286.074 1349.77 286.074" stroke="#131313" stroke-width="2" stroke-miterlimit="10" stroke-linecap="round" stroke-linejoin="round"/>
	<path d="M1448.25 179.464C1432.82 184.794 1418.83 192.924 1405.14 201.614C1378.51 218.524 1361.65 242.904 1352.93 272.734C1349.7 283.784 1344.47 293.604 1339.15 303.464C1334.64 311.814 1334.45 321.424 1330.05 329.794C1322.88 343.464 1314.6 355.334 1297.92 358.374C1288.42 360.104 1278.82 361.084 1269.31 362.694C1257.95 364.614 1248.53 369.714 1239.65 376.374C1224.98 387.374 1214.43 402.134 1203.48 416.524C1190.34 433.784 1177.33 451.154 1162.71 467.214" stroke="#131313" stroke-width="2" stroke-miterlimit="10" stroke-linecap="round" stroke-linejoin="round"/>
	<path d="M1581.11 618.094C1581.55 614.184 1578.05 613.164 1575.81 612.434C1568.38 610.044 1560.81 607.484 1553.12 606.624C1536.58 604.774 1520.7 600.204 1504.82 595.794C1491.93 592.214 1478.85 589.134 1465.7 588.284C1457.55 587.754 1450.35 585.784 1443.01 583.134C1432.07 579.184 1421.41 579.914 1410.96 584.884C1404.33 588.034 1397.56 590.584 1389.98 590.204C1388.06 590.104 1386.11 590.954 1384.15 591.284C1381.2 591.784 1381.35 594.244 1381.95 595.904C1382.85 598.394 1383.67 601.204 1385.92 602.914C1392.82 608.124 1400.03 611.704 1409.18 612.544C1425.39 614.034 1441.45 613.554 1457.57 612.264" stroke="#131313" stroke-width="2" stroke-miterlimit="10" stroke-linecap="round" stroke-linejoin="round"/>
	<path d="M1296.16 401.404C1292.66 397.524 1289.14 393.654 1285.68 389.744C1281.32 384.834 1275.27 383.144 1269.32 381.764C1266.07 381.014 1262.5 382.644 1260.67 385.704C1248.02 406.864 1227.52 420.554 1211.03 438.044C1203.97 445.534 1196.44 452.584 1188.9 459.604C1183.26 464.854 1177.4 469.884 1171.4 474.724C1168.9 476.744 1165.54 477.814 1162.78 475.304C1159.71 472.514 1157.22 474.014 1155.19 476.014C1134.85 496.084 1112.78 514.364 1093.41 535.414C1087.61 541.724 1080.81 546.884 1074.68 552.814C1071.58 555.814 1067.38 557.974 1068.31 563.334" stroke="#131313" stroke-width="2" stroke-miterlimit="10" stroke-linecap="round" stroke-linejoin="round"/>
	<path d="M1426.1 665.274C1414.45 660.424 1402.63 655.904 1391.21 650.544C1386.49 648.324 1381.77 649.714 1377.07 648.774C1371.32 647.614 1365.18 647.044 1359.08 647.084C1348.4 647.164 1337.72 646.284 1327.03 646.094C1315.56 645.884 1304.13 648.154 1292.66 647.144C1284.47 646.414 1276.35 645.654 1268.16 647.134C1266.54 647.424 1264.93 647.504 1263.52 648.394C1258.59 651.514 1254.63 650.914 1251.86 645.474" stroke="#131313" stroke-width="2" stroke-miterlimit="10" stroke-linecap="round" stroke-linejoin="round"/>
	<path d="M1135.91 569.164C1135.93 570.284 1136.01 571.164 1137.02 572.134C1148.14 582.764 1157.23 595.404 1169.67 604.754C1172.89 607.174 1171.43 609.174 1168.58 611.174C1162.23 615.644 1155.85 620.134 1149.97 625.184C1144.83 629.594 1139.72 634.324 1137.11 640.834C1132.09 653.314 1136.94 664.154 1149.87 670.584C1154.9 673.084 1160.26 673.984 1165.64 674.514C1173.95 675.334 1182.27 676.764 1190.17 676.304C1191.88 673.514 1188.42 671.674 1190.1 669.364" stroke="#131313" stroke-width="2" stroke-miterlimit="10" stroke-linecap="round" stroke-linejoin="round"/>
	<path d="M1600.34 615.474C1601.82 607.224 1606.89 600.714 1612.15 594.934C1629.4 575.934 1647.64 557.924 1669.1 543.534C1673.39 540.654 1677.63 537.694 1681.88 534.784C1683.95 535.704 1684.21 537.504 1685.05 539.364C1687.21 544.154 1690.17 548.564 1694.13 552.314C1718.28 575.194 1738.26 601.604 1758.28 627.984C1761.73 632.534 1764.25 637.604 1767.13 642.484C1768.66 645.074 1768.2 647.154 1767.58 649.554" stroke="#131313" stroke-width="2" stroke-miterlimit="10" stroke-linecap="round" stroke-linejoin="round"/>
	<path d="M1557.8 495.764C1558.8 509.754 1559.02 523.804 1561.2 537.724C1562.19 544.034 1562.35 550.524 1562.35 556.934C1562.35 559.994 1563.56 562.734 1563.6 565.674C1563.75 575.494 1560.94 584.684 1557.21 593.624C1555.96 596.624 1554.81 599.634 1554.9 602.954" stroke="#131313" stroke-width="2" stroke-miterlimit="10" stroke-linecap="round" stroke-linejoin="round"/>
	<path d="M1620.15 615.764C1619.71 618.884 1617.14 620.534 1614.86 621.474C1599.76 627.714 1586.37 637.134 1571.78 644.304C1562.66 648.784 1553.54 653.274 1544.38 657.684C1542.19 658.744 1539.85 659.524 1537.4 658.294" stroke="#131313" stroke-width="2" stroke-miterlimit="10" stroke-linecap="round" stroke-linejoin="round"/>
	<path d="M1163.29 476.544C1161.52 480.724 1158.5 483.464 1154.63 485.994C1142.49 493.934 1132.54 504.334 1124.33 516.214C1117.76 525.724 1108.85 533.024 1101.52 541.784C1100.55 542.944 1099.61 544.144 1098.6 545.274C1095.72 548.484 1094.48 551.334 1099.74 553.514C1100.77 553.934 1102.14 554.734 1102.1 556.354" stroke="#131313" stroke-width="2" stroke-miterlimit="10" stroke-linecap="round" stroke-linejoin="round"/>
	<path d="M1247.79 633.824C1247.51 637.814 1253.13 640.054 1250.93 644.624C1249.11 645.314 1247.15 645.614 1245.48 644.284C1241.38 641.024 1236.61 638.234 1234.51 633.184C1233.48 630.704 1231.59 629.434 1229.71 629.294C1220.74 628.604 1213.44 622.814 1204.69 621.394C1202.57 621.044 1200.39 620.164 1198.26 620.514C1196.12 620.874 1193.39 618.704 1191.87 621.604C1190.06 625.054 1191.84 628.364 1193.7 630.814C1198.53 637.184 1205.99 640.104 1212.85 643.644C1217.29 645.934 1221.8 648.124 1225.57 651.364C1228.61 653.974 1230.6 657.404 1229.13 661.774C1227.6 666.304 1223.93 666.644 1219.83 667.164C1215.05 667.764 1211.07 664.914 1206.4 664.994C1204.88 665.014 1202.6 662.034 1201.86 659.984C1197.09 646.834 1186.9 638.654 1176.15 630.844C1174.48 629.634 1172.93 629.024 1171.51 630.384C1170.24 631.604 1170.76 633.314 1171.39 634.994C1173.82 641.424 1179.04 645.564 1183.74 650.054C1187.12 653.284 1190.88 656.234 1194.84 658.714C1196.49 659.744 1198.67 661.584 1201.16 660.014" stroke="#131313" stroke-width="2" stroke-miterlimit="10" stroke-linecap="round" stroke-linejoin="round"/>
	<path d="M1327.62 336.744C1329.48 345.164 1326.75 352.274 1319.97 357.024C1306.81 366.224 1301.71 379.254 1298.74 394.354C1297.23 402.024 1297.33 409.144 1298.49 416.554" stroke="#131313" stroke-width="2" stroke-miterlimit="10" stroke-linecap="round" stroke-linejoin="round"/>
	<path d="M1624.81 583.144C1627.67 584.904 1630.82 585.534 1634.13 585.474C1638.15 585.394 1639.72 587.344 1639.4 591.304C1638.37 604.304 1630.55 614.934 1616.65 614.734C1599.48 614.484 1582.69 618.134 1565.98 621.694C1563.1 622.304 1560.52 624.304 1557.8 625.664" stroke="#131313" stroke-width="2" stroke-miterlimit="10" stroke-linecap="round" stroke-linejoin="round"/>
	<path d="M1524 393.824C1528.08 396.404 1527.83 401.674 1530.92 404.954C1532.48 406.614 1533.4 408.714 1536.24 408.424C1538.17 408.224 1539.14 407.424 1539.15 405.474C1539.16 402.874 1539.78 399.954 1536.79 398.534C1534.07 397.244 1531.27 395.584 1528.07 397.324" stroke="#131313" stroke-width="2" stroke-miterlimit="10" stroke-linecap="round" stroke-linejoin="round"/>
	<path d="M1659.19 610.524C1652.48 613.414 1645.41 615.054 1638.2 615.644C1634.38 615.954 1630.25 619.114 1626.56 615.184" stroke="#131313" stroke-width="2" stroke-miterlimit="10" stroke-linecap="round" stroke-linejoin="round"/>
	<path d="M1663.85 610.524C1657.45 606.754 1650.38 607.814 1643.46 607.544C1640.48 607.424 1637.78 610.264 1634.72 608.194" stroke="#131313" stroke-width="2" stroke-miterlimit="10" stroke-linecap="round" stroke-linejoin="round"/>
	<path d="M1396.97 611.684C1393.88 614.234 1389.51 613.934 1386.4 616.834C1382.2 620.754 1381.79 623.334 1385.9 627.414C1387.65 629.154 1389.4 630.904 1391.15 632.654" stroke="#131313" stroke-width="2" stroke-miterlimit="10" stroke-linecap="round" stroke-linejoin="round"/>
	<path d="M1565.37 573.824C1567.9 575.984 1567.05 579.364 1568.3 581.974C1570.68 586.964 1573.06 591.974 1577.05 595.944C1578.54 597.434 1579.75 598.934 1579.36 601.204" stroke="#131313" stroke-width="2" stroke-miterlimit="10" stroke-linecap="round" stroke-linejoin="round"/>
	<path d="M1407.46 638.484C1413.65 644.634 1422.28 646.544 1428.45 643.164C1428.67 643.044 1429.02 643.144 1429.32 643.144C1429.22 643.044 1429.13 642.954 1429.03 642.854C1425.83 638.414 1420.57 638.794 1416.18 638.104C1408.56 636.914 1400.82 636.654 1393.47 633.874C1389.47 632.364 1385.89 634.764 1382.48 636.284C1380.1 637.344 1380.8 640.104 1381.91 641.934C1383.41 644.414 1386.78 645.554 1387.09 648.964" stroke="#131313" stroke-width="2" stroke-miterlimit="10" stroke-linecap="round" stroke-linejoin="round"/>
	<path d="M1205.83 665.864C1204.43 670.464 1201.36 670.864 1197.07 670.044C1189.79 668.644 1184.62 665.494 1181.07 658.434C1178.92 654.164 1174.15 651.074 1170.21 647.894C1168.18 646.254 1165.45 644.574 1162.06 647.714C1167.61 653.634 1172.67 659.834 1181.36 661.194" stroke="#131313" stroke-width="2" stroke-miterlimit="10" stroke-linecap="round" stroke-linejoin="round"/>
	<path d="M1211.66 608.194C1217.06 613.674 1222.82 618.844 1227.36 625.104C1227.93 625.884 1229.34 626.714 1227.97 627.994" stroke="#131313" stroke-width="2" stroke-miterlimit="10" stroke-linecap="round" stroke-linejoin="round"/>
	<path d="M1560.13 591.294C1564.1 592.384 1567.21 595.004 1570.64 597.094C1577.69 601.394 1585.04 605.204 1591.1 611.014C1592.3 612.164 1593.59 613.184 1594.51 614.594" stroke="#131313" stroke-width="2" stroke-miterlimit="10" stroke-linecap="round" stroke-linejoin="round"/>
	<path d="M1618.4 586.054C1611.36 584.764 1604.97 587.114 1598.59 589.554" stroke="#131313" stroke-width="2" stroke-miterlimit="10" stroke-linecap="round" stroke-linejoin="round"/>
	<path d="M1511.76 393.244C1507.72 397.524 1501.44 398.044 1497.19 401.984" stroke="#131313" stroke-width="2" stroke-miterlimit="10" stroke-linecap="round" stroke-linejoin="round"/>
	<path d="M1477.38 180.044C1476.46 186.064 1471.45 190.104 1469.8 195.774" stroke="#131313" stroke-width="2" stroke-miterlimit="10" stroke-linecap="round" stroke-linejoin="round"/>
	<path d="M1544.98 622.174C1552.15 622.074 1558.05 623.664 1559.63 632.064C1560.15 634.854 1562.96 636.994 1562.47 640.234" stroke="#131313" stroke-width="2" stroke-miterlimit="10" stroke-linecap="round" stroke-linejoin="round"/>
	<path d="M1243.71 630.324C1240.88 632.394 1237.11 629.424 1234.39 632.074" stroke="#131313" stroke-width="2" stroke-miterlimit="10" stroke-linecap="round" stroke-linejoin="round"/>
	</svg>
	