<svg width="2560" height="1329" viewBox="0 0 2560 1329" fill="none" xmlns="http://www.w3.org/2000/svg">
	<g clip-path="url(#clip0_148_305)">
	<path d="M-0.309753 741.97C-11.2798 741.79 -22.5297 742.09 -33.1697 741.31C-49.2197 740.12 -64.0798 742.54 -79.6198 742.54C-165.41 742.51 -251.22 742.82 -337 742.47C-606.85 741.36 -718.65 742.32 -988.51 742.01" stroke="#131313" stroke-width="2" stroke-miterlimit="10" stroke-linecap="round" stroke-linejoin="round"/>
	<path d="M1556.87 1008.65C1562.59 1006.38 1568.03 1003.66 1572.02 998.741C1575.11 994.931 1575.16 990.581 1573.12 986.551C1566.87 974.211 1560.75 961.601 1546.95 955.691C1541.69 953.441 1540.82 948.871 1541.88 944.621C1546.17 927.521 1551.32 911.041 1566.63 899.531C1577.36 891.461 1577.47 885.411 1568.37 872.451C1558 857.671 1543.46 847.961 1526.6 841.371C1514.25 836.551 1502.04 831.291 1492.72 821.121C1482.65 810.131 1478.98 797.381 1479.78 782.631C1480.32 772.671 1482.97 763.201 1484.43 753.491C1486.8 737.801 1482.17 723.951 1469.99 713.371C1456.69 701.821 1440.84 696.461 1423.44 694.511C1415.82 693.651 1407.99 693.091 1400.68 690.051C1388.35 684.931 1382.8 674.591 1379.83 662.611C1377.7 654.021 1376.05 645.221 1375.17 636.411C1373.29 617.621 1365.49 601.411 1353.98 586.981C1340.87 570.551 1325.01 557.331 1305.11 549.661C1292.76 544.901 1279.89 542.951 1266.7 541.701C1259.49 541.011 1252.32 540.581 1245.11 540.281C1218.47 539.171 1194.14 547.021 1171.14 559.591C1157.68 566.941 1148.01 578.471 1141.01 591.681C1133.05 606.671 1125.69 622.091 1121.57 638.751C1119.25 648.131 1118.42 657.721 1117.51 667.301C1116.9 673.701 1116.62 680.161 1115.6 686.501C1115.26 688.641 1115.54 689.881 1116.92 691.181" stroke="#131313" stroke-width="2" stroke-miterlimit="10" stroke-linecap="round" stroke-linejoin="round"/>
	<path d="M1087.78 780.011C1085.37 779.771 1084.94 781.401 1084.88 783.211C1084.76 786.931 1083.92 790.721 1083.93 794.281C1084.02 809.811 1077.57 823.221 1071.45 836.801C1065.13 850.841 1058.23 864.621 1055.06 879.891C1053.56 887.111 1055.61 894.841 1060.97 898.551C1067.44 903.021 1073.78 901.021 1074.15 893.301C1074.96 876.291 1080.92 860.971 1087.04 845.481C1089.85 838.381 1090.51 830.491 1090.59 822.821C1090.72 810.781 1091.37 798.701 1089.59 786.701C1089.28 784.611 1088.95 782.651 1087.78 780.881" stroke="#131313" stroke-width="2" stroke-miterlimit="10" stroke-linecap="round" stroke-linejoin="round"/>
	<path d="M1311.55 755.261C1311.38 750.431 1309.44 745.951 1308.37 741.341C1306.28 732.301 1307.18 724.701 1314.48 718.581C1323.01 711.431 1328.68 702.581 1331.38 691.771C1335.45 675.471 1338.86 659.081 1340.27 642.271C1340.81 635.851 1341.8 629.411 1341.16 623.051C1339.81 609.721 1338.25 596.491 1330.92 584.511C1322.41 570.601 1310.38 562.501 1294.65 559.591C1284.4 557.691 1274.12 557.831 1263.76 559.461C1252.28 561.271 1241.17 564.271 1230.59 568.941C1218.55 574.251 1207.08 580.621 1197.92 590.421C1191.79 596.981 1187.85 604.281 1188.49 613.731C1188.85 619.121 1191.44 622.701 1195.63 625.321C1199.41 627.681 1202.06 624.111 1204.21 622.311C1210.28 617.201 1214.8 610.561 1218.84 603.781C1226.36 591.161 1235.14 579.671 1246.25 569.981C1248.21 568.271 1250.77 566.761 1250.96 563.621" stroke="#131313" stroke-width="2" stroke-miterlimit="10" stroke-linecap="round" stroke-linejoin="round"/>
	<path d="M1531.23 1022.05C1535 1013.97 1537.7 1012.14 1546.35 1013.51C1548.69 1013.88 1550.65 1013.15 1552.79 1013.18C1557.1 1013.23 1561.29 1016.16 1561.51 1020.31C1562.14 1032.14 1562.77 1030.77 1551.57 1034.71C1539.42 1038.98 1526.67 1040.83 1513.77 1042.07C1503.26 1043.09 1492.7 1044.4 1482.24 1046.27C1477.75 1047.07 1472.97 1047.6 1468.3 1047.64C1452.76 1047.75 1437.19 1048.32 1421.69 1047.52C1402.85 1046.55 1384.01 1045.79 1365.17 1045.05C1356.83 1044.72 1348.41 1044.97 1340.11 1044.07C1333.5 1043.35 1326.89 1042.98 1320.05 1043.05C1321.57 1035.83 1323.66 1029.29 1324.21 1022.63C1325.14 1011.21 1329.51 999.991 1326.27 988.231C1325.6 985.811 1324.16 984.891 1322.84 983.491C1312.55 989.241 1313.52 1006.28 1324.37 1014.48" stroke="#131313" stroke-width="2" stroke-miterlimit="10" stroke-linecap="round" stroke-linejoin="round"/>
	<path d="M1389.05 950.401C1390.73 943.151 1395.78 937.781 1400.28 932.481C1410.96 919.871 1422.97 908.501 1436.25 898.561C1437.8 897.401 1439.48 896.361 1440.89 895.041C1447.51 888.811 1447.77 888.601 1442.61 880.531C1423.93 851.311 1408.48 820.141 1389 791.411C1377.57 774.551 1363.63 760.661 1343.03 755.211C1332.15 752.341 1321.67 751.141 1310.86 756.181C1306.9 758.031 1301.46 757.591 1297.6 754.061C1293.02 749.871 1288.6 745.471 1285.36 740.101C1284.16 738.121 1282.52 736.721 1280.9 735.351C1270.85 739.931 1271.97 748.981 1278.37 759.321C1279.53 761.191 1281.06 762.831 1282.42 764.581" stroke="#131313" stroke-width="2" stroke-miterlimit="10" stroke-linecap="round" stroke-linejoin="round"/>
	<path d="M1562.12 1017.97C1562.71 1017.01 1563.7 1017.27 1564.44 1017.42C1576.49 1019.89 1588.55 1022.34 1600.57 1024.98C1622.11 1029.71 1648.8 1018.49 1670.87 1019.77L1753.49 1019.76C1771.62 1019.76 1789.66 1022.39 1807.04 1027.58C1837.67 1036.73 1869.47 1041.38 1901.44 1041.4C2137.45 1041.55 2251.51 1040.77 2504.7 1041.81C2590.48 1042.16 2676.29 1041.85 2762.08 1041.88C2777.63 1041.89 2792.48 1039.47 2808.53 1040.65C2819.17 1041.44 2830.41 1041.13 2841.39 1041.31" stroke="#131313" stroke-width="2" stroke-miterlimit="10" stroke-linecap="round" stroke-linejoin="round"/>
	<path d="M949.09 846.131C955.96 872.181 966.88 896.691 977.61 921.291C983.07 933.801 991.05 944.861 997.38 956.851C999.13 960.161 1002.11 963.301 999.93 967.941C998.76 970.421 997.44 971.351 995.14 970.741C988.41 968.971 982.12 967.171 976.28 962.291C962.11 950.471 946.39 940.271 929.64 932.861C919.35 928.301 909.52 921.651 897.25 920.981C886.44 920.391 876.62 923.741 866.33 925.241C855.45 926.831 847.17 932.011 841.32 941.101C834.81 951.191 834.2 966.771 843.54 976.111C850.35 982.911 858.32 987.841 866.25 993.061C875 998.821 884.68 1003.55 890.9 1012.67C891.22 1013.14 891.51 1013.61 891.79 1014.08C893.62 1017.23 891.16 1021.07 887.51 1021.07C887.25 1021.07 887 1021.08 886.74 1021.1C859.48 1023.37 875.3 1042.73 844.64 1041.8L793.95 1042.03L777.33 1041.33C766.36 1041.15 755.11 1041.45 744.47 1040.67C728.42 1039.48 713.56 1041.9 698.02 1041.9C612.23 1041.87 526.42 1042.18 440.64 1041.83C170.79 1040.72 58.9899 1041.68 -210.87 1041.37" stroke="#131313" stroke-width="2" stroke-miterlimit="10" stroke-linecap="round" stroke-linejoin="round"/>
	<path d="M1119.25 698.171C1123.03 702.251 1121.36 707.681 1121.81 712.191C1123.78 731.721 1130.8 749.581 1137.92 767.481C1142.26 778.401 1146.8 789.201 1153.56 798.991C1165.38 816.101 1183.52 821.101 1203.73 814.081C1214.81 810.231 1224.47 803.831 1234.07 797.241C1245.97 789.081 1257.73 780.541 1270.36 773.661C1275.6 770.801 1282.62 767.661 1289.45 772.071C1291.22 773.211 1293.35 773.201 1295.82 773.131C1304.28 772.881 1313.14 772.561 1320.85 777.411C1324.31 779.581 1325.51 784.851 1323.14 787.841C1321.9 789.401 1320.91 790.361 1317.85 789.331C1308.62 786.211 1300.5 781.841 1294.05 774.491" stroke="#131313" stroke-width="2" stroke-miterlimit="10" stroke-linecap="round" stroke-linejoin="round"/>
	<path d="M956.09 841.471C962.64 852.331 966.84 864.251 971.88 875.811C980.43 895.421 989.96 914.601 997.45 934.671C999.04 938.931 1000.95 943.111 1002.04 947.501C1005.16 960.071 1012.9 967.311 1025.37 970.971C1036.8 974.331 1047.72 979.391 1057.47 986.521C1058.69 987.411 1059.92 988.341 1060.95 989.441C1063.82 992.511 1065.33 996.001 1062.68 999.881C1060.11 1003.64 1056.28 1002.6 1052.84 1001.58C1050.2 1000.8 1047.77 999.311 1045.24 998.171C1043.89 997.561 1042.43 996.351 1041.18 996.531C1034.45 997.501 1031.92 992.621 1028.93 988.271" stroke="#131313" stroke-width="2" stroke-miterlimit="10" stroke-linecap="round" stroke-linejoin="round"/>
	<path d="M1269.01 773.901C1266.39 769.341 1261.33 771.181 1257.89 770.781C1243.49 769.101 1234.17 761.011 1225.75 750.121C1214.77 735.921 1207.38 720.161 1203.98 702.791C1202.24 693.921 1201.9 684.731 1199.03 676.061C1195.81 666.311 1191.12 657.311 1183.91 649.851C1177.52 643.231 1169.83 641.231 1160.6 642.051C1152.81 642.751 1145.96 644.891 1139.62 649.211C1139.22 649.481 1138.48 649.251 1137.9 649.251" stroke="#131313" stroke-width="2" stroke-miterlimit="10" stroke-linecap="round" stroke-linejoin="round"/>
	<path d="M1236.38 542.641C1220.95 547.971 1206.96 556.101 1193.27 564.791C1166.64 581.701 1149.78 606.081 1141.06 635.911C1137.83 646.961 1132.6 656.781 1127.28 666.641C1122.77 674.991 1122.58 684.601 1118.18 692.971C1111.01 706.641 1102.73 718.511 1086.05 721.551C1076.55 723.281 1066.95 724.261 1057.44 725.871C1046.08 727.791 1036.66 732.891 1027.78 739.551C1013.11 750.551 1002.56 765.311 991.61 779.701C978.47 796.961 965.46 814.331 950.84 830.391" stroke="#131313" stroke-width="2" stroke-miterlimit="10" stroke-linecap="round" stroke-linejoin="round"/>
	<path d="M1369.24 981.271C1369.68 977.361 1366.18 976.341 1363.94 975.611C1356.51 973.221 1348.94 970.661 1341.25 969.801C1324.71 967.951 1308.83 963.381 1292.95 958.971C1280.06 955.391 1266.98 952.311 1253.83 951.461C1245.68 950.931 1238.48 948.961 1231.14 946.311C1220.2 942.361 1209.54 943.091 1199.09 948.061C1192.46 951.211 1185.69 953.761 1178.11 953.381C1176.19 953.281 1174.24 954.131 1172.28 954.461C1169.33 954.961 1169.48 957.421 1170.08 959.081C1170.98 961.571 1171.8 964.381 1174.05 966.091C1180.95 971.301 1188.16 974.881 1197.31 975.721C1213.52 977.211 1229.58 976.731 1245.7 975.441" stroke="#131313" stroke-width="2" stroke-miterlimit="10" stroke-linecap="round" stroke-linejoin="round"/>
	<path d="M1084.29 764.581C1080.79 760.701 1077.27 756.831 1073.81 752.921C1069.45 748.011 1063.4 746.321 1057.45 744.941C1054.2 744.191 1050.63 745.821 1048.8 748.881C1036.15 770.041 1015.65 783.731 999.16 801.221C992.1 808.711 984.57 815.761 977.03 822.781C971.39 828.031 965.53 833.061 959.53 837.901C957.03 839.921 953.67 840.991 950.91 838.481C947.84 835.691 945.35 837.191 943.32 839.191C922.98 859.261 900.91 877.541 881.54 898.591C875.74 904.901 868.94 910.061 862.81 915.991C859.71 918.991 855.51 921.151 856.44 926.511" stroke="#131313" stroke-width="2" stroke-miterlimit="10" stroke-linecap="round" stroke-linejoin="round"/>
	<path d="M1214.23 1028.45C1202.58 1023.6 1190.76 1019.08 1179.34 1013.72C1174.62 1011.5 1169.9 1012.89 1165.2 1011.95C1159.45 1010.79 1153.31 1010.22 1147.21 1010.26C1136.53 1010.34 1125.85 1009.46 1115.16 1009.27C1103.69 1009.06 1092.26 1011.33 1080.79 1010.32C1072.6 1009.59 1064.48 1008.83 1056.29 1010.31C1054.67 1010.6 1053.06 1010.68 1051.65 1011.57C1046.72 1014.69 1042.76 1014.09 1039.99 1008.65" stroke="#131313" stroke-width="2" stroke-miterlimit="10" stroke-linecap="round" stroke-linejoin="round"/>
	<path d="M924.04 932.341C924.06 933.461 924.14 934.341 925.15 935.311C936.27 945.941 945.36 958.581 957.8 967.931C961.02 970.351 959.56 972.351 956.71 974.351C950.36 978.821 943.98 983.311 938.1 988.361C932.96 992.771 927.85 997.501 925.24 1004.01C920.22 1016.49 925.07 1027.33 938 1033.76C943.03 1036.26 948.39 1037.16 953.77 1037.69C962.08 1038.51 970.4 1039.94 978.3 1039.48C980.01 1036.69 976.55 1034.85 978.23 1032.54" stroke="#131313" stroke-width="2" stroke-miterlimit="10" stroke-linecap="round" stroke-linejoin="round"/>
	<path d="M1388.47 978.651C1389.95 970.401 1395.02 963.891 1400.28 958.111C1417.53 939.111 1435.77 921.101 1457.23 906.711C1461.52 903.831 1465.76 900.871 1470.01 897.961C1472.08 898.881 1472.34 900.681 1473.18 902.541C1475.34 907.331 1478.3 911.741 1482.26 915.491C1506.41 938.371 1526.39 964.781 1546.41 991.161C1549.86 995.711 1552.38 1000.78 1555.26 1005.66C1556.79 1008.25 1556.33 1010.33 1555.71 1012.73" stroke="#131313" stroke-width="2" stroke-miterlimit="10" stroke-linecap="round" stroke-linejoin="round"/>
	<path d="M1345.93 858.941C1346.93 872.931 1347.15 886.981 1349.33 900.901C1350.32 907.211 1350.48 913.701 1350.48 920.111C1350.48 923.171 1351.69 925.911 1351.73 928.851C1351.88 938.671 1349.07 947.861 1345.34 956.801C1344.09 959.801 1342.94 962.811 1343.03 966.131" stroke="#131313" stroke-width="2" stroke-miterlimit="10" stroke-linecap="round" stroke-linejoin="round"/>
	<path d="M1408.28 978.941C1407.84 982.061 1405.27 983.711 1402.99 984.651C1387.89 990.891 1374.5 1000.31 1359.91 1007.48C1350.79 1011.96 1341.67 1016.45 1332.51 1020.86C1330.32 1021.92 1327.98 1022.7 1325.53 1021.47" stroke="#131313" stroke-width="2" stroke-miterlimit="10" stroke-linecap="round" stroke-linejoin="round"/>
	<path d="M951.42 839.721C949.65 843.901 946.63 846.641 942.76 849.171C930.62 857.111 920.67 867.511 912.46 879.391C905.89 888.901 896.98 896.201 889.65 904.961C888.68 906.121 887.74 907.321 886.73 908.451C883.85 911.661 882.61 914.511 887.87 916.691C888.9 917.111 890.27 917.911 890.23 919.531" stroke="#131313" stroke-width="2" stroke-miterlimit="10" stroke-linecap="round" stroke-linejoin="round"/>
	<path d="M1035.92 997.001C1035.64 1000.99 1041.26 1003.23 1039.06 1007.8C1037.24 1008.49 1035.28 1008.79 1033.61 1007.46C1029.51 1004.2 1024.74 1001.41 1022.64 996.361C1021.61 993.881 1019.72 992.611 1017.84 992.471C1008.87 991.781 1001.57 985.991 992.82 984.571C990.7 984.221 988.52 983.341 986.39 983.691C984.25 984.051 981.52 981.881 980 984.781C978.19 988.231 979.97 991.541 981.83 993.991C986.66 1000.36 994.12 1003.28 1000.98 1006.82C1005.42 1009.11 1009.93 1011.3 1013.7 1014.54C1016.74 1017.15 1018.73 1020.58 1017.26 1024.95C1015.73 1029.48 1012.06 1029.82 1007.96 1030.34C1003.18 1030.94 999.2 1028.09 994.53 1028.17C993.01 1028.19 990.73 1025.21 989.99 1023.16C985.22 1010.01 975.03 1001.83 964.28 994.021C962.61 992.811 961.06 992.201 959.64 993.561C958.37 994.781 958.89 996.491 959.52 998.171C961.95 1004.6 967.17 1008.74 971.87 1013.23C975.25 1016.46 979.009 1019.41 982.969 1021.89C984.619 1022.92 986.8 1024.76 989.29 1023.19" stroke="#131313" stroke-width="2" stroke-miterlimit="10" stroke-linecap="round" stroke-linejoin="round"/>
	<path d="M1115.75 699.921C1117.61 708.341 1114.88 715.451 1108.1 720.201C1094.94 729.401 1089.84 742.431 1086.87 757.531C1085.36 765.201 1085.46 772.321 1086.62 779.731" stroke="#131313" stroke-width="2" stroke-miterlimit="10" stroke-linecap="round" stroke-linejoin="round"/>
	<path d="M1412.94 946.321C1415.8 948.081 1418.95 948.711 1422.26 948.651C1426.28 948.571 1427.85 950.521 1427.53 954.481C1426.5 967.481 1418.68 978.111 1404.78 977.911C1387.61 977.661 1370.82 981.311 1354.11 984.871C1351.23 985.481 1348.65 987.481 1345.93 988.841" stroke="#131313" stroke-width="2" stroke-miterlimit="10" stroke-linecap="round" stroke-linejoin="round"/>
	<path d="M1312.13 757.001C1316.21 759.581 1315.96 764.851 1319.05 768.131C1320.61 769.791 1321.53 771.891 1324.37 771.601C1326.3 771.401 1327.27 770.601 1327.28 768.651C1327.29 766.051 1327.91 763.131 1324.92 761.711C1322.2 760.421 1319.4 758.761 1316.2 760.501" stroke="#131313" stroke-width="2" stroke-miterlimit="10" stroke-linecap="round" stroke-linejoin="round"/>
	<path d="M1447.32 973.701C1440.61 976.591 1433.54 978.231 1426.33 978.821C1422.51 979.131 1418.38 982.291 1414.69 978.361" stroke="#131313" stroke-width="2" stroke-miterlimit="10" stroke-linecap="round" stroke-linejoin="round"/>
	<path d="M1451.98 973.701C1445.58 969.931 1438.51 970.991 1431.59 970.721C1428.61 970.601 1425.91 973.441 1422.85 971.371" stroke="#131313" stroke-width="2" stroke-miterlimit="10" stroke-linecap="round" stroke-linejoin="round"/>
	<path d="M1185.1 974.861C1182.01 977.411 1177.64 977.111 1174.53 980.011C1170.33 983.931 1169.92 986.511 1174.03 990.591C1175.78 992.331 1177.53 994.081 1179.28 995.831" stroke="#131313" stroke-width="2" stroke-miterlimit="10" stroke-linecap="round" stroke-linejoin="round"/>
	<path d="M1353.5 937.001C1356.03 939.161 1355.18 942.541 1356.43 945.151C1358.81 950.141 1361.19 955.151 1365.18 959.121C1366.67 960.611 1367.88 962.111 1367.49 964.381" stroke="#131313" stroke-width="2" stroke-miterlimit="10" stroke-linecap="round" stroke-linejoin="round"/>
	<path d="M1195.59 1001.66C1201.78 1007.81 1210.41 1009.72 1216.58 1006.34C1216.8 1006.22 1217.15 1006.32 1217.45 1006.32C1217.35 1006.22 1217.26 1006.13 1217.16 1006.03C1213.96 1001.59 1208.7 1001.97 1204.31 1001.28C1196.69 1000.09 1188.95 999.831 1181.6 997.051C1177.6 995.541 1174.02 997.941 1170.61 999.461C1168.23 1000.52 1168.93 1003.28 1170.04 1005.11C1171.54 1007.59 1174.91 1008.73 1175.22 1012.14" stroke="#131313" stroke-width="2" stroke-miterlimit="10" stroke-linecap="round" stroke-linejoin="round"/>
	<path d="M993.959 1029.04C992.559 1033.64 989.489 1034.04 985.199 1033.22C977.919 1031.82 972.749 1028.67 969.199 1021.61C967.049 1017.34 962.279 1014.25 958.339 1011.07C956.309 1009.43 953.579 1007.75 950.189 1010.89C955.739 1016.81 960.799 1023.01 969.489 1024.37" stroke="#131313" stroke-width="2" stroke-miterlimit="10" stroke-linecap="round" stroke-linejoin="round"/>
	<path d="M999.79 971.371C1005.19 976.851 1010.95 982.021 1015.49 988.281C1016.06 989.061 1017.47 989.891 1016.1 991.171" stroke="#131313" stroke-width="2" stroke-miterlimit="10" stroke-linecap="round" stroke-linejoin="round"/>
	<path d="M1348.26 954.471C1352.23 955.561 1355.34 958.181 1358.77 960.271C1365.82 964.571 1373.17 968.381 1379.23 974.191C1380.43 975.341 1381.72 976.361 1382.64 977.771" stroke="#131313" stroke-width="2" stroke-miterlimit="10" stroke-linecap="round" stroke-linejoin="round"/>
	<path d="M1406.53 949.231C1399.49 947.941 1393.1 950.291 1386.72 952.731" stroke="#131313" stroke-width="2" stroke-miterlimit="10" stroke-linecap="round" stroke-linejoin="round"/>
	<path d="M1299.89 756.421C1295.85 760.701 1289.57 761.221 1285.32 765.161" stroke="#131313" stroke-width="2" stroke-miterlimit="10" stroke-linecap="round" stroke-linejoin="round"/>
	<path d="M1265.51 543.221C1264.59 549.241 1259.58 553.281 1257.93 558.951" stroke="#131313" stroke-width="2" stroke-miterlimit="10" stroke-linecap="round" stroke-linejoin="round"/>
	<path d="M1333.11 985.351C1340.28 985.251 1346.18 986.841 1347.76 995.241C1348.28 998.031 1351.09 1000.17 1350.6 1003.41" stroke="#131313" stroke-width="2" stroke-miterlimit="10" stroke-linecap="round" stroke-linejoin="round"/>
	<path d="M1031.84 993.501C1029.01 995.571 1025.24 992.601 1022.52 995.251" stroke="#131313" stroke-width="2" stroke-miterlimit="10" stroke-linecap="round" stroke-linejoin="round"/>
	</g>
	<defs>
	<clipPath id="clip0_148_305">
	<rect width="2560" height="1329" fill="white"/>
	</clipPath>
	</defs>
	</svg>
	