<svg width="2585" height="745" viewBox="0 0 2585 745" fill="none" xmlns="http://www.w3.org/2000/svg">
	<path d="M1496.53 541.662C1501.36 539.741 1505.97 537.441 1509.34 533.279C1511.96 530.056 1512 526.376 1510.27 522.967C1504.98 512.528 1499.81 501.861 1488.13 496.862C1483.68 494.959 1482.95 491.093 1483.85 487.498C1487.47 473.032 1491.83 459.092 1504.78 449.355C1513.86 442.529 1513.95 437.411 1506.25 426.448C1497.48 413.945 1485.18 405.731 1470.92 400.157C1460.47 396.079 1450.14 391.63 1442.26 383.027C1433.74 373.73 1430.64 362.945 1431.31 350.467C1431.77 342.042 1434.01 334.031 1435.25 325.817C1437.25 312.545 1433.34 300.829 1423.03 291.879C1411.78 282.109 1398.37 277.575 1383.65 275.925C1377.21 275.198 1370.59 274.724 1364.4 272.152C1353.97 267.821 1349.28 259.075 1346.76 248.941C1344.96 241.674 1343.57 234.23 1342.82 226.777C1341.23 210.883 1334.63 197.17 1324.9 184.964C1313.81 171.065 1300.39 159.882 1283.56 153.394C1273.11 149.368 1262.22 147.718 1251.07 146.661C1244.97 146.077 1238.9 145.713 1232.8 145.459C1210.27 144.52 1189.69 151.161 1170.23 161.794C1158.84 168.012 1150.66 177.765 1144.74 188.94C1138.01 201.62 1131.78 214.664 1128.3 228.757C1126.34 236.692 1125.63 244.804 1124.86 252.908C1124.35 258.322 1124.11 263.786 1123.25 269.149C1122.96 270.96 1123.2 272.009 1124.36 273.108" stroke="#131313" stroke-width="2" stroke-miterlimit="10" stroke-linecap="round" stroke-linejoin="round"/>
	<path d="M1099.71 348.251C1097.68 348.048 1097.31 349.427 1097.26 350.958C1097.16 354.105 1096.45 357.311 1096.46 360.322C1096.53 373.459 1091.08 384.803 1085.9 396.291C1080.55 408.167 1074.72 419.824 1072.04 432.741C1070.77 438.849 1072.5 445.388 1077.04 448.526C1082.51 452.307 1087.87 450.616 1088.18 444.085C1088.87 429.696 1093.91 416.737 1099.09 403.633C1101.47 397.627 1102.02 390.953 1102.09 384.465C1102.2 374.28 1102.75 364.061 1101.25 353.91C1100.98 352.142 1100.7 350.484 1099.71 348.987" stroke="#131313" stroke-width="2" stroke-miterlimit="10" stroke-linecap="round" stroke-linejoin="round"/>
	<path d="M1289.01 327.315C1288.86 323.229 1287.22 319.439 1286.32 315.54C1284.55 307.892 1285.31 301.464 1291.48 296.287C1298.7 290.238 1303.5 282.752 1305.78 273.607C1309.22 259.819 1312.11 245.954 1313.3 231.735C1313.76 226.304 1314.59 220.856 1314.05 215.476C1312.91 204.2 1311.59 193.009 1305.39 182.874C1298.19 171.108 1288.02 164.256 1274.71 161.794C1266.04 160.187 1257.34 160.305 1248.58 161.684C1238.87 163.215 1229.47 165.753 1220.52 169.703C1210.34 174.195 1200.63 179.584 1192.88 187.874C1187.7 193.423 1184.37 199.598 1184.91 207.592C1185.21 212.152 1187.4 215.18 1190.95 217.396C1194.14 219.393 1196.39 216.373 1198.2 214.85C1203.34 210.527 1207.16 204.911 1210.58 199.175C1216.94 188.5 1224.37 178.78 1233.77 170.583C1235.43 169.137 1237.59 167.859 1237.75 165.203" stroke="#131313" stroke-width="2" stroke-miterlimit="10" stroke-linecap="round" stroke-linejoin="round"/>
	<path d="M1474.84 552.997C1478.02 546.162 1480.31 544.614 1487.63 545.773C1489.61 546.086 1491.26 545.468 1493.07 545.494C1496.72 545.536 1500.26 548.015 1500.45 551.525C1500.98 561.532 1501.52 560.373 1492.04 563.706C1481.76 567.318 1470.98 568.883 1460.07 569.932C1451.18 570.795 1442.24 571.903 1433.39 573.485C1429.6 574.162 1425.55 574.61 1421.6 574.644C1408.46 574.737 1395.29 575.219 1382.17 574.542C1366.24 573.722 1350.3 573.079 1334.36 572.453C1327.31 572.174 1320.19 572.385 1313.16 571.624C1307.57 571.015 1301.98 570.702 1296.19 570.761C1297.48 564.654 1299.25 559.121 1299.71 553.488C1300.5 543.827 1304.2 534.336 1301.46 524.388C1300.89 522.341 1299.67 521.563 1298.55 520.378C1289.85 525.242 1290.67 539.657 1299.85 546.593" stroke="#131313" stroke-width="2" stroke-miterlimit="10" stroke-linecap="round" stroke-linejoin="round"/>
	<path d="M1354.56 492.387C1355.99 486.254 1360.26 481.711 1364.06 477.228C1373.1 466.561 1383.26 456.943 1394.49 448.535C1395.8 447.553 1397.22 446.674 1398.42 445.557C1404.02 440.287 1404.24 440.109 1399.87 433.283C1384.07 408.565 1371 382.198 1354.52 357.895C1344.85 343.632 1333.06 331.883 1315.64 327.272C1306.43 324.845 1297.57 323.829 1288.42 328.093C1285.07 329.658 1280.47 329.286 1277.21 326.3C1273.33 322.755 1269.59 319.033 1266.85 314.491C1265.84 312.816 1264.45 311.631 1263.08 310.472C1254.58 314.347 1255.52 322.002 1260.94 330.749C1261.92 332.331 1263.21 333.718 1264.36 335.199" stroke="#131313" stroke-width="2" stroke-miterlimit="10" stroke-linecap="round" stroke-linejoin="round"/>
	<path d="M1500.97 549.546C1501.47 548.733 1502.3 548.953 1502.93 549.08C1513.12 551.17 1523.32 553.242 1533.49 555.475C1551.71 559.477 1574.29 549.985 1592.96 551.068L1662.85 551.06C1678.19 551.06 1693.45 553.285 1708.15 557.675C1734.06 565.415 1760.96 569.348 1788 569.365C1987.65 569.492 2084.13 568.833 2298.31 569.712C2370.87 570.008 2443.46 569.746 2516.03 569.771C2529.19 569.78 2541.75 567.733 2555.33 568.731C2564.33 569.399 2573.83 569.137 2583.12 569.289" stroke="#131313" stroke-width="2" stroke-miterlimit="10" stroke-linecap="round" stroke-linejoin="round"/>
	<path d="M982.394 404.183C988.206 426.219 997.443 446.953 1006.52 467.762C1011.14 478.345 1017.89 487.701 1023.24 497.843C1024.72 500.643 1027.24 503.299 1025.4 507.224C1024.41 509.322 1023.29 510.109 1021.35 509.593C1015.66 508.096 1010.33 506.573 1005.39 502.445C993.408 492.446 980.11 483.818 965.941 477.55C957.237 473.692 948.921 468.067 938.542 467.5C929.397 467.001 921.09 469.835 912.386 471.104C903.182 472.449 896.178 476.831 891.23 484.52C885.723 493.055 885.207 506.235 893.108 514.136C898.868 519.888 905.61 524.058 912.318 528.474C919.72 533.346 927.909 537.347 933.17 545.062C933.441 545.46 933.686 545.857 933.923 546.255C935.471 548.92 933.39 552.168 930.303 552.168C930.083 552.168 929.871 552.176 929.651 552.193C906.591 554.114 919.974 570.491 894.038 569.704L851.159 569.898L837.099 569.306C827.82 569.154 818.303 569.408 809.303 568.748C795.726 567.741 783.155 569.788 770.01 569.788C697.438 569.763 624.85 570.025 552.288 569.729C324.017 568.79 229.443 569.602 1.16406 569.34" stroke="#131313" stroke-width="2" stroke-miterlimit="10" stroke-linecap="round" stroke-linejoin="round"/>
	<path d="M1126.34 279.021C1129.53 282.473 1128.12 287.066 1128.5 290.881C1130.17 307.402 1136.11 322.51 1142.13 337.652C1145.8 346.889 1149.64 356.025 1155.36 364.307C1165.36 378.78 1180.7 383.01 1197.8 377.071C1207.17 373.815 1215.34 368.401 1223.46 362.826C1233.53 355.924 1243.48 348.699 1254.16 342.88C1258.6 340.46 1264.53 337.804 1270.31 341.535C1271.81 342.499 1273.61 342.49 1275.7 342.431C1282.86 342.22 1290.35 341.949 1296.87 346.052C1299.8 347.887 1300.81 352.345 1298.81 354.875C1297.76 356.194 1296.92 357.006 1294.34 356.135C1286.53 353.496 1279.66 349.799 1274.2 343.582" stroke="#131313" stroke-width="2" stroke-miterlimit="10" stroke-linecap="round" stroke-linejoin="round"/>
	<path d="M988.315 400.241C993.856 409.428 997.409 419.511 1001.67 429.29C1008.91 445.878 1016.97 462.103 1023.3 479.081C1024.65 482.684 1026.26 486.22 1027.19 489.934C1029.82 500.567 1036.37 506.691 1046.92 509.787C1056.59 512.63 1065.83 516.91 1074.07 522.941C1075.11 523.694 1076.15 524.481 1077.02 525.412C1079.45 528.009 1080.72 530.961 1078.48 534.243C1076.31 537.424 1073.07 536.544 1070.16 535.681C1067.92 535.021 1065.87 533.761 1063.73 532.796C1062.59 532.28 1061.35 531.257 1060.29 531.409C1054.6 532.23 1052.46 528.102 1049.93 524.422" stroke="#131313" stroke-width="2" stroke-miterlimit="10" stroke-linecap="round" stroke-linejoin="round"/>
	<path d="M1253.02 343.082C1250.8 339.225 1246.52 340.782 1243.61 340.443C1231.43 339.022 1223.55 332.179 1216.43 322.967C1207.14 310.954 1200.89 297.623 1198.01 282.929C1196.54 275.426 1196.25 267.652 1193.82 260.318C1191.1 252.07 1187.13 244.457 1181.03 238.146C1175.63 232.546 1169.12 230.855 1161.31 231.548C1154.72 232.14 1148.93 233.951 1143.57 237.605C1143.23 237.833 1142.6 237.639 1142.11 237.639" stroke="#131313" stroke-width="2" stroke-miterlimit="10" stroke-linecap="round" stroke-linejoin="round"/>
	<path d="M1225.42 147.456C1212.36 151.965 1200.53 158.842 1188.95 166.193C1166.42 180.497 1152.16 201.121 1144.78 226.355C1142.05 235.702 1137.63 244.009 1133.13 252.35C1129.31 259.413 1129.15 267.542 1125.43 274.623C1119.36 286.186 1112.36 296.227 1098.25 298.799C1090.21 300.262 1082.09 301.091 1074.05 302.453C1064.44 304.077 1056.47 308.392 1048.96 314.025C1036.55 323.33 1027.62 335.816 1018.36 347.989C1007.25 362.589 996.241 377.283 983.874 390.868" stroke="#131313" stroke-width="2" stroke-miterlimit="10" stroke-linecap="round" stroke-linejoin="round"/>
	<path d="M1337.81 518.5C1338.18 515.193 1335.22 514.33 1333.32 513.713C1327.04 511.691 1320.63 509.525 1314.13 508.798C1300.14 507.233 1286.7 503.367 1273.27 499.636C1262.37 496.608 1251.3 494.003 1240.18 493.284C1233.28 492.835 1227.19 491.169 1220.98 488.927C1211.73 485.586 1202.71 486.203 1193.87 490.408C1188.26 493.072 1182.54 495.229 1176.13 494.908C1174.5 494.823 1172.85 495.542 1171.19 495.821C1168.7 496.244 1168.83 498.325 1169.33 499.73C1170.09 501.836 1170.79 504.213 1172.69 505.659C1178.53 510.067 1184.63 513.095 1192.37 513.806C1206.08 515.066 1219.66 514.66 1233.3 513.569" stroke="#131313" stroke-width="2" stroke-miterlimit="10" stroke-linecap="round" stroke-linejoin="round"/>
	<path d="M1096.76 335.199C1093.8 331.917 1090.82 328.643 1087.9 325.335C1084.21 321.182 1079.09 319.752 1074.06 318.585C1071.31 317.95 1068.29 319.329 1066.74 321.918C1056.04 339.817 1038.7 351.398 1024.75 366.193C1018.78 372.529 1012.41 378.493 1006.03 384.431C1001.26 388.872 996.302 393.127 991.226 397.221C989.111 398.93 986.269 399.835 983.934 397.712C981.337 395.352 979.231 396.621 977.514 398.313C960.308 415.29 941.638 430.753 925.253 448.56C920.347 453.898 914.594 458.263 909.409 463.279C906.787 465.817 903.234 467.644 904.02 472.178" stroke="#131313" stroke-width="2" stroke-miterlimit="10" stroke-linecap="round" stroke-linejoin="round"/>
	<path d="M1206.68 558.411C1196.83 554.308 1186.83 550.485 1177.17 545.95C1173.17 544.072 1169.18 545.248 1165.21 544.453C1160.34 543.472 1155.15 542.99 1149.99 543.024C1140.95 543.091 1131.92 542.347 1122.88 542.186C1113.17 542.008 1103.5 543.929 1093.8 543.074C1086.87 542.457 1080 541.814 1073.08 543.066C1071.71 543.311 1070.34 543.379 1069.15 544.132C1064.98 546.771 1061.63 546.263 1059.29 541.662" stroke="#131313" stroke-width="2" stroke-miterlimit="10" stroke-linecap="round" stroke-linejoin="round"/>
	<path d="M961.204 477.11C961.221 478.057 961.288 478.802 962.143 479.622C971.549 488.614 979.239 499.307 989.762 507.216C992.486 509.263 991.251 510.955 988.84 512.647C983.468 516.428 978.071 520.226 973.097 524.498C968.749 528.229 964.427 532.23 962.219 537.737C957.972 548.294 962.075 557.463 973.013 562.903C977.268 565.017 981.802 565.779 986.353 566.227C993.383 566.921 1000.42 568.13 1007.1 567.741C1008.55 565.381 1005.62 563.825 1007.04 561.871" stroke="#131313" stroke-width="2" stroke-miterlimit="10" stroke-linecap="round" stroke-linejoin="round"/>
	<path d="M1354.07 516.284C1355.33 509.305 1359.61 503.798 1364.06 498.909C1378.66 482.837 1394.09 467.602 1412.24 455.429C1415.87 452.993 1419.45 450.489 1423.05 448.027C1424.8 448.805 1425.02 450.328 1425.73 451.901C1427.56 455.953 1430.06 459.684 1433.41 462.856C1453.84 482.211 1470.74 504.551 1487.68 526.867C1490.6 530.716 1492.73 535.004 1495.16 539.132C1496.46 541.323 1496.07 543.083 1495.54 545.113" stroke="#131313" stroke-width="2" stroke-miterlimit="10" stroke-linecap="round" stroke-linejoin="round"/>
	<path d="M1318.09 415.019C1318.93 426.854 1319.12 438.739 1320.96 450.514C1321.8 455.852 1321.94 461.342 1321.94 466.764C1321.94 469.353 1322.96 471.67 1322.99 474.157C1323.12 482.464 1320.74 490.238 1317.59 497.801C1316.53 500.339 1315.56 502.885 1315.63 505.693" stroke="#131313" stroke-width="2" stroke-miterlimit="10" stroke-linecap="round" stroke-linejoin="round"/>
	<path d="M1370.83 516.529C1370.46 519.169 1368.28 520.564 1366.36 521.36C1353.58 526.638 1342.26 534.607 1329.91 540.672C1322.2 544.462 1314.48 548.26 1306.74 551.99C1304.88 552.887 1302.9 553.547 1300.83 552.506" stroke="#131313" stroke-width="2" stroke-miterlimit="10" stroke-linecap="round" stroke-linejoin="round"/>
	<path d="M984.365 398.761C982.868 402.297 980.314 404.615 977.04 406.755C966.77 413.471 958.354 422.269 951.409 432.318C945.851 440.363 938.314 446.538 932.113 453.948C931.293 454.93 930.497 455.945 929.643 456.901C927.207 459.616 926.158 462.027 930.607 463.871C931.479 464.226 932.638 464.903 932.604 466.274" stroke="#131313" stroke-width="2" stroke-miterlimit="10" stroke-linecap="round" stroke-linejoin="round"/>
	<path d="M1055.84 531.807C1055.61 535.182 1060.36 537.077 1058.5 540.943C1056.96 541.526 1055.3 541.78 1053.89 540.655C1050.42 537.897 1046.39 535.537 1044.61 531.265C1043.74 529.167 1042.14 528.093 1040.55 527.975C1032.96 527.391 1026.79 522.493 1019.39 521.292C1017.59 520.996 1015.75 520.252 1013.95 520.548C1012.14 520.852 1009.83 519.016 1008.54 521.47C1007.01 524.388 1008.52 527.188 1010.09 529.261C1014.17 534.649 1020.49 537.119 1026.29 540.114C1030.04 542.051 1033.86 543.903 1037.05 546.644C1039.62 548.852 1041.3 551.753 1040.06 555.45C1038.77 559.282 1035.66 559.57 1032.19 560.01C1028.15 560.517 1024.78 558.106 1020.83 558.174C1019.55 558.191 1017.62 555.67 1016.99 553.936C1012.96 542.812 1004.34 535.893 995.243 529.286C993.831 528.262 992.519 527.746 991.318 528.897C990.244 529.929 990.684 531.375 991.217 532.796C993.272 538.236 997.688 541.738 1001.66 545.536C1004.52 548.268 1007.7 550.764 1011.05 552.862C1012.45 553.733 1014.29 555.289 1016.4 553.961" stroke="#131313" stroke-width="2" stroke-miterlimit="10" stroke-linecap="round" stroke-linejoin="round"/>
	<path d="M1123.37 280.502C1124.95 287.624 1122.64 293.639 1116.9 297.657C1105.77 305.439 1101.46 316.462 1098.94 329.235C1097.67 335.723 1097.75 341.746 1098.73 348.014" stroke="#131313" stroke-width="2" stroke-miterlimit="10" stroke-linecap="round" stroke-linejoin="round"/>
	<path d="M1374.77 488.936C1377.19 490.424 1379.86 490.957 1382.66 490.907C1386.06 490.839 1387.39 492.489 1387.11 495.838C1386.24 506.835 1379.63 515.827 1367.87 515.658C1353.35 515.447 1339.14 518.534 1325.01 521.546C1322.57 522.062 1320.39 523.754 1318.09 524.904" stroke="#131313" stroke-width="2" stroke-miterlimit="10" stroke-linecap="round" stroke-linejoin="round"/>
	<path d="M1289.5 328.787C1292.95 330.969 1292.74 335.427 1295.35 338.202C1296.67 339.606 1297.45 341.382 1299.85 341.137C1301.48 340.968 1302.3 340.291 1302.31 338.642C1302.32 336.442 1302.84 333.972 1300.32 332.771C1298.01 331.68 1295.65 330.275 1292.94 331.747" stroke="#131313" stroke-width="2" stroke-miterlimit="10" stroke-linecap="round" stroke-linejoin="round"/>
	<path d="M1403.86 512.097C1398.18 514.542 1392.2 515.929 1386.1 516.428C1382.87 516.69 1379.37 519.363 1376.25 516.039" stroke="#131313" stroke-width="2" stroke-miterlimit="10" stroke-linecap="round" stroke-linejoin="round"/>
	<path d="M1407.8 512.097C1402.38 508.908 1396.4 509.804 1390.55 509.576C1388.03 509.475 1385.74 511.877 1383.16 510.126" stroke="#131313" stroke-width="2" stroke-miterlimit="10" stroke-linecap="round" stroke-linejoin="round"/>
	<path d="M1182.04 513.078C1179.43 515.235 1175.73 514.981 1173.1 517.435C1169.54 520.751 1169.2 522.933 1172.67 526.384C1174.16 527.856 1175.64 529.337 1177.12 530.817" stroke="#131313" stroke-width="2" stroke-miterlimit="10" stroke-linecap="round" stroke-linejoin="round"/>
	<path d="M1324.49 481.052C1326.63 482.879 1325.91 485.738 1326.97 487.946C1328.98 492.167 1331 496.405 1334.37 499.763C1335.63 501.024 1336.66 502.293 1336.33 504.213" stroke="#131313" stroke-width="2" stroke-miterlimit="10" stroke-linecap="round" stroke-linejoin="round"/>
	<path d="M1190.91 535.749C1196.15 540.951 1203.45 542.567 1208.67 539.708C1208.86 539.606 1209.15 539.691 1209.4 539.691C1209.32 539.606 1209.24 539.53 1209.16 539.445C1206.45 535.689 1202 536.011 1198.29 535.427C1191.84 534.421 1185.3 534.201 1179.08 531.849C1175.7 530.572 1172.67 532.602 1169.78 533.888C1167.77 534.784 1168.36 537.119 1169.3 538.667C1170.57 540.765 1173.42 541.729 1173.68 544.614" stroke="#131313" stroke-width="2" stroke-miterlimit="10" stroke-linecap="round" stroke-linejoin="round"/>
	<path d="M1020.35 558.91C1019.17 562.801 1016.57 563.14 1012.94 562.446C1006.78 561.262 1002.41 558.597 999.406 552.625C997.587 549.013 993.552 546.399 990.219 543.709C988.502 542.321 986.193 540.9 983.325 543.557C988.02 548.564 992.3 553.809 999.651 554.96" stroke="#131313" stroke-width="2" stroke-miterlimit="10" stroke-linecap="round" stroke-linejoin="round"/>
	<path d="M1025.28 510.126C1029.85 514.762 1034.72 519.135 1038.56 524.43C1039.05 525.09 1040.24 525.792 1039.08 526.875" stroke="#131313" stroke-width="2" stroke-miterlimit="10" stroke-linecap="round" stroke-linejoin="round"/>
	<path d="M1320.06 495.83C1323.42 496.752 1326.05 498.968 1328.95 500.736C1334.91 504.374 1341.13 507.597 1346.26 512.511C1347.27 513.484 1348.36 514.347 1349.14 515.54" stroke="#131313" stroke-width="2" stroke-miterlimit="10" stroke-linecap="round" stroke-linejoin="round"/>
	<path d="M1369.35 491.397C1363.4 490.306 1357.99 492.294 1352.59 494.358" stroke="#131313" stroke-width="2" stroke-miterlimit="10" stroke-linecap="round" stroke-linejoin="round"/>
	<path d="M1279.14 328.296C1275.72 331.916 1270.41 332.356 1266.82 335.689" stroke="#131313" stroke-width="2" stroke-miterlimit="10" stroke-linecap="round" stroke-linejoin="round"/>
	<path d="M1250.06 147.947C1249.28 153.039 1245.04 156.456 1243.65 161.253" stroke="#131313" stroke-width="2" stroke-miterlimit="10" stroke-linecap="round" stroke-linejoin="round"/>
	<path d="M1307.24 521.952C1313.31 521.867 1318.3 523.212 1319.64 530.318C1320.08 532.678 1322.45 534.488 1322.04 537.229" stroke="#131313" stroke-width="2" stroke-miterlimit="10" stroke-linecap="round" stroke-linejoin="round"/>
	<path d="M1052.39 528.846C1050 530.597 1046.81 528.085 1044.51 530.326" stroke="#131313" stroke-width="2" stroke-miterlimit="10" stroke-linecap="round" stroke-linejoin="round"/>
	</svg>
	