<svg width="2619" height="745" viewBox="0 0 2619 745" fill="none" xmlns="http://www.w3.org/2000/svg">
	<mask id="mask0_162_467" style="mask-type:alpha" maskUnits="userSpaceOnUse" x="34" y="85" width="2585" height="491">
	<rect x="34.7227" y="85.3113" width="2583.43" height="489.786" fill="#FF0000"/>
	</mask>
	<g mask="url(#mask0_162_467)">
	<path d="M1494.84 573.496C1498.24 573.344 1501.74 573.597 1505.05 572.938C1510.04 571.931 1514.66 573.978 1519.49 573.978C1546.15 573.953 1572.82 574.215 1599.48 573.919C1683.36 572.98 1718.11 573.792 1801.97 573.53H2478.03" stroke="#131313" stroke-width="2" stroke-miterlimit="10" stroke-linecap="round" stroke-linejoin="round"/>
	<path d="M1398.1 312.201C1399.31 314.857 1401.96 316.16 1404.21 317.166C1409.34 319.45 1411.02 323.925 1411.92 328.502C1413.3 335.531 1412.99 342.662 1412.25 349.878C1411.56 356.611 1411.39 363.556 1412.99 370.315C1413.96 374.435 1416.72 377.125 1419.94 379.646C1433.18 390.025 1446.14 400.743 1457.64 413.085C1463.64 419.514 1468.63 426.712 1473.4 434.047C1475.46 437.21 1476 441.059 1475.25 444.688C1472.69 457.005 1475.62 468.746 1478.58 480.504C1481.46 491.967 1483.87 503.505 1484.13 515.373C1484.18 517.691 1483.84 520.026 1483.7 522.343C1483.25 529.348 1484.16 536.301 1484.63 543.263" stroke="#131313" stroke-width="2" stroke-miterlimit="10" stroke-linecap="round" stroke-linejoin="round"/>
	<path d="M1345.55 342.89C1345.96 348.034 1342.85 352.322 1341.95 357.237C1341 362.499 1340.84 367.862 1343.45 371.559C1354.08 386.599 1349.99 400.853 1342.21 414.903C1335.42 427.161 1325.94 437.566 1317.19 448.436C1315.39 450.677 1313.62 452.978 1312.11 455.431C1311 457.233 1309.25 459.382 1311.63 461.403C1313.62 463.104 1315.8 462.681 1318.13 461.505C1321.58 459.771 1324.66 457.622 1327.41 454.941C1340.44 442.303 1350.41 427.262 1360.89 412.619C1365.41 406.292 1369.88 399.914 1374.38 393.561C1376.18 391.032 1378.27 389.822 1381.37 391.675C1384.84 393.755 1387.27 392.63 1389.82 389.45C1394.9 383.088 1397.24 375.619 1397.89 367.972C1398.79 357.415 1398.01 346.951 1393.67 336.749C1390.38 329.051 1384.66 327.08 1377.64 326.691C1371.82 326.37 1365.88 325.913 1360.4 328.882C1359.99 329.11 1359.19 328.62 1358.57 328.468" stroke="#131313" stroke-width="2" stroke-miterlimit="10" stroke-linecap="round" stroke-linejoin="round"/>
	<path d="M1301.36 456.802C1300.46 451.701 1298.84 446.803 1297.16 441.93C1296 438.555 1292.85 437.016 1290.14 435.51C1276.99 428.184 1262.82 426.078 1247.86 427.397C1238.15 428.26 1228.49 429.69 1218.53 428.218C1211.13 427.127 1209.04 422.567 1207.43 416.807C1206.36 412.975 1205.74 409.007 1204.57 405.201C1202.69 399.076 1196.56 396.792 1189.75 399.634C1185.69 401.335 1182.11 403.796 1179.01 407.019C1174.02 412.222 1168.61 416.451 1161.45 418.921C1154.78 421.222 1148.72 425.486 1143.69 430.764C1139.6 435.061 1139.38 437.151 1142.29 442.379" stroke="#131313" stroke-width="2" stroke-miterlimit="10" stroke-linecap="round" stroke-linejoin="round"/>
	<path d="M1426.47 135.531C1430.5 135.869 1432.62 134.245 1432.01 130.887C1430.76 124.009 1425.93 120.118 1419.96 117.411C1407.5 111.752 1395.31 114.019 1383.21 118.781C1375.21 121.928 1368.52 127.038 1362.32 132.781C1354.24 140.276 1344.7 139.067 1337.49 131.656C1333.56 134.659 1331.39 139.058 1330.39 143.482C1329.11 149.133 1330.09 154.792 1335.78 158.32C1340.11 161.01 1342.09 165.256 1343.2 169.951C1345.41 179.341 1351.57 182.775 1360.9 179.721C1364.45 178.562 1367.99 177.378 1371.61 176.532C1373.05 176.202 1375.19 176.185 1376.16 177.014C1380.85 181.049 1385.14 179.163 1389.24 176.405C1394.25 173.03 1397.7 168.682 1396.27 162.033C1396.11 161.289 1396.42 160.434 1396.22 159.724C1394.21 152.703 1394.69 153.337 1401.83 151.815C1402.53 151.662 1403.22 151.502 1403.69 151.4C1403.69 148.558 1403.29 145.699 1403.77 142.992C1404.61 138.297 1408.89 137.848 1412.54 136.986C1415.3 136.334 1418.04 135.674 1420.41 134.126C1423.09 132.384 1422.69 130.049 1421.36 127.638C1419.03 123.426 1414.78 121.751 1410.64 121.277C1398.66 119.915 1383.7 123.739 1376.25 135.548C1371.1 143.711 1371.18 152.246 1375.4 160.604C1377.65 165.062 1380.47 169.384 1383.77 173.123C1389.64 179.772 1388.28 186.04 1384.21 192.774C1382.61 195.422 1380.1 197.621 1379.83 201.098C1379.77 201.893 1378.62 203.026 1377.16 202.984C1374.37 202.908 1371.58 202.967 1368.79 202.967" stroke="#131313" stroke-width="2" stroke-miterlimit="10" stroke-linecap="round" stroke-linejoin="round"/>
	<path d="M1385.54 188.993C1377.8 187.538 1370.48 192.283 1368.45 200.641C1367.68 203.796 1366.26 204.845 1363.28 205.894C1357.39 207.967 1352.09 211.477 1346.96 215.047C1338.82 220.706 1329.46 224.233 1321.73 230.705C1314.11 237.075 1313.02 247.141 1319.89 254.619C1322.73 257.706 1325.51 260.896 1328.86 263.306C1336.62 268.881 1341.79 276.553 1346.94 284.302C1349.76 288.549 1352.46 292.888 1356.71 295.925C1357.35 296.373 1357.92 296.898 1358.58 297.312C1363.72 300.552 1367.68 298.623 1368.36 292.677C1368.95 287.491 1368.12 282.289 1367.19 277.374C1365.38 267.79 1364.29 258.155 1363.82 248.503C1363.29 237.675 1363.1 226.788 1364.56 215.96C1364.99 212.729 1366.56 209.582 1365.54 206.207" stroke="#131313" stroke-width="2" stroke-miterlimit="10" stroke-linecap="round" stroke-linejoin="round"/>
	<path d="M1377.17 203.407C1375.04 213.143 1375.92 222.863 1376.52 232.71C1377.28 245.288 1379.68 257.715 1379.54 270.361C1379.48 275.318 1380.21 280.25 1379.54 285.241C1378.33 294.199 1382.94 300.577 1389.21 306.211C1390.47 307.353 1392.59 308.038 1392.51 310.339" stroke="#131313" stroke-width="2" stroke-miterlimit="10" stroke-linecap="round" stroke-linejoin="round"/>
	<path d="M1515.31 243.157C1514.69 243.546 1513.54 243.91 1513.53 244.324C1513.34 249.214 1510.16 250.516 1506.02 251.354C1493.63 253.849 1484.06 261.471 1474.34 268.915C1464.19 276.689 1453.8 284.158 1442.3 289.919C1438.71 291.712 1434.96 293.244 1431.1 293.954C1425.55 294.978 1420.98 293.007 1417.53 288.109C1416 285.943 1415.21 282.813 1412.06 281.984" stroke="#131313" stroke-width="2" stroke-miterlimit="10" stroke-linecap="round" stroke-linejoin="round"/>
	<path d="M1412.98 180.161C1411.74 184.501 1410.27 188.79 1409.33 193.197C1408.37 197.638 1410.03 200.43 1414.87 202.9C1418.63 204.82 1422.65 206.249 1426.46 208.085C1431.47 210.496 1433.77 214.497 1434.5 220.131C1436.17 233.175 1435.81 246.168 1434.88 259.204C1434.8 260.27 1435.15 261.369 1435.31 262.452" stroke="#131313" stroke-width="2" stroke-miterlimit="10" stroke-linecap="round" stroke-linejoin="round"/>
	<path d="M1386.94 188.993C1390.87 190.346 1394.42 192.402 1397.14 195.523C1405.67 205.285 1415.2 214.159 1422.81 224.741C1424.67 227.313 1426.28 229.994 1427.82 232.718C1432.38 240.737 1428.75 246.109 1423.58 251.667C1418.5 257.114 1413.74 262.706 1409.72 268.966" stroke="#131313" stroke-width="2" stroke-miterlimit="10" stroke-linecap="round" stroke-linejoin="round"/>
	<path d="M1379.96 202.011C1391.22 205.192 1394.49 214.759 1397.06 224.361C1400.31 236.483 1402.57 248.858 1405.62 261.04C1407.17 267.266 1410.06 273.187 1410.61 279.658C1411.15 286.003 1413.32 292.355 1411.91 298.683C1410.92 303.141 1408.12 306.55 1403.77 309.105C1398.54 312.184 1393.09 311.752 1387.89 311.076C1379.58 309.993 1373.21 312.336 1366.77 317.581C1361.6 321.802 1359.12 327.892 1354.36 332.164C1350.11 335.971 1346.7 340.48 1342.03 344.083C1333.26 350.867 1331.74 361.078 1333.55 371.694C1333.67 372.455 1333.76 373.259 1333.92 374.037C1334.54 376.981 1336.46 380.525 1335.44 382.716C1334.21 385.381 1330.41 386.785 1327.89 388.934C1313.97 400.768 1303.44 414.946 1298.14 432.634C1297.48 434.859 1297.2 437.193 1295.78 439.13" stroke="#131313" stroke-width="2" stroke-miterlimit="10" stroke-linecap="round" stroke-linejoin="round"/>
	<path d="M1514.38 247.116C1515.4 248.309 1516.49 249.197 1518.1 248.046C1520.26 246.507 1522.77 240.518 1521.76 238.31C1520.04 234.562 1518.61 230.561 1513.46 229.842C1506.92 228.937 1501.88 230.891 1499.1 236.914C1496.46 242.649 1491.86 245.872 1486.49 248.537C1475.06 254.205 1463.16 258.519 1450.65 261.023C1446.83 261.784 1442.99 262.596 1439.03 262.469C1435.25 262.351 1433.29 263.755 1433.34 268.035C1433.38 271.994 1432.46 275.97 1429.86 279.345C1424.65 272.789 1426.02 266.893 1432.99 265.244" stroke="#131313" stroke-width="2" stroke-miterlimit="10" stroke-linecap="round" stroke-linejoin="round"/>
	<path d="M1473.91 552.111C1475.62 550.563 1477.31 548.998 1479.03 547.467C1483.64 543.322 1488.95 542.561 1494.32 546.147C1501.46 550.918 1509.2 553.143 1517.62 552.466C1521.49 552.153 1525.34 551.519 1529.26 551.646C1534.19 551.806 1536.38 555.359 1533.87 559.521C1530.94 564.377 1526.08 566.644 1520.9 568.412C1518.15 569.351 1515.05 569.672 1512.98 572.1" stroke="#131313" stroke-width="2" stroke-miterlimit="10" stroke-linecap="round" stroke-linejoin="round"/>
	<path d="M1196.72 429.834C1196.06 428.497 1195.47 427.271 1196.17 425.613C1196.56 424.674 1196.63 423.278 1195.35 422.364C1193.86 421.298 1192.61 422.229 1191.64 422.914C1186.86 426.306 1183.24 430.747 1180.43 435.874C1179.78 437.041 1178.97 438.107 1177.9 439.722C1171.6 433.395 1165.48 437.379 1159.57 440.179C1156.79 441.499 1153.99 442.802 1151.1 443.647C1149.39 444.147 1146.99 444.569 1145.56 442.387" stroke="#131313" stroke-width="2" stroke-miterlimit="10" stroke-linecap="round" stroke-linejoin="round"/>
	<path d="M1428.8 136.918C1428.8 137.696 1428.83 138.466 1428.79 139.244C1428.56 144.354 1430.55 151.392 1433.36 156.493C1433.79 157.263 1434.62 158.641 1433.44 159.699C1429.38 163.336 1430.06 168.632 1428.89 173.208C1426.38 183.004 1422.61 184.873 1413.88 180.212C1412.01 179.214 1411.62 177.438 1410.71 175.94C1409.89 174.587 1409.09 173.496 1407.4 173.42" stroke="#131313" stroke-width="2" stroke-miterlimit="10" stroke-linecap="round" stroke-linejoin="round"/>
	<path d="M632.66 573.166C589.806 573.217 545.497 573.259 501.924 573.065C375.087 572.489 294.936 572.574 202.131 572.658C142.866 572.718 81.579 572.777 0.886933 572.675C0.421678 572.65 0.0410156 573.056 0.0410156 573.521C0.0410156 573.987 0.421678 574.367 0.886933 574.367C81.5874 574.469 142.866 574.41 202.139 574.35C294.945 574.257 375.095 574.181 501.924 574.756C526.1 574.866 550.496 574.9 574.749 574.9C594.213 574.9 613.585 574.875 632.669 574.858C648.039 574.841 663.409 574.832 678.78 574.832V573.141C663.401 573.149 648.03 573.149 632.66 573.166Z" fill="#131313"/>
	<path d="M1201.46 410.149C1200.32 405.937 1199 403.839 1197.06 403.12C1195.14 402.409 1192.75 403.145 1189.32 405.497C1184.35 408.897 1179.71 412.89 1175.22 416.756L1174.79 417.128C1166.05 424.64 1155.61 433.344 1144.4 440.89C1132.46 448.918 1127.54 462.892 1122.78 476.41C1117.33 491.882 1112.18 506.491 1097.3 512.032C1097.19 512.074 1097.08 512.133 1097.01 512.218C1096.86 512.37 1080.73 527.173 1022.96 531.53C997.123 533.476 971.957 539.245 948.161 548.66L936.039 553.456C905.248 565.637 872.849 571.922 839.74 572.142L760.867 572.658C758.244 572.608 755.571 572.599 752.974 572.591C747.214 572.574 741.267 572.557 735.65 572.1C728.197 571.491 720.99 571.999 714.028 572.481C709.418 572.802 704.647 573.132 699.893 573.132C699.885 573.132 699.868 573.132 699.859 573.132C693.396 573.132 686.934 573.141 680.471 573.141V574.832C686.934 574.832 693.396 574.815 699.859 574.824C699.868 574.824 699.885 574.824 699.893 574.824C704.706 574.824 709.503 574.486 714.147 574.164C721.049 573.682 728.189 573.183 735.515 573.783C741.199 574.249 747.188 574.266 752.974 574.283C755.563 574.291 758.227 574.299 760.858 574.35L839.757 573.834C873.078 573.614 905.688 567.287 936.665 555.03L948.787 550.233C972.422 540.877 997.419 535.159 1023.08 533.222C1079.48 528.967 1096.31 515.136 1098.05 513.563C1113.55 507.7 1119.05 492.076 1124.37 476.977C1129.04 463.721 1133.87 450.009 1145.34 442.303C1156.64 434.706 1167.13 425.968 1175.9 418.422L1176.33 418.05C1180.79 414.218 1185.39 410.251 1190.28 406.909C1193.17 404.93 1195.15 404.228 1196.49 404.727C1197.83 405.218 1198.87 407.036 1199.84 410.606C1200.7 413.795 1200.34 417.534 1199.98 421.155C1199.9 422.026 1199.81 422.889 1199.75 423.743C1199.55 426.129 1198.32 427.888 1197.02 429.749C1196.07 431.12 1195.08 432.532 1194.52 434.224C1194.37 434.664 1194.61 435.146 1195.06 435.29C1195.5 435.434 1195.98 435.197 1196.12 434.749C1196.61 433.294 1197.48 432.042 1198.41 430.713C1199.78 428.751 1201.2 426.712 1201.43 423.87C1201.5 423.024 1201.58 422.17 1201.67 421.315C1202.03 417.543 1202.41 413.643 1201.46 410.149Z" fill="#131313"/>
	<path d="M678.771 573.141V574.832C679.338 574.832 679.897 574.832 680.463 574.832V573.141C679.897 573.141 679.338 573.141 678.771 573.141Z" fill="#131313"/>
	<mask id="mask1_162_467" style="mask-type:alpha" maskUnits="userSpaceOnUse" x="1986" y="85" width="1215" height="491">
	<rect width="1213.89" height="489.786" transform="matrix(-1 0 0 1 3200.14 85.3115)" fill="#C4C4C4"/>
	</mask>
	<g mask="url(#mask1_162_467)">
	<path d="M3110.35 573.166C3067.5 573.217 3023.19 573.259 2979.61 573.065C2852.78 572.489 2772.63 572.574 2679.82 572.659C2620.56 572.718 2559.27 572.777 2478.58 572.676C2478.11 572.65 2477.73 573.056 2477.73 573.521C2477.73 573.987 2478.11 574.367 2478.58 574.367C2559.28 574.469 2620.56 574.41 2679.83 574.35C2772.63 574.257 2852.78 574.181 2979.61 574.756C3003.79 574.866 3028.19 574.9 3052.44 574.9C3071.9 574.9 3091.27 574.875 3110.36 574.858C3125.73 574.841 3141.1 574.833 3156.47 574.833V573.141C3141.09 573.149 3125.72 573.149 3110.35 573.166Z" fill="#131313"/>
	</g>
	</g>
	</svg>
	