<svg width="2560" height="1329" viewBox="0 0 2560 1329" fill="none" xmlns="http://www.w3.org/2000/svg">
	<g clip-path="url(#clip0_148_344)">
	<path d="M1397.72 1041.32C1401.75 1041.14 1405.88 1041.44 1409.79 1040.66C1415.69 1039.47 1421.15 1041.89 1426.86 1041.89C1458.38 1041.86 1489.91 1042.17 1521.43 1041.82C1620.58 1040.71 1661.66 1041.67 1760.8 1041.36H2560" stroke="#131313" stroke-width="2" stroke-miterlimit="10" stroke-linecap="round" stroke-linejoin="round"/>
	<path d="M1283.36 732.431C1284.79 735.571 1287.93 737.111 1290.59 738.301C1296.65 741.001 1298.64 746.291 1299.7 751.701C1301.33 760.011 1300.96 768.441 1300.09 776.971C1299.28 784.931 1299.07 793.141 1300.96 801.131C1302.11 806.001 1305.38 809.181 1309.18 812.161C1324.83 824.431 1340.15 837.101 1353.75 851.691C1360.84 859.291 1366.74 867.801 1372.38 876.471C1374.81 880.211 1375.45 884.761 1374.56 889.051C1371.54 903.611 1375 917.491 1378.5 931.391C1381.91 944.941 1384.75 958.581 1385.06 972.611C1385.12 975.351 1384.72 978.111 1384.55 980.851C1384.02 989.131 1385.1 997.351 1385.65 1005.58" stroke="#131313" stroke-width="2" stroke-miterlimit="10" stroke-linecap="round" stroke-linejoin="round"/>
	<path d="M1221.24 768.711C1221.72 774.791 1218.05 779.861 1216.99 785.671C1215.86 791.891 1215.67 798.231 1218.76 802.601C1231.32 820.381 1226.49 837.231 1217.29 853.841C1209.26 868.331 1198.06 880.631 1187.72 893.481C1185.59 896.131 1183.49 898.851 1181.71 901.751C1180.4 903.881 1178.33 906.421 1181.14 908.811C1183.5 910.821 1186.07 910.321 1188.83 908.931C1192.91 906.881 1196.54 904.341 1199.8 901.171C1215.2 886.231 1226.99 868.451 1239.37 851.141C1244.72 843.661 1250 836.121 1255.32 828.611C1257.45 825.621 1259.92 824.191 1263.58 826.381C1267.69 828.841 1270.56 827.511 1273.57 823.751C1279.58 816.231 1282.35 807.401 1283.12 798.361C1284.18 785.881 1283.26 773.511 1278.12 761.451C1274.24 752.351 1267.47 750.021 1259.17 749.561C1252.3 749.181 1245.27 748.641 1238.8 752.151C1238.31 752.421 1237.37 751.841 1236.63 751.661" stroke="#131313" stroke-width="2" stroke-miterlimit="10" stroke-linecap="round" stroke-linejoin="round"/>
	<path d="M1169 903.371C1167.94 897.341 1166.02 891.551 1164.04 885.791C1162.67 881.801 1158.95 879.981 1155.74 878.201C1140.19 869.541 1123.45 867.051 1105.76 868.611C1094.28 869.631 1082.86 871.321 1071.09 869.581C1062.34 868.291 1059.87 862.901 1057.97 856.091C1056.7 851.561 1055.97 846.871 1054.59 842.371C1052.36 835.131 1045.11 832.431 1037.06 835.791C1032.26 837.801 1028.03 840.711 1024.37 844.521C1018.47 850.671 1012.08 855.671 1003.61 858.591C995.72 861.311 988.56 866.351 982.62 872.591C977.78 877.671 977.52 880.141 980.96 886.321" stroke="#131313" stroke-width="2" stroke-miterlimit="10" stroke-linecap="round" stroke-linejoin="round"/>
	<path d="M1316.9 523.581C1321.67 523.981 1324.17 522.061 1323.45 518.091C1321.97 509.961 1316.26 505.361 1309.2 502.161C1294.47 495.471 1280.07 498.151 1265.76 503.781C1256.3 507.501 1248.39 513.541 1241.07 520.331C1231.52 529.191 1220.24 527.761 1211.71 519.001C1207.07 522.551 1204.5 527.751 1203.32 532.981C1201.81 539.661 1202.96 546.351 1209.69 550.521C1214.81 553.701 1217.15 558.721 1218.46 564.271C1221.08 575.371 1228.36 579.431 1239.39 575.821C1243.58 574.451 1247.77 573.051 1252.05 572.051C1253.75 571.661 1256.28 571.641 1257.43 572.621C1262.97 577.391 1268.04 575.161 1272.89 571.901C1278.81 567.911 1282.89 562.771 1281.2 554.911C1281.01 554.031 1281.38 553.021 1281.14 552.181C1278.77 543.881 1279.33 544.631 1287.77 542.831C1288.6 542.651 1289.42 542.461 1289.97 542.341C1289.97 538.981 1289.5 535.601 1290.07 532.401C1291.06 526.851 1296.12 526.321 1300.43 525.301C1303.7 524.531 1306.93 523.751 1309.74 521.921C1312.9 519.861 1312.43 517.101 1310.86 514.251C1308.11 509.271 1303.08 507.291 1298.19 506.731C1284.02 505.121 1266.34 509.641 1257.53 523.601C1251.44 533.251 1251.54 543.341 1256.53 553.221C1259.19 558.491 1262.52 563.601 1266.42 568.021C1273.36 575.881 1271.75 583.291 1266.94 591.251C1265.05 594.381 1262.09 596.981 1261.77 601.091C1261.7 602.031 1260.33 603.371 1258.61 603.321C1255.31 603.231 1252.01 603.301 1248.71 603.301" stroke="#131313" stroke-width="2" stroke-miterlimit="10" stroke-linecap="round" stroke-linejoin="round"/>
	<path d="M1268.52 586.78C1259.37 585.06 1250.72 590.671 1248.31 600.551C1247.4 604.281 1245.73 605.52 1242.2 606.76C1235.24 609.211 1228.98 613.361 1222.91 617.581C1213.29 624.271 1202.22 628.44 1193.08 636.09C1184.08 643.62 1182.79 655.521 1190.91 664.361C1194.27 668.011 1197.55 671.78 1201.51 674.63C1210.69 681.22 1216.8 690.291 1222.89 699.451C1226.22 704.471 1229.41 709.6 1234.44 713.19C1235.19 713.72 1235.87 714.341 1236.65 714.831C1242.72 718.661 1247.41 716.38 1248.21 709.35C1248.91 703.22 1247.92 697.07 1246.82 691.26C1244.68 679.93 1243.4 668.54 1242.84 657.13C1242.21 644.33 1241.99 631.46 1243.72 618.66C1244.23 614.84 1246.08 611.12 1244.88 607.13" stroke="#131313" stroke-width="2" stroke-miterlimit="10" stroke-linecap="round" stroke-linejoin="round"/>
	<path d="M1258.62 603.821C1256.11 615.331 1257.15 626.821 1257.85 638.461C1258.75 653.331 1261.59 668.021 1261.42 682.971C1261.35 688.831 1262.22 694.661 1261.42 700.561C1259.99 711.151 1265.44 718.691 1272.85 725.351C1274.35 726.701 1276.85 727.511 1276.76 730.231" stroke="#131313" stroke-width="2" stroke-miterlimit="10" stroke-linecap="round" stroke-linejoin="round"/>
	<path d="M1421.92 650.811C1421.19 651.271 1419.83 651.701 1419.82 652.191C1419.59 657.971 1415.83 659.511 1410.94 660.501C1396.3 663.451 1384.98 672.461 1373.49 681.261C1361.49 690.451 1349.21 699.281 1335.62 706.091C1331.37 708.211 1326.94 710.021 1322.38 710.861C1315.81 712.071 1310.41 709.741 1306.33 703.951C1304.52 701.391 1303.59 697.691 1299.87 696.711" stroke="#131313" stroke-width="2" stroke-miterlimit="10" stroke-linecap="round" stroke-linejoin="round"/>
	<path d="M1300.96 576.341C1299.49 581.471 1297.75 586.541 1296.64 591.751C1295.51 597.001 1297.47 600.301 1303.19 603.221C1307.64 605.491 1312.39 607.181 1316.89 609.351C1322.81 612.201 1325.53 616.931 1326.39 623.591C1328.37 639.011 1327.95 654.371 1326.84 669.781C1326.75 671.041 1327.17 672.341 1327.35 673.621" stroke="#131313" stroke-width="2" stroke-miterlimit="10" stroke-linecap="round" stroke-linejoin="round"/>
	<path d="M1270.17 586.781C1274.82 588.381 1279.01 590.811 1282.23 594.501C1292.31 606.041 1303.58 616.531 1312.58 629.041C1314.77 632.081 1316.68 635.251 1318.5 638.471C1323.89 647.951 1319.6 654.301 1313.48 660.871C1307.48 667.311 1301.85 673.921 1297.1 681.321" stroke="#131313" stroke-width="2" stroke-miterlimit="10" stroke-linecap="round" stroke-linejoin="round"/>
	<path d="M1261.92 602.171C1275.23 605.931 1279.09 617.241 1282.13 628.591C1285.98 642.921 1288.65 657.551 1292.25 671.951C1294.09 679.311 1297.5 686.311 1298.15 693.961C1298.79 701.461 1301.36 708.971 1299.69 716.451C1298.52 721.721 1295.21 725.751 1290.07 728.771C1283.88 732.411 1277.44 731.901 1271.29 731.101C1261.47 729.821 1253.94 732.591 1246.33 738.791C1240.21 743.781 1237.28 750.981 1231.65 756.031C1226.63 760.531 1222.6 765.861 1217.08 770.121C1206.71 778.141 1204.91 790.211 1207.05 802.761C1207.2 803.661 1207.3 804.611 1207.49 805.531C1208.22 809.011 1210.49 813.201 1209.29 815.791C1207.83 818.941 1203.34 820.601 1200.36 823.141C1183.91 837.131 1171.46 853.891 1165.2 874.801C1164.41 877.431 1164.08 880.191 1162.4 882.481" stroke="#131313" stroke-width="2" stroke-miterlimit="10" stroke-linecap="round" stroke-linejoin="round"/>
	<path d="M1420.82 655.491C1422.03 656.901 1423.32 657.951 1425.22 656.591C1427.78 654.771 1430.74 647.691 1429.55 645.081C1427.52 640.651 1425.83 635.921 1419.74 635.071C1412 634.001 1406.05 636.311 1402.76 643.431C1399.64 650.211 1394.2 654.021 1387.85 657.171C1374.34 663.871 1360.28 668.971 1345.49 671.931C1340.97 672.831 1336.43 673.791 1331.75 673.641C1327.28 673.501 1324.96 675.161 1325.02 680.221C1325.07 684.901 1323.98 689.601 1320.91 693.591C1314.75 685.841 1316.37 678.871 1324.61 676.921" stroke="#131313" stroke-width="2" stroke-miterlimit="10" stroke-linecap="round" stroke-linejoin="round"/>
	<path d="M1372.98 1016.04C1375 1014.21 1377 1012.36 1379.03 1010.55C1384.49 1005.65 1390.76 1004.75 1397.11 1008.99C1405.55 1014.63 1414.7 1017.26 1424.65 1016.46C1429.23 1016.09 1433.78 1015.34 1438.41 1015.49C1444.24 1015.68 1446.83 1019.88 1443.86 1024.8C1440.4 1030.54 1434.65 1033.22 1428.53 1035.31C1425.28 1036.42 1421.62 1036.8 1419.17 1039.67" stroke="#131313" stroke-width="2" stroke-miterlimit="10" stroke-linecap="round" stroke-linejoin="round"/>
	<path d="M1045.3 871.491C1044.52 869.911 1043.83 868.461 1044.65 866.501C1045.11 865.391 1045.2 863.741 1043.68 862.661C1041.92 861.401 1040.44 862.501 1039.3 863.311C1033.65 867.321 1029.37 872.571 1026.04 878.631C1025.28 880.011 1024.32 881.271 1023.05 883.181C1015.61 875.701 1008.37 880.411 1001.38 883.721C998.1 885.281 994.79 886.82 991.37 887.82C989.35 888.41 986.51 888.911 984.82 886.331" stroke="#131313" stroke-width="2" stroke-miterlimit="10" stroke-linecap="round" stroke-linejoin="round"/>
	<path d="M1319.65 525.221C1319.65 526.141 1319.69 527.051 1319.64 527.971C1319.37 534.011 1321.72 542.331 1325.05 548.361C1325.55 549.271 1326.54 550.901 1325.14 552.151C1320.34 556.451 1321.14 562.711 1319.76 568.121C1316.8 579.701 1312.34 581.911 1302.02 576.401C1299.81 575.221 1299.34 573.121 1298.27 571.351C1297.3 569.751 1296.36 568.461 1294.36 568.371" stroke="#131313" stroke-width="2" stroke-miterlimit="10" stroke-linecap="round" stroke-linejoin="round"/>
	<path d="M378.5 1040.93C327.84 1040.99 275.46 1041.04 223.95 1040.81C74.0104 1040.13 -20.7396 1040.23 -130.45 1040.33C-200.51 1040.4 -272.96 1040.47 -368.35 1040.35C-368.9 1040.32 -369.35 1040.8 -369.35 1041.35C-369.35 1041.9 -368.9 1042.35 -368.35 1042.35C-272.95 1042.47 -200.51 1042.4 -130.44 1042.33C-20.7296 1042.22 74.0204 1042.13 223.95 1042.81C252.53 1042.94 281.37 1042.98 310.04 1042.98C333.05 1042.98 355.95 1042.95 378.51 1042.93C396.68 1042.91 414.85 1042.9 433.02 1042.9V1040.9C414.84 1040.91 396.67 1040.91 378.5 1040.93Z" fill="#131313"/>
	<path d="M1050.91 848.221C1049.56 843.241 1048 840.761 1045.71 839.911C1043.43 839.071 1040.61 839.941 1036.55 842.721C1030.68 846.741 1025.2 851.461 1019.89 856.031L1019.38 856.471C1009.05 865.351 996.71 875.641 983.45 884.561C969.34 894.051 963.52 910.571 957.89 926.551C951.45 944.841 945.36 962.111 927.77 968.661C927.64 968.711 927.52 968.781 927.43 968.881C927.25 969.061 908.19 986.561 839.89 991.711C809.35 994.011 779.6 1000.83 751.47 1011.96L737.14 1017.63C700.74 1032.03 662.44 1039.46 623.3 1039.72L530.06 1040.33C526.96 1040.27 523.8 1040.26 520.73 1040.25C513.92 1040.23 506.89 1040.21 500.25 1039.67C491.44 1038.95 482.92 1039.55 474.69 1040.12C469.24 1040.5 463.6 1040.89 457.98 1040.89C457.97 1040.89 457.95 1040.89 457.94 1040.89C450.3 1040.89 442.66 1040.9 435.02 1040.9V1042.9C442.66 1042.9 450.3 1042.88 457.94 1042.89C457.95 1042.89 457.97 1042.89 457.98 1042.89C463.67 1042.89 469.34 1042.49 474.83 1042.11C482.99 1041.54 491.43 1040.95 500.09 1041.66C506.81 1042.21 513.89 1042.23 520.73 1042.25C523.79 1042.26 526.94 1042.27 530.05 1042.33L623.32 1041.72C662.71 1041.46 701.26 1033.98 737.88 1019.49L752.21 1013.82C780.15 1002.76 809.7 996.001 840.04 993.711C906.71 988.681 926.6 972.331 928.66 970.471C946.99 963.541 953.49 945.071 959.78 927.221C965.3 911.551 971.01 895.341 984.57 886.231C997.92 877.251 1010.32 866.921 1020.69 858.001L1021.2 857.561C1026.47 853.031 1031.91 848.341 1037.69 844.391C1041.11 842.051 1043.45 841.221 1045.03 841.811C1046.62 842.391 1047.84 844.541 1048.99 848.761C1050.01 852.531 1049.58 856.951 1049.16 861.231C1049.06 862.261 1048.96 863.281 1048.88 864.291C1048.65 867.111 1047.2 869.191 1045.66 871.391C1044.53 873.011 1043.36 874.681 1042.7 876.681C1042.53 877.201 1042.81 877.771 1043.34 877.941C1043.86 878.111 1044.43 877.831 1044.6 877.301C1045.17 875.581 1046.2 874.101 1047.3 872.531C1048.92 870.211 1050.6 867.801 1050.87 864.441C1050.95 863.441 1051.05 862.431 1051.15 861.421C1051.58 856.961 1052.03 852.351 1050.91 848.221Z" fill="#131313"/>
	<path d="M433.01 1040.9V1042.9C433.68 1042.9 434.34 1042.9 435.01 1042.9V1040.9C434.34 1040.9 433.68 1040.9 433.01 1040.9Z" fill="#131313"/>
	</g>
	<defs>
	<clipPath id="clip0_148_344">
	<rect width="2560" height="1329" fill="white"/>
	</clipPath>
	</defs>
	</svg>
	