<svg width="3096" height="879" viewBox="0 0 3096 879" fill="none" xmlns="http://www.w3.org/2000/svg">
	<mask id="mask0_162_467" style="mask-type:alpha" maskUnits="userSpaceOnUse" x="41" y="100" width="3054" height="579">
	<rect x="41" y="100" width="3054" height="579" fill="#FF0000"/>
	</mask>
	<g mask="url(#mask0_162_467)">
	<path d="M1767.07 677.107C1771.1 676.927 1775.23 677.227 1779.14 676.447C1785.04 675.257 1790.5 677.677 1796.21 677.677C1827.73 677.647 1859.26 677.957 1890.78 677.607C1989.93 676.497 2031.01 677.457 2130.15 677.147H2929.35" stroke="#131313" stroke-width="2" stroke-miterlimit="10" stroke-linecap="round" stroke-linejoin="round"/>
	<path d="M1652.71 368.217C1654.14 371.357 1657.28 372.897 1659.94 374.087C1666 376.787 1667.99 382.077 1669.05 387.487C1670.68 395.797 1670.31 404.227 1669.44 412.757C1668.63 420.717 1668.42 428.927 1670.31 436.917C1671.46 441.787 1674.73 444.967 1678.53 447.947C1694.18 460.217 1709.5 472.887 1723.1 487.477C1730.19 495.077 1736.09 503.587 1741.73 512.257C1744.16 515.997 1744.8 520.547 1743.91 524.837C1740.89 539.397 1744.35 553.277 1747.85 567.177C1751.26 580.727 1754.1 594.367 1754.41 608.397C1754.47 611.137 1754.07 613.897 1753.9 616.637C1753.37 624.917 1754.45 633.137 1755 641.367" stroke="#131313" stroke-width="2" stroke-miterlimit="10" stroke-linecap="round" stroke-linejoin="round"/>
	<path d="M1590.59 404.497C1591.07 410.577 1587.4 415.647 1586.34 421.457C1585.21 427.677 1585.02 434.017 1588.11 438.387C1600.67 456.167 1595.84 473.017 1586.64 489.627C1578.61 504.117 1567.41 516.417 1557.07 529.267C1554.94 531.917 1552.84 534.637 1551.06 537.537C1549.75 539.667 1547.68 542.207 1550.49 544.597C1552.85 546.607 1555.42 546.107 1558.18 544.717C1562.26 542.667 1565.89 540.127 1569.15 536.957C1584.55 522.017 1596.34 504.237 1608.72 486.927C1614.07 479.447 1619.35 471.907 1624.67 464.397C1626.8 461.407 1629.27 459.977 1632.93 462.167C1637.04 464.627 1639.91 463.297 1642.92 459.537C1648.93 452.017 1651.7 443.187 1652.47 434.147C1653.53 421.667 1652.61 409.297 1647.47 397.237C1643.59 388.137 1636.82 385.807 1628.52 385.347C1621.65 384.967 1614.62 384.427 1608.15 387.937C1607.66 388.207 1606.72 387.627 1605.98 387.447" stroke="#131313" stroke-width="2" stroke-miterlimit="10" stroke-linecap="round" stroke-linejoin="round"/>
	<path d="M1538.35 539.157C1537.29 533.127 1535.37 527.337 1533.39 521.577C1532.02 517.587 1528.3 515.767 1525.09 513.987C1509.54 505.327 1492.8 502.837 1475.11 504.397C1463.63 505.417 1452.21 507.107 1440.44 505.367C1431.69 504.077 1429.22 498.687 1427.32 491.877C1426.05 487.347 1425.32 482.657 1423.94 478.157C1421.71 470.917 1414.46 468.217 1406.41 471.577C1401.61 473.587 1397.38 476.497 1393.72 480.307C1387.82 486.457 1381.43 491.457 1372.96 494.377C1365.07 497.097 1357.91 502.137 1351.97 508.377C1347.13 513.457 1346.87 515.927 1350.31 522.107" stroke="#131313" stroke-width="2" stroke-miterlimit="10" stroke-linecap="round" stroke-linejoin="round"/>
	<path d="M1686.25 159.367C1691.02 159.767 1693.52 157.847 1692.8 153.877C1691.32 145.747 1685.61 141.147 1678.55 137.947C1663.82 131.257 1649.42 133.937 1635.11 139.567C1625.65 143.287 1617.74 149.327 1610.42 156.117C1600.87 164.977 1589.59 163.547 1581.06 154.787C1576.42 158.337 1573.85 163.537 1572.67 168.767C1571.16 175.447 1572.31 182.137 1579.04 186.307C1584.16 189.487 1586.5 194.507 1587.81 200.057C1590.43 211.157 1597.71 215.217 1608.74 211.607C1612.93 210.237 1617.12 208.837 1621.4 207.837C1623.1 207.447 1625.63 207.427 1626.78 208.407C1632.32 213.177 1637.39 210.947 1642.24 207.687C1648.16 203.697 1652.24 198.557 1650.55 190.697C1650.36 189.817 1650.73 188.807 1650.49 187.967C1648.12 179.667 1648.68 180.417 1657.12 178.617C1657.95 178.437 1658.77 178.247 1659.32 178.127C1659.32 174.767 1658.85 171.387 1659.42 168.187C1660.41 162.637 1665.47 162.107 1669.78 161.087C1673.05 160.317 1676.28 159.537 1679.09 157.707C1682.25 155.647 1681.78 152.887 1680.21 150.037C1677.46 145.057 1672.43 143.077 1667.54 142.517C1653.37 140.907 1635.69 145.427 1626.88 159.387C1620.79 169.037 1620.89 179.127 1625.88 189.007C1628.54 194.277 1631.87 199.387 1635.77 203.807C1642.71 211.667 1641.1 219.077 1636.29 227.037C1634.4 230.167 1631.44 232.767 1631.12 236.877C1631.05 237.817 1629.68 239.157 1627.96 239.107C1624.66 239.017 1621.36 239.087 1618.06 239.087" stroke="#131313" stroke-width="2" stroke-miterlimit="10" stroke-linecap="round" stroke-linejoin="round"/>
	<path d="M1637.87 222.567C1628.72 220.847 1620.07 226.457 1617.66 236.337C1616.75 240.067 1615.08 241.307 1611.55 242.547C1604.59 244.997 1598.33 249.147 1592.26 253.367C1582.64 260.057 1571.57 264.227 1562.43 271.877C1553.43 279.407 1552.14 291.307 1560.26 300.147C1563.62 303.797 1566.9 307.567 1570.86 310.417C1580.04 317.007 1586.15 326.077 1592.24 335.237C1595.57 340.257 1598.76 345.387 1603.79 348.977C1604.54 349.507 1605.22 350.127 1606 350.617C1612.07 354.447 1616.76 352.167 1617.56 345.137C1618.26 339.007 1617.27 332.857 1616.17 327.047C1614.03 315.717 1612.75 304.327 1612.19 292.917C1611.56 280.117 1611.34 267.247 1613.07 254.447C1613.58 250.627 1615.43 246.907 1614.23 242.917" stroke="#131313" stroke-width="2" stroke-miterlimit="10" stroke-linecap="round" stroke-linejoin="round"/>
	<path d="M1627.97 239.607C1625.46 251.117 1626.5 262.607 1627.2 274.247C1628.1 289.117 1630.94 303.807 1630.77 318.757C1630.7 324.617 1631.57 330.447 1630.77 336.347C1629.34 346.937 1634.79 354.477 1642.2 361.137C1643.7 362.487 1646.2 363.297 1646.11 366.017" stroke="#131313" stroke-width="2" stroke-miterlimit="10" stroke-linecap="round" stroke-linejoin="round"/>
	<path d="M1791.27 286.597C1790.54 287.057 1789.18 287.487 1789.17 287.977C1788.94 293.757 1785.18 295.297 1780.29 296.287C1765.65 299.237 1754.33 308.247 1742.84 317.047C1730.84 326.237 1718.56 335.067 1704.97 341.877C1700.72 343.997 1696.29 345.807 1691.73 346.647C1685.16 347.857 1679.76 345.527 1675.68 339.737C1673.87 337.177 1672.94 333.477 1669.22 332.497" stroke="#131313" stroke-width="2" stroke-miterlimit="10" stroke-linecap="round" stroke-linejoin="round"/>
	<path d="M1670.31 212.127C1668.84 217.257 1667.1 222.327 1665.99 227.537C1664.86 232.787 1666.82 236.087 1672.54 239.007C1676.99 241.277 1681.74 242.967 1686.24 245.137C1692.16 247.987 1694.88 252.717 1695.74 259.377C1697.72 274.797 1697.3 290.157 1696.19 305.567C1696.1 306.827 1696.52 308.127 1696.7 309.407" stroke="#131313" stroke-width="2" stroke-miterlimit="10" stroke-linecap="round" stroke-linejoin="round"/>
	<path d="M1639.52 222.567C1644.17 224.167 1648.36 226.597 1651.58 230.287C1661.66 241.827 1672.93 252.317 1681.93 264.827C1684.12 267.867 1686.03 271.037 1687.85 274.257C1693.24 283.737 1688.95 290.087 1682.83 296.657C1676.83 303.097 1671.2 309.707 1666.45 317.107" stroke="#131313" stroke-width="2" stroke-miterlimit="10" stroke-linecap="round" stroke-linejoin="round"/>
	<path d="M1631.27 237.957C1644.58 241.717 1648.44 253.027 1651.48 264.377C1655.33 278.707 1658 293.337 1661.6 307.737C1663.44 315.097 1666.85 322.097 1667.5 329.747C1668.14 337.247 1670.71 344.757 1669.04 352.237C1667.87 357.507 1664.56 361.537 1659.42 364.557C1653.23 368.197 1646.79 367.687 1640.64 366.887C1630.82 365.607 1623.29 368.377 1615.68 374.577C1609.56 379.567 1606.63 386.767 1601 391.817C1595.98 396.317 1591.95 401.647 1586.43 405.907C1576.06 413.927 1574.26 425.997 1576.4 438.547C1576.55 439.447 1576.65 440.397 1576.84 441.317C1577.57 444.797 1579.84 448.987 1578.64 451.577C1577.18 454.727 1572.69 456.387 1569.71 458.927C1553.26 472.917 1540.81 489.677 1534.55 510.587C1533.76 513.217 1533.43 515.977 1531.75 518.267" stroke="#131313" stroke-width="2" stroke-miterlimit="10" stroke-linecap="round" stroke-linejoin="round"/>
	<path d="M1790.17 291.277C1791.38 292.687 1792.67 293.737 1794.57 292.377C1797.13 290.557 1800.09 283.477 1798.9 280.867C1796.87 276.437 1795.18 271.707 1789.09 270.857C1781.35 269.787 1775.4 272.097 1772.11 279.217C1768.99 285.997 1763.55 289.807 1757.2 292.957C1743.69 299.657 1729.63 304.757 1714.84 307.717C1710.32 308.617 1705.78 309.577 1701.1 309.427C1696.63 309.287 1694.31 310.947 1694.37 316.007C1694.42 320.687 1693.33 325.387 1690.26 329.377C1684.1 321.627 1685.72 314.657 1693.96 312.707" stroke="#131313" stroke-width="2" stroke-miterlimit="10" stroke-linecap="round" stroke-linejoin="round"/>
	<path d="M1742.33 651.827C1744.35 649.997 1746.35 648.147 1748.38 646.337C1753.84 641.437 1760.11 640.537 1766.46 644.777C1774.9 650.417 1784.05 653.047 1794 652.247C1798.58 651.877 1803.13 651.127 1807.76 651.277C1813.59 651.467 1816.18 655.667 1813.21 660.587C1809.75 666.327 1804 669.007 1797.88 671.097C1794.63 672.207 1790.97 672.587 1788.52 675.457" stroke="#131313" stroke-width="2" stroke-miterlimit="10" stroke-linecap="round" stroke-linejoin="round"/>
	<path d="M1414.65 507.277C1413.87 505.697 1413.18 504.247 1414 502.287C1414.46 501.177 1414.55 499.527 1413.03 498.447C1411.27 497.187 1409.79 498.287 1408.65 499.097C1403 503.107 1398.72 508.357 1395.39 514.417C1394.63 515.797 1393.67 517.057 1392.4 518.967C1384.96 511.487 1377.72 516.197 1370.73 519.507C1367.45 521.067 1364.14 522.607 1360.72 523.607C1358.7 524.197 1355.86 524.697 1354.17 522.117" stroke="#131313" stroke-width="2" stroke-miterlimit="10" stroke-linecap="round" stroke-linejoin="round"/>
	<path d="M1689 161.007C1689 161.927 1689.04 162.837 1688.99 163.757C1688.72 169.797 1691.07 178.117 1694.4 184.147C1694.9 185.057 1695.89 186.687 1694.49 187.937C1689.69 192.237 1690.49 198.497 1689.11 203.907C1686.15 215.487 1681.69 217.697 1671.37 212.187C1669.16 211.007 1668.69 208.907 1667.62 207.137C1666.65 205.537 1665.71 204.247 1663.71 204.157" stroke="#131313" stroke-width="2" stroke-miterlimit="10" stroke-linecap="round" stroke-linejoin="round"/>
	<path d="M747.85 676.717C697.19 676.777 644.81 676.827 593.3 676.597C443.36 675.917 348.61 676.017 238.9 676.117C168.84 676.187 96.39 676.257 1 676.137C0.45 676.107 0 676.587 0 677.137C0 677.687 0.45 678.137 1 678.137C96.4 678.257 168.84 678.187 238.91 678.117C348.62 678.007 443.37 677.917 593.3 678.597C621.88 678.727 650.72 678.767 679.39 678.767C702.4 678.767 725.3 678.737 747.86 678.717C766.03 678.697 784.2 678.687 802.37 678.687V676.687C784.19 676.697 766.02 676.697 747.85 676.717Z" fill="#131313"/>
	<path d="M1420.26 484.007C1418.91 479.027 1417.35 476.547 1415.06 475.697C1412.78 474.857 1409.96 475.727 1405.9 478.507C1400.03 482.527 1394.55 487.247 1389.24 491.817L1388.73 492.257C1378.4 501.137 1366.06 511.427 1352.8 520.347C1338.69 529.837 1332.87 546.357 1327.24 562.337C1320.8 580.627 1314.71 597.897 1297.12 604.447C1296.99 604.497 1296.87 604.567 1296.78 604.667C1296.6 604.847 1277.54 622.347 1209.24 627.497C1178.7 629.797 1148.95 636.617 1120.82 647.747L1106.49 653.417C1070.09 667.817 1031.79 675.247 992.649 675.507L899.409 676.117C896.309 676.057 893.149 676.047 890.079 676.037C883.269 676.017 876.239 675.997 869.599 675.457C860.789 674.737 852.269 675.337 844.039 675.907C838.589 676.287 832.949 676.677 827.329 676.677C827.319 676.677 827.299 676.677 827.289 676.677C819.649 676.677 812.009 676.687 804.369 676.687V678.687C812.009 678.687 819.649 678.667 827.289 678.677C827.299 678.677 827.319 678.677 827.329 678.677C833.019 678.677 838.689 678.277 844.179 677.897C852.339 677.327 860.779 676.737 869.439 677.447C876.159 677.997 883.239 678.017 890.079 678.037C893.139 678.047 896.289 678.057 899.399 678.117L992.669 677.507C1032.06 677.247 1070.61 669.767 1107.23 655.277L1121.56 649.607C1149.5 638.547 1179.05 631.787 1209.39 629.497C1276.06 624.467 1295.95 608.117 1298.01 606.257C1316.34 599.327 1322.84 580.857 1329.13 563.007C1334.65 547.337 1340.36 531.127 1353.92 522.017C1367.27 513.037 1379.67 502.707 1390.04 493.787L1390.55 493.347C1395.82 488.817 1401.26 484.127 1407.04 480.177C1410.46 477.837 1412.8 477.007 1414.38 477.597C1415.97 478.177 1417.19 480.327 1418.34 484.547C1419.36 488.317 1418.93 492.737 1418.51 497.017C1418.41 498.047 1418.31 499.067 1418.23 500.077C1418 502.897 1416.55 504.977 1415.01 507.177C1413.88 508.797 1412.71 510.467 1412.05 512.467C1411.88 512.987 1412.16 513.557 1412.69 513.727C1413.21 513.897 1413.78 513.617 1413.95 513.087C1414.52 511.367 1415.55 509.887 1416.65 508.317C1418.27 505.997 1419.95 503.587 1420.22 500.227C1420.3 499.227 1420.4 498.217 1420.5 497.207C1420.93 492.747 1421.38 488.137 1420.26 484.007Z" fill="#131313"/>
	<path d="M802.359 676.687V678.687C803.029 678.687 803.689 678.687 804.359 678.687V676.687C803.689 676.687 803.029 676.687 802.359 676.687Z" fill="#131313"/>
	<mask id="mask1_162_467" style="mask-type:alpha" maskUnits="userSpaceOnUse" x="2348" y="100" width="1435" height="579">
	<rect width="1435" height="579" transform="matrix(-1 0 0 1 3783 100)" fill="#C4C4C4"/>
	</mask>
	<g mask="url(#mask1_162_467)">
	<path d="M3676.85 676.717C3626.19 676.777 3573.81 676.827 3522.3 676.597C3372.36 675.917 3277.61 676.017 3167.9 676.117C3097.84 676.187 3025.39 676.257 2930 676.137C2929.45 676.107 2929 676.587 2929 677.137C2929 677.687 2929.45 678.137 2930 678.137C3025.4 678.257 3097.84 678.187 3167.91 678.117C3277.62 678.007 3372.37 677.917 3522.3 678.597C3550.88 678.727 3579.72 678.767 3608.39 678.767C3631.4 678.767 3654.3 678.737 3676.86 678.717C3695.03 678.697 3713.2 678.687 3731.37 678.687V676.687C3713.19 676.697 3695.02 676.697 3676.85 676.717Z" fill="#131313"/>
	</g>
	</g>
	</svg>
	