<svg width="64" height="53" viewBox="0 0 64 53" fill="none" xmlns="http://www.w3.org/2000/svg">
	<rect width="64" height="53" rx="6" fill="#FFFCFC"/>
	<mask id="mask0_207_509" style="mask-type:alpha" maskUnits="userSpaceOnUse" x="4" y="9" width="56" height="35">
	<rect x="4" y="9" width="56" height="35" fill="#C4C4C4"/>
	</mask>
	<g mask="url(#mask0_207_509)">
	<mask id="mask1_207_509" style="mask-type:alpha" maskUnits="userSpaceOnUse" x="33" y="7" width="26" height="45">
	<rect x="33" y="7" width="26" height="45" fill="#C4C4C4"/>
	</mask>
	<g mask="url(#mask1_207_509)">
	<path d="M55.1677 38.6562C55.1302 38.7677 55.0768 38.8685 54.9072 38.892H54.9063C54.6833 39.0406 54.5399 39.0497 54.2485 38.9329C54.2429 38.936 54.2382 38.9383 54.2317 38.9405C54.168 38.964 54.093 38.9223 54.0181 38.9716C54.0443 39.0959 54.1699 39.1626 54.2785 39.2392C54.3385 39.2817 54.4369 39.2968 54.4387 39.3794C54.4406 39.3787 54.4434 39.3787 54.4453 39.3779C54.5456 39.4697 54.6795 39.3847 54.7901 39.4219C54.791 39.4219 54.792 39.4219 54.7929 39.4227C54.792 39.4211 54.7901 39.4196 54.7892 39.4181C55.0843 39.2536 55.1143 39.0012 55.1293 38.7442C55.1555 38.7192 55.1639 38.6881 55.1677 38.6562Z" fill="#373737"/>
	<path d="M54.9767 33.2085C54.6657 33.1385 54.3604 33.0476 54.0727 32.8931C54.0059 32.8567 53.9519 32.8158 53.8681 32.8822C53.5909 33.1039 53.3098 33.0303 53.0391 32.8567C52.6145 32.5841 52.322 32.2023 52.1746 31.7588C52.1568 32.0442 52.1319 32.3214 52.1021 32.5913C52.3462 32.7313 52.5516 32.9431 52.7402 33.1848C52.9754 33.4875 53.1639 33.8292 53.3227 34.1864C53.3968 34.3537 53.4814 34.4082 53.6288 34.3882C53.6554 34.3864 53.682 34.3837 53.7078 34.3818C53.972 34.3228 54.2363 34.3137 54.5006 34.3837C54.8051 34.4945 54.8583 34.4645 54.9679 34.121C55.0049 34.0046 55.0452 33.8892 55.0839 33.7729C55.1121 33.6293 55.1395 33.4857 55.1677 33.3421C55.1507 33.2139 55.0541 33.2266 54.9767 33.2085Z" fill="#373737"/>
	<path d="M55.2975 35.4891C55.3689 35.5323 55.4472 35.5257 55.5245 35.5285C55.5722 35.5304 55.6198 35.5379 55.6657 35.552C55.6946 35.5642 55.7244 35.5755 55.7516 35.5905C55.7763 35.5877 55.8001 35.5802 55.8196 35.553C56.0671 35.1998 56.369 35.1932 56.7007 35.3698C56.494 34.9904 56.1488 34.8316 55.7975 34.6767C55.6172 34.5978 55.4148 34.579 55.2567 34.4409C55.175 34.7621 54.9905 35.0167 54.7847 35.2618C54.9454 35.3942 55.1367 35.3999 55.2975 35.4891Z" fill="#373737"/>
	<path d="M55.9388 36.3391C56.2354 36.1807 56.5206 36.0056 56.6651 35.6986C56.6833 35.6625 56.6957 35.6264 56.7005 35.5903C56.6928 35.6044 56.6833 35.6185 56.6699 35.6334C56.512 35.7232 56.3407 35.7522 56.1579 35.7373C56.0086 35.7945 55.8526 35.7663 55.6986 35.7698C55.69 35.7716 55.6823 35.7725 55.6737 35.7742C55.6306 35.8895 55.5971 36.0092 55.4756 36.0795C55.49 36.1007 55.5024 36.1244 55.4948 36.1473C55.224 36.9295 54.9656 37.717 54.3828 38.3672C54.3656 38.3866 54.3445 38.4016 54.3225 38.4156C54.313 38.4192 54.3034 38.4218 54.2948 38.4236C54.3139 38.5476 54.2 38.6031 54.1254 38.6708C54.0087 38.7773 53.9465 38.8617 54.156 38.9295C54.1886 38.94 54.2039 38.9717 54.2087 39.0043C54.3953 39.0368 54.5819 39.0782 54.7531 38.9638C54.7522 38.9603 54.7503 38.9576 54.7493 38.955C54.9407 38.479 54.9905 37.9757 55.0785 37.4794C55.1675 36.9735 55.4574 36.5978 55.9388 36.3391Z" fill="#373737"/>
	<path d="M55.3475 30.1868C55.4028 30.1374 55.4723 30.1024 55.5171 30.0404C55.554 29.9892 55.5672 29.9327 55.525 29.877C55.4872 29.8276 55.4362 29.8402 55.3888 29.8582C55.2332 29.9174 55.0934 30.0081 54.9563 30.1015C54.8754 30.1562 54.7954 30.2137 54.6952 30.2281C54.6425 30.378 54.5194 30.4462 54.3761 30.4929C54.3463 30.6626 54.2636 30.791 54.0966 30.8494C54.1098 30.9418 54.0465 31.0056 54.0052 31.0792C53.861 31.3342 53.7151 31.5883 53.6536 31.8819C53.6132 32.0722 53.6369 32.25 53.752 32.4098C53.8707 32.5732 53.9358 32.5651 54.021 32.3676C54.1212 32.136 54.1643 31.8846 54.2443 31.6466C54.2759 31.5515 54.2777 31.4258 54.3946 31.3854C54.3735 31.0693 54.6504 30.6743 54.9501 30.5899C54.9484 30.5863 54.9466 30.5836 54.9449 30.58C55.0214 30.3888 55.2068 30.3116 55.3475 30.1868Z" fill="#373737"/>
	<path d="M52.5307 34.7797C52.7775 34.7531 53.0154 34.8154 53.2514 34.8769C53.5172 34.9459 53.7821 35.0182 54.0182 35.0705C53.7983 34.9284 53.5884 34.7464 53.4686 34.488C53.4695 34.4772 53.4713 34.4672 53.4758 34.4573C53.274 34.4115 53.0749 34.4764 52.874 34.4755C52.8271 34.4722 52.7794 34.4705 52.737 34.4556C52.2856 34.5578 51.8469 34.6899 51.418 34.8487C51.2027 35.388 50.9351 35.8708 50.6162 36.2963C50.6009 36.317 50.5847 36.337 50.5693 36.3569C50.5991 36.3378 50.6315 36.3253 50.672 36.3287C50.6729 36.3295 50.6738 36.3303 50.6747 36.3312C50.6738 36.3295 50.6729 36.3278 50.672 36.3262C50.9369 35.8907 51.2144 35.4653 51.6937 35.1935C51.6955 35.1944 51.6973 35.1952 51.6991 35.196C51.7063 35.1445 51.7225 35.1038 51.7793 35.1121C51.9505 34.852 52.2415 34.8104 52.5307 34.7797Z" fill="#373737"/>
	<path d="M51.7192 26.4475C51.78 26.663 51.833 26.886 51.8783 27.1163C51.8954 27.201 51.91 27.2882 51.9254 27.3746C52.1033 27.28 52.2898 27.1994 52.4899 27.141C52.5755 27.1163 52.6619 27.1015 52.7517 27.1114C52.9706 27.1344 53.0673 27.2265 53.0878 27.4363C53.0955 27.5136 53.0938 27.591 53.093 27.6683C53.0921 27.8057 53.128 27.8699 53.3025 27.8641C53.6481 27.8526 54.0185 28.1981 54.0587 28.5321C54.0818 28.7287 53.9697 28.8249 53.7653 28.7698C53.5763 28.7188 53.4206 28.6111 53.2752 28.4835C53.1092 28.3388 53.075 28.3429 52.9706 28.5271C52.8843 28.6793 52.7782 28.8192 52.6824 28.9648C52.7346 28.8957 52.7953 28.8356 52.8843 28.8036C52.9724 28.7723 53.0587 28.7756 53.1263 28.8521C53.1323 28.862 53.1357 28.8718 53.1366 28.8809C53.2101 28.797 53.3 28.8389 53.3846 28.8661C53.5206 28.9089 53.649 28.9722 53.7867 29.0117C54.1536 29.117 54.5077 29.0989 54.8465 28.9113C54.9371 28.8611 55.0227 28.7896 55.1381 28.7994C55.1535 28.7279 55.1989 28.6859 55.2767 28.6769C55.3417 28.4432 55.4906 28.2417 55.5342 27.9974C55.5838 27.7201 55.5325 27.4947 55.2844 27.3261C55.1399 27.2282 55.0261 27.0966 54.8927 26.9847C54.3341 26.5158 53.678 26.2484 52.9629 26.0979C52.8997 26.0847 52.8389 26.0666 52.779 26.0444C52.6447 25.995 52.5087 26.0066 52.3719 26.0329C52.336 26.0403 52.3009 26.0411 52.265 26.0329C52.2641 26.0329 52.2633 26.0321 52.2624 26.0312C52.247 26.1044 52.176 26.1349 52.1178 26.1678C51.975 26.2517 51.8433 26.3463 51.7192 26.4475Z" fill="#373737"/>
	<path d="M55.8459 30.025C56.0616 30.2036 56.2835 30.3749 56.5036 30.5489C56.6527 30.5904 56.7476 30.7094 56.8594 30.8041C57.1692 31.0656 57.2828 31.0593 57.5623 30.7554C57.5961 30.7193 57.628 30.6806 57.66 30.6436C58.0114 29.9781 58.2173 29.2559 58.4569 28.5462C58.583 28.172 58.7152 27.7987 58.9033 27.4498C58.9326 27.3948 58.9575 27.3289 59.0001 27.283C58.9504 26.8321 58.8874 26.3948 58.8119 25.9692C58.8102 25.9836 58.8084 25.9989 58.8066 26.0134C58.8093 26.1748 58.8146 26.3362 58.7649 26.4931C58.7622 26.5373 58.7587 26.5805 58.756 26.6247C58.7622 26.7185 58.7667 26.8114 58.7152 26.8952C58.6451 27.0756 58.5741 27.2568 58.504 27.4372C58.5146 27.5571 58.4152 27.6175 58.3629 27.7032C58.2723 27.8222 58.1747 27.9331 58.038 28.0034C57.8872 28.081 57.8747 28.2523 57.8188 28.3884C57.7469 28.5625 57.6786 28.6896 57.4825 28.5183C57.3928 28.4407 57.2996 28.4678 57.2056 28.5246C57.092 28.594 56.973 28.6544 56.8559 28.7194C56.7512 28.7293 56.6447 28.7735 56.547 28.6932C56.5453 28.6815 56.5453 28.6698 56.547 28.6599C56.5426 28.6635 56.5382 28.6671 56.5337 28.6698C56.3056 28.5093 56.2559 28.2694 56.2497 28.0097C56.24 28.0007 56.2293 27.9953 56.2169 27.9926C56.2302 27.8853 56.1912 27.7726 56.248 27.6689C56.2488 27.6436 56.2435 27.6157 56.2524 27.594C56.3935 27.2298 56.6491 26.9196 56.7307 26.5255C56.7503 26.4318 56.8577 26.3731 56.9535 26.3371C57.0449 26.3028 57.1337 26.31 57.21 26.3786C57.2925 26.4516 57.2766 26.5454 57.2491 26.6355C57.2215 26.7266 57.139 26.7997 57.1523 26.934C57.2783 26.8384 57.3165 26.6779 57.4585 26.6437C57.5899 26.6121 57.7319 26.5571 57.8259 26.7203C57.9963 26.8051 57.8756 26.998 57.9688 27.1152C58.0105 27.1675 58.0016 27.2604 58.078 27.2848C58.0922 27.2712 58.1073 27.2586 58.1268 27.2487C58.2049 27.2253 58.2803 27.2171 58.3433 27.2757C58.3824 27.1648 58.4374 27.0593 58.4702 26.9457C58.5066 26.778 58.5084 26.6112 58.4658 26.4444C58.3708 26.1649 58.2155 25.9403 57.9591 25.7807C57.5517 25.5274 57.1292 25.5851 56.776 25.9764C56.7201 26.0386 56.6775 26.1144 56.587 26.1324C56.5772 26.1324 56.5683 26.1297 56.5604 26.127C56.5612 26.1279 56.5612 26.1288 56.5621 26.1297C56.6402 26.2731 56.5444 26.3632 56.4485 26.42C56.1654 26.5859 55.853 26.6464 55.5513 26.659C55.8042 26.9448 56.0811 27.2577 56.1148 27.7077C56.1148 27.7086 56.1139 27.7104 56.1139 27.7113C56.1991 27.7807 56.1858 27.9006 56.2187 27.9971C56.2178 28.1738 56.2808 28.3443 56.2781 28.5219C56.2772 28.6193 56.3252 28.6788 56.4201 28.6995C56.4947 28.7158 56.5612 28.7482 56.6047 28.8168C56.705 28.9069 56.8559 28.9286 56.926 29.0602C56.9837 29.0891 57.0121 29.1639 57.0884 29.1612C57.2002 29.0043 57.352 28.8943 57.5055 28.7852C57.5632 28.7446 57.62 28.6662 57.699 28.7365C57.7736 28.8023 57.7221 28.8763 57.6892 28.9421C57.6715 28.9782 57.6413 29.0088 57.6174 29.0422C57.4833 29.1711 57.368 29.3226 57.1825 29.3875C57.1133 29.4119 57.1062 29.4615 57.1257 29.548C57.1763 29.7744 57.1559 30.0007 57.0076 30.1936C56.9491 30.2703 56.8639 30.319 56.768 30.2901C56.6802 30.2631 56.6952 30.1648 56.689 30.0945C56.6731 29.9186 56.6917 29.7455 56.7618 29.5814C56.729 29.5057 56.6509 29.5507 56.6012 29.5201C56.4361 29.521 56.271 29.521 56.106 29.5219C56.0891 29.5219 56.0722 29.5228 56.0554 29.5228C55.916 29.5868 55.8885 29.7473 55.7882 29.8474C55.6977 29.9322 55.7962 29.9836 55.8459 30.025Z" fill="#373737"/>
	<path d="M56.4638 29.4311C56.6137 29.4259 56.7645 29.443 56.9127 29.4148C57.1005 29.423 57.082 29.3145 57.0838 29.2171C56.9603 29.2067 56.8615 29.1369 56.7469 29.1064C56.6552 29.0841 56.5608 29.0425 56.4805 29.1264C56.4267 29.2379 56.4215 29.3687 56.3174 29.4594C56.3632 29.4415 56.4118 29.4311 56.4638 29.4311Z" fill="#373737"/>
	<path d="M57.4179 28.4424C57.5263 28.4738 57.593 28.4432 57.6242 28.3465C57.716 28.0549 57.9899 27.9381 58.2334 27.7923C58.1788 27.6981 58.0133 27.7351 57.9708 27.6256C57.7715 27.5837 57.7966 27.4057 57.7542 27.28C57.7264 27.1987 57.7065 27.1125 57.6745 27.0311C57.4673 26.9941 57.3356 27.0843 57.2611 27.2526C57.2238 27.3364 57.1883 27.3944 57.0895 27.3219C57.015 27.2671 56.8746 27.2382 56.9725 27.102C56.9994 27.0642 57.0306 27.0263 57.0436 26.9836C57.0618 26.9248 57.145 26.8596 57.0635 26.8024C56.9846 26.7468 56.9084 26.7911 56.8477 26.8483C56.8139 26.8805 56.7602 26.92 56.7611 26.9538C56.7793 27.3348 56.4032 27.5507 56.3174 27.8866C56.3174 27.9768 56.3183 28.0678 56.3183 28.158C56.3477 28.3546 56.3694 28.5551 56.5479 28.6929C56.5505 28.6913 56.5522 28.6888 56.554 28.6872C56.7299 28.6333 56.9084 28.5849 57.0652 28.4859C57.1718 28.4206 57.2957 28.4077 57.4179 28.4424Z" fill="#373737"/>
	<path d="M56.0976 37.572C56.1443 37.5204 56.201 37.4521 56.29 37.4853C56.2891 37.4801 56.2891 37.4748 56.2882 37.4696C56.2828 37.3776 56.343 37.3128 56.3996 37.2585C56.646 37.0273 56.8995 36.8022 57.126 36.5517C57.1449 36.5306 57.1728 36.5254 57.2016 36.5254C57.2088 36.4141 57.2789 36.3581 57.385 36.3344C57.4083 36.1479 57.5171 36.0182 57.67 35.9175C57.6691 35.914 57.6682 35.9105 57.6673 35.907C57.6682 35.7625 57.7509 35.6425 57.794 35.5102C57.928 35.0924 57.8246 34.743 57.4686 34.4855C56.9903 34.1395 56.4383 33.931 55.8935 33.7129C55.8395 33.691 55.7802 33.6814 55.7209 33.6762C55.6319 33.6683 55.5474 33.6832 55.5087 33.7725C55.4718 33.8575 55.5339 33.9126 55.5905 33.9617C55.7649 34.1115 55.987 34.1754 56.192 34.2691C56.2926 34.3155 56.423 34.3304 56.4599 34.4566C56.868 34.4732 57.3103 34.8866 57.367 35.307C57.4434 35.8667 57.0101 36.7102 56.4967 37.0036C56.5102 37.0684 56.4778 37.0947 56.4212 37.1C56.423 37.1183 56.4221 37.1359 56.4113 37.1472C56.0967 37.4775 55.8189 37.8427 55.4485 38.1203C55.4521 38.1265 55.4557 38.1317 55.4584 38.1387C55.4718 38.1895 55.462 38.2395 55.4341 38.2806C55.2768 38.5127 55.2075 38.7711 55.168 39.0391C55.3424 38.4733 55.7002 38.0109 56.0976 37.572Z" fill="#373737"/>
	<path d="M54.566 35.0793C54.599 35.0318 54.6282 34.9815 54.6566 34.9302C54.8494 34.5758 54.8432 34.5559 54.5115 34.4704C54.3034 34.4305 54.0945 34.4476 53.8856 34.4609C53.8626 34.4656 53.8403 34.4637 53.818 34.4571C53.8103 34.4523 53.8027 34.4466 53.7957 34.4409C53.755 34.4998 53.689 34.4932 53.6368 34.5236C53.636 34.5245 53.636 34.5255 53.6353 34.5255C53.7328 34.5179 53.7742 34.6167 53.8234 34.6936C53.9363 34.8703 54.076 35.009 54.2235 35.1373C54.3533 35.2494 54.4662 35.2247 54.566 35.0793Z" fill="#373737"/>
	<path d="M52.3548 29.766C52.3784 29.6573 52.4269 29.5568 52.4853 29.4595C52.4283 29.5258 52.3631 29.5889 52.2756 29.6418C52.2117 29.7163 52.1562 29.793 52.1021 29.8706C52.1048 29.9877 52.1062 30.1068 52.1076 30.2259C52.1132 30.2155 52.1173 30.2052 52.1229 30.1958C52.2006 30.0519 52.2784 29.909 52.3548 29.766Z" fill="#373737"/>
	<path d="M53.1915 34.1548C52.8487 33.704 52.5201 33.2475 51.9558 32.949C51.9285 32.9348 51.9012 32.9215 51.8729 32.9082C51.8102 33.2774 51.7323 33.6317 51.6363 33.9685C51.5513 34.2679 51.4492 34.5523 51.3359 34.8242C51.7687 34.6845 52.2157 34.5756 52.6788 34.5007C52.7436 34.3535 52.9296 34.3951 53.0621 34.3751C53.2573 34.346 53.3048 34.3036 53.1915 34.1548Z" fill="#373737"/>
	<path d="M55.5394 40.4324C55.3861 40.196 55.2776 39.9359 55.2573 39.6315C55.2573 39.629 55.2573 39.6266 55.2573 39.6241C55.2573 39.62 55.2573 39.6151 55.2573 39.611C55.2581 39.5503 55.1887 39.5166 55.1353 39.5495C55.0963 39.5741 55.0489 39.5872 54.9904 39.5872C54.9726 39.5839 54.9557 39.5798 54.9387 39.5749C54.7651 39.6364 54.5973 39.6028 54.4338 39.5289C54.4228 39.533 54.4118 39.5363 54.3999 39.5388C54.1314 39.4699 53.9907 39.2893 53.9306 39.0391L53.579 39.1909C53.5815 39.1933 53.5824 39.195 53.5849 39.1974C53.501 39.2705 53.4053 39.3312 53.3053 39.387C53.2791 39.4017 53.2638 39.4296 53.2672 39.4592C53.2706 39.4937 53.2672 39.5281 53.263 39.5634C53.2223 39.8867 53.2867 40.0032 53.5824 40.155C53.7594 40.2461 53.9501 40.3052 54.1407 40.3544C54.4931 40.4447 54.7642 40.6416 55.0065 40.8976C55.0243 40.9165 55.0429 40.9362 55.0607 40.9551C55.2217 40.8164 55.3776 40.6736 55.5284 40.5251C55.5546 40.5005 55.558 40.4619 55.5394 40.4324Z" fill="#373737"/>
	<path d="M55.4686 33.4939C55.4766 33.5082 55.4748 33.5199 55.4623 33.5297C55.4606 33.6605 55.424 33.7823 55.3687 33.8996C55.3018 34.0734 55.2349 34.2471 55.168 34.4218C55.6693 34.5042 56.1394 34.6717 56.5479 34.9789C57.0465 35.355 57.0608 35.8064 56.5872 36.2148C56.4168 36.3617 56.2223 36.4808 56.035 36.6053C55.6951 36.831 55.4882 37.1409 55.4302 37.5466C55.3865 37.8538 55.3473 38.161 55.3053 38.4682C55.2857 38.5291 55.283 38.5927 55.2804 38.6563C55.2929 38.6268 55.3134 38.5999 55.3491 38.5784C55.4302 38.393 55.5123 38.2085 55.6559 38.0598C55.9217 37.6622 56.2625 37.3335 56.6095 37.0111C56.6443 36.9734 56.679 36.9349 56.7147 36.8973C56.7076 36.8104 56.8075 36.7863 56.8227 36.7137C56.8414 36.6698 56.8655 36.6304 56.9127 36.6116C57.1188 36.3707 57.2883 36.1074 57.3926 35.8064C57.5702 35.2959 57.431 34.9081 56.9707 34.6296C56.8681 34.5678 56.7602 34.514 56.6541 34.4576C56.6434 34.454 56.6327 34.4487 56.6211 34.4397C56.2857 34.3322 55.9663 34.1916 55.6889 33.9677C55.5792 33.879 55.5301 33.776 55.5747 33.6381C55.6104 33.5262 55.6728 33.4429 55.7701 33.4017L55.5141 33.2915C55.5159 33.3614 55.5051 33.4294 55.4686 33.4939Z" fill="#373737"/>
	<path d="M47.6377 38.8115C47.7344 38.7514 47.8357 38.7019 47.9378 38.6515C47.9866 38.6268 48.0282 38.5932 48.068 38.5561C48.1394 38.4854 48.2271 38.4376 48.3139 38.3899C48.4116 38.3333 48.5038 38.2688 48.5951 38.2025C48.7434 38.1 48.8917 37.9966 49.0363 37.8896C48.9631 37.9294 48.8889 37.9674 48.8121 38.0037C48.7533 38.0319 48.6936 38.0585 48.6331 38.0841C48.605 38.1106 48.5761 38.1362 48.5463 38.161C48.4297 38.1548 48.4188 38.3254 48.294 38.3051C48.2913 38.3174 48.2904 38.3307 48.2895 38.3431C48.2217 38.3926 48.153 38.4412 48.0852 38.4907C48.0346 38.5243 47.983 38.5587 47.9324 38.5923C47.7832 38.633 47.6485 38.6993 47.5274 38.7938C46.8484 39.0281 46.1712 39.2543 45.5392 39.6149C45.1007 39.8651 44.844 40.2531 44.5158 40.5881C44.3784 40.802 44.24 41.0167 44.1026 41.2306C44.089 41.2678 44.0728 41.304 44.0547 41.3385C44.0818 41.3066 44.1089 41.2739 44.137 41.2421C44.4878 40.7648 44.9823 40.4511 45.466 40.124C45.4985 40.1019 45.5374 40.0949 45.5763 40.0949C45.5881 40.041 45.6333 40.0091 45.6803 39.9791C46.107 39.7077 46.5374 39.4426 46.9786 39.1951C47.0753 39.1412 47.1793 39.0546 47.3068 39.1368C47.3077 39.1368 47.3077 39.1368 47.3086 39.1368C47.295 38.9114 47.5237 38.9158 47.6377 38.8115Z" fill="#373737"/>
	<path d="M42.7428 41.3024C42.8076 41.2561 42.9291 41.2347 42.9016 41.116C42.8797 41.0223 42.7727 41.0038 42.6925 40.9815C42.4009 40.8981 42.2526 41.0094 42.1805 41.3544C42.1294 41.6011 42.1708 41.8561 42.1392 42.1047C42.234 41.7467 42.4608 41.5028 42.7428 41.3024Z" fill="#373737"/>
	<path d="M41.7286 43.7321C41.7198 43.7215 41.7186 43.7078 41.7245 43.692C41.6773 43.3809 41.6861 43.0698 41.7239 42.7588C41.7251 42.6459 41.7268 42.5331 41.728 42.4213C41.754 42.3222 41.7392 42.2104 41.7475 42.105C41.7363 42.1567 41.7209 42.2052 41.6962 42.2452C41.6425 42.395 41.5941 42.5521 41.5345 42.6944C41.3875 43.0435 41.3332 43.4473 41.4023 43.8755C41.5185 43.9271 41.636 43.9756 41.7558 44.021C41.7357 43.9292 41.7227 43.8354 41.7286 43.7321Z" fill="#373737"/>
	<path d="M42.1921 42.7124C42.1837 42.7797 42.185 42.848 42.1734 42.9154C42.1333 43.154 42.1818 43.3998 42.1411 43.6375C42.1404 43.6393 42.1398 43.6402 42.1392 43.642C42.1437 43.6438 42.1482 43.6457 42.1534 43.6502C42.2089 43.7495 42.2121 43.8879 42.2554 43.9971C42.2838 44.0053 42.3122 44.0126 42.3406 44.0208C42.4007 43.8696 42.4807 43.7431 42.5918 43.6566C42.5905 43.6457 42.5885 43.6338 42.5853 43.6238C42.6144 43.4217 42.6615 43.225 42.7306 43.0474C42.8287 42.797 42.8694 42.5466 42.8268 42.2644C42.7784 41.9466 42.8223 41.6389 42.9056 41.3384C42.4245 41.5487 42.2676 42.0896 42.1921 42.7124Z" fill="#373737"/>
	<path d="M43.5379 41.7895C43.5453 41.7895 43.5511 41.7905 43.5586 41.7915C43.8265 41.3493 44.0471 40.8671 44.3416 40.4468C44.3291 40.339 44.4643 40.3081 44.4336 40.1913C44.4029 40.1933 44.3598 40.1803 44.3424 40.2003C43.8895 40.7064 43.3935 41.1776 43.2923 41.9832C43.2874 42.0231 43.2882 42.064 43.2899 42.105C43.3288 42.076 43.3612 42.0271 43.411 42.0291C43.3861 41.9033 43.445 41.8354 43.5379 41.7895Z" fill="#373737"/>
	<path d="M40.9593 18.1088C40.7061 18.0085 40.4859 17.9289 40.2231 17.9786C40.6064 18.192 40.4243 18.5257 40.387 18.8431C40.4477 18.8268 40.4833 18.8087 40.5188 18.8096C40.6211 18.8123 40.7607 18.7852 40.8153 18.8422C40.8708 18.901 40.8708 19.0529 40.8474 19.1514C40.7945 19.3685 40.7104 19.5774 40.6411 19.7899C40.6324 19.8152 40.6324 19.8441 40.6272 19.8794C41.0035 19.6533 41.4552 18.8675 41.3598 18.5275C41.3035 18.6695 41.2645 18.7671 41.222 18.8747C41.1335 18.7518 41.0728 18.6089 40.9671 18.5384C40.8552 18.4642 40.7009 18.4588 40.5639 18.4235C40.5864 18.3023 40.6003 18.2906 40.9593 18.1088Z" fill="#373737"/>
	<path d="M41.3306 19.4107C41.6214 19.1964 41.8059 18.9269 41.7441 18.5571C41.678 18.1615 41.4394 17.8755 41.0651 17.7278C40.8918 17.6596 40.7064 17.6172 40.5218 17.5801C40.3852 17.6362 40.2511 17.6941 40.1179 17.7537C40.1162 17.7675 40.1144 17.7796 40.1135 17.7952C40.5471 17.765 40.9397 17.8418 41.2897 18.1373C41.146 18.1693 41.0024 18.2012 40.8248 18.2401C40.9867 18.3239 41.1069 18.3852 41.2592 18.4638C41.328 18.4258 41.3959 18.3878 41.4647 18.3489C41.5012 18.4284 41.5657 18.507 41.5665 18.5865C41.5674 18.6954 41.5491 18.825 41.489 18.9105C41.2723 19.218 41.0372 19.5126 40.8013 19.8055C40.7665 19.8487 40.6864 19.8556 40.6272 19.8789C40.6089 19.8141 40.5628 19.7416 40.5776 19.6854C40.6315 19.4781 40.7108 19.2768 40.7708 19.0703C40.7935 18.9934 40.7882 18.9079 40.7952 18.8267C40.7177 18.831 40.635 18.8215 40.5628 18.844C40.3799 18.8993 40.3007 18.8396 40.3277 18.6461C40.339 18.5623 40.366 18.4803 40.3834 18.3965C40.4235 18.2047 40.3712 18.0932 40.1214 17.9706C40.0535 17.9369 39.9203 17.9965 39.835 18.044C39.7026 18.1183 39.5799 18.2125 39.4641 18.3109C39.4075 18.3585 39.3466 18.4319 39.3387 18.4993C39.3204 18.6591 39.243 18.7472 39.0906 18.7783C38.9766 18.8016 38.9496 18.8569 38.9313 18.983C38.8956 19.2379 38.7911 19.4824 38.7285 19.7346C38.7023 19.8383 38.6649 19.986 38.7154 20.05C38.7668 20.1148 38.9235 20.1303 39.0262 20.1156C39.256 20.0828 39.4832 20.0258 39.707 19.9627C39.8654 19.9178 39.9586 19.8029 39.9995 19.6379C40.0308 19.5126 40.0874 19.3925 40.1423 19.275C40.1571 19.2431 40.2041 19.2249 40.2363 19.2008C40.2546 19.2431 40.2877 19.2846 40.2885 19.3269C40.2929 19.5351 40.2772 19.7433 40.2903 19.9506C40.299 20.0975 40.3695 20.2297 40.534 20.2582C40.6994 20.2867 40.8588 20.1718 40.9084 19.9878C40.9728 19.7372 41.1304 19.5584 41.3306 19.4107Z" fill="#373737"/>
	<path d="M44.4379 18.9396C44.3628 18.8466 44.2917 18.7734 44.2289 18.6748C44.1687 18.5791 44.117 18.4565 44.062 18.3467C44.029 18.6734 44.1144 19.0987 44.1836 19.1072C44.2794 19.1185 44.3855 19.1339 44.4379 18.9396Z" fill="#373737"/>
	<path d="M40.8558 35.8526C40.5065 35.3908 40.1701 34.9212 39.819 34.4603C39.7199 34.3304 39.5898 34.2221 39.4706 34.1068C39.3844 34.0243 39.2772 34.0535 39.246 34.1361C39.1506 34.3898 38.96 34.5256 38.6904 34.6082C38.9205 34.7011 39.1552 34.7853 39.3798 34.8885C40.0564 35.1981 40.4708 35.727 40.755 36.3617C40.7962 36.4537 40.8393 36.5483 40.898 36.6309C41.0043 36.7805 41.1537 36.7753 41.2528 36.6214C41.3078 36.5363 41.3463 36.4485 41.3728 36.36C41.2784 36.2086 41.1886 36.0512 41.1051 35.8896C41.1042 35.9231 41.1024 35.9626 41.1033 36.0108C40.9896 35.9394 40.8998 35.9111 40.8558 35.8526Z" fill="#373737"/>
	<path d="M44.6858 18.7207C44.6342 18.7503 44.5694 18.7994 44.5554 18.853C44.4889 19.1204 44.2675 19.1814 44.0408 19.1657C43.9568 19.1602 43.8737 19.1435 43.7906 19.1324C43.7538 19.2009 43.7302 19.3017 43.675 19.3295C43.0659 19.6431 42.4542 19.9521 41.8355 20.2435C41.7025 20.3064 41.5388 20.2962 41.3726 20.3221C41.5117 20.5081 41.6281 20.7227 41.4732 21.0289C41.9326 20.7495 42.4201 20.6737 42.7938 20.3341C43.1176 20.0399 43.5306 19.9243 43.9201 19.7754C44.3016 19.6292 44.5729 19.3702 44.7838 19.0186C44.9029 18.8197 45.0866 18.6403 45.1348 18.4247C45.1951 18.1564 45.2792 17.8521 45.077 17.5801C45.0831 17.6828 45.0849 17.7864 45.0963 17.8891C45.1409 18.2822 45.0175 18.5292 44.6858 18.7207Z" fill="#373737"/>
	<path d="M38.197 31.4013C37.8581 31.3403 37.5265 31.3708 37.3047 31.675C37.2439 31.7589 37.2055 31.8572 37.1572 31.9487C37.2645 31.9826 37.37 32.0436 37.4791 32.0478C38.2631 32.0766 39.0472 32.097 39.8322 32.1156C39.9645 32.119 40.095 32.1258 40.2228 32.1419C40.2103 32.0309 40.1987 31.919 40.188 31.8063C39.8885 31.7623 39.5899 31.7123 39.2939 31.6555C38.9247 31.5843 38.5662 31.4674 38.197 31.4013Z" fill="#373737"/>
	<path d="M34.1709 28.1214C34.1402 28.1578 34.0986 28.1933 34.0868 28.2357C34.0587 28.3415 34.0687 28.4619 34.0217 28.5581C33.7466 29.1248 33.4552 29.6829 33.1802 30.2496C33.0834 30.4498 33.0155 30.6639 32.944 30.8744C32.9323 30.9091 32.9721 30.9602 32.9875 31.0036C33.0173 30.9914 33.0617 30.9871 33.0761 30.9646C33.3268 30.5876 33.5774 30.2107 33.8208 29.8294C34.0425 29.4819 34.2524 29.1266 34.4741 28.7791C34.5057 28.7288 34.5718 28.6985 34.6215 28.6595C34.6333 28.6725 34.6451 28.6855 34.6568 28.6985C34.1719 29.4715 33.6869 30.2453 33.1992 31.0226C33.2996 31.0608 33.4055 31.0868 33.4951 31.1379C33.7792 31.2999 34.0651 31.4611 34.3356 31.6431C34.5808 31.8086 34.836 31.9836 34.7826 32.3337C34.7799 32.3485 34.7934 32.3658 34.7989 32.3823C34.9726 32.9265 35.3544 33.274 35.9217 33.4152C36.6899 33.6076 37.4725 33.6925 38.2688 33.6527C38.4714 33.6423 38.675 33.6457 38.9202 33.6414C38.8306 33.8702 38.7592 34.0521 38.6795 34.2558C38.9392 34.2151 39.0957 34.1267 39.1727 33.9152C39.2369 33.7393 39.4179 33.696 39.5798 33.8008C39.6432 33.8416 39.7083 33.8875 39.7517 33.9456C39.9951 34.2705 40.2313 34.6007 40.4701 34.9282C40.6321 35.1501 40.7959 35.3702 40.9587 35.5903C40.9922 35.5487 40.9922 35.527 40.9859 35.5071C40.9135 35.2879 40.8402 35.0695 40.7669 34.8511C40.7135 34.7029 40.6638 34.5521 40.6167 34.397C40.5796 34.2835 40.5416 34.17 40.5045 34.0565C40.4412 33.8606 40.338 33.6665 40.3887 33.4568C40.3715 33.3693 40.3543 33.2809 40.3389 33.1916C40.1417 33.2263 39.9435 33.2575 39.7454 33.2878C38.9718 33.4057 38.2027 33.5859 37.411 33.5261C36.9505 33.4915 36.489 33.4464 36.0366 33.3624C35.8132 33.3208 35.5779 33.2176 35.4015 33.0799C35.0224 32.7826 34.8993 32.3537 34.8713 31.8996C34.8577 31.6838 34.9753 31.5365 35.197 31.5036C35.3653 31.4784 35.5381 31.4845 35.7082 31.4732C36.043 31.4516 36.3796 31.4394 36.7125 31.3987C36.9378 31.371 37.1559 31.2826 37.3812 31.2566C37.5558 31.2367 37.6146 31.1682 37.6236 31.0105C37.6589 30.4134 37.8544 29.8692 38.2045 29.3701C38.6886 28.6786 38.9229 27.9203 38.8542 27.0797C38.8026 26.442 38.3511 26.0009 37.6951 26.0104C37.259 26.0173 36.8202 26.0407 36.3886 26.0988C36.0855 26.1395 35.7923 26.2496 35.4576 26.338C35.6014 26.4758 35.7073 26.5719 35.805 26.6742C35.9199 26.7938 36.0321 26.8154 36.1733 26.7071C36.3877 26.5433 36.6338 26.526 36.8763 26.6326C37.3721 26.8484 37.7947 27.1647 38.153 27.5546C38.3403 27.7583 38.2588 27.9974 37.981 28.0373C37.7096 28.0763 37.4282 28.0754 37.1532 28.059C36.87 28.0416 36.5904 27.9758 36.3072 27.9506C36.2275 27.9437 36.0764 27.9983 36.071 28.0382C36.0593 28.124 36.1181 28.2201 36.1561 28.3085C36.1678 28.3363 36.2094 28.3519 36.233 28.377C36.3605 28.5096 36.5062 28.6309 36.6094 28.7791C36.8862 29.1768 36.9622 29.5945 36.6474 30.0113C36.5587 30.1292 36.451 30.2366 36.3379 30.3337C35.9597 30.6604 35.5544 30.9498 35.0703 31.1179C34.8676 31.1881 34.7763 31.1205 34.8106 30.9256C34.8948 30.4481 34.988 29.9723 35.0803 29.4966C35.0866 29.4645 35.1128 29.4359 35.13 29.4065C35.1517 29.4117 35.1726 29.4169 35.1943 29.4221C35.0947 29.9516 34.9961 30.481 34.8903 31.0478C34.9889 31.0218 35.045 31.0131 35.0956 30.9923C35.529 30.8138 35.9154 30.5607 36.2529 30.2505C36.4157 30.1006 36.5768 29.9247 36.6664 29.7306C36.8356 29.3632 36.6799 29.0313 36.4329 28.741C36.3072 28.5928 36.1534 28.4671 36.0194 28.3259C35.9253 28.2262 35.8774 28.0928 35.9661 27.9862C36.0285 27.9108 36.1588 27.8432 36.2547 27.8475C36.5433 27.8623 36.8292 27.9298 37.1188 27.9463C37.3993 27.9619 37.6852 27.955 37.9648 27.9264C38.1376 27.9082 38.1701 27.7782 38.0688 27.6361C38.0417 27.5988 38.0172 27.5572 37.982 27.5295C37.7331 27.3302 37.4943 27.117 37.2273 26.9411C36.8862 26.7167 36.5252 26.5355 36.1262 26.8596C36.0303 26.9368 35.91 26.909 35.8159 26.8276C35.72 26.7444 35.6295 26.656 35.5354 26.5711C35.3508 26.4038 35.2513 26.4142 35.1065 26.6222C35.0676 26.6785 35.0414 26.7435 35.0061 26.8024C34.8052 27.1335 34.6034 27.4645 34.4026 27.7955C34.379 27.7877 34.2316 28.0477 34.1709 28.1214Z" fill="#373737"/>
	<path d="M34.5674 29.8426C34.5363 29.8355 34.5062 29.8284 34.4751 29.8214C34.5142 29.5821 34.5533 29.3437 34.5965 29.0762C34.7008 29.1574 34.768 29.2095 34.8583 29.2801C34.774 29.4576 34.7319 29.6757 34.5674 29.8426Z" fill="#373737"/>
	<path d="M35.462 28.3614C35.4871 28.3311 35.5511 28.3257 35.5975 28.3096C35.6067 28.3486 35.6325 28.3924 35.6219 28.4268C35.5633 28.618 35.4978 28.8079 35.4308 28.9965C35.4201 29.0268 35.3851 29.0497 35.3615 29.076C35.3486 29.0699 35.3349 29.0639 35.3219 29.0571C35.3874 28.8638 35.4529 28.6699 35.5221 28.4651C35.3782 28.5231 35.4072 28.6968 35.2412 28.7035C35.2998 28.579 35.3744 28.4658 35.462 28.3614Z" fill="#373737"/>
	<path d="M35.0523 29.0755C34.9709 29.0172 34.8996 28.9382 34.8589 28.8551C34.8488 28.8384 34.9862 28.776 35.1236 28.6929C35.1796 28.8051 35.2508 28.8842 35.2406 28.9632C35.2406 29.0048 35.0676 29.0838 35.0523 29.0755Z" fill="#373737"/>
	<path d="M35.0329 27.9337C35.0723 27.9087 35.2028 27.9556 35.2225 28.0009C35.2999 28.1791 35.1285 28.5744 34.9494 28.6932C34.9237 28.526 34.8948 28.3494 34.8584 28.1134C34.8812 28.0869 34.9449 27.9884 35.0329 27.9337Z" fill="#373737"/>
	<path d="M33.4985 33.1508C34.4492 33.5697 35.4489 33.7709 36.4468 33.9876C36.8916 34.0843 37.3311 34.2159 37.7742 34.3233C37.976 34.3726 38.1805 34.4065 38.385 34.4394C38.4243 34.4461 38.4933 34.4316 38.5055 34.4036C38.5772 34.241 38.6357 34.0708 38.6899 33.9267C38.1342 33.9063 37.5793 33.9121 37.0288 33.8589C36.5211 33.8106 36.0047 33.7419 35.5459 33.473C35.0959 33.2089 34.7953 32.7929 34.749 32.2125C34.7341 32.0307 34.6686 31.901 34.5559 31.813C34.2308 31.5586 33.8961 31.3177 33.5571 31.0856C33.3115 30.9172 33.2058 30.9782 33.0983 31.2548C33.0328 31.4251 32.9777 31.5944 32.9419 31.7656C32.9559 32.0906 32.976 32.4099 33.0013 32.7233C33.1053 32.9313 33.2853 33.056 33.4985 33.1508Z" fill="#373737"/>
	<path d="M43.8783 19.1127C43.876 19.0326 43.879 18.9507 43.8684 18.8716C43.8601 18.8072 43.8221 18.7465 43.8206 18.6839C43.819 18.6121 43.8274 18.5026 43.8631 18.4778C43.9125 18.4447 44.0006 18.453 44.0553 18.4852C44.1183 18.522 44.167 18.6011 44.2133 18.6692C44.2809 18.7686 44.3493 18.7906 44.4382 18.7042C44.4298 18.6756 44.426 18.6517 44.4169 18.6315C44.1913 18.1447 43.9687 17.6552 43.7355 17.174C43.6777 17.0544 43.5888 16.9522 43.5038 16.8565C43.4521 16.7986 43.3784 16.7857 43.3556 16.9035C43.2493 17.4528 43.2477 17.9874 43.5121 18.4833C43.5645 18.5818 43.6071 18.6885 43.6701 18.8256C43.7545 19.0032 43.8152 19.0759 43.8783 19.1127Z" fill="#373737"/>
	<path d="M42.5226 17.7225C42.5356 18.2169 42.9051 18.6863 43.2884 18.7295C42.8878 18.1391 42.9111 17.4835 43.0233 16.8135C42.6461 16.8932 42.5114 17.3069 42.5226 17.7225Z" fill="#373737"/>
	<path d="M45.0866 17.1971C45.2708 16.9106 45.2346 16.627 45.0071 16.4307C44.6839 16.4513 44.3668 16.4776 44.0547 16.5105C44.4383 16.6711 44.7795 16.905 45.0866 17.1971Z" fill="#373737"/>
	<path d="M39.9788 22.1753C39.9071 22.0941 39.9135 22.0449 40.0211 21.9957C40.0753 21.9707 40.1074 21.9059 40.1497 21.8585C40.0854 21.836 40.0183 21.7894 39.9567 21.7955C39.6231 21.83 39.2886 21.8654 38.9596 21.9249C38.7023 21.9716 38.6362 22.1079 38.7326 22.3393C38.9265 22.8011 39.3272 23.0135 39.8143 23.1162C39.897 23.1334 39.9825 23.1378 40.0633 23.1585C40.3399 23.2293 40.3868 23.3069 40.3225 23.5659C40.3133 23.6013 40.3179 23.6401 40.3151 23.7109C40.5522 23.5072 40.5531 23.2603 40.3188 23.1369C40.1718 23.0592 39.9935 23.0229 39.8244 22.9962C39.3649 22.922 39.0295 22.7053 38.8356 22.3004C38.7648 22.152 38.8273 22.0631 38.9688 22.0363C39.2546 21.9828 39.545 21.9508 39.7895 21.9163C39.8207 22.0363 39.8189 22.152 39.8759 22.2297C40.0514 22.4705 40.248 22.6992 40.4401 22.9289C40.4677 22.9617 40.5201 22.9755 40.5605 22.9979C40.5761 22.9832 40.5917 22.9686 40.6064 22.953C40.4851 22.7994 40.3657 22.6449 40.2425 22.4921C40.158 22.385 40.0698 22.2789 39.9788 22.1753Z" fill="#373737"/>
	<path d="M37.5026 31.3755C37.4862 31.3879 37.4689 31.3972 37.4516 31.4019C37.1393 31.4773 36.8206 31.5503 36.4983 31.5814C36.1168 31.6179 35.7289 31.621 35.3438 31.6203C35.0515 31.6195 34.8539 31.7011 34.8585 31.8767C34.8703 32.3553 35.1025 32.9809 35.8901 33.1269C36.6822 33.2738 37.4798 33.3492 38.2884 33.2388C38.7928 33.1704 39.2981 33.1083 39.8026 33.0368C39.9428 33.0166 40.083 32.9948 40.2232 32.9723C40.1859 32.7711 40.1522 32.5667 40.124 32.3584C40.0985 32.3561 40.0721 32.3538 40.0457 32.353C39.2654 32.3258 38.4832 32.3173 37.7029 32.2986C37.5236 32.2947 37.3442 32.2877 37.1666 32.273C36.9135 32.252 36.8097 32.1261 36.9162 31.9458C37.0419 31.7345 37.2222 31.5612 37.5117 31.4998C37.5472 31.492 37.5836 31.4866 37.6192 31.4819C37.5236 31.4858 37.4999 31.433 37.5026 31.3755Z" fill="#373737"/>
	<path d="M39.9788 22.1753C39.9071 22.0941 39.9135 22.0449 40.0211 21.9957C40.0753 21.9707 40.1074 21.9059 40.1497 21.8585C40.0854 21.836 40.0183 21.7894 39.9567 21.7955C39.6231 21.83 39.2886 21.8654 38.9596 21.9249C38.7023 21.9716 38.6362 22.1079 38.7326 22.3393C38.9265 22.8011 39.3272 23.0135 39.8143 23.1162C39.897 23.1334 39.9825 23.1378 40.0633 23.1585C40.3399 23.2293 40.3868 23.3069 40.3225 23.5659C40.3133 23.6013 40.3179 23.6401 40.3151 23.7109C40.5522 23.5072 40.5531 23.2603 40.3188 23.1369C40.1718 23.0592 39.9935 23.0229 39.8244 22.9962C39.3649 22.922 39.0295 22.7053 38.8356 22.3004C38.7648 22.152 38.8273 22.0631 38.9688 22.0363C39.2546 21.9828 39.545 21.9508 39.7895 21.9163C39.8207 22.0363 39.8189 22.152 39.8759 22.2297C40.0514 22.4705 40.248 22.6992 40.4401 22.9289C40.4677 22.9617 40.5201 22.9755 40.5605 22.9979C40.5761 22.9832 40.5917 22.9686 40.6064 22.953C40.4851 22.7994 40.3657 22.6449 40.2425 22.4921C40.158 22.385 40.0698 22.2789 39.9788 22.1753Z" fill="#373737"/>
	<path d="M41.0645 23.2525C41.2612 23.5208 41.4687 23.7865 41.6165 24.0822C41.7776 23.8666 41.9512 23.6678 42.139 23.4847C42.1017 23.4478 42.0634 23.4117 42.0278 23.373C41.7999 23.1284 41.5808 22.8574 41.5648 22.5019C41.5381 21.9106 41.2639 21.4549 40.8232 21.0765C40.744 21.0088 40.7022 21.0158 40.6211 21.0809C40.5259 21.1575 40.4039 21.2419 40.29 21.2481C39.9009 21.2692 39.5092 21.2789 39.1219 21.2525C38.3385 21.1997 37.4696 21.6863 37.1669 22.4131C37.061 22.6673 37.0004 22.941 36.9346 23.2102C36.785 23.8182 36.4796 24.3576 36.1903 24.9049C36.1209 25.036 36.0684 25.175 36.0078 25.3105C36.0238 25.3193 36.0407 25.329 36.0568 25.3378C36.29 24.9788 36.5375 24.6268 36.753 24.2573C36.9266 23.9581 37.0761 23.644 37.2079 23.3237C37.3566 22.9612 37.4634 22.5811 37.6094 22.2168C37.6637 22.0805 37.7305 21.9238 37.9388 21.8535C37.9272 21.9476 37.9192 22.0065 37.9121 22.0664C37.9014 22.1517 37.8685 22.2415 37.8836 22.3215C37.9806 22.8248 38.318 23.1249 38.7703 23.3264C38.8647 23.3686 38.9474 23.4363 39.0365 23.4927C38.9474 23.5437 38.8638 23.6114 38.7685 23.6414C38.0892 23.8569 37.5302 24.2458 37.0859 24.7922C36.9951 24.904 36.8901 25.0377 36.939 25.2234C36.9693 25.2084 36.9933 25.2031 37.0067 25.1882C37.0904 25.0931 37.1687 24.9946 37.2533 24.9005C37.4776 24.6506 37.7429 24.6462 37.9477 24.911C38.1222 25.1371 38.2682 25.3861 38.4275 25.6272C38.4614 25.5656 38.5077 25.475 38.5593 25.3879C38.9074 24.801 39.3872 24.3294 39.9054 23.8912C39.9552 23.849 40.03 23.8358 40.0923 23.8094C40.0959 23.8156 40.0986 23.8217 40.1021 23.827C40.2971 23.6563 40.5036 23.5754 40.6042 23.5428C40.5953 23.5305 40.5855 23.5191 40.5766 23.5067C40.5481 23.4689 40.5651 23.3968 40.5615 23.3404C40.5766 23.336 40.5909 23.3325 40.606 23.3281C40.6398 23.3774 40.6719 23.4284 40.7075 23.4768C40.9301 23.7795 41.1544 24.0813 41.3779 24.384C41.3734 24.3268 41.3859 24.2608 41.361 24.215C41.1749 23.8657 40.9781 23.5217 40.7912 23.1724C40.7618 23.1178 40.7654 23.0466 40.7529 22.9832C40.7743 22.9735 40.7956 22.9647 40.8179 22.9551C40.898 23.0554 40.9879 23.1495 41.0645 23.2525Z" fill="#373737"/>
	<path d="M40.5587 22.9979C40.5183 22.9755 40.465 22.9608 40.4384 22.9289C40.2456 22.6992 40.0501 22.4714 39.8747 22.2297C39.8178 22.152 39.8196 22.0363 39.7884 21.9163C39.5442 21.9508 39.2541 21.9828 38.9686 22.0363C38.8272 22.0631 38.7647 22.152 38.8354 22.3004C39.0291 22.7061 39.3643 22.922 39.8233 22.9962C39.9922 23.0238 40.1713 23.0592 40.3172 23.1369C40.5504 23.2612 40.5504 23.5081 40.3136 23.7109C40.3163 23.6401 40.3126 23.6022 40.3209 23.5659C40.3852 23.3069 40.3383 23.2293 40.062 23.1585C39.9812 23.1378 39.8949 23.1343 39.8132 23.1162C39.3266 23.0135 38.9263 22.8011 38.7326 22.3393C38.6362 22.1079 38.7023 21.9716 38.9594 21.9249C39.288 21.8654 39.6222 21.83 39.9555 21.7955C40.0161 21.7894 40.084 21.836 40.1483 21.8585C40.1061 21.9051 40.073 21.9707 40.0198 21.9957C39.9124 22.0449 39.905 22.0941 39.9775 22.1753C40.0694 22.2789 40.1566 22.385 40.2429 22.4921C40.3659 22.6449 40.4852 22.7994 40.6064 22.953C40.5899 22.9677 40.5743 22.9824 40.5587 22.9979Z" fill="#373737"/>
	<path d="M40.2396 23.6871C40.2343 23.6952 40.2291 23.7033 40.2231 23.7113L40.6063 23.3443C40.6037 23.3382 40.6011 23.3332 40.5978 23.3281C40.5229 23.3654 40.371 23.4582 40.2271 23.6538C40.2317 23.6649 40.2356 23.676 40.2396 23.6871Z" fill="#373737"/>
	<path d="M-61.4325 32.6935C-61.4325 33.9471 -61.606 35.0828 -61.9513 36.1007C-62.2974 37.1185 -62.7747 38.0176 -63.3842 38.7989C-63.9936 39.5801 -64.7211 40.2531 -65.5674 40.8161C-66.4129 41.38 -67.3455 41.8428 -68.3645 42.2061C-69.3835 42.5694 -70.4702 42.8377 -71.6248 43.0102C-72.7803 43.1835 -74.067 43.2688 -75.4858 43.2688H-84.8714C-85.472 43.2688 -85.9766 43.092 -86.3862 42.7374C-86.7957 42.3829 -87 41.8067 -87 41.007V10.2618C-87 9.46213 -86.7957 8.88502 -86.3862 8.53136C-85.9766 8.17683 -85.472 8 -84.8714 8H-76.0036C-73.8389 8 -72.0062 8.1821 -70.5055 8.54544C-69.0048 8.90877 -67.741 9.45861 -66.7123 10.1941C-65.6845 10.9304 -64.8981 11.8612 -64.352 12.9881C-63.806 14.1151 -63.5339 15.4408 -63.5339 16.9672C-63.5339 17.8214 -63.6431 18.6255 -63.8615 19.3794C-64.0799 20.1334 -64.3978 20.8196 -64.8162 21.4372C-65.2345 22.0547 -65.7488 22.6002 -66.3583 23.0726C-66.9677 23.545 -67.6635 23.9268 -68.4455 24.2171C-67.445 24.3993 -66.5221 24.7168 -65.6757 25.1708C-64.8303 25.6256 -64.0931 26.2115 -63.4652 26.9285C-62.8372 27.6464 -62.3423 28.4865 -61.9777 29.4498C-61.6148 30.4132 -61.4325 31.4944 -61.4325 32.6935ZM-70.7107 17.839C-70.7107 17.13 -70.8199 16.4948 -71.0383 15.9309C-71.2567 15.3678 -71.5843 14.8998 -72.0203 14.5268C-72.4571 14.1547 -73.0075 13.8688 -73.6707 13.6682C-74.3347 13.4685 -75.2216 13.3682 -76.3313 13.3682H-79.9606V22.5263H-75.9499C-74.9133 22.5263 -74.0855 22.404 -73.4672 22.1586C-72.849 21.9131 -72.3347 21.577 -71.926 21.1504C-71.5165 20.7237 -71.2127 20.224 -71.0119 19.6513C-70.8102 19.0786 -70.7107 18.4751 -70.7107 17.839ZM-68.8823 32.9389C-68.8823 32.1216 -69.0188 31.3897 -69.2919 30.7448C-69.5649 30.1 -69.9647 29.5589 -70.4923 29.1235C-71.0198 28.6871 -71.6926 28.351 -72.5117 28.1153C-73.3298 27.8795 -74.3946 27.7607 -75.7042 27.7607H-79.9606V37.7915H-74.776C-73.7755 37.7915 -72.9344 37.6869 -72.2519 37.4784C-71.5693 37.2699 -70.9784 36.9602 -70.4782 36.552C-69.9779 36.1429 -69.5869 35.6344 -69.3051 35.0256C-69.0233 34.4151 -68.8823 33.7201 -68.8823 32.9389Z" fill="#F95437"/>
	<path d="M58.9999 25.8236C58.8933 25.2869 58.7656 24.7714 58.615 24.2778C58.0998 22.5879 57.3142 21.1644 56.2565 20.0067C55.1988 18.8498 53.861 17.9727 52.2432 17.3754C50.6245 16.7789 48.7125 16.4798 46.5063 16.4798C46.0801 16.4798 45.6644 16.4921 45.2584 16.5159C45.379 16.6505 45.4204 16.8282 45.3878 17.0244C45.3676 17.1423 45.298 17.2522 45.2513 17.3657C45.1501 17.3059 45.0488 17.247 44.9475 17.1871C44.9431 17.1845 44.9405 17.1783 44.9361 17.1739C44.6701 16.9215 44.3671 16.7411 44.0272 16.6303C43.8563 16.6523 43.689 16.6769 43.5225 16.7033C43.5225 16.7068 43.5217 16.7094 43.5217 16.7138C43.7577 16.7957 43.8977 16.9707 44.014 17.1757C44.2782 17.6411 44.5503 18.1021 44.8216 18.5683C45.1774 18.483 45.291 18.154 45.2505 17.89C45.2355 17.7942 45.2258 17.6956 45.224 17.5989C45.2214 17.4722 45.239 17.3543 45.4125 17.3956C45.4125 17.3217 45.3993 17.2558 45.416 17.1986C45.4328 17.144 45.4803 17.0983 45.5138 17.049C45.5561 17.0868 45.6177 17.1168 45.6371 17.1634C45.6882 17.2901 45.7199 17.4238 45.7604 17.554C45.8185 17.744 45.8185 17.9226 45.7005 18.0994C45.4971 18.4056 45.2971 18.7144 45.114 19.0328C44.8744 19.4472 44.4992 19.6698 44.0651 19.8158C43.6608 19.9522 43.2812 20.129 42.9386 20.3876C42.8039 20.4897 42.648 20.5803 42.4877 20.6304C42.1601 20.7343 41.8589 20.8768 41.5947 21.0958C41.5718 21.1143 41.5278 21.1064 41.4582 21.1152C41.5093 21.0131 41.5383 20.9384 41.5806 20.8724C41.7057 20.6762 41.7154 20.487 41.5674 20.2979C41.5286 20.2486 41.4864 20.1976 41.4661 20.1404C41.4494 20.0929 41.4476 20.0278 41.4688 19.9856C41.4784 19.9662 41.5595 19.9777 41.6079 19.983C41.7303 19.9953 41.8554 20.0375 41.9725 20.019C42.1046 19.9979 42.2314 19.9319 42.3547 19.8721C42.7995 19.6592 43.2416 19.441 43.6855 19.2246C43.7374 19.1991 43.7894 19.1718 43.8414 19.1454C43.7868 19.1147 43.7427 19.1164 43.7004 19.1243C43.4803 19.1639 43.2583 19.1956 43.0408 19.2466C42.4402 19.3865 41.8492 19.5607 41.3287 19.9029C41.1588 20.0146 40.9518 20.1193 40.9271 20.3674C40.9016 20.6304 40.9095 20.8425 41.1649 21.0466C41.5639 21.365 41.7691 21.8269 41.8307 22.3442C41.8501 22.5061 41.8695 22.6873 41.954 22.8175C42.0747 23.004 42.2156 23.1791 42.3627 23.348C42.7149 23.0172 43.1121 22.7436 43.5551 22.528C44.3275 22.1515 45.2284 21.9633 46.258 21.9633C47.4161 21.9633 48.3769 22.1744 49.1405 22.5967C49.9032 23.0198 50.5153 23.6075 50.975 24.3597C51.292 24.8787 51.5439 25.4629 51.7341 26.1086C51.8618 26.0065 51.9957 25.9115 52.1419 25.828C52.1895 25.8007 52.2309 25.7488 52.2969 25.7804C52.3453 25.7664 52.3683 25.6969 52.4325 25.7206C52.5902 25.6485 52.7478 25.6608 52.9046 25.7206C53.3194 25.7813 53.7131 25.9054 54.1032 26.0602C54.7593 26.3215 55.2525 26.7983 55.7624 27.2567C55.8294 27.3165 55.8831 27.3939 55.8822 27.4933C55.9588 27.6868 55.9456 27.8813 55.8813 28.0748C55.8074 28.3238 55.7272 28.5692 55.5299 28.754C55.5158 28.8393 55.4489 28.8745 55.382 28.9106C54.9302 29.3196 54.4088 29.3979 53.8408 29.2238C53.6303 29.1595 53.4233 29.0795 53.2419 28.9484C53.086 28.9563 52.9839 29.0504 52.9064 29.1718C52.6113 29.6302 52.3612 30.1105 52.2414 30.6463C52.2379 30.875 52.2326 31.1002 52.222 31.3202C52.3339 31.9501 53.3802 32.7621 53.3802 32.7621C53.3802 32.7621 53.7967 32.8474 54.0037 32.682C53.7765 32.4876 53.6003 32.2659 53.6215 31.9492C53.6523 31.4741 53.8866 31.0914 54.1781 30.7351C54.2494 30.5988 54.3463 30.4835 54.4634 30.3841C54.5374 30.2874 54.6167 30.1959 54.7303 30.1431C54.9258 29.9346 55.1706 29.7956 55.4304 29.6935C55.625 29.617 55.7827 29.5369 55.8161 29.3082C55.8258 29.2457 55.8664 29.1868 55.928 29.1516C55.9359 29.0346 56.0575 28.9774 56.1165 28.9704C56.3393 28.9414 56.3305 28.8015 56.334 28.6387C56.3384 28.4091 56.2935 28.1865 56.2715 27.9604C56.1693 27.5206 55.928 27.1652 55.6057 26.8572C55.5625 26.8159 55.4789 26.7807 55.5132 26.7007C55.5387 26.6408 55.6136 26.6558 55.6691 26.6479C55.9227 26.6109 56.1755 26.5757 56.4221 26.5054C56.5806 26.4605 56.7083 26.3822 56.7726 26.223C57.1557 25.5183 57.9607 25.3828 58.5965 26.0109C58.7137 26.1262 58.8246 26.2546 58.8123 26.4394C58.8079 26.5098 58.8519 26.5185 58.9065 26.5168C58.9162 26.4631 58.925 26.4095 58.9347 26.3558C58.9373 26.318 58.9426 26.281 58.9541 26.2441C58.9435 26.0963 58.9497 25.9529 58.9999 25.8236Z" fill="#F95437"/>
	<path d="M-34.9007 42.4251C-36.2121 42.2615 -37.5243 42.0988 -38.8357 41.9325C-39.837 41.8058 -40.5222 41.2287 -40.723 40.3481C-40.9185 39.4921 -40.4799 38.2939 -39.756 37.8558C-39.4988 37.7001 -39.1659 37.6279 -38.8612 37.6068C-38.6428 37.591 -38.5072 37.5391 -38.4358 37.3526C-38.3486 37.1256 -38.2685 36.8925 -38.2156 36.6558C-38.073 36.0233 -37.6212 35.6406 -36.9774 35.7154C-35.0443 35.9397 -33.1138 36.1816 -31.1851 36.4411C-30.5545 36.5265 -30.2101 36.9875 -30.2128 37.6244C-30.2137 37.7713 -30.2339 37.9182 -30.2251 38.0643C-30.2031 38.4188 -30.1467 38.6801 -29.68 38.776C-29.0124 38.9132 -28.7218 39.4824 -28.5632 40.1044C-28.2189 41.4583 -28.8644 42.6504 -30.0921 42.8976C-30.3616 42.9521 -30.6531 42.9477 -30.9288 42.916C-32.2533 42.7621 -33.5762 42.5905 -34.9007 42.4251Z" fill="#F95437"/>
	<path d="M-36.8418 34.9218C-36.1663 32.126 -35.4996 29.3689 -34.8276 26.5872C-33.5621 26.7455 -32.2956 26.9039 -31.0124 27.064C-31.0503 29.9187 -31.0882 32.7656 -31.1261 35.6362C-33.024 35.3987 -34.899 35.1646 -36.8418 34.9218Z" fill="#F95437"/>
	<path d="M-33.7144 16.6303C-33.2723 16.442 -32.8839 16.2766 -32.4691 16.0998C-32.7272 15.7241 -32.8355 15.2843 -32.6373 14.8497C-32.5272 14.6086 -32.3247 14.3781 -32.1054 14.2259C-31.6236 13.8934 -30.9244 14.0245 -30.5422 14.4661C-30.0719 15.0098 -30.1274 15.6133 -30.7341 16.3531C-30.0868 16.6848 -29.591 17.1678 -29.2458 17.8074C-28.3527 19.4639 -28.9243 21.7108 -30.5078 22.6917C-30.6602 22.7858 -30.8751 22.8421 -31.0512 22.8236C-31.9513 22.7304 -32.8496 22.616 -33.7452 22.4876C-33.9117 22.4638 -34.101 22.3767 -34.2182 22.258C-35.3948 21.0703 -35.5612 19.0504 -34.596 17.6411C-34.1345 18.1531 -33.6757 18.6581 -33.2221 19.1683C-33.0072 19.4094 -32.7509 19.5246 -32.4374 19.4182C-31.9839 19.2651 -31.8544 18.7302 -32.1882 18.3414C-32.6646 17.7862 -33.1613 17.2478 -33.7144 16.6303Z" fill="#F95437"/>
	<path d="M-36.5943 24.8162C-34.0086 25.1391 -31.4484 25.4593 -28.8891 25.7796C-28.9234 26.3356 -29.3805 26.713 -29.9732 26.6479C-30.8002 26.5581 -31.6254 26.4455 -32.4515 26.3417C-33.5321 26.2062 -34.6145 26.0769 -35.6942 25.9335C-36.3054 25.8535 -36.6137 25.4734 -36.5943 24.8162Z" fill="#F95437"/>
	<path d="M-29.5135 25.0379C-31.606 24.7767 -33.6766 24.5171 -35.7479 24.2585C-35.836 23.7878 -35.4036 23.3163 -34.8893 23.3568C-34.4146 23.3937 -33.9434 23.4676 -33.4705 23.5265C-32.4163 23.6576 -31.3612 23.787 -30.3079 23.9233C-29.7134 24.0007 -29.4334 24.3852 -29.5135 25.0379Z" fill="#F95437"/>
	<path d="M29.1538 21.5779C29.3538 21.16 29.4542 20.5151 29.4542 19.6424C29.4542 18.6976 29.359 18.0255 29.1679 17.6252C28.9768 17.2258 28.7267 17.0252 28.4176 17.0252H22.3135L20.1523 23.1596C20.4772 23.7746 20.641 24.5188 20.641 25.3933C20.641 25.9387 20.5547 26.4613 20.3821 26.9601C20.2086 27.4598 19.9541 27.9006 19.6177 28.2824C19.2812 28.6642 18.8576 28.9642 18.3486 29.1815C18.2315 29.2316 18.1099 29.2747 17.9831 29.3134L16.2358 34.2717C16.3485 34.276 16.4613 34.2787 16.5749 34.2787C18.1029 34.2787 19.49 34.0834 20.7362 33.6928C21.9823 33.3022 23.0462 32.7295 23.9287 31.9755C24.8111 31.2216 25.4884 30.2952 25.9613 29.1955C26.4342 28.0967 26.6712 26.8378 26.6712 25.4206C26.6712 24.8206 26.5848 24.2444 26.4122 23.6901C26.2387 23.1359 25.9525 22.6406 25.5527 22.2042H28.4176C28.7082 22.2051 28.9539 21.9966 29.1538 21.5779Z" fill="#F95437"/>
	<path d="M13.6582 42.1515L18.5425 42.2879C19.6883 42.3249 20.5892 42.5606 21.2436 42.997C21.8988 43.4333 22.2256 44.0597 22.2256 44.8779C22.2256 45.3503 22.134 45.7998 21.9525 46.2274C21.7702 46.6541 21.4611 47.0403 21.0252 47.386C20.5884 47.7309 20.0159 48.008 19.3061 48.2174C18.5962 48.4259 17.7235 48.5305 16.6869 48.5305C15.0127 48.5305 13.7172 48.2939 12.7986 47.8215C12.3424 47.5866 11.9599 47.5427 11.731 47.1996L10.1044 52.4045C10.4919 52.5233 10.6471 52.6301 11.0804 52.7269C12.5441 53.0542 14.3134 53.2178 16.3874 53.2178C18.5161 53.2178 20.3752 52.9908 21.9675 52.536C23.5589 52.0821 24.8826 51.4636 25.9377 50.6824C26.9928 49.9012 27.7836 48.9792 28.3112 47.9156C28.8387 46.8529 29.102 45.7215 29.102 44.5224C29.102 43.4324 28.9065 42.4603 28.5155 41.6061C28.1245 40.7519 27.5608 40.0208 26.8237 39.412C26.0865 38.8033 25.1768 38.3308 24.0953 37.9948C23.0129 37.6587 21.7799 37.4634 20.3981 37.4089L15.3094 37.4404L14.4961 41.6694C14.5815 41.6034 13.5657 42.2193 13.6582 42.1515Z" fill="#F95437"/>
	</g>
	<mask id="mask2_207_509" style="mask-type:alpha" maskUnits="userSpaceOnUse" x="5" y="9" width="26" height="45">
	<rect x="5" y="9" width="26" height="45" fill="#C4C4C4"/>
	</mask>
	<g mask="url(#mask2_207_509)">
	<path d="M30.5675 33.6935C30.5675 34.9471 30.394 36.0828 30.0487 37.1007C29.7026 38.1185 29.2253 39.0176 28.6158 39.7989C28.0064 40.5801 27.2789 41.2531 26.4326 41.8161C25.5871 42.38 24.6545 42.8428 23.6355 43.2061C22.6165 43.5694 21.5298 43.8377 20.3752 44.0102C19.2197 44.1835 17.933 44.2688 16.5142 44.2688H7.12864C6.52801 44.2688 6.02337 44.092 5.61384 43.7374C5.20432 43.3829 5 42.8067 5 42.007V11.2618C5 10.4621 5.20432 9.88502 5.61384 9.53136C6.02337 9.17683 6.52801 9 7.12864 9H15.9964C18.1611 9 19.9938 9.1821 21.4945 9.54544C22.9952 9.90877 24.259 10.4586 25.2877 11.1941C26.3155 11.9304 27.1019 12.8612 27.648 13.9881C28.194 15.1151 28.4661 16.4408 28.4661 17.9672C28.4661 18.8214 28.3569 19.6255 28.1385 20.3794C27.9201 21.1334 27.6022 21.8196 27.1838 22.4372C26.7655 23.0547 26.2512 23.6002 25.6417 24.0726C25.0323 24.545 24.3365 24.9268 23.5545 25.2171C24.555 25.3993 25.4779 25.7168 26.3243 26.1708C27.1697 26.6256 27.9069 27.2115 28.5348 27.9285C29.1628 28.6464 29.6577 29.4865 30.0223 30.4498C30.3852 31.4132 30.5675 32.4944 30.5675 33.6935ZM21.2893 18.839C21.2893 18.13 21.1801 17.4948 20.9617 16.9309C20.7433 16.3678 20.4157 15.8998 19.9797 15.5268C19.5429 15.1547 18.9925 14.8688 18.3293 14.6682C17.6653 14.4685 16.7784 14.3682 15.6687 14.3682H12.0394V23.5263H16.0501C17.0867 23.5263 17.9145 23.404 18.5328 23.1586C19.151 22.9131 19.6653 22.577 20.074 22.1504C20.4835 21.7237 20.7873 21.224 20.9881 20.6513C21.1898 20.0786 21.2893 19.4751 21.2893 18.839ZM23.1177 33.9389C23.1177 33.1216 22.9812 32.3897 22.7081 31.7448C22.4351 31.1 22.0353 30.5589 21.5077 30.1235C20.9802 29.6871 20.3074 29.351 19.4883 29.1153C18.6702 28.8795 17.6054 28.7607 16.2958 28.7607H12.0394V38.7915H17.224C18.2245 38.7915 19.0656 38.6869 19.7481 38.4784C20.4307 38.2699 21.0216 37.9602 21.5218 37.552C22.0221 37.1429 22.4131 36.6344 22.6949 36.0256C22.9767 35.4151 23.1177 34.7201 23.1177 33.9389Z" fill="#F95437"/>
	<path d="M151 26.8236C150.893 26.2869 150.766 25.7714 150.615 25.2778C150.1 23.5879 149.314 22.1644 148.257 21.0067C147.199 19.8498 145.861 18.9727 144.243 18.3754C142.624 17.7789 140.712 17.4798 138.506 17.4798C138.08 17.4798 137.664 17.4921 137.258 17.5159C137.379 17.6505 137.42 17.8282 137.388 18.0244C137.368 18.1423 137.298 18.2522 137.251 18.3657C137.15 18.3059 137.049 18.247 136.948 18.1871C136.943 18.1845 136.94 18.1783 136.936 18.1739C136.67 17.9215 136.367 17.7411 136.027 17.6303C135.856 17.6523 135.689 17.6769 135.523 17.7033C135.523 17.7068 135.522 17.7094 135.522 17.7138C135.758 17.7957 135.898 17.9707 136.014 18.1757C136.278 18.6411 136.55 19.1021 136.822 19.5683C137.177 19.483 137.291 19.154 137.25 18.89C137.235 18.7942 137.226 18.6956 137.224 18.5989C137.221 18.4722 137.239 18.3543 137.413 18.3956C137.413 18.3217 137.399 18.2558 137.416 18.1986C137.433 18.144 137.48 18.0983 137.514 18.049C137.556 18.0868 137.618 18.1168 137.637 18.1634C137.688 18.2901 137.72 18.4238 137.76 18.554C137.819 18.744 137.819 18.9226 137.701 19.0994C137.497 19.4056 137.297 19.7144 137.114 20.0328C136.874 20.4472 136.499 20.6698 136.065 20.8158C135.661 20.9522 135.281 21.129 134.939 21.3876C134.804 21.4897 134.648 21.5803 134.488 21.6304C134.16 21.7343 133.859 21.8768 133.595 22.0958C133.572 22.1143 133.528 22.1064 133.458 22.1152C133.509 22.0131 133.538 21.9384 133.581 21.8724C133.706 21.6762 133.715 21.487 133.567 21.2979C133.529 21.2486 133.486 21.1976 133.466 21.1404C133.449 21.0929 133.448 21.0278 133.469 20.9856C133.478 20.9662 133.559 20.9777 133.608 20.983C133.73 20.9953 133.855 21.0375 133.973 21.019C134.105 20.9979 134.231 20.9319 134.355 20.8721C134.799 20.6592 135.242 20.441 135.685 20.2246C135.737 20.1991 135.789 20.1718 135.841 20.1454C135.787 20.1147 135.743 20.1164 135.7 20.1243C135.48 20.1639 135.258 20.1956 135.041 20.2466C134.44 20.3865 133.849 20.5607 133.329 20.9029C133.159 21.0146 132.952 21.1193 132.927 21.3674C132.902 21.6304 132.91 21.8425 133.165 22.0466C133.564 22.365 133.769 22.8269 133.831 23.3442C133.85 23.5061 133.869 23.6873 133.954 23.8175C134.075 24.004 134.216 24.1791 134.363 24.348C134.715 24.0172 135.112 23.7436 135.555 23.528C136.327 23.1515 137.228 22.9633 138.258 22.9633C139.416 22.9633 140.377 23.1744 141.141 23.5967C141.903 24.0198 142.515 24.6075 142.975 25.3597C143.292 25.8787 143.544 26.4629 143.734 27.1086C143.862 27.0065 143.996 26.9115 144.142 26.828C144.189 26.8007 144.231 26.7488 144.297 26.7804C144.345 26.7664 144.368 26.6969 144.433 26.7206C144.59 26.6485 144.748 26.6608 144.905 26.7206C145.319 26.7813 145.713 26.9054 146.103 27.0602C146.759 27.3215 147.253 27.7983 147.762 28.2567C147.829 28.3165 147.883 28.3939 147.882 28.4933C147.959 28.6868 147.946 28.8813 147.881 29.0748C147.807 29.3238 147.727 29.5692 147.53 29.754C147.516 29.8393 147.449 29.8745 147.382 29.9106C146.93 30.3196 146.409 30.3979 145.841 30.2238C145.63 30.1595 145.423 30.0795 145.242 29.9484C145.086 29.9563 144.984 30.0504 144.906 30.1718C144.611 30.6302 144.361 31.1105 144.241 31.6463C144.238 31.875 144.233 32.1002 144.222 32.3202C144.334 32.9501 145.38 33.7621 145.38 33.7621C145.38 33.7621 145.797 33.8474 146.004 33.682C145.776 33.4876 145.6 33.2659 145.621 32.9492C145.652 32.4741 145.887 32.0914 146.178 31.7351C146.249 31.5988 146.346 31.4835 146.463 31.3841C146.537 31.2874 146.617 31.1959 146.73 31.1431C146.926 30.9346 147.171 30.7956 147.43 30.6935C147.625 30.617 147.783 30.5369 147.816 30.3082C147.826 30.2457 147.866 30.1868 147.928 30.1516C147.936 30.0346 148.057 29.9774 148.116 29.9704C148.339 29.9414 148.33 29.8015 148.334 29.6387C148.338 29.4091 148.294 29.1865 148.271 28.9604C148.169 28.5206 147.928 28.1652 147.606 27.8572C147.563 27.8159 147.479 27.7807 147.513 27.7007C147.539 27.6408 147.614 27.6558 147.669 27.6479C147.923 27.6109 148.175 27.5757 148.422 27.5054C148.581 27.4605 148.708 27.3822 148.773 27.223C149.156 26.5183 149.961 26.3828 150.597 27.0109C150.714 27.1262 150.825 27.2546 150.812 27.4394C150.808 27.5098 150.852 27.5185 150.907 27.5168C150.916 27.4631 150.925 27.4095 150.935 27.3558C150.937 27.318 150.943 27.281 150.954 27.2441C150.944 27.0963 150.95 26.9529 151 26.8236Z" fill="#F95437"/>
	<path d="M57.0993 43.4251C55.7879 43.2615 54.4757 43.0988 53.1643 42.9325C52.163 42.8058 51.4778 42.2287 51.277 41.3481C51.0815 40.4921 51.5201 39.2939 52.244 38.8558C52.5012 38.7001 52.8341 38.6279 53.1388 38.6068C53.3572 38.591 53.4928 38.5391 53.5642 38.3526C53.6514 38.1256 53.7315 37.8925 53.7844 37.6558C53.927 37.0233 54.3788 36.6406 55.0226 36.7154C56.9557 36.9397 58.8862 37.1816 60.8149 37.4411C61.4455 37.5265 61.7899 37.9875 61.7872 38.6244C61.7863 38.7713 61.7661 38.9182 61.7749 39.0643C61.7969 39.4188 61.8533 39.6801 62.32 39.776C62.9876 39.9132 63.2782 40.4824 63.4368 41.1044C63.7811 42.4583 63.1356 43.6504 61.9079 43.8976C61.6384 43.9521 61.3469 43.9477 61.0712 43.916C59.7467 43.7621 58.4238 43.5905 57.0993 43.4251Z" fill="#F95437"/>
	<path d="M55.1582 35.9218C55.8337 33.126 56.5004 30.3689 57.1724 27.5872C58.4379 27.7455 59.7044 27.9039 60.9876 28.064C60.9497 30.9187 60.9118 33.7656 60.8739 36.6362C58.976 36.3987 57.101 36.1646 55.1582 35.9218Z" fill="#F95437"/>
	<path d="M58.2856 17.6303C58.7277 17.442 59.1161 17.2766 59.5309 17.0998C59.2728 16.7241 59.1645 16.2843 59.3627 15.8497C59.4728 15.6086 59.6753 15.3781 59.8946 15.2259C60.3764 14.8934 61.0756 15.0245 61.4578 15.4661C61.9281 16.0098 61.8726 16.6133 61.2659 17.3531C61.9132 17.6848 62.409 18.1678 62.7542 18.8074C63.6473 20.4639 63.0757 22.7108 61.4922 23.6917C61.3398 23.7858 61.1249 23.8421 60.9488 23.8236C60.0487 23.7304 59.1504 23.616 58.2548 23.4876C58.0883 23.4638 57.899 23.3767 57.7818 23.258C56.6052 22.0703 56.4388 20.0504 57.404 18.6411C57.8655 19.1531 58.3243 19.6581 58.7779 20.1683C58.9928 20.4094 59.2491 20.5246 59.5626 20.4182C60.0161 20.2651 60.1456 19.7302 59.8118 19.3414C59.3354 18.7862 58.8387 18.2478 58.2856 17.6303Z" fill="#F95437"/>
	<path d="M55.4057 25.8162C57.9914 26.1391 60.5516 26.4593 63.1109 26.7796C63.0766 27.3356 62.6195 27.713 62.0268 27.6479C61.1998 27.5581 60.3746 27.4455 59.5485 27.3417C58.4679 27.2062 57.3855 27.0769 56.3058 26.9335C55.6946 26.8535 55.3863 26.4734 55.4057 25.8162Z" fill="#F95437"/>
	<path d="M62.4865 26.0379C60.394 25.7767 58.3234 25.5171 56.2521 25.2585C56.164 24.7878 56.5964 24.3163 57.1107 24.3568C57.5854 24.3937 58.0566 24.4676 58.5295 24.5265C59.5837 24.6576 60.6388 24.787 61.6921 24.9233C62.2866 25.0007 62.5666 25.3852 62.4865 26.0379Z" fill="#F95437"/>
	<path d="M121.154 22.5779C121.354 22.16 121.454 21.5151 121.454 20.6424C121.454 19.6976 121.359 19.0255 121.168 18.6252C120.977 18.2258 120.727 18.0252 120.418 18.0252H114.313L112.152 24.1596C112.477 24.7746 112.641 25.5188 112.641 26.3933C112.641 26.9387 112.555 27.4613 112.382 27.9601C112.209 28.4598 111.954 28.9006 111.618 29.2824C111.281 29.6642 110.858 29.9642 110.349 30.1815C110.231 30.2316 110.11 30.2747 109.983 30.3134L108.236 35.2717C108.349 35.276 108.461 35.2787 108.575 35.2787C110.103 35.2787 111.49 35.0834 112.736 34.6928C113.982 34.3022 115.046 33.7295 115.929 32.9755C116.811 32.2216 117.488 31.2952 117.961 30.1955C118.434 29.0967 118.671 27.8378 118.671 26.4206C118.671 25.8206 118.585 25.2444 118.412 24.6901C118.239 24.1359 117.953 23.6406 117.553 23.2042H120.418C120.708 23.2051 120.954 22.9966 121.154 22.5779Z" fill="#F95437"/>
	<path d="M105.658 43.1515L110.542 43.2879C111.688 43.3249 112.589 43.5606 113.244 43.997C113.899 44.4333 114.226 45.0597 114.226 45.8779C114.226 46.3503 114.134 46.7998 113.953 47.2274C113.77 47.6541 113.461 48.0403 113.025 48.386C112.588 48.7309 112.016 49.008 111.306 49.2174C110.596 49.4259 109.723 49.5305 108.687 49.5305C107.013 49.5305 105.717 49.2939 104.799 48.8215C104.342 48.5866 103.96 48.5427 103.731 48.1996L102.104 53.4045C102.492 53.5233 102.647 53.6301 103.08 53.7269C104.544 54.0542 106.313 54.2178 108.387 54.2178C110.516 54.2178 112.375 53.9908 113.968 53.536C115.559 53.0821 116.883 52.4636 117.938 51.6824C118.993 50.9012 119.784 49.9792 120.311 48.9156C120.839 47.8529 121.102 46.7215 121.102 45.5224C121.102 44.4324 120.907 43.4603 120.515 42.6061C120.124 41.7519 119.561 41.0208 118.824 40.412C118.087 39.8033 117.177 39.3308 116.095 38.9948C115.013 38.6587 113.78 38.4634 112.398 38.4089L107.309 38.4404L106.496 42.6694C106.582 42.6034 105.566 43.2193 105.658 43.1515Z" fill="#F95437"/>
	<path d="M30.6363 33.6935C30.6363 34.9471 30.4628 36.0828 30.1176 37.1007C29.7715 38.1185 29.2941 39.0176 28.6847 39.7989C28.0752 40.5801 27.3478 41.2531 26.5014 41.8161C25.656 42.38 24.7233 42.8428 23.7044 43.2061C22.6854 43.5694 21.5986 43.8377 20.444 44.0102C19.2886 44.1835 18.0019 44.2688 16.5831 44.2688H7.19749C6.59685 44.2688 6.09222 44.092 5.68269 43.7374C5.27317 43.3829 5.06885 42.8067 5.06885 42.007V11.2618C5.06885 10.4621 5.27317 9.88502 5.68269 9.53136C6.09222 9.17683 6.59685 9 7.19749 9H16.0652C18.23 9 20.0627 9.1821 21.5634 9.54544C23.0641 9.90877 24.3279 10.4586 25.3565 11.1941C26.3843 11.9304 27.1708 12.8612 27.7168 13.9881C28.2628 15.1151 28.535 16.4408 28.535 17.9672C28.535 18.8214 28.4258 19.6255 28.2073 20.3794C27.9889 21.1334 27.671 21.8196 27.2527 22.4372C26.8343 23.0547 26.32 23.6002 25.7106 24.0726C25.1011 24.545 24.4054 24.9268 23.6233 25.2171C24.6238 25.3993 25.5468 25.7168 26.3931 26.1708C27.2386 26.6256 27.9757 27.2115 28.6037 27.9285C29.2316 28.6464 29.7265 29.4865 30.0912 30.4498C30.454 31.4132 30.6363 32.4944 30.6363 33.6935ZM21.3582 18.839C21.3582 18.13 21.249 17.4948 21.0306 16.9309C20.8122 16.3678 20.4845 15.8998 20.0486 15.5268C19.6118 15.1547 19.0613 14.8688 18.3982 14.6682C17.7341 14.4685 16.8473 14.3682 15.7376 14.3682H12.1082V23.5263H16.1189C17.1555 23.5263 17.9834 23.404 18.6016 23.1586C19.2199 22.9131 19.7342 22.577 20.1428 22.1504C20.5523 21.7237 20.8562 21.224 21.057 20.6513C21.2587 20.0786 21.3582 19.4751 21.3582 18.839ZM23.1865 33.9389C23.1865 33.1216 23.05 32.3897 22.777 31.7448C22.504 31.1 22.1041 30.5589 21.5766 30.1235C21.0491 29.6871 20.3762 29.351 19.5572 29.1153C18.739 28.8795 17.6742 28.7607 16.3646 28.7607H12.1082V38.7916H17.2929C18.2934 38.7916 19.1344 38.6869 19.817 38.4784C20.4995 38.2699 21.0905 37.9602 21.5907 37.552C22.0909 37.1429 22.482 36.6344 22.7638 36.0256C23.0456 35.4151 23.1865 34.7201 23.1865 33.9389Z" fill="#373737"/>
	</g>
	</g>
	</svg>
	