<svg width="146" height="46" viewBox="0 0 146 46" fill="none" xmlns="http://www.w3.org/2000/svg">
<path d="M142.168 30.6562C142.13 30.7677 142.077 30.8685 141.907 30.892H141.906C141.683 31.0406 141.54 31.0497 141.249 30.9329C141.243 30.936 141.238 30.9383 141.232 30.9405C141.168 30.964 141.093 30.9223 141.018 30.9716C141.044 31.0959 141.17 31.1626 141.279 31.2392C141.338 31.2817 141.437 31.2968 141.439 31.3794C141.441 31.3787 141.443 31.3787 141.445 31.3779C141.546 31.4697 141.68 31.3847 141.79 31.4219C141.791 31.4219 141.792 31.4219 141.793 31.4227C141.792 31.4211 141.79 31.4196 141.789 31.4181C142.084 31.2536 142.114 31.0012 142.129 30.7442C142.155 30.7192 142.164 30.6881 142.168 30.6562Z" fill="#373737"/>
<path d="M141.977 25.2085C141.666 25.1385 141.36 25.0476 141.073 24.8931C141.006 24.8567 140.952 24.8158 140.868 24.8822C140.591 25.1039 140.31 25.0303 140.039 24.8567C139.614 24.5841 139.322 24.2023 139.175 23.7588C139.157 24.0442 139.132 24.3214 139.102 24.5913C139.346 24.7313 139.552 24.9431 139.74 25.1848C139.975 25.4875 140.164 25.8292 140.323 26.1864C140.397 26.3537 140.481 26.4082 140.629 26.3882C140.655 26.3864 140.682 26.3837 140.708 26.3818C140.972 26.3228 141.236 26.3137 141.501 26.3837C141.805 26.4945 141.858 26.4645 141.968 26.121C142.005 26.0046 142.045 25.8892 142.084 25.7729C142.112 25.6293 142.139 25.4857 142.168 25.3421C142.151 25.2139 142.054 25.2266 141.977 25.2085Z" fill="#373737"/>
<path d="M142.297 27.4891C142.369 27.5323 142.447 27.5257 142.525 27.5285C142.572 27.5304 142.62 27.5379 142.666 27.552C142.695 27.5642 142.724 27.5755 142.752 27.5905C142.776 27.5877 142.8 27.5802 142.82 27.553C143.067 27.1998 143.369 27.1932 143.701 27.3698C143.494 26.9904 143.149 26.8316 142.798 26.6767C142.617 26.5978 142.415 26.579 142.257 26.4409C142.175 26.7621 141.99 27.0167 141.785 27.2618C141.945 27.3942 142.137 27.3999 142.297 27.4891Z" fill="#373737"/>
<path d="M142.939 28.3391C143.235 28.1807 143.521 28.0056 143.665 27.6986C143.683 27.6625 143.696 27.6264 143.7 27.5903C143.693 27.6044 143.683 27.6185 143.67 27.6334C143.512 27.7232 143.341 27.7522 143.158 27.7373C143.009 27.7945 142.853 27.7663 142.699 27.7698C142.69 27.7716 142.682 27.7725 142.674 27.7742C142.631 27.8895 142.597 28.0092 142.476 28.0795C142.49 28.1007 142.502 28.1244 142.495 28.1473C142.224 28.9295 141.966 29.717 141.383 30.3672C141.366 30.3866 141.345 30.4016 141.323 30.4156C141.313 30.4192 141.303 30.4218 141.295 30.4236C141.314 30.5476 141.2 30.6031 141.125 30.6708C141.009 30.7773 140.946 30.8617 141.156 30.9295C141.189 30.94 141.204 30.9717 141.209 31.0043C141.395 31.0368 141.582 31.0782 141.753 30.9638C141.752 30.9603 141.75 30.9576 141.749 30.955C141.941 30.479 141.99 29.9757 142.079 29.4794C142.167 28.9735 142.457 28.5978 142.939 28.3391Z" fill="#373737"/>
<path d="M142.347 22.1868C142.403 22.1374 142.472 22.1024 142.517 22.0404C142.554 21.9892 142.567 21.9327 142.525 21.877C142.487 21.8276 142.436 21.8402 142.389 21.8582C142.233 21.9174 142.093 22.0081 141.956 22.1015C141.875 22.1562 141.795 22.2137 141.695 22.2281C141.642 22.378 141.519 22.4462 141.376 22.4929C141.346 22.6626 141.264 22.791 141.097 22.8494C141.11 22.9418 141.047 23.0056 141.005 23.0792C140.861 23.3342 140.715 23.5883 140.654 23.8819C140.613 24.0722 140.637 24.25 140.752 24.4098C140.871 24.5732 140.936 24.5651 141.021 24.3676C141.121 24.136 141.164 23.8846 141.244 23.6466C141.276 23.5515 141.278 23.4258 141.395 23.3854C141.374 23.0693 141.65 22.6743 141.95 22.5899C141.948 22.5863 141.947 22.5836 141.945 22.58C142.021 22.3888 142.207 22.3116 142.347 22.1868Z" fill="#373737"/>
<path d="M139.531 26.7797C139.778 26.7531 140.015 26.8154 140.251 26.8769C140.517 26.9459 140.782 27.0182 141.018 27.0705C140.798 26.9284 140.588 26.7464 140.469 26.488C140.469 26.4772 140.471 26.4672 140.476 26.4573C140.274 26.4115 140.075 26.4764 139.874 26.4755C139.827 26.4722 139.779 26.4705 139.737 26.4556C139.286 26.5578 138.847 26.6899 138.418 26.8487C138.203 27.388 137.935 27.8708 137.616 28.2963C137.601 28.317 137.585 28.337 137.569 28.3569C137.599 28.3378 137.632 28.3253 137.672 28.3287C137.673 28.3295 137.674 28.3303 137.675 28.3312C137.674 28.3295 137.673 28.3278 137.672 28.3262C137.937 27.8907 138.214 27.4653 138.694 27.1935C138.696 27.1944 138.697 27.1952 138.699 27.196C138.706 27.1445 138.723 27.1038 138.779 27.1121C138.95 26.852 139.241 26.8104 139.531 26.7797Z" fill="#373737"/>
<path d="M138.719 18.4475C138.78 18.663 138.833 18.886 138.878 19.1163C138.895 19.201 138.91 19.2882 138.925 19.3746C139.103 19.28 139.29 19.1994 139.49 19.141C139.575 19.1163 139.662 19.1015 139.752 19.1114C139.971 19.1344 140.067 19.2265 140.088 19.4363C140.096 19.5136 140.094 19.591 140.093 19.6683C140.092 19.8057 140.128 19.8699 140.303 19.8641C140.648 19.8526 141.018 20.1981 141.059 20.5321C141.082 20.7287 140.97 20.8249 140.765 20.7698C140.576 20.7188 140.421 20.6111 140.275 20.4835C140.109 20.3388 140.075 20.3429 139.971 20.5271C139.884 20.6793 139.778 20.8192 139.682 20.9648C139.735 20.8957 139.795 20.8356 139.884 20.8036C139.972 20.7723 140.059 20.7756 140.126 20.8521C140.132 20.862 140.136 20.8718 140.137 20.8809C140.21 20.797 140.3 20.8389 140.385 20.8661C140.521 20.9089 140.649 20.9722 140.787 21.0117C141.154 21.117 141.508 21.0989 141.846 20.9113C141.937 20.8611 142.023 20.7896 142.138 20.7994C142.154 20.7279 142.199 20.6859 142.277 20.6769C142.342 20.4432 142.491 20.2417 142.534 19.9974C142.584 19.7201 142.532 19.4947 142.284 19.3261C142.14 19.2282 142.026 19.0966 141.893 18.9847C141.334 18.5158 140.678 18.2484 139.963 18.0979C139.9 18.0847 139.839 18.0666 139.779 18.0444C139.645 17.995 139.509 18.0066 139.372 18.0329C139.336 18.0403 139.301 18.0411 139.265 18.0329C139.264 18.0329 139.263 18.0321 139.262 18.0312C139.247 18.1044 139.176 18.1349 139.118 18.1678C138.975 18.2517 138.843 18.3463 138.719 18.4475Z" fill="#373737"/>
<path d="M142.846 22.025C143.062 22.2036 143.283 22.3749 143.504 22.5489C143.653 22.5904 143.748 22.7094 143.859 22.8041C144.169 23.0656 144.283 23.0593 144.562 22.7554C144.596 22.7193 144.628 22.6806 144.66 22.6436C145.011 21.9781 145.217 21.2559 145.457 20.5462C145.583 20.172 145.715 19.7987 145.903 19.4498C145.933 19.3948 145.957 19.3289 146 19.283C145.95 18.8321 145.887 18.3948 145.812 17.9692C145.81 17.9836 145.808 17.9989 145.807 18.0134C145.809 18.1748 145.815 18.3362 145.765 18.4931C145.762 18.5373 145.759 18.5805 145.756 18.6247C145.762 18.7185 145.767 18.8114 145.715 18.8952C145.645 19.0756 145.574 19.2568 145.504 19.4372C145.515 19.5571 145.415 19.6175 145.363 19.7032C145.272 19.8222 145.175 19.9331 145.038 20.0034C144.887 20.081 144.875 20.2523 144.819 20.3884C144.747 20.5625 144.679 20.6896 144.482 20.5183C144.393 20.4407 144.3 20.4678 144.206 20.5246C144.092 20.594 143.973 20.6544 143.856 20.7194C143.751 20.7293 143.645 20.7735 143.547 20.6932C143.545 20.6815 143.545 20.6698 143.547 20.6599C143.543 20.6635 143.538 20.6671 143.534 20.6698C143.306 20.5093 143.256 20.2694 143.25 20.0097C143.24 20.0007 143.229 19.9953 143.217 19.9926C143.23 19.8853 143.191 19.7726 143.248 19.6689C143.249 19.6436 143.244 19.6157 143.252 19.594C143.393 19.2298 143.649 18.9196 143.731 18.5255C143.75 18.4318 143.858 18.3731 143.954 18.3371C144.045 18.3028 144.134 18.31 144.21 18.3786C144.293 18.4516 144.277 18.5454 144.249 18.6355C144.222 18.7266 144.139 18.7997 144.152 18.934C144.278 18.8384 144.317 18.6779 144.459 18.6437C144.59 18.6121 144.732 18.5571 144.826 18.7203C144.996 18.8051 144.876 18.998 144.969 19.1152C145.011 19.1675 145.002 19.2604 145.078 19.2848C145.092 19.2712 145.107 19.2586 145.127 19.2487C145.205 19.2253 145.28 19.2171 145.343 19.2757C145.382 19.1648 145.437 19.0593 145.47 18.9457C145.507 18.778 145.508 18.6112 145.466 18.4444C145.371 18.1649 145.216 17.9403 144.959 17.7807C144.552 17.5274 144.129 17.5851 143.776 17.9764C143.72 18.0386 143.677 18.1144 143.587 18.1324C143.577 18.1324 143.568 18.1297 143.56 18.127C143.561 18.1279 143.561 18.1288 143.562 18.1297C143.64 18.2731 143.544 18.3632 143.449 18.42C143.165 18.5859 142.853 18.6464 142.551 18.659C142.804 18.9448 143.081 19.2577 143.115 19.7077C143.115 19.7086 143.114 19.7104 143.114 19.7113C143.199 19.7807 143.186 19.9006 143.219 19.9971C143.218 20.1738 143.281 20.3443 143.278 20.5219C143.277 20.6193 143.325 20.6788 143.42 20.6995C143.495 20.7158 143.561 20.7482 143.605 20.8168C143.705 20.9069 143.856 20.9286 143.926 21.0602C143.984 21.0891 144.012 21.1639 144.088 21.1612C144.2 21.0043 144.352 20.8943 144.506 20.7852C144.563 20.7446 144.62 20.6662 144.699 20.7365C144.774 20.8023 144.722 20.8763 144.689 20.9421C144.671 20.9782 144.641 21.0088 144.617 21.0422C144.483 21.1711 144.368 21.3226 144.182 21.3875C144.113 21.4119 144.106 21.4615 144.126 21.548C144.176 21.7744 144.156 22.0007 144.008 22.1936C143.949 22.2703 143.864 22.319 143.768 22.2901C143.68 22.2631 143.695 22.1648 143.689 22.0945C143.673 21.9186 143.692 21.7455 143.762 21.5814C143.729 21.5057 143.651 21.5507 143.601 21.5201C143.436 21.521 143.271 21.521 143.106 21.5219C143.089 21.5219 143.072 21.5228 143.055 21.5228C142.916 21.5868 142.889 21.7473 142.788 21.8474C142.698 21.9322 142.796 21.9836 142.846 22.025Z" fill="#373737"/>
<path d="M143.464 21.4311C143.614 21.4259 143.765 21.443 143.913 21.4148C144.101 21.423 144.082 21.3145 144.084 21.2171C143.96 21.2067 143.862 21.1369 143.747 21.1064C143.655 21.0841 143.561 21.0425 143.481 21.1264C143.427 21.2379 143.421 21.3687 143.317 21.4594C143.363 21.4415 143.412 21.4311 143.464 21.4311Z" fill="#373737"/>
<path d="M144.418 20.4424C144.526 20.4738 144.593 20.4432 144.624 20.3465C144.716 20.0549 144.99 19.9381 145.233 19.7923C145.179 19.6981 145.013 19.7351 144.971 19.6256C144.772 19.5837 144.797 19.4057 144.754 19.28C144.726 19.1987 144.707 19.1125 144.674 19.0311C144.467 18.9941 144.336 19.0843 144.261 19.2526C144.224 19.3364 144.188 19.3944 144.09 19.3219C144.015 19.2671 143.875 19.2382 143.973 19.102C143.999 19.0642 144.031 19.0263 144.044 18.9836C144.062 18.9248 144.145 18.8596 144.064 18.8024C143.985 18.7468 143.908 18.7911 143.848 18.8483C143.814 18.8805 143.76 18.92 143.761 18.9538C143.779 19.3348 143.403 19.5507 143.317 19.8866C143.317 19.9768 143.318 20.0678 143.318 20.158C143.348 20.3546 143.369 20.5551 143.548 20.6929C143.55 20.6913 143.552 20.6888 143.554 20.6872C143.73 20.6333 143.908 20.5849 144.065 20.4859C144.172 20.4206 144.296 20.4077 144.418 20.4424Z" fill="#373737"/>
<path d="M143.098 29.572C143.144 29.5204 143.201 29.4521 143.29 29.4853C143.289 29.4801 143.289 29.4748 143.288 29.4696C143.283 29.3776 143.343 29.3128 143.4 29.2585C143.646 29.0273 143.899 28.8022 144.126 28.5517C144.145 28.5306 144.173 28.5254 144.202 28.5254C144.209 28.4141 144.279 28.3581 144.385 28.3344C144.408 28.1479 144.517 28.0182 144.67 27.9175C144.669 27.914 144.668 27.9105 144.667 27.907C144.668 27.7625 144.751 27.6425 144.794 27.5102C144.928 27.0924 144.825 26.743 144.469 26.4855C143.99 26.1395 143.438 25.931 142.893 25.7129C142.84 25.691 142.78 25.6814 142.721 25.6762C142.632 25.6683 142.547 25.6832 142.509 25.7725C142.472 25.8575 142.534 25.9126 142.591 25.9617C142.765 26.1115 142.987 26.1754 143.192 26.2691C143.293 26.3155 143.423 26.3304 143.46 26.4566C143.868 26.4732 144.31 26.8866 144.367 27.307C144.443 27.8667 144.01 28.7102 143.497 29.0036C143.51 29.0684 143.478 29.0947 143.421 29.1C143.423 29.1183 143.422 29.1359 143.411 29.1472C143.097 29.4775 142.819 29.8427 142.448 30.1203C142.452 30.1265 142.456 30.1317 142.458 30.1387C142.472 30.1895 142.462 30.2395 142.434 30.2806C142.277 30.5127 142.208 30.7711 142.168 31.0391C142.342 30.4733 142.7 30.0109 143.098 29.572Z" fill="#373737"/>
<path d="M141.566 27.0793C141.599 27.0318 141.628 26.9815 141.657 26.9302C141.849 26.5758 141.843 26.5559 141.511 26.4704C141.303 26.4305 141.094 26.4476 140.886 26.4609C140.863 26.4656 140.84 26.4637 140.818 26.4571C140.81 26.4523 140.803 26.4466 140.796 26.4409C140.755 26.4998 140.689 26.4932 140.637 26.5236C140.636 26.5245 140.636 26.5255 140.635 26.5255C140.733 26.5179 140.774 26.6167 140.823 26.6936C140.936 26.8703 141.076 27.009 141.223 27.1373C141.353 27.2494 141.466 27.2247 141.566 27.0793Z" fill="#373737"/>
<path d="M139.355 21.766C139.378 21.6573 139.427 21.5568 139.485 21.4595C139.428 21.5258 139.363 21.5889 139.276 21.6418C139.212 21.7163 139.156 21.793 139.102 21.8706C139.105 21.9877 139.106 22.1068 139.108 22.2259C139.113 22.2155 139.117 22.2052 139.123 22.1958C139.201 22.0519 139.278 21.909 139.355 21.766Z" fill="#373737"/>
<path d="M140.192 26.1548C139.849 25.704 139.52 25.2475 138.956 24.949C138.929 24.9348 138.901 24.9215 138.873 24.9082C138.81 25.2774 138.732 25.6317 138.636 25.9685C138.551 26.2679 138.449 26.5523 138.336 26.8242C138.769 26.6845 139.216 26.5756 139.679 26.5007C139.744 26.3535 139.93 26.3951 140.062 26.3751C140.257 26.346 140.305 26.3036 140.192 26.1548Z" fill="#373737"/>
<path d="M142.539 32.4324C142.386 32.196 142.278 31.9359 142.257 31.6315C142.257 31.629 142.257 31.6266 142.257 31.6241C142.257 31.62 142.257 31.6151 142.257 31.611C142.258 31.5503 142.189 31.5166 142.135 31.5495C142.096 31.5741 142.049 31.5872 141.99 31.5872C141.973 31.5839 141.956 31.5798 141.939 31.5749C141.765 31.6364 141.597 31.6028 141.434 31.5289C141.423 31.533 141.412 31.5363 141.4 31.5388C141.131 31.4699 140.991 31.2893 140.931 31.0391L140.579 31.1909C140.582 31.1933 140.582 31.195 140.585 31.1974C140.501 31.2705 140.405 31.3312 140.305 31.387C140.279 31.4017 140.264 31.4296 140.267 31.4592C140.271 31.4937 140.267 31.5281 140.263 31.5634C140.222 31.8867 140.287 32.0032 140.582 32.155C140.759 32.2461 140.95 32.3052 141.141 32.3544C141.493 32.4447 141.764 32.6416 142.007 32.8976C142.024 32.9165 142.043 32.9362 142.061 32.9551C142.222 32.8164 142.378 32.6736 142.528 32.5251C142.555 32.5005 142.558 32.4619 142.539 32.4324Z" fill="#373737"/>
<path d="M142.469 25.4939C142.477 25.5082 142.475 25.5199 142.462 25.5297C142.461 25.6605 142.424 25.7823 142.369 25.8996C142.302 26.0734 142.235 26.2471 142.168 26.4218C142.669 26.5042 143.139 26.6717 143.548 26.9789C144.047 27.355 144.061 27.8064 143.587 28.2148C143.417 28.3617 143.222 28.4808 143.035 28.6053C142.695 28.831 142.488 29.1409 142.43 29.5466C142.387 29.8538 142.347 30.161 142.305 30.4682C142.286 30.5291 142.283 30.5927 142.28 30.6563C142.293 30.6268 142.313 30.5999 142.349 30.5784C142.43 30.393 142.512 30.2085 142.656 30.0598C142.922 29.6622 143.262 29.3335 143.609 29.0111C143.644 28.9734 143.679 28.9349 143.715 28.8973C143.708 28.8104 143.807 28.7863 143.823 28.7137C143.841 28.6698 143.865 28.6304 143.913 28.6116C144.119 28.3707 144.288 28.1074 144.393 27.8064C144.57 27.2959 144.431 26.9081 143.971 26.6296C143.868 26.5678 143.76 26.514 143.654 26.4576C143.643 26.454 143.633 26.4487 143.621 26.4397C143.286 26.3322 142.966 26.1916 142.689 25.9677C142.579 25.879 142.53 25.776 142.575 25.6381C142.61 25.5262 142.673 25.4429 142.77 25.4017L142.514 25.2915C142.516 25.3614 142.505 25.4294 142.469 25.4939Z" fill="#373737"/>
<path d="M46.3676 12.2273C46.3676 12.8786 46.3495 13.4117 46.3141 13.8275C46.2778 14.2433 46.2243 14.569 46.1535 14.8036C46.0818 15.0391 45.9886 15.2019 45.8729 15.2921C45.7563 15.3831 45.6095 15.4278 45.4317 15.4278C45.2884 15.4278 45.1286 15.3963 44.9499 15.3332C44.7712 15.2702 44.5709 15.2019 44.3481 15.1301C44.1245 15.0583 43.8801 14.9901 43.6125 14.927C43.3448 14.864 43.0504 14.8325 42.7301 14.8325C42.3554 14.8325 41.9806 14.9095 41.6068 15.0627C41.2321 15.2168 40.8444 15.4558 40.4429 15.7814C40.0414 16.1071 39.6227 16.5413 39.1858 17.0832C38.7489 17.6259 38.2801 18.2947 37.781 19.0905V34.1702C37.781 34.3514 37.7275 34.5089 37.6204 34.6446C37.5134 34.7803 37.3303 34.8932 37.0722 34.9834C36.8132 35.0744 36.4704 35.1419 36.0421 35.1865C35.6139 35.2311 35.0699 35.2548 34.4103 35.2548C33.7506 35.2548 33.2067 35.232 32.7785 35.1865C32.3502 35.141 32.0066 35.0736 31.7484 34.9834C31.4894 34.8932 31.3072 34.7803 31.2001 34.6446C31.0931 34.5089 31.0396 34.3514 31.0396 34.1702V9.97663C31.0396 9.79629 31.0836 9.63785 31.1734 9.50216C31.2623 9.36647 31.4229 9.25355 31.6552 9.16338C31.8866 9.07321 32.1853 9.00493 32.5514 8.96028C32.9166 8.91564 33.3759 8.89288 33.9294 8.89288C34.5001 8.89288 34.9724 8.91564 35.3471 8.96028C35.7218 9.00581 36.0111 9.07321 36.2165 9.16338C36.4212 9.25442 36.5688 9.36647 36.6577 9.50216C36.7467 9.63785 36.7916 9.79629 36.7916 9.97663V12.9871C37.4158 12.0828 38.0038 11.337 38.5572 10.7496C39.1098 10.1622 39.6356 9.6965 40.1355 9.35247C40.6346 9.00931 41.1345 8.76945 41.6336 8.63376C42.1326 8.49807 42.6325 8.43066 43.1316 8.43066C43.363 8.43066 43.6133 8.44467 43.881 8.47181C44.1487 8.49895 44.425 8.54447 44.7099 8.6075C44.9948 8.6714 45.2452 8.74318 45.4593 8.8246C45.6734 8.90601 45.8289 8.9918 45.9273 9.08196C46.0248 9.17301 46.0965 9.27193 46.1414 9.38048C46.1854 9.48903 46.226 9.63785 46.2614 9.82781C46.2968 10.0178 46.3236 10.3023 46.3417 10.6822C46.3581 11.0613 46.3676 11.5769 46.3676 12.2273Z" fill="#373737"/>
<path d="M87.7515 34.1693C87.7515 34.3505 87.6966 34.5081 87.5868 34.6438C87.477 34.7794 87.2937 34.8924 87.0378 34.9825C86.781 35.0736 86.4295 35.141 85.9814 35.1856C85.5334 35.2303 84.98 35.2539 84.3221 35.2539C83.6456 35.2539 83.0824 35.2311 82.6353 35.1856C82.1872 35.1401 81.8348 35.0727 81.5789 34.9825C81.3221 34.8924 81.1397 34.7794 81.0299 34.6438C80.9201 34.5081 80.8652 34.3505 80.8652 34.1693V20.3642C80.8652 19.1894 80.7785 18.2667 80.6049 17.5979C80.4305 16.9291 80.1799 16.3548 79.8505 15.876C79.5211 15.3971 79.0961 15.026 78.5745 14.7642C78.053 14.5025 77.4447 14.3712 76.7505 14.3712C75.873 14.3712 74.9858 14.6881 74.0897 15.3201C73.1936 15.953 72.2603 16.8757 71.2916 18.0864V34.1702C71.2916 34.3514 71.2367 34.5089 71.1269 34.6446C71.0171 34.7803 70.8294 34.8932 70.5647 34.9834C70.299 35.0744 69.9475 35.1419 69.5083 35.1865C69.0691 35.2311 68.5113 35.2548 67.8348 35.2548C67.1583 35.2548 66.6004 35.232 66.1612 35.1865C65.7221 35.141 65.3696 35.0736 65.1049 34.9834C64.8393 34.8932 64.6524 34.7803 64.5426 34.6446C64.4328 34.5089 64.3779 34.3514 64.3779 34.1702V9.97663C64.3779 9.79629 64.4231 9.63785 64.5152 9.50216C64.6064 9.36647 64.7711 9.25355 65.0093 9.16338C65.2466 9.07321 65.5529 9.00493 65.9284 8.96028C66.3029 8.91564 66.774 8.89288 67.3416 8.89288C67.9269 8.89288 68.4112 8.91564 68.7955 8.96028C69.1798 9.00581 69.4764 9.07321 69.6872 9.16338C69.897 9.25442 70.0484 9.36647 70.1396 9.50216C70.2308 9.63785 70.2769 9.79629 70.2769 9.97663V12.77C71.6299 11.3239 73.0068 10.2384 74.4058 9.51529C75.8048 8.79221 77.2632 8.43066 78.7817 8.43066C80.4455 8.43066 81.8499 8.70204 82.993 9.24391C84.1361 9.78667 85.0597 10.5238 85.7636 11.4543C86.4675 12.3857 86.9749 13.4747 87.2866 14.7222C87.5974 15.9696 87.7532 17.471 87.7532 19.2244V34.1693H87.7515Z" fill="#373737"/>
<path d="M134.638 30.8115C134.734 30.7514 134.836 30.7019 134.938 30.6515C134.987 30.6268 135.028 30.5932 135.068 30.5561C135.139 30.4854 135.227 30.4376 135.314 30.3899C135.412 30.3333 135.504 30.2688 135.595 30.2025C135.743 30.1 135.892 29.9966 136.036 29.8896C135.963 29.9294 135.889 29.9674 135.812 30.0037C135.753 30.0319 135.694 30.0585 135.633 30.0841C135.605 30.1106 135.576 30.1362 135.546 30.161C135.43 30.1548 135.419 30.3254 135.294 30.3051C135.291 30.3174 135.29 30.3307 135.29 30.3431C135.222 30.3926 135.153 30.4412 135.085 30.4907C135.035 30.5243 134.983 30.5587 134.932 30.5923C134.783 30.633 134.649 30.6993 134.527 30.7938C133.848 31.0281 133.171 31.2543 132.539 31.6149C132.101 31.8651 131.844 32.2531 131.516 32.5881C131.378 32.802 131.24 33.0167 131.103 33.2306C131.089 33.2678 131.073 33.304 131.055 33.3385C131.082 33.3066 131.109 33.2739 131.137 33.2421C131.488 32.7648 131.982 32.4511 132.466 32.124C132.499 32.1019 132.537 32.0949 132.576 32.0949C132.588 32.041 132.633 32.0091 132.68 31.9791C133.107 31.7077 133.537 31.4426 133.979 31.1951C134.075 31.1412 134.179 31.0546 134.307 31.1368C134.308 31.1368 134.308 31.1368 134.309 31.1368C134.295 30.9114 134.524 30.9158 134.638 30.8115Z" fill="#373737"/>
<path d="M129.743 33.3024C129.808 33.2561 129.929 33.2347 129.902 33.116C129.88 33.0223 129.773 33.0038 129.693 32.9815C129.401 32.8981 129.253 33.0094 129.18 33.3544C129.129 33.6011 129.171 33.8561 129.139 34.1047C129.234 33.7467 129.461 33.5028 129.743 33.3024Z" fill="#373737"/>
<path d="M128.729 35.7321C128.72 35.7215 128.719 35.7078 128.724 35.692C128.677 35.3809 128.686 35.0698 128.724 34.7588C128.725 34.6459 128.727 34.5331 128.728 34.4213C128.754 34.3222 128.739 34.2104 128.747 34.105C128.736 34.1567 128.721 34.2052 128.696 34.2452C128.642 34.395 128.594 34.5521 128.534 34.6944C128.388 35.0435 128.333 35.4473 128.402 35.8755C128.519 35.9271 128.636 35.9756 128.756 36.021C128.736 35.9292 128.723 35.8354 128.729 35.7321Z" fill="#373737"/>
<path d="M129.192 34.7124C129.184 34.7797 129.185 34.848 129.173 34.9154C129.133 35.154 129.182 35.3998 129.141 35.6375C129.14 35.6393 129.14 35.6402 129.139 35.642C129.144 35.6438 129.148 35.6457 129.153 35.6502C129.209 35.7495 129.212 35.8879 129.255 35.9971C129.284 36.0053 129.312 36.0126 129.341 36.0208C129.401 35.8696 129.481 35.7431 129.592 35.6566C129.59 35.6457 129.589 35.6338 129.585 35.6238C129.614 35.4217 129.661 35.225 129.731 35.0474C129.829 34.797 129.869 34.5466 129.827 34.2644C129.778 33.9466 129.822 33.6389 129.906 33.3384C129.425 33.5487 129.268 34.0896 129.192 34.7124Z" fill="#373737"/>
<path d="M130.538 33.7895C130.545 33.7895 130.551 33.7905 130.559 33.7915C130.827 33.3493 131.047 32.8671 131.342 32.4468C131.329 32.339 131.464 32.3081 131.434 32.1913C131.403 32.1933 131.36 32.1803 131.342 32.2003C130.89 32.7064 130.394 33.1776 130.292 33.9832C130.287 34.0231 130.288 34.064 130.29 34.105C130.329 34.076 130.361 34.0271 130.411 34.0291C130.386 33.9033 130.445 33.8354 130.538 33.7895Z" fill="#373737"/>
<path d="M127.959 10.1088C127.706 10.0085 127.486 9.92887 127.223 9.97861C127.606 10.192 127.424 10.5257 127.387 10.8431C127.448 10.8268 127.483 10.8087 127.519 10.8096C127.621 10.8123 127.761 10.7852 127.815 10.8422C127.871 10.901 127.871 11.0529 127.847 11.1515C127.795 11.3685 127.71 11.5774 127.641 11.7899C127.632 11.8152 127.632 11.8441 127.627 11.8794C128.003 11.6533 128.455 10.8675 128.36 10.5275C128.303 10.6695 128.264 10.7671 128.222 10.8747C128.134 10.7518 128.073 10.6089 127.967 10.5384C127.855 10.4642 127.701 10.4588 127.564 10.4235C127.586 10.3023 127.6 10.2906 127.959 10.1088Z" fill="#373737"/>
<path d="M128.331 11.4107C128.621 11.1964 128.806 10.9269 128.744 10.5571C128.678 10.1615 128.439 9.87553 128.065 9.7278C127.892 9.65956 127.706 9.61723 127.522 9.58008C127.385 9.63623 127.251 9.69411 127.118 9.75372C127.116 9.76754 127.114 9.77964 127.114 9.79519C127.547 9.76495 127.94 9.84184 128.29 10.1373C128.146 10.1693 128.002 10.2012 127.825 10.2401C127.987 10.3239 128.107 10.3852 128.259 10.4638C128.328 10.4258 128.396 10.3878 128.465 10.3489C128.501 10.4284 128.566 10.507 128.567 10.5865C128.567 10.6954 128.549 10.825 128.489 10.9105C128.272 11.218 128.037 11.5126 127.801 11.8055C127.766 11.8487 127.686 11.8556 127.627 11.8789C127.609 11.8141 127.563 11.7416 127.578 11.6854C127.632 11.4781 127.711 11.2768 127.771 11.0703C127.793 10.9934 127.788 10.9079 127.795 10.8267C127.718 10.831 127.635 10.8215 127.563 10.844C127.38 10.8993 127.301 10.8396 127.328 10.6461C127.339 10.5623 127.366 10.4803 127.383 10.3965C127.423 10.2047 127.371 10.0932 127.121 9.97056C127.053 9.93687 126.92 9.99648 126.835 10.044C126.703 10.1183 126.58 10.2125 126.464 10.3109C126.408 10.3585 126.347 10.4319 126.339 10.4993C126.32 10.6591 126.243 10.7472 126.091 10.7783C125.977 10.8016 125.95 10.8569 125.931 10.983C125.896 11.2379 125.791 11.4824 125.728 11.7346C125.702 11.8383 125.665 11.986 125.715 12.05C125.767 12.1148 125.923 12.1303 126.026 12.1156C126.256 12.0828 126.483 12.0258 126.707 11.9627C126.865 11.9178 126.959 11.8029 127 11.6379C127.031 11.5126 127.087 11.3925 127.142 11.275C127.157 11.2431 127.204 11.2249 127.236 11.2008C127.255 11.2431 127.288 11.2846 127.289 11.3269C127.293 11.5351 127.277 11.7433 127.29 11.9506C127.299 12.0975 127.369 12.2297 127.534 12.2582C127.699 12.2867 127.859 12.1718 127.908 11.9878C127.973 11.7372 128.13 11.5584 128.331 11.4107Z" fill="#373737"/>
<path d="M131.438 10.9396C131.363 10.8466 131.292 10.7734 131.229 10.6748C131.169 10.5791 131.117 10.4565 131.062 10.3467C131.029 10.6734 131.114 11.0987 131.184 11.1072C131.279 11.1185 131.385 11.1339 131.438 10.9396Z" fill="#373737"/>
<path d="M127.856 27.8526C127.507 27.3908 127.17 26.9212 126.819 26.4603C126.72 26.3304 126.59 26.2221 126.471 26.1068C126.384 26.0243 126.277 26.0535 126.246 26.1361C126.151 26.3898 125.96 26.5256 125.69 26.6082C125.921 26.7011 126.155 26.7853 126.38 26.8885C127.056 27.1981 127.471 27.727 127.755 28.3617C127.796 28.4537 127.839 28.5483 127.898 28.6309C128.004 28.7805 128.154 28.7753 128.253 28.6214C128.308 28.5363 128.346 28.4485 128.373 28.36C128.278 28.2086 128.189 28.0512 128.105 27.8896C128.104 27.9231 128.102 27.9626 128.103 28.0108C127.99 27.9394 127.9 27.9111 127.856 27.8526Z" fill="#373737"/>
<path d="M131.686 10.7207C131.634 10.7503 131.569 10.7994 131.555 10.853C131.489 11.1204 131.268 11.1814 131.041 11.1657C130.957 11.1602 130.874 11.1435 130.791 11.1324C130.754 11.2009 130.73 11.3017 130.675 11.3295C130.066 11.6431 129.454 11.9521 128.836 12.2435C128.702 12.3064 128.539 12.2962 128.373 12.3221C128.512 12.5081 128.628 12.7227 128.473 13.0289C128.933 12.7495 129.42 12.6737 129.794 12.3341C130.118 12.0399 130.531 11.9243 130.92 11.7754C131.302 11.6292 131.573 11.3702 131.784 11.0186C131.903 10.8197 132.087 10.6403 132.135 10.4247C132.195 10.1564 132.279 9.85206 132.077 9.58008C132.083 9.68277 132.085 9.78638 132.096 9.88907C132.141 10.2822 132.017 10.5292 131.686 10.7207Z" fill="#373737"/>
<path d="M125.197 23.4013C124.858 23.3403 124.526 23.3708 124.305 23.675C124.244 23.7589 124.206 23.8572 124.157 23.9487C124.265 23.9826 124.37 24.0436 124.479 24.0478C125.263 24.0766 126.047 24.097 126.832 24.1156C126.964 24.119 127.095 24.1258 127.223 24.1419C127.21 24.0309 127.199 23.919 127.188 23.8063C126.888 23.7623 126.59 23.7123 126.294 23.6555C125.925 23.5843 125.566 23.4674 125.197 23.4013Z" fill="#373737"/>
<path d="M121.171 20.1214C121.14 20.1578 121.099 20.1933 121.087 20.2357C121.059 20.3415 121.069 20.4619 121.022 20.5581C120.747 21.1248 120.455 21.6829 120.18 22.2496C120.083 22.4498 120.016 22.6639 119.944 22.8744C119.932 22.9091 119.972 22.9602 119.987 23.0036C120.017 22.9914 120.062 22.9871 120.076 22.9646C120.327 22.5876 120.577 22.2107 120.821 21.8294C121.042 21.4819 121.252 21.1266 121.474 20.7791C121.506 20.7288 121.572 20.6985 121.622 20.6595C121.633 20.6725 121.645 20.6855 121.657 20.6985C121.172 21.4715 120.687 22.2453 120.199 23.0226C120.3 23.0608 120.405 23.0868 120.495 23.1379C120.779 23.2999 121.065 23.4611 121.336 23.6431C121.581 23.8086 121.836 23.9836 121.783 24.3337C121.78 24.3485 121.793 24.3658 121.799 24.3823C121.973 24.9265 122.354 25.274 122.922 25.4152C123.69 25.6076 124.473 25.6925 125.269 25.6527C125.471 25.6423 125.675 25.6457 125.92 25.6414C125.831 25.8702 125.759 26.0521 125.68 26.2558C125.939 26.2151 126.096 26.1267 126.173 25.9152C126.237 25.7393 126.418 25.696 126.58 25.8008C126.643 25.8416 126.708 25.8875 126.752 25.9456C126.995 26.2705 127.231 26.6007 127.47 26.9282C127.632 27.1501 127.796 27.3702 127.959 27.5903C127.992 27.5487 127.992 27.527 127.986 27.5071C127.913 27.2879 127.84 27.0695 127.767 26.8511C127.714 26.7029 127.664 26.5521 127.617 26.397C127.58 26.2835 127.542 26.17 127.505 26.0565C127.441 25.8606 127.338 25.6665 127.389 25.4568C127.372 25.3693 127.354 25.2809 127.339 25.1916C127.142 25.2263 126.944 25.2575 126.745 25.2878C125.972 25.4057 125.203 25.5859 124.411 25.5261C123.95 25.4915 123.489 25.4464 123.037 25.3624C122.813 25.3208 122.578 25.2176 122.401 25.0799C122.022 24.7826 121.899 24.3537 121.871 23.8996C121.858 23.6838 121.975 23.5365 122.197 23.5036C122.365 23.4784 122.538 23.4845 122.708 23.4732C123.043 23.4516 123.38 23.4394 123.713 23.3987C123.938 23.371 124.156 23.2826 124.381 23.2566C124.556 23.2367 124.615 23.1682 124.624 23.0105C124.659 22.4134 124.854 21.8692 125.205 21.3701C125.689 20.6786 125.923 19.9203 125.854 19.0797C125.803 18.442 125.351 18.0009 124.695 18.0104C124.259 18.0173 123.82 18.0407 123.389 18.0988C123.085 18.1395 122.792 18.2496 122.458 18.338C122.601 18.4758 122.707 18.5719 122.805 18.6742C122.92 18.7938 123.032 18.8154 123.173 18.7071C123.388 18.5433 123.634 18.526 123.876 18.6326C124.372 18.8484 124.795 19.1647 125.153 19.5546C125.34 19.7583 125.259 19.9974 124.981 20.0373C124.71 20.0763 124.428 20.0754 124.153 20.059C123.87 20.0416 123.59 19.9758 123.307 19.9506C123.228 19.9437 123.076 19.9983 123.071 20.0382C123.059 20.124 123.118 20.2201 123.156 20.3085C123.168 20.3363 123.209 20.3519 123.233 20.377C123.361 20.5096 123.506 20.6309 123.609 20.7791C123.886 21.1768 123.962 21.5945 123.647 22.0113C123.559 22.1292 123.451 22.2366 123.338 22.3337C122.96 22.6604 122.554 22.9498 122.07 23.1179C121.868 23.1881 121.776 23.1205 121.811 22.9256C121.895 22.4481 121.988 21.9723 122.08 21.4966C122.087 21.4645 122.113 21.4359 122.13 21.4065C122.152 21.4117 122.173 21.4169 122.194 21.4221C122.095 21.9516 121.996 22.481 121.89 23.0478C121.989 23.0218 122.045 23.0131 122.096 22.9923C122.529 22.8138 122.915 22.5607 123.253 22.2505C123.416 22.1006 123.577 21.9247 123.666 21.7306C123.836 21.3632 123.68 21.0313 123.433 20.741C123.307 20.5928 123.153 20.4671 123.019 20.3259C122.925 20.2262 122.877 20.0928 122.966 19.9862C123.028 19.9108 123.159 19.8432 123.255 19.8475C123.543 19.8623 123.829 19.9298 124.119 19.9463C124.399 19.9619 124.685 19.955 124.965 19.9264C125.138 19.9082 125.17 19.7782 125.069 19.6361C125.042 19.5988 125.017 19.5572 124.982 19.5295C124.733 19.3302 124.494 19.117 124.227 18.9411C123.886 18.7167 123.525 18.5355 123.126 18.8596C123.03 18.9368 122.91 18.909 122.816 18.8276C122.72 18.7444 122.629 18.656 122.535 18.5711C122.351 18.4038 122.251 18.4142 122.107 18.6222C122.068 18.6785 122.041 18.7435 122.006 18.8024C121.805 19.1335 121.603 19.4645 121.403 19.7955C121.379 19.7877 121.232 20.0477 121.171 20.1214Z" fill="#373737"/>
<path d="M121.567 21.8426C121.536 21.8355 121.506 21.8284 121.475 21.8214C121.514 21.5821 121.553 21.3437 121.596 21.0762C121.701 21.1574 121.768 21.2095 121.858 21.2801C121.774 21.4576 121.732 21.6757 121.567 21.8426Z" fill="#373737"/>
<path d="M122.462 20.3614C122.487 20.3311 122.551 20.3257 122.598 20.3096C122.607 20.3486 122.633 20.3924 122.622 20.4268C122.563 20.618 122.498 20.8079 122.431 20.9965C122.42 21.0268 122.385 21.0497 122.361 21.076C122.349 21.0699 122.335 21.0639 122.322 21.0571C122.387 20.8638 122.453 20.6699 122.522 20.4651C122.378 20.5231 122.407 20.6968 122.241 20.7035C122.3 20.579 122.374 20.4658 122.462 20.3614Z" fill="#373737"/>
<path d="M122.052 21.0755C121.971 21.0172 121.9 20.9382 121.859 20.8551C121.849 20.8384 121.986 20.776 122.124 20.6929C122.18 20.8051 122.251 20.8842 122.241 20.9632C122.241 21.0048 122.068 21.0838 122.052 21.0755Z" fill="#373737"/>
<path d="M122.033 19.9337C122.072 19.9087 122.203 19.9556 122.223 20.0009C122.3 20.1791 122.128 20.5744 121.949 20.6932C121.924 20.526 121.895 20.3494 121.858 20.1134C121.881 20.0869 121.945 19.9884 122.033 19.9337Z" fill="#373737"/>
<path d="M120.499 25.1508C121.449 25.5697 122.449 25.7709 123.447 25.9876C123.892 26.0843 124.331 26.2159 124.774 26.3233C124.976 26.3726 125.18 26.4065 125.385 26.4394C125.424 26.4461 125.493 26.4316 125.506 26.4036C125.577 26.241 125.636 26.0708 125.69 25.9267C125.134 25.9063 124.579 25.9121 124.029 25.8589C123.521 25.8106 123.005 25.7419 122.546 25.473C122.096 25.2089 121.795 24.7929 121.749 24.2125C121.734 24.0307 121.669 23.901 121.556 23.813C121.231 23.5586 120.896 23.3177 120.557 23.0856C120.312 22.9172 120.206 22.9782 120.098 23.2548C120.033 23.4251 119.978 23.5944 119.942 23.7656C119.956 24.0906 119.976 24.4099 120.001 24.7233C120.105 24.9313 120.285 25.056 120.499 25.1508Z" fill="#373737"/>
<path d="M130.878 11.1127C130.876 11.0326 130.879 10.9507 130.868 10.8716C130.86 10.8072 130.822 10.7465 130.821 10.6839C130.819 10.6121 130.827 10.5026 130.863 10.4778C130.912 10.4447 131.001 10.453 131.055 10.4852C131.118 10.522 131.167 10.6011 131.213 10.6692C131.281 10.7686 131.349 10.7906 131.438 10.7042C131.43 10.6756 131.426 10.6517 131.417 10.6315C131.191 10.1447 130.969 9.65521 130.735 9.17399C130.678 9.05437 130.589 8.95224 130.504 8.85655C130.452 8.79858 130.378 8.7857 130.356 8.90347C130.249 9.45278 130.248 9.98738 130.512 10.4833C130.565 10.5818 130.607 10.6885 130.67 10.8256C130.754 11.0032 130.815 11.0759 130.878 11.1127Z" fill="#373737"/>
<path d="M129.523 9.72253C129.536 10.2169 129.905 10.6863 130.288 10.7295C129.888 10.1391 129.911 9.4835 130.023 8.81348C129.646 8.89315 129.511 9.30688 129.523 9.72253Z" fill="#373737"/>
<path d="M132.087 9.19707C132.271 8.91061 132.235 8.62696 132.007 8.43066C131.684 8.45133 131.367 8.47763 131.055 8.5105C131.438 8.6711 131.78 8.90497 132.087 9.19707Z" fill="#373737"/>
<path d="M126.979 14.1753C126.907 14.0941 126.914 14.0449 127.021 13.9957C127.075 13.9707 127.107 13.9059 127.15 13.8585C127.085 13.836 127.018 13.7894 126.957 13.7955C126.623 13.83 126.289 13.8654 125.96 13.9249C125.702 13.9716 125.636 14.1079 125.733 14.3393C125.927 14.8011 126.327 15.0135 126.814 15.1162C126.897 15.1334 126.982 15.1378 127.063 15.1585C127.34 15.2293 127.387 15.3069 127.322 15.5659C127.313 15.6013 127.318 15.6401 127.315 15.7109C127.552 15.5072 127.553 15.2603 127.319 15.1369C127.172 15.0592 126.993 15.0229 126.824 14.9962C126.365 14.922 126.029 14.7053 125.836 14.3004C125.765 14.152 125.827 14.0631 125.969 14.0363C126.255 13.9828 126.545 13.9508 126.789 13.9163C126.821 14.0363 126.819 14.152 126.876 14.2297C127.051 14.4705 127.248 14.6992 127.44 14.9289C127.468 14.9617 127.52 14.9755 127.56 14.9979C127.576 14.9832 127.592 14.9686 127.606 14.953C127.485 14.7994 127.366 14.6449 127.243 14.4921C127.158 14.385 127.07 14.2789 126.979 14.1753Z" fill="#373737"/>
<path d="M124.503 23.3755C124.486 23.3879 124.469 23.3972 124.452 23.4019C124.139 23.4773 123.821 23.5503 123.498 23.5814C123.117 23.6179 122.729 23.621 122.344 23.6203C122.052 23.6195 121.854 23.7011 121.858 23.8767C121.87 24.3553 122.103 24.9809 122.89 25.1269C123.682 25.2738 124.48 25.3492 125.288 25.2388C125.793 25.1704 126.298 25.1083 126.803 25.0368C126.943 25.0166 127.083 24.9948 127.223 24.9723C127.186 24.7711 127.152 24.5667 127.124 24.3584C127.098 24.3561 127.072 24.3538 127.046 24.353C126.265 24.3258 125.483 24.3173 124.703 24.2986C124.524 24.2947 124.344 24.2877 124.167 24.273C123.914 24.252 123.81 24.1261 123.916 23.9458C124.042 23.7345 124.222 23.5612 124.512 23.4998C124.547 23.492 124.584 23.4866 124.619 23.4819C124.524 23.4858 124.5 23.433 124.503 23.3755Z" fill="#373737"/>
<path d="M126.979 14.1753C126.907 14.0941 126.914 14.0449 127.021 13.9957C127.075 13.9707 127.107 13.9059 127.15 13.8585C127.085 13.836 127.018 13.7894 126.957 13.7955C126.623 13.83 126.289 13.8654 125.96 13.9249C125.702 13.9716 125.636 14.1079 125.733 14.3393C125.927 14.8011 126.327 15.0135 126.814 15.1162C126.897 15.1334 126.982 15.1378 127.063 15.1585C127.34 15.2293 127.387 15.3069 127.322 15.5659C127.313 15.6013 127.318 15.6401 127.315 15.7109C127.552 15.5072 127.553 15.2603 127.319 15.1369C127.172 15.0592 126.993 15.0229 126.824 14.9962C126.365 14.922 126.029 14.7053 125.836 14.3004C125.765 14.152 125.827 14.0631 125.969 14.0363C126.255 13.9828 126.545 13.9508 126.789 13.9163C126.821 14.0363 126.819 14.152 126.876 14.2297C127.051 14.4705 127.248 14.6992 127.44 14.9289C127.468 14.9617 127.52 14.9755 127.56 14.9979C127.576 14.9832 127.592 14.9686 127.606 14.953C127.485 14.7994 127.366 14.6449 127.243 14.4921C127.158 14.385 127.07 14.2789 126.979 14.1753Z" fill="#373737"/>
<path d="M128.064 15.2525C128.261 15.5208 128.469 15.7865 128.616 16.0822C128.778 15.8666 128.951 15.6678 129.139 15.4847C129.102 15.4478 129.063 15.4117 129.028 15.373C128.8 15.1284 128.581 14.8574 128.565 14.5019C128.538 13.9106 128.264 13.4549 127.823 13.0765C127.744 13.0088 127.702 13.0158 127.621 13.0809C127.526 13.1575 127.404 13.2419 127.29 13.2481C126.901 13.2692 126.509 13.2789 126.122 13.2525C125.339 13.1997 124.47 13.6863 124.167 14.4131C124.061 14.6673 124 14.941 123.935 15.2102C123.785 15.8182 123.48 16.3576 123.19 16.9049C123.121 17.036 123.068 17.175 123.008 17.3105C123.024 17.3193 123.041 17.329 123.057 17.3378C123.29 16.9788 123.538 16.6268 123.753 16.2573C123.927 15.9581 124.076 15.644 124.208 15.3237C124.357 14.9612 124.463 14.5811 124.609 14.2168C124.664 14.0805 124.73 13.9238 124.939 13.8535C124.927 13.9476 124.919 14.0065 124.912 14.0664C124.901 14.1517 124.868 14.2415 124.884 14.3215C124.981 14.8248 125.318 15.1249 125.77 15.3264C125.865 15.3686 125.947 15.4363 126.036 15.4927C125.947 15.5437 125.864 15.6114 125.769 15.6414C125.089 15.8569 124.53 16.2458 124.086 16.7922C123.995 16.904 123.89 17.0377 123.939 17.2234C123.969 17.2084 123.993 17.2031 124.007 17.1882C124.09 17.0931 124.169 16.9946 124.253 16.9005C124.478 16.6506 124.743 16.6462 124.948 16.911C125.122 17.1371 125.268 17.3861 125.428 17.6272C125.461 17.5656 125.508 17.475 125.559 17.3879C125.907 16.801 126.387 16.3294 126.905 15.8912C126.955 15.849 127.03 15.8358 127.092 15.8094C127.096 15.8156 127.099 15.8217 127.102 15.827C127.297 15.6563 127.504 15.5754 127.604 15.5428C127.595 15.5305 127.586 15.5191 127.577 15.5067C127.548 15.4689 127.565 15.3968 127.561 15.3404C127.577 15.336 127.591 15.3325 127.606 15.3281C127.64 15.3774 127.672 15.4284 127.707 15.4768C127.93 15.7795 128.154 16.0813 128.378 16.384C128.373 16.3268 128.386 16.2608 128.361 16.215C128.175 15.8657 127.978 15.5217 127.791 15.1724C127.762 15.1178 127.765 15.0466 127.753 14.9832C127.774 14.9735 127.796 14.9647 127.818 14.9551C127.898 15.0554 127.988 15.1495 128.064 15.2525Z" fill="#373737"/>
<path d="M127.559 14.9979C127.518 14.9755 127.465 14.9608 127.438 14.9289C127.246 14.6992 127.05 14.4714 126.875 14.2297C126.818 14.152 126.82 14.0363 126.788 13.9163C126.544 13.9508 126.254 13.9828 125.969 14.0363C125.827 14.0631 125.765 14.152 125.835 14.3004C126.029 14.7061 126.364 14.922 126.823 14.9962C126.992 15.0238 127.171 15.0592 127.317 15.1369C127.55 15.2612 127.55 15.5081 127.314 15.7109C127.316 15.6401 127.313 15.6022 127.321 15.5659C127.385 15.3069 127.338 15.2293 127.062 15.1585C126.981 15.1378 126.895 15.1343 126.813 15.1162C126.327 15.0135 125.926 14.8011 125.733 14.3393C125.636 14.1079 125.702 13.9716 125.959 13.9249C126.288 13.8654 126.622 13.83 126.956 13.7955C127.016 13.7894 127.084 13.836 127.148 13.8585C127.106 13.9051 127.073 13.9707 127.02 13.9957C126.912 14.0449 126.905 14.0941 126.978 14.1753C127.069 14.2789 127.157 14.385 127.243 14.4921C127.366 14.6449 127.485 14.7994 127.606 14.953C127.59 14.9677 127.574 14.9824 127.559 14.9979Z" fill="#373737"/>
<path d="M127.24 15.6871C127.234 15.6952 127.229 15.7033 127.223 15.7113L127.606 15.3443C127.604 15.3382 127.601 15.3332 127.598 15.3281C127.523 15.3654 127.371 15.4582 127.227 15.6538C127.232 15.6649 127.236 15.676 127.24 15.6871Z" fill="#373737"/>
<path d="M103.556 21.4586C102.254 21.4586 101.238 21.0976 100.505 20.3757C99.772 19.6538 99.4056 18.6718 99.4056 17.4288C99.4056 16.8626 99.4881 16.3186 99.6531 15.7984C99.8181 15.2773 100.07 14.8208 100.409 14.428C100.748 14.0352 101.174 13.7247 101.687 13.4964C102.2 13.2682 102.795 13.154 103.474 13.154C104.811 13.154 105.847 13.5194 106.58 14.2502C106.823 14.4926 107.025 14.7677 107.187 15.0738L109.292 9.06192L107.734 8.90487C107.129 8.74032 106.475 8.61292 105.769 8.52092C105.064 8.42979 104.326 8.38379 103.557 8.38379C102.054 8.38379 100.68 8.58904 99.4339 9.00042C98.1875 9.4118 97.1158 10.0054 96.2179 10.7822C95.3201 11.5589 94.6193 12.5091 94.1153 13.6326C93.6114 14.7562 93.3595 16.031 93.3595 17.4563C93.3595 18.7904 93.552 19.9051 93.937 20.8004C94.322 21.6957 94.8348 22.4636 95.4763 23.1032C94.6884 23.8163 94.047 24.6152 93.552 25.5016C93.0569 26.3881 92.8094 27.3701 92.8094 28.4485C92.8094 29.3076 93.025 30.0976 93.4553 30.8195C93.8856 31.5414 94.495 32.112 95.2829 32.5322C94.7151 32.9525 94.2112 33.3913 93.7711 33.8478C93.3311 34.3052 92.9602 34.7847 92.6577 35.2872C92.3552 35.7897 92.1263 36.3152 91.9701 36.8637C91.814 37.4122 91.7368 37.9872 91.7368 38.5906C91.7368 39.5593 91.9524 40.4502 92.3827 41.2632C92.813 42.0763 93.5005 42.7752 94.4445 43.3599C95.109 43.7713 95.8511 44.1199 96.7791 44.4047L98.7677 38.9259C98.5335 38.5773 98.4164 38.173 98.4164 37.7139C98.4164 37.421 98.4439 37.1379 98.4989 36.8646C98.5539 36.5903 98.6683 36.3072 98.8422 36.0153C99.0161 35.7224 99.245 35.4163 99.5298 35.0969C99.7578 34.8404 100.049 34.575 100.401 34.2998L102.797 29.2779L101.509 29.1891C100.666 29.1528 100.011 28.9653 99.5442 28.6273C99.0767 28.2893 98.8289 27.7753 98.8289 27.2445C98.8289 26.8428 98.9158 26.4765 99.0897 26.1483C99.2636 25.8192 99.4606 25.5361 99.6806 25.299C100.066 25.5547 100.615 25.7785 101.33 25.9705C101.94 26.1342 102.578 26.228 103.243 26.2518L105.389 21.261C104.959 21.3884 104.092 21.4586 103.556 21.4586Z" fill="#373737"/>
<path d="M25.5675 24.6935C25.5675 25.9471 25.394 27.0828 25.0487 28.1007C24.7026 29.1185 24.2253 30.0176 23.6158 30.7989C23.0064 31.5801 22.2789 32.2531 21.4326 32.8161C20.5871 33.38 19.6545 33.8428 18.6355 34.2061C17.6165 34.5694 16.5298 34.8377 15.3752 35.0102C14.2197 35.1835 12.933 35.2688 11.5142 35.2688H2.12864C1.52801 35.2688 1.02337 35.092 0.613845 34.7374C0.204321 34.3829 0 33.8067 0 33.007V2.26181C0 1.46213 0.204321 0.885018 0.613845 0.531362C1.02337 0.176826 1.52801 0 2.12864 0H10.9964C13.1611 0 14.9938 0.182105 16.4945 0.545438C17.9952 0.908771 19.259 1.45861 20.2877 2.19407C21.3155 2.93042 22.1019 3.86118 22.648 4.98813C23.194 6.11508 23.4661 7.44085 23.4661 8.9672C23.4661 9.82143 23.3569 10.6255 23.1385 11.3794C22.9201 12.1334 22.6022 12.8196 22.1838 13.4372C21.7655 14.0547 21.2512 14.6002 20.6417 15.0726C20.0323 15.545 19.3365 15.9268 18.5545 16.2171C19.555 16.3993 20.4779 16.7168 21.3243 17.1708C22.1697 17.6256 22.9069 18.2115 23.5348 18.9285C24.1628 19.6464 24.6577 20.4865 25.0223 21.4498C25.3852 22.4132 25.5675 23.4944 25.5675 24.6935ZM16.2893 9.83902C16.2893 9.12995 16.1801 8.49478 15.9617 7.93086C15.7433 7.36783 15.4157 6.89981 14.9797 6.5268C14.5429 6.15467 13.9925 5.86875 13.3293 5.66817C12.6653 5.46847 11.7784 5.36818 10.6687 5.36818H7.0394V14.5263H11.0501C12.0867 14.5263 12.9145 14.404 13.5328 14.1586C14.151 13.9131 14.6653 13.577 15.074 13.1504C15.4835 12.7237 15.7873 12.224 15.9881 11.6513C16.1898 11.0786 16.2893 10.4751 16.2893 9.83902ZM18.1177 24.9389C18.1177 24.1216 17.9812 23.3897 17.7081 22.7448C17.4351 22.1 17.0353 21.5589 16.5077 21.1235C15.9802 20.6871 15.3074 20.351 14.4883 20.1153C13.6702 19.8795 12.6054 19.7607 11.2958 19.7607H7.0394V29.7915H12.224C13.2245 29.7915 14.0656 29.6869 14.7481 29.4784C15.4307 29.2699 16.0216 28.9602 16.5218 28.552C17.0221 28.1429 17.4131 27.6344 17.6949 27.0256C17.9767 26.4151 18.1177 25.7201 18.1177 24.9389Z" fill="#F95437"/>
<path d="M146 17.8236C145.893 17.2869 145.766 16.7714 145.615 16.2778C145.1 14.5879 144.314 13.1644 143.257 12.0067C142.199 10.8498 140.861 9.97274 139.243 9.3754C137.624 8.77894 135.712 8.47982 133.506 8.47982C133.08 8.47982 132.664 8.49214 132.258 8.51589C132.379 8.65049 132.42 8.8282 132.388 9.02438C132.368 9.14227 132.298 9.25224 132.251 9.36572C132.15 9.3059 132.049 9.24696 131.948 9.18714C131.943 9.1845 131.94 9.17834 131.936 9.17394C131.67 8.92146 131.367 8.74111 131.027 8.63026C130.856 8.65225 130.689 8.67689 130.523 8.70328C130.523 8.7068 130.522 8.70944 130.522 8.71384C130.758 8.79565 130.898 8.97072 131.014 9.1757C131.278 9.64108 131.55 10.1021 131.822 10.5683C132.177 10.483 132.291 10.154 132.25 9.89005C132.235 9.79416 132.226 9.69563 132.224 9.59886C132.221 9.47217 132.239 9.35429 132.413 9.39564C132.413 9.32174 132.399 9.25576 132.416 9.19857C132.433 9.14403 132.48 9.09828 132.514 9.04902C132.556 9.08685 132.618 9.11676 132.637 9.16339C132.688 9.29007 132.72 9.42379 132.76 9.55399C132.819 9.74401 132.819 9.9226 132.701 10.0994C132.497 10.4056 132.297 10.7144 132.114 11.0328C131.874 11.4472 131.499 11.6698 131.065 11.8158C130.661 11.9522 130.281 12.129 129.939 12.3876C129.804 12.4897 129.648 12.5803 129.488 12.6304C129.16 12.7343 128.859 12.8768 128.595 13.0958C128.572 13.1143 128.528 13.1064 128.458 13.1152C128.509 13.0131 128.538 12.9384 128.581 12.8724C128.706 12.6762 128.715 12.487 128.567 12.2979C128.529 12.2486 128.486 12.1976 128.466 12.1404C128.449 12.0929 128.448 12.0278 128.469 11.9856C128.478 11.9662 128.559 11.9777 128.608 11.983C128.73 11.9953 128.855 12.0375 128.973 12.019C129.105 11.9979 129.231 11.9319 129.355 11.8721C129.799 11.6592 130.242 11.441 130.685 11.2246C130.737 11.1991 130.789 11.1718 130.841 11.1454C130.787 11.1147 130.743 11.1164 130.7 11.1243C130.48 11.1639 130.258 11.1956 130.041 11.2466C129.44 11.3865 128.849 11.5607 128.329 11.9029C128.159 12.0146 127.952 12.1193 127.927 12.3674C127.902 12.6304 127.91 12.8425 128.165 13.0466C128.564 13.365 128.769 13.8269 128.831 14.3442C128.85 14.5061 128.869 14.6873 128.954 14.8175C129.075 15.004 129.216 15.1791 129.363 15.348C129.715 15.0172 130.112 14.7436 130.555 14.528C131.327 14.1515 132.228 13.9633 133.258 13.9633C134.416 13.9633 135.377 14.1744 136.141 14.5967C136.903 15.0198 137.515 15.6075 137.975 16.3597C138.292 16.8787 138.544 17.4629 138.734 18.1086C138.862 18.0065 138.996 17.9115 139.142 17.828C139.189 17.8007 139.231 17.7488 139.297 17.7804C139.345 17.7664 139.368 17.6969 139.433 17.7206C139.59 17.6485 139.748 17.6608 139.905 17.7206C140.319 17.7813 140.713 17.9054 141.103 18.0602C141.759 18.3215 142.253 18.7983 142.762 19.2567C142.829 19.3165 142.883 19.3939 142.882 19.4933C142.959 19.6868 142.946 19.8813 142.881 20.0748C142.807 20.3238 142.727 20.5692 142.53 20.754C142.516 20.8393 142.449 20.8745 142.382 20.9106C141.93 21.3196 141.409 21.3979 140.841 21.2238C140.63 21.1595 140.423 21.0795 140.242 20.9484C140.086 20.9563 139.984 21.0504 139.906 21.1718C139.611 21.6302 139.361 22.1105 139.241 22.6463C139.238 22.875 139.233 23.1002 139.222 23.3202C139.334 23.9501 140.38 24.7621 140.38 24.7621C140.38 24.7621 140.797 24.8474 141.004 24.682C140.776 24.4876 140.6 24.2659 140.621 23.9492C140.652 23.4741 140.887 23.0914 141.178 22.7351C141.249 22.5988 141.346 22.4835 141.463 22.3841C141.537 22.2874 141.617 22.1959 141.73 22.1431C141.926 21.9346 142.171 21.7956 142.43 21.6935C142.625 21.617 142.783 21.5369 142.816 21.3082C142.826 21.2457 142.866 21.1868 142.928 21.1516C142.936 21.0346 143.057 20.9774 143.116 20.9704C143.339 20.9414 143.33 20.8015 143.334 20.6387C143.338 20.4091 143.294 20.1865 143.271 19.9604C143.169 19.5206 142.928 19.1652 142.606 18.8572C142.563 18.8159 142.479 18.7807 142.513 18.7007C142.539 18.6408 142.614 18.6558 142.669 18.6479C142.923 18.6109 143.175 18.5757 143.422 18.5054C143.581 18.4605 143.708 18.3822 143.773 18.223C144.156 17.5183 144.961 17.3828 145.597 18.0109C145.714 18.1262 145.825 18.2546 145.812 18.4394C145.808 18.5098 145.852 18.5186 145.907 18.5168C145.916 18.4631 145.925 18.4095 145.935 18.3558C145.937 18.318 145.943 18.281 145.954 18.2441C145.944 18.0963 145.95 17.9529 146 17.8236Z" fill="#F95437"/>
<path d="M52.0993 34.4251C50.7879 34.2615 49.4757 34.0988 48.1643 33.9325C47.163 33.8058 46.4778 33.2287 46.277 32.3481C46.0815 31.4921 46.5201 30.2939 47.244 29.8558C47.5012 29.7001 47.8341 29.6279 48.1388 29.6068C48.3572 29.591 48.4928 29.5391 48.5642 29.3526C48.6514 29.1256 48.7315 28.8925 48.7844 28.6558C48.927 28.0233 49.3788 27.6406 50.0226 27.7154C51.9557 27.9397 53.8862 28.1816 55.8149 28.4411C56.4455 28.5265 56.7899 28.9875 56.7872 29.6244C56.7863 29.7713 56.7661 29.9182 56.7749 30.0643C56.7969 30.4188 56.8533 30.6801 57.32 30.776C57.9876 30.9132 58.2782 31.4824 58.4368 32.1044C58.7811 33.4583 58.1356 34.6504 56.9079 34.8976C56.6384 34.9521 56.3469 34.9477 56.0712 34.916C54.7467 34.7621 53.4238 34.5905 52.0993 34.4251Z" fill="#F95437"/>
<path d="M50.1582 26.9218C50.8337 24.126 51.5004 21.3689 52.1724 18.5872C53.4379 18.7455 54.7044 18.9039 55.9876 19.064C55.9497 21.9187 55.9118 24.7656 55.8739 27.6362C53.976 27.3987 52.101 27.1646 50.1582 26.9218Z" fill="#F95437"/>
<path d="M53.2856 8.63026C53.7277 8.44199 54.1161 8.2766 54.5309 8.09978C54.2728 7.72413 54.1645 7.28426 54.3627 6.84966C54.4728 6.60862 54.6753 6.37812 54.8946 6.22593C55.3764 5.89339 56.0756 6.02447 56.4578 6.4661C56.9281 7.00978 56.8726 7.61328 56.2659 8.35314C56.9132 8.6848 57.409 9.16778 57.7542 9.80735C58.6473 11.4639 58.0757 13.7108 56.4922 14.6917C56.3398 14.7858 56.1249 14.8421 55.9488 14.8236C55.0487 14.7304 54.1504 14.616 53.2548 14.4876C53.0883 14.4638 52.899 14.3767 52.7818 14.258C51.6052 13.0703 51.4388 11.0504 52.404 9.64108C52.8655 10.1531 53.3243 10.6581 53.7779 11.1683C53.9928 11.4094 54.2491 11.5246 54.5626 11.4182C55.0161 11.2651 55.1456 10.7302 54.8118 10.3414C54.3354 9.78624 53.8387 9.24784 53.2856 8.63026Z" fill="#F95437"/>
<path d="M50.4057 16.8162C52.9914 17.1391 55.5516 17.4593 58.1109 17.7796C58.0766 18.3356 57.6195 18.713 57.0268 18.6479C56.1998 18.5581 55.3746 18.4455 54.5485 18.3417C53.4679 18.2062 52.3855 18.0769 51.3058 17.9335C50.6946 17.8535 50.3863 17.4734 50.4057 16.8162Z" fill="#F95437"/>
<path d="M57.4865 17.0379C55.394 16.7767 53.3234 16.5171 51.2521 16.2585C51.164 15.7878 51.5964 15.3163 52.1107 15.3568C52.5854 15.3937 53.0566 15.4676 53.5295 15.5265C54.5837 15.6576 55.6388 15.787 56.6921 15.9233C57.2866 16.0007 57.5666 16.3852 57.4865 17.0379Z" fill="#F95437"/>
<path d="M116.154 13.5779C116.354 13.16 116.454 12.5151 116.454 11.6424C116.454 10.6976 116.359 10.0255 116.168 9.62519C115.977 9.22579 115.727 9.02521 115.418 9.02521H109.313L107.152 15.1596C107.477 15.7746 107.641 16.5188 107.641 17.3933C107.641 17.9387 107.555 18.4613 107.382 18.9601C107.209 19.4598 106.954 19.9006 106.618 20.2824C106.281 20.6642 105.858 20.9642 105.349 21.1815C105.231 21.2316 105.11 21.2747 104.983 21.3134L103.236 26.2717C103.349 26.2761 103.461 26.2787 103.575 26.2787C105.103 26.2787 106.49 26.0834 107.736 25.6928C108.982 25.3022 110.046 24.7295 110.929 23.9755C111.811 23.2216 112.488 22.2952 112.961 21.1955C113.434 20.0967 113.671 18.8378 113.671 17.4206C113.671 16.8206 113.585 16.2444 113.412 15.6901C113.239 15.1359 112.952 14.6406 112.553 14.2042H115.418C115.708 14.2051 115.954 13.9966 116.154 13.5779Z" fill="#F95437"/>
<path d="M100.658 34.1515L105.542 34.2879C106.688 34.3249 107.589 34.5606 108.244 34.997C108.899 35.4333 109.226 36.0597 109.226 36.8779C109.226 37.3503 109.134 37.7998 108.953 38.2274C108.77 38.6541 108.461 39.0403 108.025 39.386C107.588 39.7309 107.016 40.008 106.306 40.2174C105.596 40.4259 104.723 40.5305 103.687 40.5305C102.013 40.5305 100.717 40.2939 99.7986 39.8215C99.3424 39.5866 98.9599 39.5427 98.731 39.1996L97.1044 44.4045C97.4919 44.5233 97.6471 44.6301 98.0804 44.7269C99.5441 45.0542 101.313 45.2178 103.387 45.2178C105.516 45.2178 107.375 44.9908 108.968 44.536C110.559 44.0821 111.883 43.4636 112.938 42.6824C113.993 41.9012 114.784 40.9792 115.311 39.9156C115.839 38.8529 116.102 37.7215 116.102 36.5224C116.102 35.4324 115.907 34.4603 115.515 33.6061C115.124 32.7519 114.561 32.0208 113.824 31.412C113.087 30.8033 112.177 30.3308 111.095 29.9948C110.013 29.6587 108.78 29.4634 107.398 29.4089L102.309 29.4404L101.496 33.6694C101.582 33.6034 100.566 34.2193 100.658 34.1515Z" fill="#F95437"/>
<path d="M25.6363 24.6935C25.6363 25.9471 25.4628 27.0828 25.1176 28.1007C24.7715 29.1185 24.2941 30.0176 23.6847 30.7989C23.0752 31.5801 22.3478 32.2531 21.5014 32.8161C20.656 33.38 19.7233 33.8428 18.7044 34.2061C17.6854 34.5694 16.5986 34.8377 15.444 35.0102C14.2886 35.1835 13.0019 35.2688 11.5831 35.2688H2.19749C1.59685 35.2688 1.09222 35.092 0.682692 34.7374C0.273169 34.3829 0.0688477 33.8067 0.0688477 33.007V2.26181C0.0688477 1.46213 0.273169 0.885017 0.682692 0.531362C1.09222 0.176826 1.59685 0 2.19749 0H11.0652C13.23 0 15.0627 0.182105 16.5634 0.545438C18.0641 0.908771 19.3279 1.45861 20.3565 2.19407C21.3843 2.93042 22.1708 3.86118 22.7168 4.98813C23.2628 6.11508 23.535 7.44085 23.535 8.9672C23.535 9.82143 23.4258 10.6255 23.2073 11.3794C22.9889 12.1334 22.671 12.8196 22.2527 13.4372C21.8343 14.0547 21.32 14.6002 20.7106 15.0726C20.1011 15.545 19.4054 15.9268 18.6233 16.2171C19.6238 16.3993 20.5468 16.7168 21.3931 17.1708C22.2386 17.6256 22.9757 18.2115 23.6037 18.9285C24.2316 19.6464 24.7265 20.4865 25.0912 21.4498C25.454 22.4132 25.6363 23.4944 25.6363 24.6935ZM16.3582 9.83902C16.3582 9.12995 16.249 8.49478 16.0306 7.93086C15.8122 7.36783 15.4845 6.89981 15.0486 6.5268C14.6118 6.15467 14.0613 5.86875 13.3982 5.66817C12.7341 5.46847 11.8473 5.36818 10.7376 5.36818H7.10824V14.5263H11.1189C12.1555 14.5263 12.9834 14.404 13.6016 14.1586C14.2199 13.9131 14.7342 13.577 15.1428 13.1504C15.5523 12.7237 15.8562 12.224 16.057 11.6513C16.2587 11.0786 16.3582 10.4751 16.3582 9.83902ZM18.1865 24.9389C18.1865 24.1216 18.05 23.3897 17.777 22.7448C17.504 22.1 17.1041 21.5589 16.5766 21.1235C16.0491 20.6871 15.3762 20.351 14.5572 20.1153C13.739 19.8795 12.6742 19.7607 11.3646 19.7607H7.10824V29.7916H12.2929C13.2934 29.7916 14.1344 29.6869 14.817 29.4784C15.4995 29.2699 16.0905 28.9602 16.5907 28.552C17.0909 28.1429 17.482 27.6344 17.7638 27.0256C18.0456 26.4151 18.1865 25.7201 18.1865 24.9389Z" fill="#373737"/>
<path d="M116.16 13.6491C116.36 13.2312 116.46 12.5864 116.46 11.7137C116.46 10.7688 116.365 10.0967 116.174 9.69645C115.983 9.29704 115.733 9.09646 115.424 9.09646H109.32L107.159 15.2309C107.483 15.8458 107.647 16.5901 107.647 17.4646C107.647 18.01 107.561 18.5326 107.388 19.0314C107.215 19.5311 106.96 19.9718 106.624 20.3536C106.287 20.7354 105.864 21.0354 105.355 21.2527C105.238 21.3029 105.116 21.346 104.989 21.3847L103.285 26.3446C103.398 26.349 103.467 26.3499 103.581 26.3499C105.109 26.3499 106.496 26.1546 107.742 25.764C108.989 25.3734 110.052 24.8007 110.935 24.0468C111.817 23.2928 112.495 22.3665 112.968 21.2668C113.44 20.168 113.677 18.9091 113.677 17.4918C113.677 16.8918 113.591 16.3156 113.418 15.7614C113.245 15.2071 112.959 14.7118 112.559 14.2755H115.424C115.714 14.2764 115.96 14.0679 116.16 13.6491Z" fill="#373737"/>
<path d="M100.691 34.1807L105.576 34.317C106.721 34.354 107.622 34.5897 108.277 35.0261C108.932 35.4625 109.259 36.0888 109.259 36.907C109.259 37.3794 109.167 37.829 108.986 38.2565C108.803 38.6832 108.494 39.0694 108.058 39.4151C107.621 39.76 107.049 40.0371 106.339 40.2465C105.629 40.455 104.757 40.5597 103.72 40.5597C102.046 40.5597 100.75 40.323 99.8317 39.8506C99.3755 39.6157 98.9624 39.2465 98.7334 38.9034L97.5948 41.6685L96.7793 44.4045C97.1668 44.5233 97.6801 44.6593 98.1134 44.756C99.5772 45.0833 101.346 45.2469 103.421 45.2469C105.549 45.2469 107.408 45.02 109.001 44.5651C110.592 44.1112 111.916 43.4927 112.971 42.7115C114.026 41.9303 114.817 41.0083 115.344 39.9447C115.872 38.882 116.135 37.7507 116.135 36.5516C116.135 35.4616 115.94 34.4895 115.549 33.6352C115.158 32.781 114.594 32.0499 113.857 31.4412C113.12 30.8324 112.21 30.36 111.128 30.0239C110.046 29.6878 108.813 29.4925 107.431 29.438L102.147 29.2777L99.9005 34.6705C99.986 34.6045 100.599 34.2484 100.691 34.1807Z" fill="#373737"/>
<path d="M109.629 9.10889L111.256 9.59685L108.49 16.103L107.352 15.615L106.539 14.1512L108.816 9.10889H109.629Z" fill="#373737"/>
<path d="M105.237 21.3076L104.424 21.4703L102.472 26.1872L103.448 26.3499L105.237 21.3076Z" fill="#373737"/>
</svg>
